<?xml version="1.0" encoding="utf-8" standalone="no"?>
<!DOCTYPE svg PUBLIC "-//W3C//DTD SVG 1.1//EN"
  "http://www.w3.org/Graphics/SVG/1.1/DTD/svg11.dtd">
<svg xmlns:xlink="http://www.w3.org/1999/xlink" width="864pt" height="432pt" viewBox="0 0 864 432" xmlns="http://www.w3.org/2000/svg" version="1.1">
 <metadata>
  <rdf:RDF xmlns:dc="http://purl.org/dc/elements/1.1/" xmlns:cc="http://creativecommons.org/ns#" xmlns:rdf="http://www.w3.org/1999/02/22-rdf-syntax-ns#">
   <cc:Work>
    <dc:type rdf:resource="http://purl.org/dc/dcmitype/StillImage"/>
    <dc:date>2026-02-23T16:37:27.090902</dc:date>
    <dc:format>image/svg+xml</dc:format>
    <dc:creator>
     <cc:Agent>
      <dc:title>Matplotlib v3.10.8, https://matplotlib.org/</dc:title>
     </cc:Agent>
    </dc:creator>
   </cc:Work>
  </rdf:RDF>
 </metadata>
 <defs>
  <style type="text/css">*{stroke-linejoin: round; stroke-linecap: butt}</style>
 </defs>
 <g id="figure_1">
  <g id="patch_1">
   <path d="M 0 432 
L 864 432 
L 864 0 
L 0 0 
z
" style="fill: #ffffff"/>
  </g>
  <g id="axes_1">
   <g id="patch_2">
    <path d="M 53.67147 390.04 
L 853.2 390.04 
L 853.2 27.6 
L 53.67147 27.6 
z
" style="fill: #ffffff"/>
   </g>
   <g id="matplotlib.axis_1">
    <g id="xtick_1">
     <g id="line2d_1">
      <defs>
       <path id="mbca80d00e7" d="M 0 0 
L 0 3.5 
" style="stroke: #000000; stroke-width: 0.8"/>
      </defs>
      <g>
       <use xlink:href="#mbca80d00e7" x="825.630051" y="390.04" style="stroke: #000000; stroke-width: 0.8"/>
      </g>
     </g>
     <g id="text_1">
      <!-- 0 -->
      <g transform="translate(822.448801 404.638438) scale(0.1 -0.1)">
       <defs>
        <path id="DejaVuSans-30" d="M 2034 4250 
Q 1547 4250 1301 3770 
Q 1056 3291 1056 2328 
Q 1056 1369 1301 889 
Q 1547 409 2034 409 
Q 2525 409 2770 889 
Q 3016 1369 3016 2328 
Q 3016 3291 2770 3770 
Q 2525 4250 2034 4250 
z
M 2034 4750 
Q 2819 4750 3233 4129 
Q 3647 3509 3647 2328 
Q 3647 1150 3233 529 
Q 2819 -91 2034 -91 
Q 1250 -91 836 529 
Q 422 1150 422 2328 
Q 422 3509 836 4129 
Q 1250 4750 2034 4750 
z
" transform="scale(0.015625)"/>
       </defs>
       <use xlink:href="#DejaVuSans-30"/>
      </g>
     </g>
    </g>
    <g id="xtick_2">
     <g id="line2d_2">
      <g>
       <use xlink:href="#mbca80d00e7" x="715.350253" y="390.04" style="stroke: #000000; stroke-width: 0.8"/>
      </g>
     </g>
     <g id="text_2">
      <!-- 2 -->
      <g transform="translate(712.169003 404.638438) scale(0.1 -0.1)">
       <defs>
        <path id="DejaVuSans-32" d="M 1228 531 
L 3431 531 
L 3431 0 
L 469 0 
L 469 531 
Q 828 903 1448 1529 
Q 2069 2156 2228 2338 
Q 2531 2678 2651 2914 
Q 2772 3150 2772 3378 
Q 2772 3750 2511 3984 
Q 2250 4219 1831 4219 
Q 1534 4219 1204 4116 
Q 875 4013 500 3803 
L 500 4441 
Q 881 4594 1212 4672 
Q 1544 4750 1819 4750 
Q 2544 4750 2975 4387 
Q 3406 4025 3406 3419 
Q 3406 3131 3298 2873 
Q 3191 2616 2906 2266 
Q 2828 2175 2409 1742 
Q 1991 1309 1228 531 
z
" transform="scale(0.015625)"/>
       </defs>
       <use xlink:href="#DejaVuSans-32"/>
      </g>
     </g>
    </g>
    <g id="xtick_3">
     <g id="line2d_3">
      <g>
       <use xlink:href="#mbca80d00e7" x="605.070456" y="390.04" style="stroke: #000000; stroke-width: 0.8"/>
      </g>
     </g>
     <g id="text_3">
      <!-- 4 -->
      <g transform="translate(601.889206 404.638438) scale(0.1 -0.1)">
       <defs>
        <path id="DejaVuSans-34" d="M 2419 4116 
L 825 1625 
L 2419 1625 
L 2419 4116 
z
M 2253 4666 
L 3047 4666 
L 3047 1625 
L 3713 1625 
L 3713 1100 
L 3047 1100 
L 3047 0 
L 2419 0 
L 2419 1100 
L 313 1100 
L 313 1709 
L 2253 4666 
z
" transform="scale(0.015625)"/>
       </defs>
       <use xlink:href="#DejaVuSans-34"/>
      </g>
     </g>
    </g>
    <g id="xtick_4">
     <g id="line2d_4">
      <g>
       <use xlink:href="#mbca80d00e7" x="494.790659" y="390.04" style="stroke: #000000; stroke-width: 0.8"/>
      </g>
     </g>
     <g id="text_4">
      <!-- 6 -->
      <g transform="translate(491.609409 404.638438) scale(0.1 -0.1)">
       <defs>
        <path id="DejaVuSans-36" d="M 2113 2584 
Q 1688 2584 1439 2293 
Q 1191 2003 1191 1497 
Q 1191 994 1439 701 
Q 1688 409 2113 409 
Q 2538 409 2786 701 
Q 3034 994 3034 1497 
Q 3034 2003 2786 2293 
Q 2538 2584 2113 2584 
z
M 3366 4563 
L 3366 3988 
Q 3128 4100 2886 4159 
Q 2644 4219 2406 4219 
Q 1781 4219 1451 3797 
Q 1122 3375 1075 2522 
Q 1259 2794 1537 2939 
Q 1816 3084 2150 3084 
Q 2853 3084 3261 2657 
Q 3669 2231 3669 1497 
Q 3669 778 3244 343 
Q 2819 -91 2113 -91 
Q 1303 -91 875 529 
Q 447 1150 447 2328 
Q 447 3434 972 4092 
Q 1497 4750 2381 4750 
Q 2619 4750 2861 4703 
Q 3103 4656 3366 4563 
z
" transform="scale(0.015625)"/>
       </defs>
       <use xlink:href="#DejaVuSans-36"/>
      </g>
     </g>
    </g>
    <g id="xtick_5">
     <g id="line2d_5">
      <g>
       <use xlink:href="#mbca80d00e7" x="384.510862" y="390.04" style="stroke: #000000; stroke-width: 0.8"/>
      </g>
     </g>
     <g id="text_5">
      <!-- 8 -->
      <g transform="translate(381.329612 404.638438) scale(0.1 -0.1)">
       <defs>
        <path id="DejaVuSans-38" d="M 2034 2216 
Q 1584 2216 1326 1975 
Q 1069 1734 1069 1313 
Q 1069 891 1326 650 
Q 1584 409 2034 409 
Q 2484 409 2743 651 
Q 3003 894 3003 1313 
Q 3003 1734 2745 1975 
Q 2488 2216 2034 2216 
z
M 1403 2484 
Q 997 2584 770 2862 
Q 544 3141 544 3541 
Q 544 4100 942 4425 
Q 1341 4750 2034 4750 
Q 2731 4750 3128 4425 
Q 3525 4100 3525 3541 
Q 3525 3141 3298 2862 
Q 3072 2584 2669 2484 
Q 3125 2378 3379 2068 
Q 3634 1759 3634 1313 
Q 3634 634 3220 271 
Q 2806 -91 2034 -91 
Q 1263 -91 848 271 
Q 434 634 434 1313 
Q 434 1759 690 2068 
Q 947 2378 1403 2484 
z
M 1172 3481 
Q 1172 3119 1398 2916 
Q 1625 2713 2034 2713 
Q 2441 2713 2670 2916 
Q 2900 3119 2900 3481 
Q 2900 3844 2670 4047 
Q 2441 4250 2034 4250 
Q 1625 4250 1398 4047 
Q 1172 3844 1172 3481 
z
" transform="scale(0.015625)"/>
       </defs>
       <use xlink:href="#DejaVuSans-38"/>
      </g>
     </g>
    </g>
    <g id="xtick_6">
     <g id="line2d_6">
      <g>
       <use xlink:href="#mbca80d00e7" x="274.231064" y="390.04" style="stroke: #000000; stroke-width: 0.8"/>
      </g>
     </g>
     <g id="text_6">
      <!-- 10 -->
      <g transform="translate(267.868564 404.638438) scale(0.1 -0.1)">
       <defs>
        <path id="DejaVuSans-31" d="M 794 531 
L 1825 531 
L 1825 4091 
L 703 3866 
L 703 4441 
L 1819 4666 
L 2450 4666 
L 2450 531 
L 3481 531 
L 3481 0 
L 794 0 
L 794 531 
z
" transform="scale(0.015625)"/>
       </defs>
       <use xlink:href="#DejaVuSans-31"/>
       <use xlink:href="#DejaVuSans-30" transform="translate(63.623047 0)"/>
      </g>
     </g>
    </g>
    <g id="xtick_7">
     <g id="line2d_7">
      <g>
       <use xlink:href="#mbca80d00e7" x="163.951267" y="390.04" style="stroke: #000000; stroke-width: 0.8"/>
      </g>
     </g>
     <g id="text_7">
      <!-- 12 -->
      <g transform="translate(157.588767 404.638438) scale(0.1 -0.1)">
       <use xlink:href="#DejaVuSans-31"/>
       <use xlink:href="#DejaVuSans-32" transform="translate(63.623047 0)"/>
      </g>
     </g>
    </g>
    <g id="xtick_8">
     <g id="line2d_8">
      <g>
       <use xlink:href="#mbca80d00e7" x="53.67147" y="390.04" style="stroke: #000000; stroke-width: 0.8"/>
      </g>
     </g>
     <g id="text_8">
      <!-- 14 -->
      <g transform="translate(47.30897 404.638438) scale(0.1 -0.1)">
       <use xlink:href="#DejaVuSans-31"/>
       <use xlink:href="#DejaVuSans-34" transform="translate(63.623047 0)"/>
      </g>
     </g>
    </g>
    <g id="xtick_9">
     <g id="line2d_9">
      <defs>
       <path id="md483e8672f" d="M 0 0 
L 0 2 
" style="stroke: #000000; stroke-width: 0.6"/>
      </defs>
      <g>
       <use xlink:href="#md483e8672f" x="853.2" y="390.04" style="stroke: #000000; stroke-width: 0.6"/>
      </g>
     </g>
    </g>
    <g id="xtick_10">
     <g id="line2d_10">
      <g>
       <use xlink:href="#md483e8672f" x="798.060101" y="390.04" style="stroke: #000000; stroke-width: 0.6"/>
      </g>
     </g>
    </g>
    <g id="xtick_11">
     <g id="line2d_11">
      <g>
       <use xlink:href="#md483e8672f" x="770.490152" y="390.04" style="stroke: #000000; stroke-width: 0.6"/>
      </g>
     </g>
    </g>
    <g id="xtick_12">
     <g id="line2d_12">
      <g>
       <use xlink:href="#md483e8672f" x="742.920203" y="390.04" style="stroke: #000000; stroke-width: 0.6"/>
      </g>
     </g>
    </g>
    <g id="xtick_13">
     <g id="line2d_13">
      <g>
       <use xlink:href="#md483e8672f" x="687.780304" y="390.04" style="stroke: #000000; stroke-width: 0.6"/>
      </g>
     </g>
    </g>
    <g id="xtick_14">
     <g id="line2d_14">
      <g>
       <use xlink:href="#md483e8672f" x="660.210355" y="390.04" style="stroke: #000000; stroke-width: 0.6"/>
      </g>
     </g>
    </g>
    <g id="xtick_15">
     <g id="line2d_15">
      <g>
       <use xlink:href="#md483e8672f" x="632.640405" y="390.04" style="stroke: #000000; stroke-width: 0.6"/>
      </g>
     </g>
    </g>
    <g id="xtick_16">
     <g id="line2d_16">
      <g>
       <use xlink:href="#md483e8672f" x="577.500507" y="390.04" style="stroke: #000000; stroke-width: 0.6"/>
      </g>
     </g>
    </g>
    <g id="xtick_17">
     <g id="line2d_17">
      <g>
       <use xlink:href="#md483e8672f" x="549.930557" y="390.04" style="stroke: #000000; stroke-width: 0.6"/>
      </g>
     </g>
    </g>
    <g id="xtick_18">
     <g id="line2d_18">
      <g>
       <use xlink:href="#md483e8672f" x="522.360608" y="390.04" style="stroke: #000000; stroke-width: 0.6"/>
      </g>
     </g>
    </g>
    <g id="xtick_19">
     <g id="line2d_19">
      <g>
       <use xlink:href="#md483e8672f" x="467.22071" y="390.04" style="stroke: #000000; stroke-width: 0.6"/>
      </g>
     </g>
    </g>
    <g id="xtick_20">
     <g id="line2d_20">
      <g>
       <use xlink:href="#md483e8672f" x="439.65076" y="390.04" style="stroke: #000000; stroke-width: 0.6"/>
      </g>
     </g>
    </g>
    <g id="xtick_21">
     <g id="line2d_21">
      <g>
       <use xlink:href="#md483e8672f" x="412.080811" y="390.04" style="stroke: #000000; stroke-width: 0.6"/>
      </g>
     </g>
    </g>
    <g id="xtick_22">
     <g id="line2d_22">
      <g>
       <use xlink:href="#md483e8672f" x="356.940912" y="390.04" style="stroke: #000000; stroke-width: 0.6"/>
      </g>
     </g>
    </g>
    <g id="xtick_23">
     <g id="line2d_23">
      <g>
       <use xlink:href="#md483e8672f" x="329.370963" y="390.04" style="stroke: #000000; stroke-width: 0.6"/>
      </g>
     </g>
    </g>
    <g id="xtick_24">
     <g id="line2d_24">
      <g>
       <use xlink:href="#md483e8672f" x="301.801014" y="390.04" style="stroke: #000000; stroke-width: 0.6"/>
      </g>
     </g>
    </g>
    <g id="xtick_25">
     <g id="line2d_25">
      <g>
       <use xlink:href="#md483e8672f" x="246.661115" y="390.04" style="stroke: #000000; stroke-width: 0.6"/>
      </g>
     </g>
    </g>
    <g id="xtick_26">
     <g id="line2d_26">
      <g>
       <use xlink:href="#md483e8672f" x="219.091166" y="390.04" style="stroke: #000000; stroke-width: 0.6"/>
      </g>
     </g>
    </g>
    <g id="xtick_27">
     <g id="line2d_27">
      <g>
       <use xlink:href="#md483e8672f" x="191.521216" y="390.04" style="stroke: #000000; stroke-width: 0.6"/>
      </g>
     </g>
    </g>
    <g id="xtick_28">
     <g id="line2d_28">
      <g>
       <use xlink:href="#md483e8672f" x="136.381318" y="390.04" style="stroke: #000000; stroke-width: 0.6"/>
      </g>
     </g>
    </g>
    <g id="xtick_29">
     <g id="line2d_29">
      <g>
       <use xlink:href="#md483e8672f" x="108.811368" y="390.04" style="stroke: #000000; stroke-width: 0.6"/>
      </g>
     </g>
    </g>
    <g id="xtick_30">
     <g id="line2d_30">
      <g>
       <use xlink:href="#md483e8672f" x="81.241419" y="390.04" style="stroke: #000000; stroke-width: 0.6"/>
      </g>
     </g>
    </g>
    <g id="text_9">
     <!-- Chemical Shift (ppm) -->
     <g transform="translate(393.980266 418.316562) scale(0.1 -0.1)">
      <defs>
       <path id="DejaVuSans-Bold-43" d="M 4288 256 
Q 3956 84 3597 -3 
Q 3238 -91 2847 -91 
Q 1681 -91 1000 561 
Q 319 1213 319 2328 
Q 319 3447 1000 4098 
Q 1681 4750 2847 4750 
Q 3238 4750 3597 4662 
Q 3956 4575 4288 4403 
L 4288 3438 
Q 3953 3666 3628 3772 
Q 3303 3878 2944 3878 
Q 2300 3878 1931 3465 
Q 1563 3053 1563 2328 
Q 1563 1606 1931 1193 
Q 2300 781 2944 781 
Q 3303 781 3628 887 
Q 3953 994 4288 1222 
L 4288 256 
z
" transform="scale(0.015625)"/>
       <path id="DejaVuSans-Bold-68" d="M 4056 2131 
L 4056 0 
L 2931 0 
L 2931 347 
L 2931 1625 
Q 2931 2084 2911 2256 
Q 2891 2428 2841 2509 
Q 2775 2619 2662 2680 
Q 2550 2741 2406 2741 
Q 2056 2741 1856 2470 
Q 1656 2200 1656 1722 
L 1656 0 
L 538 0 
L 538 4863 
L 1656 4863 
L 1656 2988 
Q 1909 3294 2193 3439 
Q 2478 3584 2822 3584 
Q 3428 3584 3742 3212 
Q 4056 2841 4056 2131 
z
" transform="scale(0.015625)"/>
       <path id="DejaVuSans-Bold-65" d="M 4031 1759 
L 4031 1441 
L 1416 1441 
Q 1456 1047 1700 850 
Q 1944 653 2381 653 
Q 2734 653 3104 758 
Q 3475 863 3866 1075 
L 3866 213 
Q 3469 63 3072 -14 
Q 2675 -91 2278 -91 
Q 1328 -91 801 392 
Q 275 875 275 1747 
Q 275 2603 792 3093 
Q 1309 3584 2216 3584 
Q 3041 3584 3536 3087 
Q 4031 2591 4031 1759 
z
M 2881 2131 
Q 2881 2450 2695 2645 
Q 2509 2841 2209 2841 
Q 1884 2841 1681 2658 
Q 1478 2475 1428 2131 
L 2881 2131 
z
" transform="scale(0.015625)"/>
       <path id="DejaVuSans-Bold-6d" d="M 3781 2919 
Q 3994 3244 4286 3414 
Q 4578 3584 4928 3584 
Q 5531 3584 5847 3212 
Q 6163 2841 6163 2131 
L 6163 0 
L 5038 0 
L 5038 1825 
Q 5041 1866 5042 1909 
Q 5044 1953 5044 2034 
Q 5044 2406 4934 2573 
Q 4825 2741 4581 2741 
Q 4263 2741 4089 2478 
Q 3916 2216 3909 1719 
L 3909 0 
L 2784 0 
L 2784 1825 
Q 2784 2406 2684 2573 
Q 2584 2741 2328 2741 
Q 2006 2741 1831 2477 
Q 1656 2213 1656 1722 
L 1656 0 
L 531 0 
L 531 3500 
L 1656 3500 
L 1656 2988 
Q 1863 3284 2130 3434 
Q 2397 3584 2719 3584 
Q 3081 3584 3359 3409 
Q 3638 3234 3781 2919 
z
" transform="scale(0.015625)"/>
       <path id="DejaVuSans-Bold-69" d="M 538 3500 
L 1656 3500 
L 1656 0 
L 538 0 
L 538 3500 
z
M 538 4863 
L 1656 4863 
L 1656 3950 
L 538 3950 
L 538 4863 
z
" transform="scale(0.015625)"/>
       <path id="DejaVuSans-Bold-63" d="M 3366 3391 
L 3366 2478 
Q 3138 2634 2908 2709 
Q 2678 2784 2431 2784 
Q 1963 2784 1702 2511 
Q 1441 2238 1441 1747 
Q 1441 1256 1702 982 
Q 1963 709 2431 709 
Q 2694 709 2930 787 
Q 3166 866 3366 1019 
L 3366 103 
Q 3103 6 2833 -42 
Q 2563 -91 2291 -91 
Q 1344 -91 809 395 
Q 275 881 275 1747 
Q 275 2613 809 3098 
Q 1344 3584 2291 3584 
Q 2566 3584 2833 3536 
Q 3100 3488 3366 3391 
z
" transform="scale(0.015625)"/>
       <path id="DejaVuSans-Bold-61" d="M 2106 1575 
Q 1756 1575 1579 1456 
Q 1403 1338 1403 1106 
Q 1403 894 1545 773 
Q 1688 653 1941 653 
Q 2256 653 2472 879 
Q 2688 1106 2688 1447 
L 2688 1575 
L 2106 1575 
z
M 3816 1997 
L 3816 0 
L 2688 0 
L 2688 519 
Q 2463 200 2181 54 
Q 1900 -91 1497 -91 
Q 953 -91 614 226 
Q 275 544 275 1050 
Q 275 1666 698 1953 
Q 1122 2241 2028 2241 
L 2688 2241 
L 2688 2328 
Q 2688 2594 2478 2717 
Q 2269 2841 1825 2841 
Q 1466 2841 1156 2769 
Q 847 2697 581 2553 
L 581 3406 
Q 941 3494 1303 3539 
Q 1666 3584 2028 3584 
Q 2975 3584 3395 3211 
Q 3816 2838 3816 1997 
z
" transform="scale(0.015625)"/>
       <path id="DejaVuSans-Bold-6c" d="M 538 4863 
L 1656 4863 
L 1656 0 
L 538 0 
L 538 4863 
z
" transform="scale(0.015625)"/>
       <path id="DejaVuSans-Bold-20" transform="scale(0.015625)"/>
       <path id="DejaVuSans-Bold-53" d="M 3834 4519 
L 3834 3531 
Q 3450 3703 3084 3790 
Q 2719 3878 2394 3878 
Q 1963 3878 1756 3759 
Q 1550 3641 1550 3391 
Q 1550 3203 1689 3098 
Q 1828 2994 2194 2919 
L 2706 2816 
Q 3484 2659 3812 2340 
Q 4141 2022 4141 1434 
Q 4141 663 3683 286 
Q 3225 -91 2284 -91 
Q 1841 -91 1394 -6 
Q 947 78 500 244 
L 500 1259 
Q 947 1022 1364 901 
Q 1781 781 2169 781 
Q 2563 781 2772 912 
Q 2981 1044 2981 1288 
Q 2981 1506 2839 1625 
Q 2697 1744 2272 1838 
L 1806 1941 
Q 1106 2091 782 2419 
Q 459 2747 459 3303 
Q 459 4000 909 4375 
Q 1359 4750 2203 4750 
Q 2588 4750 2994 4692 
Q 3400 4634 3834 4519 
z
" transform="scale(0.015625)"/>
       <path id="DejaVuSans-Bold-66" d="M 2841 4863 
L 2841 4128 
L 2222 4128 
Q 1984 4128 1890 4042 
Q 1797 3956 1797 3744 
L 1797 3500 
L 2753 3500 
L 2753 2700 
L 1797 2700 
L 1797 0 
L 678 0 
L 678 2700 
L 122 2700 
L 122 3500 
L 678 3500 
L 678 3744 
Q 678 4316 997 4589 
Q 1316 4863 1984 4863 
L 2841 4863 
z
" transform="scale(0.015625)"/>
       <path id="DejaVuSans-Bold-74" d="M 1759 4494 
L 1759 3500 
L 2913 3500 
L 2913 2700 
L 1759 2700 
L 1759 1216 
Q 1759 972 1856 886 
Q 1953 800 2241 800 
L 2816 800 
L 2816 0 
L 1856 0 
Q 1194 0 917 276 
Q 641 553 641 1216 
L 641 2700 
L 84 2700 
L 84 3500 
L 641 3500 
L 641 4494 
L 1759 4494 
z
" transform="scale(0.015625)"/>
       <path id="DejaVuSans-Bold-28" d="M 2413 -844 
L 1484 -844 
Q 1006 -72 778 623 
Q 550 1319 550 2003 
Q 550 2688 779 3389 
Q 1009 4091 1484 4856 
L 2413 4856 
Q 2013 4116 1813 3408 
Q 1613 2700 1613 2009 
Q 1613 1319 1811 609 
Q 2009 -100 2413 -844 
z
" transform="scale(0.015625)"/>
       <path id="DejaVuSans-Bold-70" d="M 1656 506 
L 1656 -1331 
L 538 -1331 
L 538 3500 
L 1656 3500 
L 1656 2988 
Q 1888 3294 2169 3439 
Q 2450 3584 2816 3584 
Q 3463 3584 3878 3070 
Q 4294 2556 4294 1747 
Q 4294 938 3878 423 
Q 3463 -91 2816 -91 
Q 2450 -91 2169 54 
Q 1888 200 1656 506 
z
M 2400 2772 
Q 2041 2772 1848 2508 
Q 1656 2244 1656 1747 
Q 1656 1250 1848 986 
Q 2041 722 2400 722 
Q 2759 722 2948 984 
Q 3138 1247 3138 1747 
Q 3138 2247 2948 2509 
Q 2759 2772 2400 2772 
z
" transform="scale(0.015625)"/>
       <path id="DejaVuSans-Bold-29" d="M 513 -844 
Q 913 -100 1113 609 
Q 1313 1319 1313 2009 
Q 1313 2700 1113 3408 
Q 913 4116 513 4856 
L 1441 4856 
Q 1916 4091 2145 3389 
Q 2375 2688 2375 2003 
Q 2375 1319 2147 623 
Q 1919 -72 1441 -844 
L 513 -844 
z
" transform="scale(0.015625)"/>
      </defs>
      <use xlink:href="#DejaVuSans-Bold-43"/>
      <use xlink:href="#DejaVuSans-Bold-68" transform="translate(73.388672 0)"/>
      <use xlink:href="#DejaVuSans-Bold-65" transform="translate(144.580078 0)"/>
      <use xlink:href="#DejaVuSans-Bold-6d" transform="translate(212.402344 0)"/>
      <use xlink:href="#DejaVuSans-Bold-69" transform="translate(316.601562 0)"/>
      <use xlink:href="#DejaVuSans-Bold-63" transform="translate(350.878906 0)"/>
      <use xlink:href="#DejaVuSans-Bold-61" transform="translate(410.15625 0)"/>
      <use xlink:href="#DejaVuSans-Bold-6c" transform="translate(477.636719 0)"/>
      <use xlink:href="#DejaVuSans-Bold-20" transform="translate(511.914062 0)"/>
      <use xlink:href="#DejaVuSans-Bold-53" transform="translate(546.728516 0)"/>
      <use xlink:href="#DejaVuSans-Bold-68" transform="translate(618.75 0)"/>
      <use xlink:href="#DejaVuSans-Bold-69" transform="translate(689.941406 0)"/>
      <use xlink:href="#DejaVuSans-Bold-66" transform="translate(724.21875 0)"/>
      <use xlink:href="#DejaVuSans-Bold-74" transform="translate(767.724609 0)"/>
      <use xlink:href="#DejaVuSans-Bold-20" transform="translate(815.527344 0)"/>
      <use xlink:href="#DejaVuSans-Bold-28" transform="translate(850.341797 0)"/>
      <use xlink:href="#DejaVuSans-Bold-70" transform="translate(896.044922 0)"/>
      <use xlink:href="#DejaVuSans-Bold-70" transform="translate(967.626953 0)"/>
      <use xlink:href="#DejaVuSans-Bold-6d" transform="translate(1039.208984 0)"/>
      <use xlink:href="#DejaVuSans-Bold-29" transform="translate(1143.408203 0)"/>
     </g>
    </g>
   </g>
   <g id="matplotlib.axis_2">
    <g id="ytick_1">
     <g id="line2d_31">
      <defs>
       <path id="mf28fd4cbe6" d="M 0 0 
L -3.5 0 
" style="stroke: #000000; stroke-width: 0.8"/>
      </defs>
      <g>
       <use xlink:href="#mf28fd4cbe6" x="53.67147" y="380.501887" style="stroke: #000000; stroke-width: 0.8"/>
      </g>
     </g>
     <g id="text_10">
      <!-- $\mathdefault{−30}$ -->
      <g transform="translate(25.47147 384.301105) scale(0.1 -0.1)">
       <defs>
        <path id="DejaVuSans-2212" d="M 678 2272 
L 4684 2272 
L 4684 1741 
L 678 1741 
L 678 2272 
z
" transform="scale(0.015625)"/>
        <path id="DejaVuSans-33" d="M 2597 2516 
Q 3050 2419 3304 2112 
Q 3559 1806 3559 1356 
Q 3559 666 3084 287 
Q 2609 -91 1734 -91 
Q 1441 -91 1130 -33 
Q 819 25 488 141 
L 488 750 
Q 750 597 1062 519 
Q 1375 441 1716 441 
Q 2309 441 2620 675 
Q 2931 909 2931 1356 
Q 2931 1769 2642 2001 
Q 2353 2234 1838 2234 
L 1294 2234 
L 1294 2753 
L 1863 2753 
Q 2328 2753 2575 2939 
Q 2822 3125 2822 3475 
Q 2822 3834 2567 4026 
Q 2313 4219 1838 4219 
Q 1578 4219 1281 4162 
Q 984 4106 628 3988 
L 628 4550 
Q 988 4650 1302 4700 
Q 1616 4750 1894 4750 
Q 2613 4750 3031 4423 
Q 3450 4097 3450 3541 
Q 3450 3153 3228 2886 
Q 3006 2619 2597 2516 
z
" transform="scale(0.015625)"/>
       </defs>
       <use xlink:href="#DejaVuSans-2212" transform="translate(0 0.78125)"/>
       <use xlink:href="#DejaVuSans-33" transform="translate(83.789062 0.78125)"/>
       <use xlink:href="#DejaVuSans-30" transform="translate(147.412109 0.78125)"/>
      </g>
     </g>
    </g>
    <g id="ytick_2">
     <g id="line2d_32">
      <g>
       <use xlink:href="#mf28fd4cbe6" x="53.67147" y="328.766107" style="stroke: #000000; stroke-width: 0.8"/>
      </g>
     </g>
     <g id="text_11">
      <!-- $\mathdefault{−20}$ -->
      <g transform="translate(25.47147 332.565326) scale(0.1 -0.1)">
       <use xlink:href="#DejaVuSans-2212" transform="translate(0 0.78125)"/>
       <use xlink:href="#DejaVuSans-32" transform="translate(83.789062 0.78125)"/>
       <use xlink:href="#DejaVuSans-30" transform="translate(147.412109 0.78125)"/>
      </g>
     </g>
    </g>
    <g id="ytick_3">
     <g id="line2d_33">
      <g>
       <use xlink:href="#mf28fd4cbe6" x="53.67147" y="277.030327" style="stroke: #000000; stroke-width: 0.8"/>
      </g>
     </g>
     <g id="text_12">
      <!-- $\mathdefault{−10}$ -->
      <g transform="translate(25.47147 280.829546) scale(0.1 -0.1)">
       <use xlink:href="#DejaVuSans-2212" transform="translate(0 0.78125)"/>
       <use xlink:href="#DejaVuSans-31" transform="translate(83.789062 0.78125)"/>
       <use xlink:href="#DejaVuSans-30" transform="translate(147.412109 0.78125)"/>
      </g>
     </g>
    </g>
    <g id="ytick_4">
     <g id="line2d_34">
      <g>
       <use xlink:href="#mf28fd4cbe6" x="53.67147" y="225.294547" style="stroke: #000000; stroke-width: 0.8"/>
      </g>
     </g>
     <g id="text_13">
      <!-- $\mathdefault{0}$ -->
      <g transform="translate(40.27147 229.093766) scale(0.1 -0.1)">
       <use xlink:href="#DejaVuSans-30" transform="translate(0 0.78125)"/>
      </g>
     </g>
    </g>
    <g id="ytick_5">
     <g id="line2d_35">
      <g>
       <use xlink:href="#mf28fd4cbe6" x="53.67147" y="173.558767" style="stroke: #000000; stroke-width: 0.8"/>
      </g>
     </g>
     <g id="text_14">
      <!-- $\mathdefault{10}$ -->
      <g transform="translate(33.87147 177.357986) scale(0.1 -0.1)">
       <use xlink:href="#DejaVuSans-31" transform="translate(0 0.78125)"/>
       <use xlink:href="#DejaVuSans-30" transform="translate(63.623047 0.78125)"/>
      </g>
     </g>
    </g>
    <g id="ytick_6">
     <g id="line2d_36">
      <g>
       <use xlink:href="#mf28fd4cbe6" x="53.67147" y="121.822988" style="stroke: #000000; stroke-width: 0.8"/>
      </g>
     </g>
     <g id="text_15">
      <!-- $\mathdefault{20}$ -->
      <g transform="translate(33.87147 125.622206) scale(0.1 -0.1)">
       <use xlink:href="#DejaVuSans-32" transform="translate(0 0.78125)"/>
       <use xlink:href="#DejaVuSans-30" transform="translate(63.623047 0.78125)"/>
      </g>
     </g>
    </g>
    <g id="ytick_7">
     <g id="line2d_37">
      <g>
       <use xlink:href="#mf28fd4cbe6" x="53.67147" y="70.087208" style="stroke: #000000; stroke-width: 0.8"/>
      </g>
     </g>
     <g id="text_16">
      <!-- $\mathdefault{30}$ -->
      <g transform="translate(33.87147 73.886427) scale(0.1 -0.1)">
       <use xlink:href="#DejaVuSans-33" transform="translate(0 0.78125)"/>
       <use xlink:href="#DejaVuSans-30" transform="translate(63.623047 0.78125)"/>
      </g>
     </g>
    </g>
    <g id="ytick_8">
     <g id="line2d_38">
      <defs>
       <path id="mf321288450" d="M 0 0 
L -2 0 
" style="stroke: #000000; stroke-width: 0.6"/>
      </defs>
      <g>
       <use xlink:href="#mf321288450" x="53.67147" y="370.154731" style="stroke: #000000; stroke-width: 0.6"/>
      </g>
     </g>
    </g>
    <g id="ytick_9">
     <g id="line2d_39">
      <g>
       <use xlink:href="#mf321288450" x="53.67147" y="359.807575" style="stroke: #000000; stroke-width: 0.6"/>
      </g>
     </g>
    </g>
    <g id="ytick_10">
     <g id="line2d_40">
      <g>
       <use xlink:href="#mf321288450" x="53.67147" y="349.460419" style="stroke: #000000; stroke-width: 0.6"/>
      </g>
     </g>
    </g>
    <g id="ytick_11">
     <g id="line2d_41">
      <g>
       <use xlink:href="#mf321288450" x="53.67147" y="339.113263" style="stroke: #000000; stroke-width: 0.6"/>
      </g>
     </g>
    </g>
    <g id="ytick_12">
     <g id="line2d_42">
      <g>
       <use xlink:href="#mf321288450" x="53.67147" y="318.418951" style="stroke: #000000; stroke-width: 0.6"/>
      </g>
     </g>
    </g>
    <g id="ytick_13">
     <g id="line2d_43">
      <g>
       <use xlink:href="#mf321288450" x="53.67147" y="308.071795" style="stroke: #000000; stroke-width: 0.6"/>
      </g>
     </g>
    </g>
    <g id="ytick_14">
     <g id="line2d_44">
      <g>
       <use xlink:href="#mf321288450" x="53.67147" y="297.724639" style="stroke: #000000; stroke-width: 0.6"/>
      </g>
     </g>
    </g>
    <g id="ytick_15">
     <g id="line2d_45">
      <g>
       <use xlink:href="#mf321288450" x="53.67147" y="287.377483" style="stroke: #000000; stroke-width: 0.6"/>
      </g>
     </g>
    </g>
    <g id="ytick_16">
     <g id="line2d_46">
      <g>
       <use xlink:href="#mf321288450" x="53.67147" y="266.683171" style="stroke: #000000; stroke-width: 0.6"/>
      </g>
     </g>
    </g>
    <g id="ytick_17">
     <g id="line2d_47">
      <g>
       <use xlink:href="#mf321288450" x="53.67147" y="256.336015" style="stroke: #000000; stroke-width: 0.6"/>
      </g>
     </g>
    </g>
    <g id="ytick_18">
     <g id="line2d_48">
      <g>
       <use xlink:href="#mf321288450" x="53.67147" y="245.988859" style="stroke: #000000; stroke-width: 0.6"/>
      </g>
     </g>
    </g>
    <g id="ytick_19">
     <g id="line2d_49">
      <g>
       <use xlink:href="#mf321288450" x="53.67147" y="235.641703" style="stroke: #000000; stroke-width: 0.6"/>
      </g>
     </g>
    </g>
    <g id="ytick_20">
     <g id="line2d_50">
      <g>
       <use xlink:href="#mf321288450" x="53.67147" y="214.947391" style="stroke: #000000; stroke-width: 0.6"/>
      </g>
     </g>
    </g>
    <g id="ytick_21">
     <g id="line2d_51">
      <g>
       <use xlink:href="#mf321288450" x="53.67147" y="204.600235" style="stroke: #000000; stroke-width: 0.6"/>
      </g>
     </g>
    </g>
    <g id="ytick_22">
     <g id="line2d_52">
      <g>
       <use xlink:href="#mf321288450" x="53.67147" y="194.253079" style="stroke: #000000; stroke-width: 0.6"/>
      </g>
     </g>
    </g>
    <g id="ytick_23">
     <g id="line2d_53">
      <g>
       <use xlink:href="#mf321288450" x="53.67147" y="183.905923" style="stroke: #000000; stroke-width: 0.6"/>
      </g>
     </g>
    </g>
    <g id="ytick_24">
     <g id="line2d_54">
      <g>
       <use xlink:href="#mf321288450" x="53.67147" y="163.211612" style="stroke: #000000; stroke-width: 0.6"/>
      </g>
     </g>
    </g>
    <g id="ytick_25">
     <g id="line2d_55">
      <g>
       <use xlink:href="#mf321288450" x="53.67147" y="152.864456" style="stroke: #000000; stroke-width: 0.6"/>
      </g>
     </g>
    </g>
    <g id="ytick_26">
     <g id="line2d_56">
      <g>
       <use xlink:href="#mf321288450" x="53.67147" y="142.5173" style="stroke: #000000; stroke-width: 0.6"/>
      </g>
     </g>
    </g>
    <g id="ytick_27">
     <g id="line2d_57">
      <g>
       <use xlink:href="#mf321288450" x="53.67147" y="132.170144" style="stroke: #000000; stroke-width: 0.6"/>
      </g>
     </g>
    </g>
    <g id="ytick_28">
     <g id="line2d_58">
      <g>
       <use xlink:href="#mf321288450" x="53.67147" y="111.475832" style="stroke: #000000; stroke-width: 0.6"/>
      </g>
     </g>
    </g>
    <g id="ytick_29">
     <g id="line2d_59">
      <g>
       <use xlink:href="#mf321288450" x="53.67147" y="101.128676" style="stroke: #000000; stroke-width: 0.6"/>
      </g>
     </g>
    </g>
    <g id="ytick_30">
     <g id="line2d_60">
      <g>
       <use xlink:href="#mf321288450" x="53.67147" y="90.78152" style="stroke: #000000; stroke-width: 0.6"/>
      </g>
     </g>
    </g>
    <g id="ytick_31">
     <g id="line2d_61">
      <g>
       <use xlink:href="#mf321288450" x="53.67147" y="80.434364" style="stroke: #000000; stroke-width: 0.6"/>
      </g>
     </g>
    </g>
    <g id="ytick_32">
     <g id="line2d_62">
      <g>
       <use xlink:href="#mf321288450" x="53.67147" y="59.740052" style="stroke: #000000; stroke-width: 0.6"/>
      </g>
     </g>
    </g>
    <g id="ytick_33">
     <g id="line2d_63">
      <g>
       <use xlink:href="#mf321288450" x="53.67147" y="49.392896" style="stroke: #000000; stroke-width: 0.6"/>
      </g>
     </g>
    </g>
    <g id="ytick_34">
     <g id="line2d_64">
      <g>
       <use xlink:href="#mf321288450" x="53.67147" y="39.04574" style="stroke: #000000; stroke-width: 0.6"/>
      </g>
     </g>
    </g>
    <g id="ytick_35">
     <g id="line2d_65">
      <g>
       <use xlink:href="#mf321288450" x="53.67147" y="28.698584" style="stroke: #000000; stroke-width: 0.6"/>
      </g>
     </g>
    </g>
    <g id="text_17">
     <!-- Intensity (a.u.) -->
     <g transform="translate(19.313657 250.962187) rotate(-90) scale(0.1 -0.1)">
      <defs>
       <path id="DejaVuSans-Bold-49" d="M 588 4666 
L 1791 4666 
L 1791 0 
L 588 0 
L 588 4666 
z
" transform="scale(0.015625)"/>
       <path id="DejaVuSans-Bold-6e" d="M 4056 2131 
L 4056 0 
L 2931 0 
L 2931 347 
L 2931 1631 
Q 2931 2084 2911 2256 
Q 2891 2428 2841 2509 
Q 2775 2619 2662 2680 
Q 2550 2741 2406 2741 
Q 2056 2741 1856 2470 
Q 1656 2200 1656 1722 
L 1656 0 
L 538 0 
L 538 3500 
L 1656 3500 
L 1656 2988 
Q 1909 3294 2193 3439 
Q 2478 3584 2822 3584 
Q 3428 3584 3742 3212 
Q 4056 2841 4056 2131 
z
" transform="scale(0.015625)"/>
       <path id="DejaVuSans-Bold-73" d="M 3272 3391 
L 3272 2541 
Q 2913 2691 2578 2766 
Q 2244 2841 1947 2841 
Q 1628 2841 1473 2761 
Q 1319 2681 1319 2516 
Q 1319 2381 1436 2309 
Q 1553 2238 1856 2203 
L 2053 2175 
Q 2913 2066 3209 1816 
Q 3506 1566 3506 1031 
Q 3506 472 3093 190 
Q 2681 -91 1863 -91 
Q 1516 -91 1145 -36 
Q 775 19 384 128 
L 384 978 
Q 719 816 1070 734 
Q 1422 653 1784 653 
Q 2113 653 2278 743 
Q 2444 834 2444 1013 
Q 2444 1163 2330 1236 
Q 2216 1309 1875 1350 
L 1678 1375 
Q 931 1469 631 1722 
Q 331 1975 331 2491 
Q 331 3047 712 3315 
Q 1094 3584 1881 3584 
Q 2191 3584 2531 3537 
Q 2872 3491 3272 3391 
z
" transform="scale(0.015625)"/>
       <path id="DejaVuSans-Bold-79" d="M 78 3500 
L 1197 3500 
L 2138 1125 
L 2938 3500 
L 4056 3500 
L 2584 -331 
Q 2363 -916 2067 -1148 
Q 1772 -1381 1288 -1381 
L 641 -1381 
L 641 -647 
L 991 -647 
Q 1275 -647 1404 -556 
Q 1534 -466 1606 -231 
L 1638 -134 
L 78 3500 
z
" transform="scale(0.015625)"/>
       <path id="DejaVuSans-Bold-2e" d="M 653 1209 
L 1778 1209 
L 1778 0 
L 653 0 
L 653 1209 
z
" transform="scale(0.015625)"/>
       <path id="DejaVuSans-Bold-75" d="M 500 1363 
L 500 3500 
L 1625 3500 
L 1625 3150 
Q 1625 2866 1622 2436 
Q 1619 2006 1619 1863 
Q 1619 1441 1641 1255 
Q 1663 1069 1716 984 
Q 1784 875 1895 815 
Q 2006 756 2150 756 
Q 2500 756 2700 1025 
Q 2900 1294 2900 1772 
L 2900 3500 
L 4019 3500 
L 4019 0 
L 2900 0 
L 2900 506 
Q 2647 200 2364 54 
Q 2081 -91 1741 -91 
Q 1134 -91 817 281 
Q 500 653 500 1363 
z
" transform="scale(0.015625)"/>
      </defs>
      <use xlink:href="#DejaVuSans-Bold-49"/>
      <use xlink:href="#DejaVuSans-Bold-6e" transform="translate(37.207031 0)"/>
      <use xlink:href="#DejaVuSans-Bold-74" transform="translate(108.398438 0)"/>
      <use xlink:href="#DejaVuSans-Bold-65" transform="translate(156.201172 0)"/>
      <use xlink:href="#DejaVuSans-Bold-6e" transform="translate(224.023438 0)"/>
      <use xlink:href="#DejaVuSans-Bold-73" transform="translate(295.214844 0)"/>
      <use xlink:href="#DejaVuSans-Bold-69" transform="translate(354.736328 0)"/>
      <use xlink:href="#DejaVuSans-Bold-74" transform="translate(389.013672 0)"/>
      <use xlink:href="#DejaVuSans-Bold-79" transform="translate(436.816406 0)"/>
      <use xlink:href="#DejaVuSans-Bold-20" transform="translate(502.001953 0)"/>
      <use xlink:href="#DejaVuSans-Bold-28" transform="translate(536.816406 0)"/>
      <use xlink:href="#DejaVuSans-Bold-61" transform="translate(582.519531 0)"/>
      <use xlink:href="#DejaVuSans-Bold-2e" transform="translate(650 0)"/>
      <use xlink:href="#DejaVuSans-Bold-75" transform="translate(687.988281 0)"/>
      <use xlink:href="#DejaVuSans-Bold-2e" transform="translate(759.179688 0)"/>
      <use xlink:href="#DejaVuSans-Bold-29" transform="translate(797.167969 0)"/>
     </g>
    </g>
   </g>
   <g id="line2d_66">
    <path d="M 52.768809 224.87361 
L 67.119541 224.880407 
L 67.619049 224.866544 
L 71.412611 224.847893 
L 71.655615 224.835145 
L 72.479128 224.855031 
L 72.708632 224.850081 
L 100.38408 224.776044 
L 100.681084 224.796784 
L 103.529631 224.803348 
L 103.678133 224.800301 
L 104.150641 224.799165 
L 105.689665 224.802111 
L 106.405177 224.797209 
L 106.60768 224.795801 
L 106.985686 224.796009 
L 107.539195 224.784447 
L 107.8227 224.810032 
L 108.605713 224.781539 
L 111.602761 224.815788 
L 112.048268 224.780102 
L 112.385774 224.766893 
L 113.695295 224.7842 
L 113.897798 224.769497 
L 117.583358 224.771674 
L 117.934364 224.769552 
L 118.123367 224.77189 
L 119.594891 224.756655 
L 123.563955 224.753293 
L 123.739458 224.767791 
L 124.306467 224.773819 
L 125.035479 224.745519 
L 125.467486 224.756242 
L 127.006511 224.756563 
L 127.155013 224.743082 
L 127.560019 224.753225 
L 128.032527 224.756358 
L 128.410533 224.76343 
L 129.031543 224.765141 
L 133.689119 224.745311 
L 133.959123 224.757698 
L 134.40463 224.7661 
L 134.742136 224.753136 
L 136.105658 224.736726 
L 136.294661 224.735599 
L 136.632166 224.743699 
L 136.88867 224.729046 
L 137.104674 224.736764 
L 145.50181 224.713974 
L 145.731314 224.737629 
L 148.377356 224.726466 
L 148.903865 224.740017 
L 149.106368 224.715787 
L 149.767879 224.707357 
L 150.645393 224.724521 
L 150.847896 224.736754 
L 151.441906 224.71972 
L 152.076416 224.719513 
L 155.559473 224.731305 
L 155.761976 224.703813 
L 164.766622 224.695647 
L 164.982625 224.70396 
L 166.116644 224.691374 
L 166.332647 224.698517 
L 209.951853 224.681825 
L 210.478362 224.637109 
L 210.775366 224.641134 
L 210.99137 224.620717 
L 211.355876 224.646305 
L 211.61238 224.639404 
L 214.258423 224.624481 
L 214.663429 224.628028 
L 215.014435 224.652519 
L 215.33844 224.628313 
L 215.594944 224.630249 
L 215.972951 224.608516 
L 216.647961 224.625755 
L 216.971967 224.664863 
L 217.228471 224.63923 
L 217.957483 224.648932 
L 218.308488 224.631226 
L 219.820513 224.64353 
L 220.25252 224.642769 
L 220.482024 224.616537 
L 220.711527 224.653484 
L 220.954531 224.628225 
L 221.373038 224.645082 
L 221.967048 224.63542 
L 230.242682 224.624021 
L 230.445185 224.644035 
L 230.74219 224.60956 
L 232.726722 224.630943 
L 234.117244 224.623936 
L 234.46825 224.603028 
L 234.738254 224.642317 
L 235.11626 224.614613 
L 236.007275 224.652182 
L 236.263779 224.633159 
L 236.493283 224.620585 
L 236.776787 224.616565 
L 238.80182 224.603831 
L 239.152826 224.585798 
L 240.00334 224.609137 
L 240.786352 224.612915 
L 241.069857 224.635374 
L 248.967485 224.615733 
L 249.115987 224.587795 
L 249.345491 224.597308 
L 256.878613 224.576256 
L 257.040615 224.605242 
L 258.282635 224.610386 
L 258.660641 224.601843 
L 259.052148 224.58932 
L 259.335652 224.598614 
L 260.874677 224.587697 
L 261.266184 224.598625 
L 261.536188 224.594899 
L 261.900694 224.58208 
L 262.157198 224.572627 
L 263.075213 224.594777 
L 263.53422 224.5814 
L 263.939227 224.603206 
L 264.492736 224.584573 
L 286.160587 224.594946 
L 286.471092 224.561007 
L 299.444802 224.611855 
L 300.403317 224.587769 
L 302.077344 224.383797 
L 302.225847 223.948926 
L 302.374349 222.544535 
L 302.482351 219.486328 
L 302.603853 207.513906 
L 302.671354 201.504859 
L 302.725355 205.145815 
L 302.954858 221.203487 
L 303.184362 223.4201 
L 303.413866 223.912249 
L 303.710871 224.065858 
L 303.818872 224.120981 
L 304.26438 224.325503 
L 304.547884 224.346898 
L 304.844889 224.374462 
L 306.302913 224.454616 
L 306.73492 224.465794 
L 307.274928 224.448773 
L 308.206443 224.476522 
L 308.462948 224.46218 
L 308.962456 224.471141 
L 309.421463 224.491488 
L 311.05499 224.477259 
L 311.324994 224.481652 
L 312.216008 224.422917 
L 312.459012 224.374362 
L 312.688516 224.495188 
L 312.972021 224.506192 
L 313.228525 224.494406 
L 314.17354 224.501019 
L 314.403044 224.511475 
L 314.565046 224.498714 
L 314.79455 224.479667 
L 315.213057 224.50046 
L 320.93715 224.507425 
L 321.126153 224.525173 
L 321.504159 224.497125 
L 321.733662 224.482283 
L 322.570676 224.499203 
L 323.151185 224.529384 
L 324.339205 224.499956 
L 324.595709 224.504213 
L 324.744211 224.508711 
L 325.837729 224.520265 
L 326.188735 224.512193 
L 326.593741 224.502135 
L 326.836745 224.511076 
L 327.390254 224.514706 
L 327.822261 224.523731 
L 328.078765 224.510011 
L 328.348769 224.503573 
L 328.578273 224.482182 
L 329.185783 224.510206 
L 329.671791 224.495508 
L 330.670807 224.503446 
L 330.954312 224.487496 
L 332.533837 224.495804 
L 332.73634 224.490478 
L 336.705405 224.495348 
L 336.948409 224.505534 
L 337.393916 224.470182 
L 337.785422 224.495347 
L 343.455514 224.492732 
L 343.766019 224.479945 
L 344.049524 224.496818 
L 344.45453 224.488205 
L 345.66955 224.486952 
L 348.356093 224.482215 
L 348.572097 224.488712 
L 350.975136 224.478732 
L 351.24514 224.497233 
L 351.501644 224.501025 
L 351.86615 224.503073 
L 352.136154 224.493336 
L 352.352158 224.482119 
L 354.593194 224.473892 
L 354.876699 224.483586 
L 355.781213 224.489255 
L 357.023234 224.500782 
L 357.576743 224.517062 
L 358.03575 224.474709 
L 358.238253 224.498142 
L 358.562259 224.496 
L 363.327836 224.458226 
L 363.516839 224.456156 
L 363.786843 224.476519 
L 364.110848 224.470745 
L 364.421353 224.493445 
L 365.352868 224.460786 
L 365.582372 224.477048 
L 365.811876 224.469565 
L 367.2834 224.470943 
L 367.526404 224.473706 
L 368.295916 224.448206 
L 368.633422 224.474503 
L 369.672938 224.46291 
L 369.888942 224.462155 
L 370.712455 224.494877 
L 370.941959 224.481695 
L 371.265964 224.459833 
L 373.628502 224.486787 
L 374.033509 224.481021 
L 374.276513 224.483807 
L 374.762521 224.465409 
L 376.706552 224.463777 
L 376.909055 224.467565 
L 377.233061 224.455999 
L 378.043074 224.463085 
L 378.488581 224.478592 
L 378.988089 224.449509 
L 379.757602 224.479989 
L 380.068107 224.475587 
L 380.25711 224.457661 
L 382.201141 224.41124 
L 382.336143 224.457606 
L 383.038155 224.447644 
L 383.281159 224.445958 
L 384.050671 224.472 
L 384.860684 224.476606 
L 385.171189 224.464432 
L 385.441194 224.486161 
L 386.143205 224.494333 
L 386.386209 224.498083 
L 386.926218 224.460818 
L 387.344724 224.477871 
L 388.168238 224.51421 
L 388.546244 224.499697 
L 388.883749 224.422892 
L 389.383257 224.436436 
L 389.57226 224.465169 
L 389.936766 224.379596 
L 390.274272 224.450171 
L 390.517276 224.474233 
L 397.145883 224.411473 
L 397.321386 223.817354 
L 397.456388 222.417367 
L 397.685892 216.658851 
L 397.834394 203.168139 
L 397.901895 208.039591 
L 398.104399 217.175845 
L 398.293402 221.08576 
L 398.320402 221.089716 
L 398.347402 221.019333 
L 398.428404 220.054575 
L 398.576906 214.379258 
L 398.698408 208.508087 
L 398.779409 201.583281 
L 398.83341 205.056332 
L 399.049414 218.735834 
L 399.45442 223.269259 
L 399.764925 223.744748 
L 400.169932 223.983078 
L 400.493937 224.074495 
L 400.763942 224.111615 
L 401.222949 224.194815 
L 402.640472 224.272162 
L 402.964477 224.292561 
L 403.814991 224.313597 
L 404.030994 224.301014 
L 404.300999 224.287564 
L 405.219014 224.324257 
L 405.664521 224.329203 
L 405.948026 224.341361 
L 406.21803 224.327952 
L 406.663537 224.250943 
L 406.920041 224.24703 
L 407.230546 224.29909 
L 409.188078 224.36359 
L 409.444582 224.349024 
L 409.93059 224.384142 
L 410.187094 224.359977 
L 412.441631 224.384674 
L 412.617133 224.391319 
L 412.765636 224.39736 
L 417.031705 224.44691 
L 417.922719 224.398504 
L 418.476228 224.426107 
L 418.719232 224.375043 
L 418.840734 224.217097 
L 419.097238 223.552782 
L 419.21874 222.299719 
L 419.340242 217.34149 
L 419.434744 210.640972 
L 419.488745 213.943039 
L 419.691248 222.281015 
L 419.880251 223.206522 
L 420.028753 223.157183 
L 420.150255 222.568297 
L 420.258257 220.368396 
L 420.366259 212.95242 
L 420.42026 209.778579 
L 420.474261 213.125285 
L 420.676764 222.088252 
L 420.892767 223.403947 
L 421.203272 223.925022 
L 421.716281 224.122463 
L 423.808815 224.281887 
L 424.065319 224.278018 
L 424.551327 224.291193 
L 425.226338 224.326267 
L 425.536843 224.294782 
L 426.00935 224.329524 
L 426.306355 224.278743 
L 427.359372 224.33558 
L 427.750878 224.356394 
L 428.020883 224.333848 
L 428.236886 224.260212 
L 428.344888 224.308065 
L 428.614892 224.346451 
L 428.884897 224.331941 
L 429.154901 224.262577 
L 429.397905 224.318143 
L 430.045916 224.324528 
L 430.34292 224.306996 
L 434.095981 224.365267 
L 434.298484 224.34238 
L 435.040996 224.338362 
L 435.378502 224.342752 
L 435.662006 224.366273 
L 437.862542 224.309896 
L 438.092046 224.357509 
L 438.308049 224.359395 
L 441.980109 224.338724 
L 442.142111 224.360111 
L 443.586635 224.331925 
L 443.92414 224.348913 
L 444.437148 224.365074 
L 444.990657 224.373336 
L 449.540231 224.2911 
L 449.823736 224.271655 
L 450.12074 224.343322 
L 450.809252 224.294366 
L 451.416761 224.342093 
L 454.130305 224.389575 
L 454.467811 224.37888 
L 454.832317 224.410432 
L 457.49186 224.469053 
L 457.680863 224.277273 
L 457.856366 223.742035 
L 457.991368 222.165739 
L 458.220872 216.171286 
L 458.342374 200.718063 
L 458.369374 198.729412 
L 458.423375 202.32613 
L 458.625878 214.76471 
L 458.841882 220.789704 
L 458.855382 220.812415 
L 458.895883 220.69264 
L 458.990384 219.244076 
L 459.219888 209.501301 
L 459.32789 198.571305 
L 459.38189 203.283328 
L 459.584394 218.084336 
L 460.070402 223.272589 
L 460.367406 223.604763 
L 460.704912 223.804642 
L 460.839914 223.878836 
L 461.109918 223.960629 
L 461.460924 224.002145 
L 463.904464 224.13122 
L 464.201468 224.150508 
L 464.417472 224.209401 
L 464.552474 224.162843 
L 464.714477 224.161965 
L 464.93048 224.153312 
L 466.348003 224.227808 
L 466.820511 224.219566 
L 467.630524 224.177123 
L 467.873528 224.173973 
L 468.143532 224.094945 
L 468.319035 224.129278 
L 468.467537 224.161023 
L 468.656541 224.198141 
L 468.832043 224.224702 
L 469.196549 224.217539 
L 472.774107 224.250143 
L 472.990111 224.115657 
L 473.206114 223.498711 
L 473.314116 222.33022 
L 473.435618 217.891905 
L 473.503119 215.373295 
L 473.55712 216.659976 
L 473.638121 218.24022 
L 473.678622 217.536353 
L 473.759623 214.77814 
L 473.813624 216.32711 
L 474.029627 222.400156 
L 474.137629 222.756485 
L 474.17813 222.704942 
L 474.259131 222.329388 
L 474.367133 220.245413 
L 474.488635 215.277039 
L 474.556136 216.924881 
L 474.623637 218.111668 
L 474.664138 217.48327 
L 474.745139 214.828279 
L 474.79914 216.264127 
L 475.028644 222.61093 
L 475.285148 223.621447 
L 475.501151 223.825727 
L 476.500167 224.032618 
L 476.716171 224.053596 
L 477.202179 224.083536 
L 477.418182 224.077169 
L 478.214695 224.093661 
L 478.795205 224.111091 
L 479.240712 224.122161 
L 479.497216 224.116258 
L 480.293729 224.166649 
L 480.766237 224.166026 
L 480.941739 224.17199 
L 483.911787 224.169926 
L 485.30231 224.197628 
L 485.504813 224.207587 
L 486.314826 224.204742 
L 486.611831 224.210144 
L 487.057338 224.23992 
L 487.435344 224.212648 
L 487.610847 224.199333 
L 487.961853 224.227144 
L 488.137356 224.229053 
L 488.36686 224.214945 
L 488.609863 224.207592 
L 489.01487 224.282708 
L 489.473877 224.297359 
L 489.662881 224.324088 
L 489.824883 224.31252 
L 489.973386 224.267829 
L 490.216389 223.930634 
L 490.351392 223.25853 
L 490.486394 221.234251 
L 490.607896 214.988101 
L 490.715898 208.767364 
L 490.769898 210.363877 
L 490.8374 212.373152 
L 490.8914 211.013896 
L 490.958902 208.65304 
L 491.012902 210.259982 
L 491.296407 222.052061 
L 491.525911 223.318233 
L 491.782415 223.65587 
L 492.308923 223.925233 
L 498.856529 224.096057 
L 499.167034 224.068789 
L 499.464039 224.015537 
L 499.666542 224.009108 
L 499.950047 224.010096 
L 500.220051 224.056868 
L 507.213165 224.120784 
L 507.496669 224.13795 
L 507.672172 224.138597 
L 508.198681 224.142254 
L 508.482185 224.068764 
L 508.671188 224.093234 
L 509.170696 224.092284 
L 510.102211 224.164065 
L 510.264214 224.137647 
L 510.520718 224.112321 
L 510.844723 224.094506 
L 516.973823 224.168728 
L 517.176326 224.154921 
L 517.959339 224.112254 
L 520.159874 224.100252 
L 520.429879 224.138303 
L 522.333409 224.081898 
L 522.522412 224.066656 
L 523.453927 224.06803 
L 523.656431 224.045196 
L 524.614946 224.103021 
L 524.803949 224.106749 
L 525.397959 224.103807 
L 525.789465 224.05611 
L 526.234972 224.133319 
L 526.464476 224.079217 
L 526.653479 224.061389 
L 528.54351 224.021513 
L 528.773014 224.023263 
L 529.17802 224.074665 
L 529.704529 224.07939 
L 530.028534 224.069097 
L 530.312038 224.079493 
L 530.784546 224.078478 
L 531.02755 224.072504 
L 532.215569 224.099987 
L 532.742078 224.05999 
L 533.120084 224.127573 
L 534.780611 224.111844 
L 535.010115 224.100628 
L 551.196877 223.93686 
L 551.574883 224.004835 
L 551.777386 224.017226 
L 552.290394 224.028293 
L 552.533398 224.031204 
L 552.695401 224.052655 
L 552.884404 224.054267 
L 553.181409 224.006336 
L 553.491914 223.969939 
L 553.977922 223.953833 
L 554.220925 223.994627 
L 554.47743 223.957405 
L 554.679933 223.975453 
L 559.661514 223.837023 
L 561.673046 223.326848 
L 562.375057 222.42042 
L 562.618061 221.73245 
L 562.955567 220.264823 
L 563.360573 218.704651 
L 563.495576 218.719977 
L 563.630578 219.1014 
L 564.535092 222.348665 
L 564.859098 222.835449 
L 565.898614 223.479422 
L 566.695127 223.632471 
L 567.856146 223.734592 
L 568.11265 223.724581 
L 577.765307 223.831541 
L 578.048811 223.813929 
L 579.22333 223.836889 
L 579.668837 223.867866 
L 580.141345 223.911586 
L 580.762355 223.902593 
L 581.126861 223.864267 
L 581.329364 223.862284 
L 581.68037 223.849419 
L 581.896373 223.900317 
L 582.28788 223.886778 
L 582.733387 223.790214 
L 583.016892 223.72846 
L 583.165394 223.627701 
L 583.192394 223.647744 
L 583.489399 223.822918 
L 583.894406 223.810186 
L 584.218411 223.900095 
L 585.325429 223.867312 
L 585.595433 223.918378 
L 585.797937 223.874383 
L 586.081441 223.881824 
L 586.972456 223.835178 
L 587.25596 223.904927 
L 587.444963 223.881023 
L 587.83647 223.891333 
L 588.430479 223.868022 
L 588.646483 223.851303 
L 589.010989 223.903239 
L 589.767001 223.786191 
L 589.915503 223.55659 
L 590.077506 222.878812 
L 590.212508 221.24657 
L 590.33401 215.829496 
L 590.455512 205.004583 
L 590.509513 209.519056 
L 590.698516 219.392237 
L 590.739017 219.560247 
L 590.779517 219.390354 
L 590.874019 217.49166 
L 590.995521 207.761726 
L 591.117023 184.925269 
L 591.171024 193.339339 
L 591.373527 216.954405 
L 591.495029 218.772262 
L 591.535529 218.596312 
L 591.616531 216.567612 
L 591.738033 206.410293 
L 591.778533 203.146504 
L 591.832534 206.729742 
L 592.048538 220.299889 
L 592.278041 222.365758 
L 592.534546 222.941381 
L 592.77755 223.116355 
L 592.993553 223.240987 
L 593.385059 223.397045 
L 594.816083 223.562241 
L 594.964585 223.547321 
L 595.315591 223.557252 
L 595.504594 223.561242 
L 597.232622 223.577464 
L 597.421625 223.596148 
L 597.77263 223.635627 
L 598.069635 223.612839 
L 598.258638 223.618138 
L 599.095652 223.587397 
L 599.284655 223.489764 
L 599.379156 223.392607 
L 599.419657 223.449431 
L 599.62216 223.63838 
L 600.094668 223.536075 
L 600.391673 223.658577 
L 600.702178 223.583983 
L 600.972182 223.64332 
L 601.404189 223.623072 
L 601.674194 223.606797 
L 602.106201 223.606223 
L 602.457206 223.614611 
L 602.889213 223.62599 
L 603.510223 223.646633 
L 603.699226 223.640444 
L 604.900746 223.610159 
L 605.15725 223.588318 
L 605.359753 223.574874 
L 605.548756 223.605455 
L 606.210267 223.611203 
L 606.507272 223.59159 
L 608.019296 223.560283 
L 608.167799 223.555679 
L 608.84281 223.62242 
L 609.247816 223.608751 
L 609.436819 223.590506 
L 611.016345 223.544359 
L 611.286349 223.58631 
L 611.637355 223.59462 
L 613.027877 223.626876 
L 613.392383 223.585344 
L 613.554386 223.621663 
L 613.81089 223.577068 
L 613.999893 223.543616 
L 614.175396 223.58487 
L 614.539902 223.600016 
L 615.876423 223.534724 
L 616.30843 223.536514 
L 617.658452 223.541299 
L 617.914956 223.545088 
L 618.292963 223.526191 
L 618.940973 223.540528 
L 619.39998 223.519307 
L 619.804987 223.558043 
L 621.19551 223.47922 
L 621.492514 223.484459 
L 622.059524 223.45436 
L 622.45103 223.47686 
L 622.667033 223.466407 
L 623.05854 223.494389 
L 626.082589 223.478497 
L 626.271592 223.480846 
L 627.959119 223.23924 
L 628.04012 223.180278 
L 628.080621 223.216613 
L 628.350625 223.443684 
L 628.553129 223.386247 
L 628.931135 223.278884 
L 629.214639 223.416607 
L 629.484644 223.38354 
L 629.87615 223.47397 
L 630.051653 223.441779 
L 631.010168 223.424676 
L 631.266673 223.457872 
L 633.791213 223.341438 
L 634.16922 222.893717 
L 634.331222 221.850255 
L 634.466224 218.914244 
L 634.601227 209.722807 
L 634.655227 206.76201 
L 634.709228 208.785529 
L 634.952232 219.456815 
L 634.979233 219.494985 
L 635.006233 219.409265 
L 635.100735 218.089357 
L 635.222237 212.304493 
L 635.343739 193.455192 
L 635.43824 171.490754 
L 635.492241 178.621964 
L 635.721745 214.229156 
L 635.829746 216.195735 
L 635.870247 215.984306 
L 635.964749 213.321063 
L 636.086251 200.911665 
L 636.221253 170.160824 
L 636.288754 181.300573 
L 636.504757 214.627018 
L 636.69376 218.204491 
L 636.734261 218.031809 
L 636.828763 216.014445 
L 636.977265 205.760497 
L 637.004265 204.796827 
L 637.058266 207.011716 
L 637.31477 220.137844 
L 637.530774 221.727066 
L 637.800778 222.319405 
L 638.448789 222.687958 
L 638.664792 222.708886 
L 639.380304 222.84437 
L 639.74481 222.896145 
L 639.920313 222.882306 
L 640.743826 222.926112 
L 641.054331 222.898979 
L 641.405337 222.933528 
L 641.877844 222.908122 
L 642.066847 222.890174 
L 642.768859 222.961363 
L 642.944362 222.86563 
L 643.254867 222.80078 
L 643.524871 222.921911 
L 643.794875 222.775743 
L 643.929878 222.676503 
L 643.956878 222.701787 
L 644.240383 222.913924 
L 644.523887 222.892902 
L 652.435015 222.768517 
L 653.474532 222.730158 
L 653.663535 222.743873 
L 653.893039 222.724081 
L 654.244044 222.735771 
L 654.649051 222.723557 
L 654.824554 222.739825 
L 655.013557 222.712241 
L 655.243061 222.653571 
L 657.05209 222.636109 
L 657.389595 222.666126 
L 657.740601 222.660672 
L 657.970105 222.63926 
L 658.172608 222.62524 
L 662.209173 222.448109 
L 662.533179 222.452624 
L 663.289191 222.481213 
L 663.491694 222.420985 
L 663.640197 222.416144 
L 663.8427 222.403335 
L 664.47721 222.333593 
L 664.693214 222.329218 
L 665.192722 222.225644 
L 665.462726 222.127284 
L 665.476226 222.146491 
L 665.624729 222.176248 
L 665.867733 222.119161 
L 665.948734 222.068327 
L 666.002735 222.120791 
L 666.191738 222.168846 
L 666.434742 222.183556 
L 666.583244 222.164541 
L 666.758747 222.165592 
L 666.974751 222.170416 
L 667.150253 222.18901 
L 667.420258 222.194017 
L 668.18977 222.126704 
L 668.473275 222.160788 
L 668.675778 222.14714 
L 669.553292 222.108693 
L 669.755796 222.09109 
L 670.0123 222.029545 
L 670.120301 221.976839 
L 671.632326 221.605126 
L 671.88883 221.336694 
L 671.996832 220.987082 
L 672.145334 219.910526 
L 672.280336 216.945892 
L 672.401838 208.315338 
L 672.469339 202.168502 
L 672.52334 205.593295 
L 672.725844 216.806221 
L 672.752844 216.864209 
L 672.793345 216.673359 
L 672.887846 214.712398 
L 673.009348 205.999815 
L 673.14435 183.622347 
L 673.198351 192.666061 
L 673.400855 215.372068 
L 673.522356 216.97114 
L 673.562857 216.724815 
L 673.657359 214.055318 
L 673.805861 202.630893 
L 673.873362 208.083011 
L 674.075865 219.113294 
L 674.305369 220.903679 
L 674.561873 221.361534 
L 675.061381 221.41204 
L 675.182883 221.438807 
L 675.61489 221.54936 
L 675.979396 221.33312 
L 676.397903 221.438975 
L 676.694908 221.208224 
L 676.708408 221.233871 
L 676.897411 221.411305 
L 677.369919 221.364602 
L 677.558922 221.369265 
L 679.124947 221.268963 
L 679.246449 221.238159 
L 679.543454 221.129658 
L 679.93496 221.013492 
L 680.056462 221.073734 
L 680.083463 221.048693 
L 680.299466 220.945866 
L 680.447969 220.849031 
L 680.55597 220.715974 
L 680.609971 220.770366 
L 680.839475 220.827359 
L 681.608987 220.18898 
L 681.77099 219.814118 
L 681.905992 218.858158 
L 682.054495 216.193636 
L 682.175997 209.361702 
L 682.256998 202.867138 
L 682.310999 206.481986 
L 682.513502 216.54597 
L 682.554003 216.683172 
L 682.608004 216.501841 
L 682.716005 214.535743 
L 682.851007 206.791107 
L 682.972509 184.646094 
L 683.040011 167.943057 
L 683.094011 178.181198 
L 683.296515 212.043504 
L 683.418017 214.311816 
L 683.458517 214.120928 
L 683.553019 211.857309 
L 683.674521 201.941902 
L 683.823023 167.57219 
L 683.890524 181.513299 
L 684.079527 213.043199 
L 684.282031 217.106685 
L 684.336032 216.901579 
L 684.430533 215.034985 
L 684.552035 207.129976 
L 684.619536 202.466132 
L 684.660037 205.249794 
L 684.87604 218.319433 
L 685.092044 220.081401 
L 685.348548 220.488626 
L 685.605052 220.578583 
L 685.767055 220.552077 
L 686.401565 220.516861 
L 686.995575 220.445008 
L 687.157577 220.439715 
L 687.603084 220.276516 
L 689.223111 220.08538 
L 689.83062 219.958254 
L 689.952122 219.904057 
L 690.208627 219.717005 
L 690.316628 219.654841 
L 690.465131 219.397326 
L 690.532632 219.521713 
L 690.654134 219.65856 
L 690.694634 219.640865 
L 690.816136 219.584922 
L 690.991639 219.541932 
L 691.153642 219.311974 
L 691.261644 219.141413 
L 691.302144 219.209671 
L 691.572149 219.413661 
L 691.585649 219.402854 
L 691.761152 219.381095 
L 692.058157 219.251436 
L 692.368662 219.127206 
L 693.772684 218.632777 
L 694.029188 218.408033 
L 694.13719 218.32015 
L 694.353194 218.173308 
L 694.380194 218.203326 
L 694.569197 218.152201 
L 694.960703 217.993567 
L 695.163207 217.956392 
L 695.527713 217.653933 
L 695.98672 217.325563 
L 696.121722 217.141095 
L 696.337726 216.904144 
L 698.025253 214.6875 
L 698.133255 214.544765 
L 699.888283 211.211727 
L 700.252789 210.30873 
L 700.441792 210.164676 
L 701.386808 207.966103 
L 701.427308 208.218961 
L 701.616311 209.159668 
L 701.967317 209.537968 
L 702.372323 209.549624 
L 702.574827 209.60242 
L 702.655828 209.542377 
L 702.885332 209.323911 
L 704.532358 208.200701 
L 704.842863 207.879633 
L 704.964365 207.767705 
L 705.315371 207.421833 
L 705.355872 207.436219 
L 705.409873 207.359453 
L 705.801379 206.615897 
L 705.936381 206.424912 
L 706.827396 204.020215 
L 707.016399 203.489598 
L 708.015415 197.604617 
L 708.258419 194.1625 
L 708.487922 187.05673 
L 708.663425 173.101024 
L 708.811928 134.082724 
L 708.892929 99.670883 
L 708.93343 118.138138 
L 709.135933 201.586296 
L 709.284435 204.492999 
L 709.297936 204.45412 
L 709.621941 202.053769 
L 710.229451 197.012646 
L 710.485955 195.194321 
L 711.106965 190.40097 
L 711.295968 188.747958 
L 712.807992 171.477388 
L 714.711523 142.178528 
L 714.981528 141.425238 
L 715.049029 141.566535 
L 715.278532 142.875018 
L 715.319033 143.086011 
L 715.494536 144.184319 
L 715.656538 142.349497 
L 715.75104 138.953133 
L 715.791541 139.744186 
L 715.926543 148.009406 
L 715.980544 146.973581 
L 716.061545 135.77763 
L 716.210047 99.147258 
L 716.237048 112.361044 
L 716.277549 242.805028 
L 716.298047 433 
M 716.632762 433 
L 716.885058 339.266263 
L 717.114562 302.298851 
L 717.533069 279.619938 
L 717.911075 268.412733 
L 718.113578 265.017669 
L 718.707588 258.799535 
L 719.139595 255.596314 
L 719.828106 251.450052 
L 721.380631 245.578423 
L 721.461632 245.415245 
L 721.718137 244.67255 
L 722.366147 243.890908 
L 722.55515 243.939253 
L 722.622651 243.982685 
L 722.636151 244.01079 
L 722.757653 244.104374 
L 722.784654 244.06099 
L 723.000657 244.484647 
L 723.675668 247.133615 
L 723.689168 247.11065 
L 723.729669 246.639528 
L 723.81067 240.255802 
L 723.891672 216.198772 
L 723.986173 155.764202 
L 724.053674 172.548841 
L 724.283178 215.792005 
L 724.526182 225.822605 
L 724.877188 230.351718 
L 725.255194 231.96917 
L 725.322695 232.048401 
L 725.673701 232.59445 
L 725.930205 232.636067 
L 726.173209 232.950759 
L 726.348712 232.890913 
L 726.510714 232.83464 
L 726.699717 232.934448 
L 726.713217 232.911944 
L 726.88872 232.763851 
L 727.023722 232.779085 
L 727.158725 232.795636 
L 727.253226 232.762346 
L 727.46923 232.552626 
L 727.536731 232.558961 
L 727.563731 232.602669 
L 727.793235 232.518531 
L 727.914737 232.54539 
L 728.022739 232.479373 
L 728.360244 232.434757 
L 728.535747 232.438875 
L 729.008255 232.057077 
L 729.413261 232.086107 
L 729.642765 231.938138 
L 729.656265 231.948997 
L 729.737266 231.994018 
L 729.791267 231.946212 
L 729.98027 231.915318 
L 730.115273 231.790391 
L 730.304276 231.732011 
L 730.479778 231.783439 
L 730.493279 231.753629 
L 730.668781 231.541826 
L 730.682282 231.553974 
L 730.857785 231.551877 
L 731.006287 231.423999 
L 731.033287 231.436903 
L 731.303292 231.350376 
L 731.465294 231.276266 
L 731.681298 231.225897 
L 731.8163 231.183113 
L 731.951302 231.139337 
L 732.140305 231.121645 
L 732.234807 231.030078 
L 732.342809 230.860327 
L 732.504811 230.774493 
L 732.518311 230.784093 
L 732.707314 230.799658 
L 732.950318 230.748587 
L 733.07182 230.730381 
L 733.355325 230.694636 
L 733.517328 230.674887 
L 735.488359 230.281335 
L 735.704363 230.297343 
L 736.082369 229.956196 
L 736.095869 229.973141 
L 736.419875 229.998596 
L 736.797881 229.892851 
L 737.040885 229.783822 
L 737.553893 229.629296 
L 737.850898 229.511201 
L 738.215404 229.577232 
L 738.390906 229.389998 
L 738.417907 229.421449 
L 738.63391 229.430134 
L 738.768913 229.420333 
L 738.903915 229.494413 
L 738.930915 229.47043 
L 739.22792 229.305881 
L 739.362922 229.322569 
L 739.470924 229.26696 
L 739.646427 229.277897 
L 739.82193 229.278232 
L 740.024433 229.228238 
L 740.159435 229.182952 
L 740.348438 229.142848 
L 740.672443 229.170279 
L 740.874947 229.059518 
L 741.05045 228.999405 
L 741.765961 228.950567 
L 741.914463 228.980518 
L 742.049466 228.952649 
L 742.238469 228.950346 
L 742.427472 228.939138 
L 742.629975 228.936394 
L 742.818978 228.929891 
L 743.061982 228.868779 
L 745.114015 228.579883 
L 745.478521 228.667704 
L 745.600023 228.625756 
L 745.775526 228.56436 
L 746.113031 228.495261 
L 746.329035 228.487169 
L 746.477537 228.510177 
L 746.61254 228.513161 
L 746.747542 228.471439 
L 746.923045 228.43758 
L 747.220049 228.47166 
L 747.530554 228.398287 
L 748.259566 228.359041 
L 748.435069 228.314246 
L 748.448569 228.331385 
L 748.597072 228.323406 
L 752.890141 228.074123 
L 753.038644 227.928425 
L 753.079144 228.007647 
L 753.268147 228.20059 
L 753.551652 228.109397 
L 753.808156 227.597351 
L 753.862157 227.73736 
L 754.05116 228.040517 
L 754.361665 228.088488 
L 754.510167 227.971156 
L 754.591169 227.844178 
L 754.64517 227.907693 
L 754.955675 228.240337 
L 755.077177 228.274978 
L 755.27968 228.299313 
L 755.563184 228.273766 
L 755.779188 228.383236 
L 756.035692 228.378322 
L 756.157194 228.406818 
L 756.305696 228.411629 
L 756.454199 228.43816 
L 756.710703 228.546269 
L 757.007708 228.604495 
L 757.210211 228.534523 
L 757.507216 228.697832 
L 757.696219 228.812494 
L 758.047225 228.911281 
L 758.344229 229.099124 
L 759.086741 229.762494 
L 759.275745 229.813555 
L 759.437747 229.534686 
L 759.572749 228.123016 
L 759.680751 224.364267 
L 759.802253 209.160478 
L 759.923755 180.29931 
L 759.977756 190.333242 
L 760.193759 219.638437 
L 760.301761 221.57212 
L 760.342262 221.255146 
L 760.423263 218.325561 
L 760.531265 203.088713 
L 760.652767 144.316178 
L 760.706768 126.876543 
L 760.747268 141.041193 
L 760.976772 208.613425 
L 761.165775 216.298628 
L 761.179275 216.296953 
L 761.233276 215.349464 
L 761.327778 208.119944 
L 761.48978 174.325058 
L 761.557281 188.426296 
L 761.759785 215.489642 
L 762.002789 221.500313 
L 762.326794 223.713549 
L 762.7318 224.628135 
L 762.839802 224.575073 
L 762.880303 224.50651 
L 762.934304 224.617311 
L 763.204308 225.318163 
L 763.595814 225.566529 
L 763.703816 225.53432 
L 763.730817 225.584206 
L 763.94682 225.865499 
L 764.513829 226.128829 
L 764.662332 226.245481 
L 765.053838 226.521058 
L 765.580347 226.618926 
L 766.147356 226.894178 
L 766.376859 226.923312 
L 766.930368 227.019474 
L 767.02487 226.942096 
L 767.05187 226.989652 
L 767.335375 227.392386 
L 767.67288 227.46407 
L 767.780882 227.204002 
L 767.848383 227.386348 
L 768.091387 227.940901 
L 768.374892 227.955027 
L 768.469393 227.549912 
L 768.604396 225.787369 
L 768.712397 221.632202 
L 768.833899 204.114985 
L 768.928401 175.335167 
L 768.982402 184.528008 
L 769.198405 218.038236 
L 769.306407 220.234638 
L 769.346908 220.030254 
L 769.427909 217.867051 
L 769.52241 208.156504 
L 769.630412 172.178122 
L 769.724914 121.063985 
L 769.778915 146.462295 
L 769.981418 206.803441 
L 770.183921 215.532531 
L 770.197421 215.565348 
L 770.224422 215.40868 
L 770.291923 213.015363 
L 770.399925 199.392571 
L 770.507926 170.894353 
L 770.561927 182.297874 
L 770.76443 213.825582 
L 771.007434 220.340994 
L 771.277439 222.328704 
L 771.614944 223.350957 
L 772.033451 224.000466 
L 773.153969 224.771708 
L 775.66501 225.354365 
L 775.854013 225.24001 
L 775.948514 225.072411 
L 776.002515 225.144311 
L 776.340021 225.348133 
L 776.596525 225.202245 
L 776.731527 224.83114 
L 776.785528 224.985339 
L 777.001531 225.320964 
L 777.258036 225.404171 
L 777.447039 225.271319 
L 777.51454 225.199365 
L 777.55504 225.260224 
L 777.757544 225.460678 
L 778.189551 225.529663 
L 778.78356 225.580108 
L 779.026564 225.575884 
L 779.323569 225.597597 
L 779.499072 225.625529 
L 779.674575 225.600973 
L 779.850078 225.628178 
L 780.282085 225.622724 
L 780.579089 225.66173 
L 780.741092 225.654597 
L 782.49612 225.704158 
L 782.698624 225.719553 
L 783.981144 225.65752 
L 784.548154 225.730085 
L 784.96666 225.713317 
L 786.19518 225.693683 
L 786.384183 225.700214 
L 786.613687 225.720813 
L 786.77569 225.708781 
L 787.315698 225.689965 
L 789.25973 225.747905 
L 789.475733 225.731197 
L 790.839255 225.741816 
L 791.09576 225.81636 
L 792.688785 225.763725 
L 792.891289 225.736338 
L 793.296295 225.735984 
L 793.552799 225.745383 
L 793.836304 225.703578 
L 794.24131 225.73135 
L 794.403313 225.701293 
L 794.82182 225.698241 
L 795.996339 225.701193 
L 796.67135 225.681251 
L 797.143857 225.716877 
L 800.38391 225.692736 
L 800.883418 225.679257 
L 802.017436 225.720094 
L 802.192939 225.714813 
L 802.435943 225.70038 
L 804.204472 225.686303 
L 804.501477 225.636083 
L 804.825482 225.64535 
L 805.014485 225.607528 
L 805.189988 225.631399 
L 805.392491 225.682102 
L 805.905499 225.619751 
L 806.499509 225.649268 
L 806.661511 225.677316 
L 806.864015 225.697026 
L 807.120519 225.68436 
L 807.336522 225.655753 
L 809.820563 225.693249 
L 810.104067 225.645163 
L 810.90058 225.706309 
L 811.062583 225.741846 
L 811.49459 225.71809 
L 811.697093 225.692482 
L 811.913097 225.713087 
L 812.088599 225.765271 
L 812.250602 225.778089 
L 814.356636 225.716909 
L 814.491638 225.487246 
L 814.61314 225.040969 
L 814.667141 225.154025 
L 814.896645 225.711732 
L 814.910145 225.706478 
L 815.072148 225.729029 
L 815.936162 225.82409 
L 818.177198 226.14662 
L 818.406702 226.115567 
L 819.135713 226.354418 
L 819.851225 226.657166 
L 820.242731 226.773986 
L 820.391234 226.236335 
L 820.499235 224.710755 
L 820.620737 219.396158 
L 820.823241 202.571883 
L 820.931242 154.069331 
L 821.025744 60.549094 
L 821.079745 97.010658 
L 821.282248 198.208276 
L 821.525252 215.018125 
L 821.754756 220.034261 
L 822.03826 222.002296 
L 822.429767 223.229928 
L 822.821273 223.721838 
L 823.86079 224.362058 
L 824.117294 224.439922 
L 824.724804 224.578092 
L 826.95234 224.891986 
L 827.208844 224.841237 
L 827.492349 224.619475 
L 827.613851 224.134276 
L 827.681352 224.295168 
L 827.924356 224.835895 
L 828.396863 225.005419 
L 828.78837 225.01684 
L 828.950372 224.991671 
L 829.085374 225.012299 
L 829.301378 225.016836 
L 829.827886 224.968191 
L 830.6514 225.018628 
L 830.880904 225.00704 
L 831.27241 225.090677 
L 832.095923 225.128456 
L 832.230925 225.108254 
L 832.433429 225.050058 
L 832.676433 225.049305 
L 832.919437 225.106146 
L 833.12194 225.04969 
L 833.337943 225.077437 
L 833.526946 225.110224 
L 834.012954 225.062221 
L 834.309959 225.081561 
L 834.620464 225.058849 
L 835.673481 225.097599 
L 835.875984 225.072993 
L 836.929001 225.185938 
L 837.212506 225.138017 
L 837.44201 225.14094 
L 837.617513 225.126898 
L 837.833516 225.154731 
L 838.06302 225.091656 
L 838.630029 225.096446 
L 839.237539 225.103321 
L 839.696546 225.071811 
L 840.344557 225.033865 
L 840.641562 225.053735 
L 841.18157 225.094158 
L 841.424574 225.118705 
L 841.78908 225.108137 
L 842.261588 225.131031 
L 842.693595 225.088449 
L 843.112101 225.109239 
L 845.326137 225.140688 
L 845.569141 225.140245 
L 846.446655 225.117459 
L 846.932663 225.104122 
L 847.135167 225.102168 
L 847.35117 225.031335 
L 847.540173 225.132995 
L 847.729176 225.116278 
L 848.080182 225.135612 
L 848.363686 225.129114 
L 848.674192 225.097355 
L 848.971196 225.10796 
L 853.939277 225.05849 
L 854.290282 225.048446 
L 854.76279 225.170482 
L 855.100296 225.158907 
L 855.329799 225.125264 
L 855.572803 225.099346 
L 855.802307 225.111696 
L 856.301815 225.145602 
L 856.504318 225.137766 
L 856.720322 225.152039 
L 857.057827 225.17252 
L 857.408833 225.138977 
L 859.379865 225.097143 
L 859.514867 225.069194 
L 859.798372 225.094478 
L 860.230379 225.125983 
L 860.554384 225.13654 
L 860.770387 225.112409 
L 861.5264 225.109629 
L 863.173426 225.052911 
L 863.41643 225.046849 
L 865 225.062627 
L 865 225.062627 
" clip-path="url(#pe32de98e9b)" style="fill: none; stroke: #000000; stroke-width: 0.5; stroke-linecap: square"/>
   </g>
   <g id="patch_3">
    <path d="M 53.67147 390.04 
L 53.67147 27.6 
" style="fill: none; stroke: #000000; stroke-width: 0.8; stroke-linejoin: miter; stroke-linecap: square"/>
   </g>
   <g id="patch_4">
    <path d="M 853.2 390.04 
L 853.2 27.6 
" style="fill: none; stroke: #000000; stroke-width: 0.8; stroke-linejoin: miter; stroke-linecap: square"/>
   </g>
   <g id="patch_5">
    <path d="M 53.67147 390.04 
L 853.2 390.04 
" style="fill: none; stroke: #000000; stroke-width: 0.8; stroke-linejoin: miter; stroke-linecap: square"/>
   </g>
   <g id="patch_6">
    <path d="M 53.67147 27.6 
L 853.2 27.6 
" style="fill: none; stroke: #000000; stroke-width: 0.8; stroke-linejoin: miter; stroke-linecap: square"/>
   </g>
   <g id="text_18">
    <!-- PRESAT Spectrum: 2_am_3_ald (Auto-Scaled Y) -->
    <g transform="translate(288.535422 21.6) scale(0.14 -0.14)">
     <defs>
      <path id="DejaVuSans-50" d="M 1259 4147 
L 1259 2394 
L 2053 2394 
Q 2494 2394 2734 2622 
Q 2975 2850 2975 3272 
Q 2975 3691 2734 3919 
Q 2494 4147 2053 4147 
L 1259 4147 
z
M 628 4666 
L 2053 4666 
Q 2838 4666 3239 4311 
Q 3641 3956 3641 3272 
Q 3641 2581 3239 2228 
Q 2838 1875 2053 1875 
L 1259 1875 
L 1259 0 
L 628 0 
L 628 4666 
z
" transform="scale(0.015625)"/>
      <path id="DejaVuSans-52" d="M 2841 2188 
Q 3044 2119 3236 1894 
Q 3428 1669 3622 1275 
L 4263 0 
L 3584 0 
L 2988 1197 
Q 2756 1666 2539 1819 
Q 2322 1972 1947 1972 
L 1259 1972 
L 1259 0 
L 628 0 
L 628 4666 
L 2053 4666 
Q 2853 4666 3247 4331 
Q 3641 3997 3641 3322 
Q 3641 2881 3436 2590 
Q 3231 2300 2841 2188 
z
M 1259 4147 
L 1259 2491 
L 2053 2491 
Q 2509 2491 2742 2702 
Q 2975 2913 2975 3322 
Q 2975 3731 2742 3939 
Q 2509 4147 2053 4147 
L 1259 4147 
z
" transform="scale(0.015625)"/>
      <path id="DejaVuSans-45" d="M 628 4666 
L 3578 4666 
L 3578 4134 
L 1259 4134 
L 1259 2753 
L 3481 2753 
L 3481 2222 
L 1259 2222 
L 1259 531 
L 3634 531 
L 3634 0 
L 628 0 
L 628 4666 
z
" transform="scale(0.015625)"/>
      <path id="DejaVuSans-53" d="M 3425 4513 
L 3425 3897 
Q 3066 4069 2747 4153 
Q 2428 4238 2131 4238 
Q 1616 4238 1336 4038 
Q 1056 3838 1056 3469 
Q 1056 3159 1242 3001 
Q 1428 2844 1947 2747 
L 2328 2669 
Q 3034 2534 3370 2195 
Q 3706 1856 3706 1288 
Q 3706 609 3251 259 
Q 2797 -91 1919 -91 
Q 1588 -91 1214 -16 
Q 841 59 441 206 
L 441 856 
Q 825 641 1194 531 
Q 1563 422 1919 422 
Q 2459 422 2753 634 
Q 3047 847 3047 1241 
Q 3047 1584 2836 1778 
Q 2625 1972 2144 2069 
L 1759 2144 
Q 1053 2284 737 2584 
Q 422 2884 422 3419 
Q 422 4038 858 4394 
Q 1294 4750 2059 4750 
Q 2388 4750 2728 4690 
Q 3069 4631 3425 4513 
z
" transform="scale(0.015625)"/>
      <path id="DejaVuSans-41" d="M 2188 4044 
L 1331 1722 
L 3047 1722 
L 2188 4044 
z
M 1831 4666 
L 2547 4666 
L 4325 0 
L 3669 0 
L 3244 1197 
L 1141 1197 
L 716 0 
L 50 0 
L 1831 4666 
z
" transform="scale(0.015625)"/>
      <path id="DejaVuSans-54" d="M -19 4666 
L 3928 4666 
L 3928 4134 
L 2272 4134 
L 2272 0 
L 1638 0 
L 1638 4134 
L -19 4134 
L -19 4666 
z
" transform="scale(0.015625)"/>
      <path id="DejaVuSans-20" transform="scale(0.015625)"/>
      <path id="DejaVuSans-70" d="M 1159 525 
L 1159 -1331 
L 581 -1331 
L 581 3500 
L 1159 3500 
L 1159 2969 
Q 1341 3281 1617 3432 
Q 1894 3584 2278 3584 
Q 2916 3584 3314 3078 
Q 3713 2572 3713 1747 
Q 3713 922 3314 415 
Q 2916 -91 2278 -91 
Q 1894 -91 1617 61 
Q 1341 213 1159 525 
z
M 3116 1747 
Q 3116 2381 2855 2742 
Q 2594 3103 2138 3103 
Q 1681 3103 1420 2742 
Q 1159 2381 1159 1747 
Q 1159 1113 1420 752 
Q 1681 391 2138 391 
Q 2594 391 2855 752 
Q 3116 1113 3116 1747 
z
" transform="scale(0.015625)"/>
      <path id="DejaVuSans-65" d="M 3597 1894 
L 3597 1613 
L 953 1613 
Q 991 1019 1311 708 
Q 1631 397 2203 397 
Q 2534 397 2845 478 
Q 3156 559 3463 722 
L 3463 178 
Q 3153 47 2828 -22 
Q 2503 -91 2169 -91 
Q 1331 -91 842 396 
Q 353 884 353 1716 
Q 353 2575 817 3079 
Q 1281 3584 2069 3584 
Q 2775 3584 3186 3129 
Q 3597 2675 3597 1894 
z
M 3022 2063 
Q 3016 2534 2758 2815 
Q 2500 3097 2075 3097 
Q 1594 3097 1305 2825 
Q 1016 2553 972 2059 
L 3022 2063 
z
" transform="scale(0.015625)"/>
      <path id="DejaVuSans-63" d="M 3122 3366 
L 3122 2828 
Q 2878 2963 2633 3030 
Q 2388 3097 2138 3097 
Q 1578 3097 1268 2742 
Q 959 2388 959 1747 
Q 959 1106 1268 751 
Q 1578 397 2138 397 
Q 2388 397 2633 464 
Q 2878 531 3122 666 
L 3122 134 
Q 2881 22 2623 -34 
Q 2366 -91 2075 -91 
Q 1284 -91 818 406 
Q 353 903 353 1747 
Q 353 2603 823 3093 
Q 1294 3584 2113 3584 
Q 2378 3584 2631 3529 
Q 2884 3475 3122 3366 
z
" transform="scale(0.015625)"/>
      <path id="DejaVuSans-74" d="M 1172 4494 
L 1172 3500 
L 2356 3500 
L 2356 3053 
L 1172 3053 
L 1172 1153 
Q 1172 725 1289 603 
Q 1406 481 1766 481 
L 2356 481 
L 2356 0 
L 1766 0 
Q 1100 0 847 248 
Q 594 497 594 1153 
L 594 3053 
L 172 3053 
L 172 3500 
L 594 3500 
L 594 4494 
L 1172 4494 
z
" transform="scale(0.015625)"/>
      <path id="DejaVuSans-72" d="M 2631 2963 
Q 2534 3019 2420 3045 
Q 2306 3072 2169 3072 
Q 1681 3072 1420 2755 
Q 1159 2438 1159 1844 
L 1159 0 
L 581 0 
L 581 3500 
L 1159 3500 
L 1159 2956 
Q 1341 3275 1631 3429 
Q 1922 3584 2338 3584 
Q 2397 3584 2469 3576 
Q 2541 3569 2628 3553 
L 2631 2963 
z
" transform="scale(0.015625)"/>
      <path id="DejaVuSans-75" d="M 544 1381 
L 544 3500 
L 1119 3500 
L 1119 1403 
Q 1119 906 1312 657 
Q 1506 409 1894 409 
Q 2359 409 2629 706 
Q 2900 1003 2900 1516 
L 2900 3500 
L 3475 3500 
L 3475 0 
L 2900 0 
L 2900 538 
Q 2691 219 2414 64 
Q 2138 -91 1772 -91 
Q 1169 -91 856 284 
Q 544 659 544 1381 
z
M 1991 3584 
L 1991 3584 
z
" transform="scale(0.015625)"/>
      <path id="DejaVuSans-6d" d="M 3328 2828 
Q 3544 3216 3844 3400 
Q 4144 3584 4550 3584 
Q 5097 3584 5394 3201 
Q 5691 2819 5691 2113 
L 5691 0 
L 5113 0 
L 5113 2094 
Q 5113 2597 4934 2840 
Q 4756 3084 4391 3084 
Q 3944 3084 3684 2787 
Q 3425 2491 3425 1978 
L 3425 0 
L 2847 0 
L 2847 2094 
Q 2847 2600 2669 2842 
Q 2491 3084 2119 3084 
Q 1678 3084 1418 2786 
Q 1159 2488 1159 1978 
L 1159 0 
L 581 0 
L 581 3500 
L 1159 3500 
L 1159 2956 
Q 1356 3278 1631 3431 
Q 1906 3584 2284 3584 
Q 2666 3584 2933 3390 
Q 3200 3197 3328 2828 
z
" transform="scale(0.015625)"/>
      <path id="DejaVuSans-3a" d="M 750 794 
L 1409 794 
L 1409 0 
L 750 0 
L 750 794 
z
M 750 3309 
L 1409 3309 
L 1409 2516 
L 750 2516 
L 750 3309 
z
" transform="scale(0.015625)"/>
      <path id="DejaVuSans-5f" d="M 3263 -1063 
L 3263 -1509 
L -63 -1509 
L -63 -1063 
L 3263 -1063 
z
" transform="scale(0.015625)"/>
      <path id="DejaVuSans-61" d="M 2194 1759 
Q 1497 1759 1228 1600 
Q 959 1441 959 1056 
Q 959 750 1161 570 
Q 1363 391 1709 391 
Q 2188 391 2477 730 
Q 2766 1069 2766 1631 
L 2766 1759 
L 2194 1759 
z
M 3341 1997 
L 3341 0 
L 2766 0 
L 2766 531 
Q 2569 213 2275 61 
Q 1981 -91 1556 -91 
Q 1019 -91 701 211 
Q 384 513 384 1019 
Q 384 1609 779 1909 
Q 1175 2209 1959 2209 
L 2766 2209 
L 2766 2266 
Q 2766 2663 2505 2880 
Q 2244 3097 1772 3097 
Q 1472 3097 1187 3025 
Q 903 2953 641 2809 
L 641 3341 
Q 956 3463 1253 3523 
Q 1550 3584 1831 3584 
Q 2591 3584 2966 3190 
Q 3341 2797 3341 1997 
z
" transform="scale(0.015625)"/>
      <path id="DejaVuSans-6c" d="M 603 4863 
L 1178 4863 
L 1178 0 
L 603 0 
L 603 4863 
z
" transform="scale(0.015625)"/>
      <path id="DejaVuSans-64" d="M 2906 2969 
L 2906 4863 
L 3481 4863 
L 3481 0 
L 2906 0 
L 2906 525 
Q 2725 213 2448 61 
Q 2172 -91 1784 -91 
Q 1150 -91 751 415 
Q 353 922 353 1747 
Q 353 2572 751 3078 
Q 1150 3584 1784 3584 
Q 2172 3584 2448 3432 
Q 2725 3281 2906 2969 
z
M 947 1747 
Q 947 1113 1208 752 
Q 1469 391 1925 391 
Q 2381 391 2643 752 
Q 2906 1113 2906 1747 
Q 2906 2381 2643 2742 
Q 2381 3103 1925 3103 
Q 1469 3103 1208 2742 
Q 947 2381 947 1747 
z
" transform="scale(0.015625)"/>
      <path id="DejaVuSans-28" d="M 1984 4856 
Q 1566 4138 1362 3434 
Q 1159 2731 1159 2009 
Q 1159 1288 1364 580 
Q 1569 -128 1984 -844 
L 1484 -844 
Q 1016 -109 783 600 
Q 550 1309 550 2009 
Q 550 2706 781 3412 
Q 1013 4119 1484 4856 
L 1984 4856 
z
" transform="scale(0.015625)"/>
      <path id="DejaVuSans-6f" d="M 1959 3097 
Q 1497 3097 1228 2736 
Q 959 2375 959 1747 
Q 959 1119 1226 758 
Q 1494 397 1959 397 
Q 2419 397 2687 759 
Q 2956 1122 2956 1747 
Q 2956 2369 2687 2733 
Q 2419 3097 1959 3097 
z
M 1959 3584 
Q 2709 3584 3137 3096 
Q 3566 2609 3566 1747 
Q 3566 888 3137 398 
Q 2709 -91 1959 -91 
Q 1206 -91 779 398 
Q 353 888 353 1747 
Q 353 2609 779 3096 
Q 1206 3584 1959 3584 
z
" transform="scale(0.015625)"/>
      <path id="DejaVuSans-2d" d="M 313 2009 
L 1997 2009 
L 1997 1497 
L 313 1497 
L 313 2009 
z
" transform="scale(0.015625)"/>
      <path id="DejaVuSans-59" d="M -13 4666 
L 666 4666 
L 1959 2747 
L 3244 4666 
L 3922 4666 
L 2272 2222 
L 2272 0 
L 1638 0 
L 1638 2222 
L -13 4666 
z
" transform="scale(0.015625)"/>
      <path id="DejaVuSans-29" d="M 513 4856 
L 1013 4856 
Q 1481 4119 1714 3412 
Q 1947 2706 1947 2009 
Q 1947 1309 1714 600 
Q 1481 -109 1013 -844 
L 513 -844 
Q 928 -128 1133 580 
Q 1338 1288 1338 2009 
Q 1338 2731 1133 3434 
Q 928 4138 513 4856 
z
" transform="scale(0.015625)"/>
     </defs>
     <use xlink:href="#DejaVuSans-50"/>
     <use xlink:href="#DejaVuSans-52" transform="translate(60.302734 0)"/>
     <use xlink:href="#DejaVuSans-45" transform="translate(129.785156 0)"/>
     <use xlink:href="#DejaVuSans-53" transform="translate(192.96875 0)"/>
     <use xlink:href="#DejaVuSans-41" transform="translate(258.320312 0)"/>
     <use xlink:href="#DejaVuSans-54" transform="translate(318.978516 0)"/>
     <use xlink:href="#DejaVuSans-20" transform="translate(380.0625 0)"/>
     <use xlink:href="#DejaVuSans-53" transform="translate(411.849609 0)"/>
     <use xlink:href="#DejaVuSans-70" transform="translate(475.326172 0)"/>
     <use xlink:href="#DejaVuSans-65" transform="translate(538.802734 0)"/>
     <use xlink:href="#DejaVuSans-63" transform="translate(600.326172 0)"/>
     <use xlink:href="#DejaVuSans-74" transform="translate(655.306641 0)"/>
     <use xlink:href="#DejaVuSans-72" transform="translate(694.515625 0)"/>
     <use xlink:href="#DejaVuSans-75" transform="translate(735.628906 0)"/>
     <use xlink:href="#DejaVuSans-6d" transform="translate(799.007812 0)"/>
     <use xlink:href="#DejaVuSans-3a" transform="translate(896.419922 0)"/>
     <use xlink:href="#DejaVuSans-20" transform="translate(930.111328 0)"/>
     <use xlink:href="#DejaVuSans-32" transform="translate(961.898438 0)"/>
     <use xlink:href="#DejaVuSans-5f" transform="translate(1025.521484 0)"/>
     <use xlink:href="#DejaVuSans-61" transform="translate(1075.521484 0)"/>
     <use xlink:href="#DejaVuSans-6d" transform="translate(1136.800781 0)"/>
     <use xlink:href="#DejaVuSans-5f" transform="translate(1234.212891 0)"/>
     <use xlink:href="#DejaVuSans-33" transform="translate(1284.212891 0)"/>
     <use xlink:href="#DejaVuSans-5f" transform="translate(1347.835938 0)"/>
     <use xlink:href="#DejaVuSans-61" transform="translate(1397.835938 0)"/>
     <use xlink:href="#DejaVuSans-6c" transform="translate(1459.115234 0)"/>
     <use xlink:href="#DejaVuSans-64" transform="translate(1486.898438 0)"/>
     <use xlink:href="#DejaVuSans-20" transform="translate(1550.375 0)"/>
     <use xlink:href="#DejaVuSans-28" transform="translate(1582.162109 0)"/>
     <use xlink:href="#DejaVuSans-41" transform="translate(1621.175781 0)"/>
     <use xlink:href="#DejaVuSans-75" transform="translate(1689.583984 0)"/>
     <use xlink:href="#DejaVuSans-74" transform="translate(1752.962891 0)"/>
     <use xlink:href="#DejaVuSans-6f" transform="translate(1792.171875 0)"/>
     <use xlink:href="#DejaVuSans-2d" transform="translate(1855.228516 0)"/>
     <use xlink:href="#DejaVuSans-53" transform="translate(1891.3125 0)"/>
     <use xlink:href="#DejaVuSans-63" transform="translate(1954.789062 0)"/>
     <use xlink:href="#DejaVuSans-61" transform="translate(2009.769531 0)"/>
     <use xlink:href="#DejaVuSans-6c" transform="translate(2071.048828 0)"/>
     <use xlink:href="#DejaVuSans-65" transform="translate(2098.832031 0)"/>
     <use xlink:href="#DejaVuSans-64" transform="translate(2160.355469 0)"/>
     <use xlink:href="#DejaVuSans-20" transform="translate(2223.832031 0)"/>
     <use xlink:href="#DejaVuSans-59" transform="translate(2255.619141 0)"/>
     <use xlink:href="#DejaVuSans-29" transform="translate(2316.703125 0)"/>
    </g>
   </g>
  </g>
 </g>
 <defs>
  <clipPath id="pe32de98e9b">
   <rect x="53.67147" y="27.6" width="799.52853" height="362.44"/>
  </clipPath>
 </defs>
</svg>
