<?xml version="1.0" encoding="utf-8" standalone="no"?>
<!DOCTYPE svg PUBLIC "-//W3C//DTD SVG 1.1//EN"
  "http://www.w3.org/Graphics/SVG/1.1/DTD/svg11.dtd">
<svg xmlns:xlink="http://www.w3.org/1999/xlink" width="864pt" height="432pt" viewBox="0 0 864 432" xmlns="http://www.w3.org/2000/svg" version="1.1">
 <metadata>
  <rdf:RDF xmlns:dc="http://purl.org/dc/elements/1.1/" xmlns:cc="http://creativecommons.org/ns#" xmlns:rdf="http://www.w3.org/1999/02/22-rdf-syntax-ns#">
   <cc:Work>
    <dc:type rdf:resource="http://purl.org/dc/dcmitype/StillImage"/>
    <dc:date>2026-02-23T16:37:27.764589</dc:date>
    <dc:format>image/svg+xml</dc:format>
    <dc:creator>
     <cc:Agent>
      <dc:title>Matplotlib v3.10.8, https://matplotlib.org/</dc:title>
     </cc:Agent>
    </dc:creator>
   </cc:Work>
  </rdf:RDF>
 </metadata>
 <defs>
  <style type="text/css">*{stroke-linejoin: round; stroke-linecap: butt}</style>
 </defs>
 <g id="figure_1">
  <g id="patch_1">
   <path d="M 0 432 
L 864 432 
L 864 0 
L 0 0 
z
" style="fill: #ffffff"/>
  </g>
  <g id="axes_1">
   <g id="patch_2">
    <path d="M 53.67147 390.04 
L 853.2 390.04 
L 853.2 27.6 
L 53.67147 27.6 
z
" style="fill: #ffffff"/>
   </g>
   <g id="matplotlib.axis_1">
    <g id="xtick_1">
     <g id="line2d_1">
      <defs>
       <path id="m10df9ffaf4" d="M 0 0 
L 0 3.5 
" style="stroke: #000000; stroke-width: 0.8"/>
      </defs>
      <g>
       <use xlink:href="#m10df9ffaf4" x="825.630051" y="390.04" style="stroke: #000000; stroke-width: 0.8"/>
      </g>
     </g>
     <g id="text_1">
      <!-- 0 -->
      <g transform="translate(822.448801 404.638438) scale(0.1 -0.1)">
       <defs>
        <path id="DejaVuSans-30" d="M 2034 4250 
Q 1547 4250 1301 3770 
Q 1056 3291 1056 2328 
Q 1056 1369 1301 889 
Q 1547 409 2034 409 
Q 2525 409 2770 889 
Q 3016 1369 3016 2328 
Q 3016 3291 2770 3770 
Q 2525 4250 2034 4250 
z
M 2034 4750 
Q 2819 4750 3233 4129 
Q 3647 3509 3647 2328 
Q 3647 1150 3233 529 
Q 2819 -91 2034 -91 
Q 1250 -91 836 529 
Q 422 1150 422 2328 
Q 422 3509 836 4129 
Q 1250 4750 2034 4750 
z
" transform="scale(0.015625)"/>
       </defs>
       <use xlink:href="#DejaVuSans-30"/>
      </g>
     </g>
    </g>
    <g id="xtick_2">
     <g id="line2d_2">
      <g>
       <use xlink:href="#m10df9ffaf4" x="715.350253" y="390.04" style="stroke: #000000; stroke-width: 0.8"/>
      </g>
     </g>
     <g id="text_2">
      <!-- 2 -->
      <g transform="translate(712.169003 404.638438) scale(0.1 -0.1)">
       <defs>
        <path id="DejaVuSans-32" d="M 1228 531 
L 3431 531 
L 3431 0 
L 469 0 
L 469 531 
Q 828 903 1448 1529 
Q 2069 2156 2228 2338 
Q 2531 2678 2651 2914 
Q 2772 3150 2772 3378 
Q 2772 3750 2511 3984 
Q 2250 4219 1831 4219 
Q 1534 4219 1204 4116 
Q 875 4013 500 3803 
L 500 4441 
Q 881 4594 1212 4672 
Q 1544 4750 1819 4750 
Q 2544 4750 2975 4387 
Q 3406 4025 3406 3419 
Q 3406 3131 3298 2873 
Q 3191 2616 2906 2266 
Q 2828 2175 2409 1742 
Q 1991 1309 1228 531 
z
" transform="scale(0.015625)"/>
       </defs>
       <use xlink:href="#DejaVuSans-32"/>
      </g>
     </g>
    </g>
    <g id="xtick_3">
     <g id="line2d_3">
      <g>
       <use xlink:href="#m10df9ffaf4" x="605.070456" y="390.04" style="stroke: #000000; stroke-width: 0.8"/>
      </g>
     </g>
     <g id="text_3">
      <!-- 4 -->
      <g transform="translate(601.889206 404.638438) scale(0.1 -0.1)">
       <defs>
        <path id="DejaVuSans-34" d="M 2419 4116 
L 825 1625 
L 2419 1625 
L 2419 4116 
z
M 2253 4666 
L 3047 4666 
L 3047 1625 
L 3713 1625 
L 3713 1100 
L 3047 1100 
L 3047 0 
L 2419 0 
L 2419 1100 
L 313 1100 
L 313 1709 
L 2253 4666 
z
" transform="scale(0.015625)"/>
       </defs>
       <use xlink:href="#DejaVuSans-34"/>
      </g>
     </g>
    </g>
    <g id="xtick_4">
     <g id="line2d_4">
      <g>
       <use xlink:href="#m10df9ffaf4" x="494.790659" y="390.04" style="stroke: #000000; stroke-width: 0.8"/>
      </g>
     </g>
     <g id="text_4">
      <!-- 6 -->
      <g transform="translate(491.609409 404.638438) scale(0.1 -0.1)">
       <defs>
        <path id="DejaVuSans-36" d="M 2113 2584 
Q 1688 2584 1439 2293 
Q 1191 2003 1191 1497 
Q 1191 994 1439 701 
Q 1688 409 2113 409 
Q 2538 409 2786 701 
Q 3034 994 3034 1497 
Q 3034 2003 2786 2293 
Q 2538 2584 2113 2584 
z
M 3366 4563 
L 3366 3988 
Q 3128 4100 2886 4159 
Q 2644 4219 2406 4219 
Q 1781 4219 1451 3797 
Q 1122 3375 1075 2522 
Q 1259 2794 1537 2939 
Q 1816 3084 2150 3084 
Q 2853 3084 3261 2657 
Q 3669 2231 3669 1497 
Q 3669 778 3244 343 
Q 2819 -91 2113 -91 
Q 1303 -91 875 529 
Q 447 1150 447 2328 
Q 447 3434 972 4092 
Q 1497 4750 2381 4750 
Q 2619 4750 2861 4703 
Q 3103 4656 3366 4563 
z
" transform="scale(0.015625)"/>
       </defs>
       <use xlink:href="#DejaVuSans-36"/>
      </g>
     </g>
    </g>
    <g id="xtick_5">
     <g id="line2d_5">
      <g>
       <use xlink:href="#m10df9ffaf4" x="384.510862" y="390.04" style="stroke: #000000; stroke-width: 0.8"/>
      </g>
     </g>
     <g id="text_5">
      <!-- 8 -->
      <g transform="translate(381.329612 404.638438) scale(0.1 -0.1)">
       <defs>
        <path id="DejaVuSans-38" d="M 2034 2216 
Q 1584 2216 1326 1975 
Q 1069 1734 1069 1313 
Q 1069 891 1326 650 
Q 1584 409 2034 409 
Q 2484 409 2743 651 
Q 3003 894 3003 1313 
Q 3003 1734 2745 1975 
Q 2488 2216 2034 2216 
z
M 1403 2484 
Q 997 2584 770 2862 
Q 544 3141 544 3541 
Q 544 4100 942 4425 
Q 1341 4750 2034 4750 
Q 2731 4750 3128 4425 
Q 3525 4100 3525 3541 
Q 3525 3141 3298 2862 
Q 3072 2584 2669 2484 
Q 3125 2378 3379 2068 
Q 3634 1759 3634 1313 
Q 3634 634 3220 271 
Q 2806 -91 2034 -91 
Q 1263 -91 848 271 
Q 434 634 434 1313 
Q 434 1759 690 2068 
Q 947 2378 1403 2484 
z
M 1172 3481 
Q 1172 3119 1398 2916 
Q 1625 2713 2034 2713 
Q 2441 2713 2670 2916 
Q 2900 3119 2900 3481 
Q 2900 3844 2670 4047 
Q 2441 4250 2034 4250 
Q 1625 4250 1398 4047 
Q 1172 3844 1172 3481 
z
" transform="scale(0.015625)"/>
       </defs>
       <use xlink:href="#DejaVuSans-38"/>
      </g>
     </g>
    </g>
    <g id="xtick_6">
     <g id="line2d_6">
      <g>
       <use xlink:href="#m10df9ffaf4" x="274.231064" y="390.04" style="stroke: #000000; stroke-width: 0.8"/>
      </g>
     </g>
     <g id="text_6">
      <!-- 10 -->
      <g transform="translate(267.868564 404.638438) scale(0.1 -0.1)">
       <defs>
        <path id="DejaVuSans-31" d="M 794 531 
L 1825 531 
L 1825 4091 
L 703 3866 
L 703 4441 
L 1819 4666 
L 2450 4666 
L 2450 531 
L 3481 531 
L 3481 0 
L 794 0 
L 794 531 
z
" transform="scale(0.015625)"/>
       </defs>
       <use xlink:href="#DejaVuSans-31"/>
       <use xlink:href="#DejaVuSans-30" transform="translate(63.623047 0)"/>
      </g>
     </g>
    </g>
    <g id="xtick_7">
     <g id="line2d_7">
      <g>
       <use xlink:href="#m10df9ffaf4" x="163.951267" y="390.04" style="stroke: #000000; stroke-width: 0.8"/>
      </g>
     </g>
     <g id="text_7">
      <!-- 12 -->
      <g transform="translate(157.588767 404.638438) scale(0.1 -0.1)">
       <use xlink:href="#DejaVuSans-31"/>
       <use xlink:href="#DejaVuSans-32" transform="translate(63.623047 0)"/>
      </g>
     </g>
    </g>
    <g id="xtick_8">
     <g id="line2d_8">
      <g>
       <use xlink:href="#m10df9ffaf4" x="53.67147" y="390.04" style="stroke: #000000; stroke-width: 0.8"/>
      </g>
     </g>
     <g id="text_8">
      <!-- 14 -->
      <g transform="translate(47.30897 404.638438) scale(0.1 -0.1)">
       <use xlink:href="#DejaVuSans-31"/>
       <use xlink:href="#DejaVuSans-34" transform="translate(63.623047 0)"/>
      </g>
     </g>
    </g>
    <g id="xtick_9">
     <g id="line2d_9">
      <defs>
       <path id="m13c87f03a8" d="M 0 0 
L 0 2 
" style="stroke: #000000; stroke-width: 0.6"/>
      </defs>
      <g>
       <use xlink:href="#m13c87f03a8" x="853.2" y="390.04" style="stroke: #000000; stroke-width: 0.6"/>
      </g>
     </g>
    </g>
    <g id="xtick_10">
     <g id="line2d_10">
      <g>
       <use xlink:href="#m13c87f03a8" x="798.060101" y="390.04" style="stroke: #000000; stroke-width: 0.6"/>
      </g>
     </g>
    </g>
    <g id="xtick_11">
     <g id="line2d_11">
      <g>
       <use xlink:href="#m13c87f03a8" x="770.490152" y="390.04" style="stroke: #000000; stroke-width: 0.6"/>
      </g>
     </g>
    </g>
    <g id="xtick_12">
     <g id="line2d_12">
      <g>
       <use xlink:href="#m13c87f03a8" x="742.920203" y="390.04" style="stroke: #000000; stroke-width: 0.6"/>
      </g>
     </g>
    </g>
    <g id="xtick_13">
     <g id="line2d_13">
      <g>
       <use xlink:href="#m13c87f03a8" x="687.780304" y="390.04" style="stroke: #000000; stroke-width: 0.6"/>
      </g>
     </g>
    </g>
    <g id="xtick_14">
     <g id="line2d_14">
      <g>
       <use xlink:href="#m13c87f03a8" x="660.210355" y="390.04" style="stroke: #000000; stroke-width: 0.6"/>
      </g>
     </g>
    </g>
    <g id="xtick_15">
     <g id="line2d_15">
      <g>
       <use xlink:href="#m13c87f03a8" x="632.640405" y="390.04" style="stroke: #000000; stroke-width: 0.6"/>
      </g>
     </g>
    </g>
    <g id="xtick_16">
     <g id="line2d_16">
      <g>
       <use xlink:href="#m13c87f03a8" x="577.500507" y="390.04" style="stroke: #000000; stroke-width: 0.6"/>
      </g>
     </g>
    </g>
    <g id="xtick_17">
     <g id="line2d_17">
      <g>
       <use xlink:href="#m13c87f03a8" x="549.930557" y="390.04" style="stroke: #000000; stroke-width: 0.6"/>
      </g>
     </g>
    </g>
    <g id="xtick_18">
     <g id="line2d_18">
      <g>
       <use xlink:href="#m13c87f03a8" x="522.360608" y="390.04" style="stroke: #000000; stroke-width: 0.6"/>
      </g>
     </g>
    </g>
    <g id="xtick_19">
     <g id="line2d_19">
      <g>
       <use xlink:href="#m13c87f03a8" x="467.22071" y="390.04" style="stroke: #000000; stroke-width: 0.6"/>
      </g>
     </g>
    </g>
    <g id="xtick_20">
     <g id="line2d_20">
      <g>
       <use xlink:href="#m13c87f03a8" x="439.65076" y="390.04" style="stroke: #000000; stroke-width: 0.6"/>
      </g>
     </g>
    </g>
    <g id="xtick_21">
     <g id="line2d_21">
      <g>
       <use xlink:href="#m13c87f03a8" x="412.080811" y="390.04" style="stroke: #000000; stroke-width: 0.6"/>
      </g>
     </g>
    </g>
    <g id="xtick_22">
     <g id="line2d_22">
      <g>
       <use xlink:href="#m13c87f03a8" x="356.940912" y="390.04" style="stroke: #000000; stroke-width: 0.6"/>
      </g>
     </g>
    </g>
    <g id="xtick_23">
     <g id="line2d_23">
      <g>
       <use xlink:href="#m13c87f03a8" x="329.370963" y="390.04" style="stroke: #000000; stroke-width: 0.6"/>
      </g>
     </g>
    </g>
    <g id="xtick_24">
     <g id="line2d_24">
      <g>
       <use xlink:href="#m13c87f03a8" x="301.801014" y="390.04" style="stroke: #000000; stroke-width: 0.6"/>
      </g>
     </g>
    </g>
    <g id="xtick_25">
     <g id="line2d_25">
      <g>
       <use xlink:href="#m13c87f03a8" x="246.661115" y="390.04" style="stroke: #000000; stroke-width: 0.6"/>
      </g>
     </g>
    </g>
    <g id="xtick_26">
     <g id="line2d_26">
      <g>
       <use xlink:href="#m13c87f03a8" x="219.091166" y="390.04" style="stroke: #000000; stroke-width: 0.6"/>
      </g>
     </g>
    </g>
    <g id="xtick_27">
     <g id="line2d_27">
      <g>
       <use xlink:href="#m13c87f03a8" x="191.521216" y="390.04" style="stroke: #000000; stroke-width: 0.6"/>
      </g>
     </g>
    </g>
    <g id="xtick_28">
     <g id="line2d_28">
      <g>
       <use xlink:href="#m13c87f03a8" x="136.381318" y="390.04" style="stroke: #000000; stroke-width: 0.6"/>
      </g>
     </g>
    </g>
    <g id="xtick_29">
     <g id="line2d_29">
      <g>
       <use xlink:href="#m13c87f03a8" x="108.811368" y="390.04" style="stroke: #000000; stroke-width: 0.6"/>
      </g>
     </g>
    </g>
    <g id="xtick_30">
     <g id="line2d_30">
      <g>
       <use xlink:href="#m13c87f03a8" x="81.241419" y="390.04" style="stroke: #000000; stroke-width: 0.6"/>
      </g>
     </g>
    </g>
    <g id="text_9">
     <!-- Chemical Shift (ppm) -->
     <g transform="translate(393.980266 418.316562) scale(0.1 -0.1)">
      <defs>
       <path id="DejaVuSans-Bold-43" d="M 4288 256 
Q 3956 84 3597 -3 
Q 3238 -91 2847 -91 
Q 1681 -91 1000 561 
Q 319 1213 319 2328 
Q 319 3447 1000 4098 
Q 1681 4750 2847 4750 
Q 3238 4750 3597 4662 
Q 3956 4575 4288 4403 
L 4288 3438 
Q 3953 3666 3628 3772 
Q 3303 3878 2944 3878 
Q 2300 3878 1931 3465 
Q 1563 3053 1563 2328 
Q 1563 1606 1931 1193 
Q 2300 781 2944 781 
Q 3303 781 3628 887 
Q 3953 994 4288 1222 
L 4288 256 
z
" transform="scale(0.015625)"/>
       <path id="DejaVuSans-Bold-68" d="M 4056 2131 
L 4056 0 
L 2931 0 
L 2931 347 
L 2931 1625 
Q 2931 2084 2911 2256 
Q 2891 2428 2841 2509 
Q 2775 2619 2662 2680 
Q 2550 2741 2406 2741 
Q 2056 2741 1856 2470 
Q 1656 2200 1656 1722 
L 1656 0 
L 538 0 
L 538 4863 
L 1656 4863 
L 1656 2988 
Q 1909 3294 2193 3439 
Q 2478 3584 2822 3584 
Q 3428 3584 3742 3212 
Q 4056 2841 4056 2131 
z
" transform="scale(0.015625)"/>
       <path id="DejaVuSans-Bold-65" d="M 4031 1759 
L 4031 1441 
L 1416 1441 
Q 1456 1047 1700 850 
Q 1944 653 2381 653 
Q 2734 653 3104 758 
Q 3475 863 3866 1075 
L 3866 213 
Q 3469 63 3072 -14 
Q 2675 -91 2278 -91 
Q 1328 -91 801 392 
Q 275 875 275 1747 
Q 275 2603 792 3093 
Q 1309 3584 2216 3584 
Q 3041 3584 3536 3087 
Q 4031 2591 4031 1759 
z
M 2881 2131 
Q 2881 2450 2695 2645 
Q 2509 2841 2209 2841 
Q 1884 2841 1681 2658 
Q 1478 2475 1428 2131 
L 2881 2131 
z
" transform="scale(0.015625)"/>
       <path id="DejaVuSans-Bold-6d" d="M 3781 2919 
Q 3994 3244 4286 3414 
Q 4578 3584 4928 3584 
Q 5531 3584 5847 3212 
Q 6163 2841 6163 2131 
L 6163 0 
L 5038 0 
L 5038 1825 
Q 5041 1866 5042 1909 
Q 5044 1953 5044 2034 
Q 5044 2406 4934 2573 
Q 4825 2741 4581 2741 
Q 4263 2741 4089 2478 
Q 3916 2216 3909 1719 
L 3909 0 
L 2784 0 
L 2784 1825 
Q 2784 2406 2684 2573 
Q 2584 2741 2328 2741 
Q 2006 2741 1831 2477 
Q 1656 2213 1656 1722 
L 1656 0 
L 531 0 
L 531 3500 
L 1656 3500 
L 1656 2988 
Q 1863 3284 2130 3434 
Q 2397 3584 2719 3584 
Q 3081 3584 3359 3409 
Q 3638 3234 3781 2919 
z
" transform="scale(0.015625)"/>
       <path id="DejaVuSans-Bold-69" d="M 538 3500 
L 1656 3500 
L 1656 0 
L 538 0 
L 538 3500 
z
M 538 4863 
L 1656 4863 
L 1656 3950 
L 538 3950 
L 538 4863 
z
" transform="scale(0.015625)"/>
       <path id="DejaVuSans-Bold-63" d="M 3366 3391 
L 3366 2478 
Q 3138 2634 2908 2709 
Q 2678 2784 2431 2784 
Q 1963 2784 1702 2511 
Q 1441 2238 1441 1747 
Q 1441 1256 1702 982 
Q 1963 709 2431 709 
Q 2694 709 2930 787 
Q 3166 866 3366 1019 
L 3366 103 
Q 3103 6 2833 -42 
Q 2563 -91 2291 -91 
Q 1344 -91 809 395 
Q 275 881 275 1747 
Q 275 2613 809 3098 
Q 1344 3584 2291 3584 
Q 2566 3584 2833 3536 
Q 3100 3488 3366 3391 
z
" transform="scale(0.015625)"/>
       <path id="DejaVuSans-Bold-61" d="M 2106 1575 
Q 1756 1575 1579 1456 
Q 1403 1338 1403 1106 
Q 1403 894 1545 773 
Q 1688 653 1941 653 
Q 2256 653 2472 879 
Q 2688 1106 2688 1447 
L 2688 1575 
L 2106 1575 
z
M 3816 1997 
L 3816 0 
L 2688 0 
L 2688 519 
Q 2463 200 2181 54 
Q 1900 -91 1497 -91 
Q 953 -91 614 226 
Q 275 544 275 1050 
Q 275 1666 698 1953 
Q 1122 2241 2028 2241 
L 2688 2241 
L 2688 2328 
Q 2688 2594 2478 2717 
Q 2269 2841 1825 2841 
Q 1466 2841 1156 2769 
Q 847 2697 581 2553 
L 581 3406 
Q 941 3494 1303 3539 
Q 1666 3584 2028 3584 
Q 2975 3584 3395 3211 
Q 3816 2838 3816 1997 
z
" transform="scale(0.015625)"/>
       <path id="DejaVuSans-Bold-6c" d="M 538 4863 
L 1656 4863 
L 1656 0 
L 538 0 
L 538 4863 
z
" transform="scale(0.015625)"/>
       <path id="DejaVuSans-Bold-20" transform="scale(0.015625)"/>
       <path id="DejaVuSans-Bold-53" d="M 3834 4519 
L 3834 3531 
Q 3450 3703 3084 3790 
Q 2719 3878 2394 3878 
Q 1963 3878 1756 3759 
Q 1550 3641 1550 3391 
Q 1550 3203 1689 3098 
Q 1828 2994 2194 2919 
L 2706 2816 
Q 3484 2659 3812 2340 
Q 4141 2022 4141 1434 
Q 4141 663 3683 286 
Q 3225 -91 2284 -91 
Q 1841 -91 1394 -6 
Q 947 78 500 244 
L 500 1259 
Q 947 1022 1364 901 
Q 1781 781 2169 781 
Q 2563 781 2772 912 
Q 2981 1044 2981 1288 
Q 2981 1506 2839 1625 
Q 2697 1744 2272 1838 
L 1806 1941 
Q 1106 2091 782 2419 
Q 459 2747 459 3303 
Q 459 4000 909 4375 
Q 1359 4750 2203 4750 
Q 2588 4750 2994 4692 
Q 3400 4634 3834 4519 
z
" transform="scale(0.015625)"/>
       <path id="DejaVuSans-Bold-66" d="M 2841 4863 
L 2841 4128 
L 2222 4128 
Q 1984 4128 1890 4042 
Q 1797 3956 1797 3744 
L 1797 3500 
L 2753 3500 
L 2753 2700 
L 1797 2700 
L 1797 0 
L 678 0 
L 678 2700 
L 122 2700 
L 122 3500 
L 678 3500 
L 678 3744 
Q 678 4316 997 4589 
Q 1316 4863 1984 4863 
L 2841 4863 
z
" transform="scale(0.015625)"/>
       <path id="DejaVuSans-Bold-74" d="M 1759 4494 
L 1759 3500 
L 2913 3500 
L 2913 2700 
L 1759 2700 
L 1759 1216 
Q 1759 972 1856 886 
Q 1953 800 2241 800 
L 2816 800 
L 2816 0 
L 1856 0 
Q 1194 0 917 276 
Q 641 553 641 1216 
L 641 2700 
L 84 2700 
L 84 3500 
L 641 3500 
L 641 4494 
L 1759 4494 
z
" transform="scale(0.015625)"/>
       <path id="DejaVuSans-Bold-28" d="M 2413 -844 
L 1484 -844 
Q 1006 -72 778 623 
Q 550 1319 550 2003 
Q 550 2688 779 3389 
Q 1009 4091 1484 4856 
L 2413 4856 
Q 2013 4116 1813 3408 
Q 1613 2700 1613 2009 
Q 1613 1319 1811 609 
Q 2009 -100 2413 -844 
z
" transform="scale(0.015625)"/>
       <path id="DejaVuSans-Bold-70" d="M 1656 506 
L 1656 -1331 
L 538 -1331 
L 538 3500 
L 1656 3500 
L 1656 2988 
Q 1888 3294 2169 3439 
Q 2450 3584 2816 3584 
Q 3463 3584 3878 3070 
Q 4294 2556 4294 1747 
Q 4294 938 3878 423 
Q 3463 -91 2816 -91 
Q 2450 -91 2169 54 
Q 1888 200 1656 506 
z
M 2400 2772 
Q 2041 2772 1848 2508 
Q 1656 2244 1656 1747 
Q 1656 1250 1848 986 
Q 2041 722 2400 722 
Q 2759 722 2948 984 
Q 3138 1247 3138 1747 
Q 3138 2247 2948 2509 
Q 2759 2772 2400 2772 
z
" transform="scale(0.015625)"/>
       <path id="DejaVuSans-Bold-29" d="M 513 -844 
Q 913 -100 1113 609 
Q 1313 1319 1313 2009 
Q 1313 2700 1113 3408 
Q 913 4116 513 4856 
L 1441 4856 
Q 1916 4091 2145 3389 
Q 2375 2688 2375 2003 
Q 2375 1319 2147 623 
Q 1919 -72 1441 -844 
L 513 -844 
z
" transform="scale(0.015625)"/>
      </defs>
      <use xlink:href="#DejaVuSans-Bold-43"/>
      <use xlink:href="#DejaVuSans-Bold-68" transform="translate(73.388672 0)"/>
      <use xlink:href="#DejaVuSans-Bold-65" transform="translate(144.580078 0)"/>
      <use xlink:href="#DejaVuSans-Bold-6d" transform="translate(212.402344 0)"/>
      <use xlink:href="#DejaVuSans-Bold-69" transform="translate(316.601562 0)"/>
      <use xlink:href="#DejaVuSans-Bold-63" transform="translate(350.878906 0)"/>
      <use xlink:href="#DejaVuSans-Bold-61" transform="translate(410.15625 0)"/>
      <use xlink:href="#DejaVuSans-Bold-6c" transform="translate(477.636719 0)"/>
      <use xlink:href="#DejaVuSans-Bold-20" transform="translate(511.914062 0)"/>
      <use xlink:href="#DejaVuSans-Bold-53" transform="translate(546.728516 0)"/>
      <use xlink:href="#DejaVuSans-Bold-68" transform="translate(618.75 0)"/>
      <use xlink:href="#DejaVuSans-Bold-69" transform="translate(689.941406 0)"/>
      <use xlink:href="#DejaVuSans-Bold-66" transform="translate(724.21875 0)"/>
      <use xlink:href="#DejaVuSans-Bold-74" transform="translate(767.724609 0)"/>
      <use xlink:href="#DejaVuSans-Bold-20" transform="translate(815.527344 0)"/>
      <use xlink:href="#DejaVuSans-Bold-28" transform="translate(850.341797 0)"/>
      <use xlink:href="#DejaVuSans-Bold-70" transform="translate(896.044922 0)"/>
      <use xlink:href="#DejaVuSans-Bold-70" transform="translate(967.626953 0)"/>
      <use xlink:href="#DejaVuSans-Bold-6d" transform="translate(1039.208984 0)"/>
      <use xlink:href="#DejaVuSans-Bold-29" transform="translate(1143.408203 0)"/>
     </g>
    </g>
   </g>
   <g id="matplotlib.axis_2">
    <g id="ytick_1">
     <g id="line2d_31">
      <defs>
       <path id="m49dc16c12e" d="M 0 0 
L -3.5 0 
" style="stroke: #000000; stroke-width: 0.8"/>
      </defs>
      <g>
       <use xlink:href="#m49dc16c12e" x="53.67147" y="351.944044" style="stroke: #000000; stroke-width: 0.8"/>
      </g>
     </g>
     <g id="text_10">
      <!-- $\mathdefault{−20}$ -->
      <g transform="translate(25.47147 355.743263) scale(0.1 -0.1)">
       <defs>
        <path id="DejaVuSans-2212" d="M 678 2272 
L 4684 2272 
L 4684 1741 
L 678 1741 
L 678 2272 
z
" transform="scale(0.015625)"/>
       </defs>
       <use xlink:href="#DejaVuSans-2212" transform="translate(0 0.78125)"/>
       <use xlink:href="#DejaVuSans-32" transform="translate(83.789062 0.78125)"/>
       <use xlink:href="#DejaVuSans-30" transform="translate(147.412109 0.78125)"/>
      </g>
     </g>
    </g>
    <g id="ytick_2">
     <g id="line2d_32">
      <g>
       <use xlink:href="#m49dc16c12e" x="53.67147" y="288.619295" style="stroke: #000000; stroke-width: 0.8"/>
      </g>
     </g>
     <g id="text_11">
      <!-- $\mathdefault{−10}$ -->
      <g transform="translate(25.47147 292.418514) scale(0.1 -0.1)">
       <use xlink:href="#DejaVuSans-2212" transform="translate(0 0.78125)"/>
       <use xlink:href="#DejaVuSans-31" transform="translate(83.789062 0.78125)"/>
       <use xlink:href="#DejaVuSans-30" transform="translate(147.412109 0.78125)"/>
      </g>
     </g>
    </g>
    <g id="ytick_3">
     <g id="line2d_33">
      <g>
       <use xlink:href="#m49dc16c12e" x="53.67147" y="225.294547" style="stroke: #000000; stroke-width: 0.8"/>
      </g>
     </g>
     <g id="text_12">
      <!-- $\mathdefault{0}$ -->
      <g transform="translate(40.27147 229.093765) scale(0.1 -0.1)">
       <use xlink:href="#DejaVuSans-30" transform="translate(0 0.78125)"/>
      </g>
     </g>
    </g>
    <g id="ytick_4">
     <g id="line2d_34">
      <g>
       <use xlink:href="#m49dc16c12e" x="53.67147" y="161.969798" style="stroke: #000000; stroke-width: 0.8"/>
      </g>
     </g>
     <g id="text_13">
      <!-- $\mathdefault{10}$ -->
      <g transform="translate(33.87147 165.769017) scale(0.1 -0.1)">
       <use xlink:href="#DejaVuSans-31" transform="translate(0 0.78125)"/>
       <use xlink:href="#DejaVuSans-30" transform="translate(63.623047 0.78125)"/>
      </g>
     </g>
    </g>
    <g id="ytick_5">
     <g id="line2d_35">
      <g>
       <use xlink:href="#m49dc16c12e" x="53.67147" y="98.645049" style="stroke: #000000; stroke-width: 0.8"/>
      </g>
     </g>
     <g id="text_14">
      <!-- $\mathdefault{20}$ -->
      <g transform="translate(33.87147 102.444268) scale(0.1 -0.1)">
       <use xlink:href="#DejaVuSans-32" transform="translate(0 0.78125)"/>
       <use xlink:href="#DejaVuSans-30" transform="translate(63.623047 0.78125)"/>
      </g>
     </g>
    </g>
    <g id="ytick_6">
     <g id="line2d_36">
      <g>
       <use xlink:href="#m49dc16c12e" x="53.67147" y="35.320301" style="stroke: #000000; stroke-width: 0.8"/>
      </g>
     </g>
     <g id="text_15">
      <!-- $\mathdefault{30}$ -->
      <g transform="translate(33.87147 39.119519) scale(0.1 -0.1)">
       <defs>
        <path id="DejaVuSans-33" d="M 2597 2516 
Q 3050 2419 3304 2112 
Q 3559 1806 3559 1356 
Q 3559 666 3084 287 
Q 2609 -91 1734 -91 
Q 1441 -91 1130 -33 
Q 819 25 488 141 
L 488 750 
Q 750 597 1062 519 
Q 1375 441 1716 441 
Q 2309 441 2620 675 
Q 2931 909 2931 1356 
Q 2931 1769 2642 2001 
Q 2353 2234 1838 2234 
L 1294 2234 
L 1294 2753 
L 1863 2753 
Q 2328 2753 2575 2939 
Q 2822 3125 2822 3475 
Q 2822 3834 2567 4026 
Q 2313 4219 1838 4219 
Q 1578 4219 1281 4162 
Q 984 4106 628 3988 
L 628 4550 
Q 988 4650 1302 4700 
Q 1616 4750 1894 4750 
Q 2613 4750 3031 4423 
Q 3450 4097 3450 3541 
Q 3450 3153 3228 2886 
Q 3006 2619 2597 2516 
z
" transform="scale(0.015625)"/>
       </defs>
       <use xlink:href="#DejaVuSans-33" transform="translate(0 0.78125)"/>
       <use xlink:href="#DejaVuSans-30" transform="translate(63.623047 0.78125)"/>
      </g>
     </g>
    </g>
    <g id="ytick_7">
     <g id="line2d_37">
      <defs>
       <path id="m37b52006da" d="M 0 0 
L -2 0 
" style="stroke: #000000; stroke-width: 0.6"/>
      </defs>
      <g>
       <use xlink:href="#m37b52006da" x="53.67147" y="389.938893" style="stroke: #000000; stroke-width: 0.6"/>
      </g>
     </g>
    </g>
    <g id="ytick_8">
     <g id="line2d_38">
      <g>
       <use xlink:href="#m37b52006da" x="53.67147" y="377.273943" style="stroke: #000000; stroke-width: 0.6"/>
      </g>
     </g>
    </g>
    <g id="ytick_9">
     <g id="line2d_39">
      <g>
       <use xlink:href="#m37b52006da" x="53.67147" y="364.608994" style="stroke: #000000; stroke-width: 0.6"/>
      </g>
     </g>
    </g>
    <g id="ytick_10">
     <g id="line2d_40">
      <g>
       <use xlink:href="#m37b52006da" x="53.67147" y="339.279094" style="stroke: #000000; stroke-width: 0.6"/>
      </g>
     </g>
    </g>
    <g id="ytick_11">
     <g id="line2d_41">
      <g>
       <use xlink:href="#m37b52006da" x="53.67147" y="326.614144" style="stroke: #000000; stroke-width: 0.6"/>
      </g>
     </g>
    </g>
    <g id="ytick_12">
     <g id="line2d_42">
      <g>
       <use xlink:href="#m37b52006da" x="53.67147" y="313.949195" style="stroke: #000000; stroke-width: 0.6"/>
      </g>
     </g>
    </g>
    <g id="ytick_13">
     <g id="line2d_43">
      <g>
       <use xlink:href="#m37b52006da" x="53.67147" y="301.284245" style="stroke: #000000; stroke-width: 0.6"/>
      </g>
     </g>
    </g>
    <g id="ytick_14">
     <g id="line2d_44">
      <g>
       <use xlink:href="#m37b52006da" x="53.67147" y="275.954345" style="stroke: #000000; stroke-width: 0.6"/>
      </g>
     </g>
    </g>
    <g id="ytick_15">
     <g id="line2d_45">
      <g>
       <use xlink:href="#m37b52006da" x="53.67147" y="263.289396" style="stroke: #000000; stroke-width: 0.6"/>
      </g>
     </g>
    </g>
    <g id="ytick_16">
     <g id="line2d_46">
      <g>
       <use xlink:href="#m37b52006da" x="53.67147" y="250.624446" style="stroke: #000000; stroke-width: 0.6"/>
      </g>
     </g>
    </g>
    <g id="ytick_17">
     <g id="line2d_47">
      <g>
       <use xlink:href="#m37b52006da" x="53.67147" y="237.959496" style="stroke: #000000; stroke-width: 0.6"/>
      </g>
     </g>
    </g>
    <g id="ytick_18">
     <g id="line2d_48">
      <g>
       <use xlink:href="#m37b52006da" x="53.67147" y="212.629597" style="stroke: #000000; stroke-width: 0.6"/>
      </g>
     </g>
    </g>
    <g id="ytick_19">
     <g id="line2d_49">
      <g>
       <use xlink:href="#m37b52006da" x="53.67147" y="199.964647" style="stroke: #000000; stroke-width: 0.6"/>
      </g>
     </g>
    </g>
    <g id="ytick_20">
     <g id="line2d_50">
      <g>
       <use xlink:href="#m37b52006da" x="53.67147" y="187.299697" style="stroke: #000000; stroke-width: 0.6"/>
      </g>
     </g>
    </g>
    <g id="ytick_21">
     <g id="line2d_51">
      <g>
       <use xlink:href="#m37b52006da" x="53.67147" y="174.634748" style="stroke: #000000; stroke-width: 0.6"/>
      </g>
     </g>
    </g>
    <g id="ytick_22">
     <g id="line2d_52">
      <g>
       <use xlink:href="#m37b52006da" x="53.67147" y="149.304848" style="stroke: #000000; stroke-width: 0.6"/>
      </g>
     </g>
    </g>
    <g id="ytick_23">
     <g id="line2d_53">
      <g>
       <use xlink:href="#m37b52006da" x="53.67147" y="136.639898" style="stroke: #000000; stroke-width: 0.6"/>
      </g>
     </g>
    </g>
    <g id="ytick_24">
     <g id="line2d_54">
      <g>
       <use xlink:href="#m37b52006da" x="53.67147" y="123.974949" style="stroke: #000000; stroke-width: 0.6"/>
      </g>
     </g>
    </g>
    <g id="ytick_25">
     <g id="line2d_55">
      <g>
       <use xlink:href="#m37b52006da" x="53.67147" y="111.309999" style="stroke: #000000; stroke-width: 0.6"/>
      </g>
     </g>
    </g>
    <g id="ytick_26">
     <g id="line2d_56">
      <g>
       <use xlink:href="#m37b52006da" x="53.67147" y="85.980099" style="stroke: #000000; stroke-width: 0.6"/>
      </g>
     </g>
    </g>
    <g id="ytick_27">
     <g id="line2d_57">
      <g>
       <use xlink:href="#m37b52006da" x="53.67147" y="73.31515" style="stroke: #000000; stroke-width: 0.6"/>
      </g>
     </g>
    </g>
    <g id="ytick_28">
     <g id="line2d_58">
      <g>
       <use xlink:href="#m37b52006da" x="53.67147" y="60.6502" style="stroke: #000000; stroke-width: 0.6"/>
      </g>
     </g>
    </g>
    <g id="ytick_29">
     <g id="line2d_59">
      <g>
       <use xlink:href="#m37b52006da" x="53.67147" y="47.98525" style="stroke: #000000; stroke-width: 0.6"/>
      </g>
     </g>
    </g>
    <g id="text_16">
     <!-- Intensity (a.u.) -->
     <g transform="translate(19.313657 250.962187) rotate(-90) scale(0.1 -0.1)">
      <defs>
       <path id="DejaVuSans-Bold-49" d="M 588 4666 
L 1791 4666 
L 1791 0 
L 588 0 
L 588 4666 
z
" transform="scale(0.015625)"/>
       <path id="DejaVuSans-Bold-6e" d="M 4056 2131 
L 4056 0 
L 2931 0 
L 2931 347 
L 2931 1631 
Q 2931 2084 2911 2256 
Q 2891 2428 2841 2509 
Q 2775 2619 2662 2680 
Q 2550 2741 2406 2741 
Q 2056 2741 1856 2470 
Q 1656 2200 1656 1722 
L 1656 0 
L 538 0 
L 538 3500 
L 1656 3500 
L 1656 2988 
Q 1909 3294 2193 3439 
Q 2478 3584 2822 3584 
Q 3428 3584 3742 3212 
Q 4056 2841 4056 2131 
z
" transform="scale(0.015625)"/>
       <path id="DejaVuSans-Bold-73" d="M 3272 3391 
L 3272 2541 
Q 2913 2691 2578 2766 
Q 2244 2841 1947 2841 
Q 1628 2841 1473 2761 
Q 1319 2681 1319 2516 
Q 1319 2381 1436 2309 
Q 1553 2238 1856 2203 
L 2053 2175 
Q 2913 2066 3209 1816 
Q 3506 1566 3506 1031 
Q 3506 472 3093 190 
Q 2681 -91 1863 -91 
Q 1516 -91 1145 -36 
Q 775 19 384 128 
L 384 978 
Q 719 816 1070 734 
Q 1422 653 1784 653 
Q 2113 653 2278 743 
Q 2444 834 2444 1013 
Q 2444 1163 2330 1236 
Q 2216 1309 1875 1350 
L 1678 1375 
Q 931 1469 631 1722 
Q 331 1975 331 2491 
Q 331 3047 712 3315 
Q 1094 3584 1881 3584 
Q 2191 3584 2531 3537 
Q 2872 3491 3272 3391 
z
" transform="scale(0.015625)"/>
       <path id="DejaVuSans-Bold-79" d="M 78 3500 
L 1197 3500 
L 2138 1125 
L 2938 3500 
L 4056 3500 
L 2584 -331 
Q 2363 -916 2067 -1148 
Q 1772 -1381 1288 -1381 
L 641 -1381 
L 641 -647 
L 991 -647 
Q 1275 -647 1404 -556 
Q 1534 -466 1606 -231 
L 1638 -134 
L 78 3500 
z
" transform="scale(0.015625)"/>
       <path id="DejaVuSans-Bold-2e" d="M 653 1209 
L 1778 1209 
L 1778 0 
L 653 0 
L 653 1209 
z
" transform="scale(0.015625)"/>
       <path id="DejaVuSans-Bold-75" d="M 500 1363 
L 500 3500 
L 1625 3500 
L 1625 3150 
Q 1625 2866 1622 2436 
Q 1619 2006 1619 1863 
Q 1619 1441 1641 1255 
Q 1663 1069 1716 984 
Q 1784 875 1895 815 
Q 2006 756 2150 756 
Q 2500 756 2700 1025 
Q 2900 1294 2900 1772 
L 2900 3500 
L 4019 3500 
L 4019 0 
L 2900 0 
L 2900 506 
Q 2647 200 2364 54 
Q 2081 -91 1741 -91 
Q 1134 -91 817 281 
Q 500 653 500 1363 
z
" transform="scale(0.015625)"/>
      </defs>
      <use xlink:href="#DejaVuSans-Bold-49"/>
      <use xlink:href="#DejaVuSans-Bold-6e" transform="translate(37.207031 0)"/>
      <use xlink:href="#DejaVuSans-Bold-74" transform="translate(108.398438 0)"/>
      <use xlink:href="#DejaVuSans-Bold-65" transform="translate(156.201172 0)"/>
      <use xlink:href="#DejaVuSans-Bold-6e" transform="translate(224.023438 0)"/>
      <use xlink:href="#DejaVuSans-Bold-73" transform="translate(295.214844 0)"/>
      <use xlink:href="#DejaVuSans-Bold-69" transform="translate(354.736328 0)"/>
      <use xlink:href="#DejaVuSans-Bold-74" transform="translate(389.013672 0)"/>
      <use xlink:href="#DejaVuSans-Bold-79" transform="translate(436.816406 0)"/>
      <use xlink:href="#DejaVuSans-Bold-20" transform="translate(502.001953 0)"/>
      <use xlink:href="#DejaVuSans-Bold-28" transform="translate(536.816406 0)"/>
      <use xlink:href="#DejaVuSans-Bold-61" transform="translate(582.519531 0)"/>
      <use xlink:href="#DejaVuSans-Bold-2e" transform="translate(650 0)"/>
      <use xlink:href="#DejaVuSans-Bold-75" transform="translate(687.988281 0)"/>
      <use xlink:href="#DejaVuSans-Bold-2e" transform="translate(759.179688 0)"/>
      <use xlink:href="#DejaVuSans-Bold-29" transform="translate(797.167969 0)"/>
     </g>
    </g>
   </g>
   <g id="line2d_60">
    <path d="M 52.768809 224.995127 
L 53.43032 225.013811 
L 56.116863 224.994242 
L 56.52187 224.974774 
L 56.805374 224.979953 
L 57.075379 224.963604 
L 57.291382 224.966754 
L 57.696389 225.000316 
L 58.263398 224.941901 
L 59.775422 224.96694 
L 60.004926 224.960847 
L 60.409933 224.96981 
L 60.963442 224.968119 
L 61.557451 224.986312 
L 61.894957 224.930218 
L 62.08396 224.937221 
L 62.286463 224.973603 
L 63.636485 224.934693 
L 63.865989 224.97116 
L 66.45803 224.928815 
L 66.701034 224.936705 
L 67.119541 224.982493 
L 67.578549 224.961013 
L 67.754051 224.957535 
L 67.983555 224.966142 
L 68.26706 224.973706 
L 68.753068 224.973606 
L 69.023072 224.942096 
L 69.293076 224.92364 
L 69.725083 224.928431 
L 70.062589 224.963474 
L 70.602598 224.934394 
L 70.886102 224.934211 
L 72.708632 224.9125 
L 72.992136 224.906087 
L 73.478144 224.936895 
L 73.721148 224.950354 
L 73.910151 224.925428 
L 74.598662 224.92875 
L 74.814666 224.927135 
L 75.165671 224.937521 
L 75.732681 224.954299 
L 76.205188 224.907714 
L 76.394191 224.91264 
L 76.637195 224.899956 
L 77.379707 224.897627 
L 77.676712 224.917471 
L 78.014218 224.950686 
L 78.257221 224.908357 
L 78.513726 224.926888 
L 78.905232 224.920786 
L 79.229237 224.916708 
L 79.553242 224.908514 
L 79.863747 224.89392 
L 80.61976 224.901795 
L 80.808763 224.884217 
L 81.078767 224.890538 
L 81.740278 224.898974 
L 82.46929 224.899746 
L 82.617792 224.909233 
L 82.982298 224.914108 
L 83.184801 224.912986 
L 83.873312 224.898113 
L 84.858828 224.923498 
L 85.182834 224.879234 
L 85.479838 224.916081 
L 86.492355 224.915892 
L 86.640857 224.887532 
L 86.856861 224.887825 
L 88.449886 224.8956 
L 88.69289 224.878783 
L 89.448903 224.873814 
L 89.610905 224.897552 
L 89.90791 224.90717 
L 92.054445 224.86011 
L 92.243448 224.874341 
L 92.607954 224.858593 
L 92.796957 224.838681 
L 93.066961 224.863141 
L 93.350466 224.876223 
L 106.364676 224.820372 
L 106.702182 224.849926 
L 107.012687 224.842212 
L 107.269191 224.84729 
L 107.957702 224.829218 
L 108.308708 224.864052 
L 109.07822 224.86998 
L 109.361725 224.834911 
L 109.523728 224.833676 
L 112.952783 224.828815 
L 113.128286 224.815179 
L 113.41179 224.847726 
L 114.586309 224.801154 
L 114.761812 224.797617 
L 115.018316 224.806797 
L 115.315321 224.811361 
L 115.463824 224.804959 
L 115.814829 224.795865 
L 116.057833 224.806959 
L 116.975848 224.795926 
L 117.191852 224.835329 
L 117.434856 224.800052 
L 118.285369 224.81918 
L 118.730877 224.814306 
L 118.892879 224.810862 
L 119.081882 224.839109 
L 119.635391 224.815178 
L 119.864895 224.821926 
L 121.538922 224.787463 
L 122.03843 224.810974 
L 122.200433 224.83345 
L 122.402936 224.825086 
L 123.604455 224.825711 
L 123.86096 224.776405 
L 124.670973 224.841695 
L 124.913977 224.807544 
L 125.494486 224.813327 
L 125.683489 224.792116 
L 126.588004 224.792277 
L 127.263015 224.781408 
L 127.398017 224.8041 
L 134.512632 224.806169 
L 135.295645 224.795062 
L 135.511648 224.796101 
L 135.903155 224.817174 
L 137.131674 224.759227 
L 137.46918 224.830411 
L 137.779685 224.775682 
L 138.049689 224.793854 
L 138.211692 224.762709 
L 138.589698 224.792708 
L 138.751701 224.754526 
L 140.601231 224.786535 
L 140.965736 224.781106 
L 141.856751 224.774537 
L 142.059254 224.78617 
L 142.288758 224.780254 
L 142.869267 224.7627 
L 143.179772 224.796711 
L 143.598279 224.743936 
L 143.962785 224.785102 
L 144.165288 224.761289 
L 146.298323 224.773528 
L 146.73033 224.766816 
L 147.000334 224.74578 
L 151.644409 224.768183 
L 151.846913 224.741366 
L 153.912446 224.744465 
L 155.221967 224.742899 
L 156.382986 224.729813 
L 156.922995 224.724523 
L 157.152498 224.734511 
L 159.08303 224.737597 
L 159.312533 224.754224 
L 159.650039 224.71769 
L 160.36555 224.721834 
L 160.743557 224.743748 
L 160.919059 224.751796 
L 161.904575 224.722163 
L 162.350083 224.747414 
L 162.606587 224.748923 
L 166.197645 224.731304 
L 166.427149 224.721428 
L 166.764654 224.719381 
L 167.007658 224.710539 
L 167.507166 224.745797 
L 167.817671 224.702196 
L 168.34418 224.729711 
L 168.641184 224.722717 
L 171.665233 224.728735 
L 171.881237 224.713223 
L 172.569748 224.710248 
L 173.109757 224.686496 
L 174.297776 224.709004 
L 174.446278 224.697645 
L 174.972787 224.685563 
L 175.256292 224.691604 
L 175.566797 224.716456 
L 175.742299 224.717851 
L 175.985303 224.691835 
L 176.187807 224.72386 
L 176.673814 224.688487 
L 178.023836 224.70619 
L 179.832866 224.697656 
L 180.07587 224.675748 
L 181.709396 224.682381 
L 181.844398 224.702839 
L 182.046901 224.693807 
L 183.126919 224.684341 
L 183.572426 224.714066 
L 183.81543 224.682712 
L 184.085434 224.674516 
L 184.908948 224.711355 
L 185.219453 224.682274 
L 185.489457 224.69248 
L 187.433489 224.683983 
L 187.635992 224.690604 
L 188.351503 224.685768 
L 189.080515 224.693596 
L 190.741042 224.693874 
L 190.889545 224.65675 
L 191.25405 224.685217 
L 192.46907 224.685277 
L 192.685074 224.654861 
L 195.776624 224.659951 
L 196.735139 224.664079 
L 197.005144 224.638831 
L 197.464151 224.687682 
L 197.653154 224.650182 
L 197.815157 224.655031 
L 202.32423 224.65502 
L 202.499732 224.656262 
L 202.94524 224.658506 
L 203.174743 224.667691 
L 203.350246 224.661905 
L 204.106258 224.648278 
L 204.322262 224.652909 
L 204.524765 224.646816 
L 204.862271 224.646442 
L 205.091774 224.631892 
L 205.45628 224.646284 
L 205.874787 224.663925 
L 206.05029 224.639755 
L 207.170808 224.647082 
L 207.346311 224.680183 
L 207.589315 224.629052 
L 208.007822 224.647174 
L 208.210325 224.643328 
L 208.844835 224.630335 
L 208.966337 224.669753 
L 209.317343 224.643412 
L 209.506346 224.666242 
L 209.830351 224.644794 
L 209.992354 224.629847 
L 210.35686 224.623681 
L 210.721366 224.673584 
L 211.207373 224.642643 
L 254.732078 224.603121 
L 255.083084 224.586305 
L 255.272087 224.593129 
L 255.582592 224.569637 
L 255.906597 224.55813 
L 256.190102 224.56085 
L 256.608608 224.546029 
L 256.865112 224.565924 
L 257.148617 224.57549 
L 257.418621 224.58186 
L 257.621125 224.535286 
L 258.660641 224.557173 
L 258.876645 224.543692 
L 259.551656 224.548484 
L 259.713659 224.600007 
L 264.11473 224.522312 
L 264.438735 224.44142 
L 264.73574 224.542732 
L 265.221748 224.52826 
L 265.97776 224.548959 
L 269.67682 224.565087 
L 269.825322 224.538677 
L 270.94584 224.539231 
L 271.256345 224.519114 
L 272.76837 224.460203 
L 273.119376 224.278422 
L 273.267878 224.273482 
L 273.38938 224.223689 
L 273.578383 223.826136 
L 273.713385 222.793326 
L 273.848387 219.835157 
L 273.956389 211.386698 
L 274.064391 197.596494 
L 274.118392 202.85544 
L 274.334395 220.63447 
L 274.550399 223.242538 
L 274.793403 223.960643 
L 275.022906 224.061439 
L 275.130908 224.13194 
L 275.414413 224.310682 
L 275.940921 224.39486 
L 276.116424 224.406914 
L 277.155941 224.461461 
L 277.601448 224.451561 
L 277.790451 224.437862 
L 278.114456 224.465097 
L 280.409494 224.447138 
L 281.003503 224.355905 
L 281.40851 224.426214 
L 281.867517 224.486669 
L 282.110521 224.472361 
L 282.367025 224.469726 
L 282.569528 224.477067 
L 283.703547 224.476941 
L 284.216555 224.379139 
L 284.405558 224.464286 
L 284.797065 224.491814 
L 285.283072 224.476757 
L 285.458575 224.511886 
L 285.701579 224.488769 
L 286.34959 224.491714 
L 286.511592 224.493619 
L 286.849098 224.471252 
L 287.308105 224.505127 
L 287.537609 224.502802 
L 287.942615 224.478673 
L 288.509625 224.466311 
L 288.82013 224.457465 
L 289.103634 224.492127 
L 289.657143 224.491722 
L 290.251153 224.490317 
L 290.629159 224.501933 
L 290.804662 224.508159 
L 291.128667 224.488522 
L 291.29067 224.479634 
L 291.668676 224.495259 
L 293.126699 224.488504 
L 293.248201 224.463877 
L 293.78821 224.468823 
L 294.193217 224.466791 
L 294.746726 224.44749 
L 294.949229 224.444243 
L 295.867244 224.477478 
L 296.069747 224.491122 
L 297.271266 224.468395 
L 297.48727 224.471103 
L 298.243282 224.485354 
L 298.594288 224.492987 
L 298.850792 224.472527 
L 299.485302 224.458495 
L 299.647305 224.479217 
L 303.980875 224.442032 
L 304.196879 224.458978 
L 304.858389 224.456814 
L 305.276896 224.462074 
L 305.479399 224.4345 
L 305.735903 224.440155 
L 306.12741 224.438043 
L 308.354946 224.44522 
L 308.705952 224.418148 
L 309.23246 224.431094 
L 309.934471 224.455341 
L 311.784001 224.449923 
L 312.000005 224.436605 
L 312.445512 224.450465 
L 312.648015 224.447833 
L 314.241041 224.467559 
L 314.592047 224.436064 
L 315.078055 224.461143 
L 315.226557 224.452638 
L 316.293074 224.442413 
L 316.711581 224.44332 
L 317.130088 224.448585 
L 317.26509 224.480244 
L 317.440593 224.458099 
L 317.751098 224.440072 
L 317.8726 224.416688 
L 318.304607 224.438213 
L 318.682613 224.446139 
L 319.681629 224.43573 
L 319.992134 224.445521 
L 320.194637 224.459917 
L 321.369157 224.428756 
L 321.760663 224.438784 
L 322.030667 224.455309 
L 322.705678 224.446996 
L 323.46169 224.465184 
L 323.947698 224.451889 
L 324.66321 224.432638 
L 324.838713 224.43163 
L 325.135717 224.438981 
L 326.040232 224.430421 
L 326.661242 224.438186 
L 326.796244 224.430796 
L 327.039248 224.421742 
L 327.808761 224.449101 
L 328.078765 224.428774 
L 328.335269 224.423514 
L 329.415287 224.437794 
L 329.685291 224.431661 
L 330.576306 224.420768 
L 331.291817 224.42824 
L 331.548321 224.422188 
L 331.953328 224.428574 
L 337.326415 224.38859 
L 337.542418 224.398379 
L 338.203929 224.419544 
L 351.893151 224.367337 
L 352.028153 224.406542 
L 352.392659 224.386877 
L 353.432175 224.378616 
L 354.188188 224.388542 
L 355.916216 224.369002 
L 356.132219 224.386029 
L 360.209285 224.396019 
L 360.357788 224.372488 
L 360.654792 224.363752 
L 361.532307 224.357943 
L 362.139816 224.368373 
L 362.463822 224.380971 
L 363.152333 224.375027 
L 363.57084 224.379751 
L 364.178349 224.362004 
L 364.353852 224.363439 
L 364.623857 224.391342 
L 364.947862 224.345274 
L 365.204366 224.36099 
L 365.46087 224.355093 
L 365.703874 224.373177 
L 366.05488 224.354523 
L 366.257383 224.371339 
L 366.810892 224.362045 
L 367.080896 224.35708 
L 367.404902 224.362896 
L 367.971911 224.376864 
L 368.174414 224.368107 
L 388.856749 224.150229 
L 389.059252 224.08741 
L 389.396758 224.285711 
L 390.058268 224.220014 
L 390.287772 224.315632 
L 391.273288 224.344911 
L 391.624294 224.310638 
L 393.649326 224.341597 
L 393.905831 224.3217 
L 394.47284 224.339363 
L 394.688843 224.316567 
L 394.931847 224.333055 
L 395.255852 224.322833 
L 395.539357 224.31744 
L 395.70136 224.323019 
L 395.863362 224.314924 
L 396.241368 224.264235 
L 396.565374 224.226027 
L 396.997381 223.839836 
L 397.159383 223.163485 
L 397.280885 221.709407 
L 397.523889 214.625754 
L 397.658891 197.722932 
L 397.739893 204.858433 
L 397.942396 215.792966 
L 398.131399 220.324098 
L 398.158399 220.339087 
L 398.1854 220.274503 
L 398.252901 219.415965 
L 398.374403 213.860485 
L 398.563406 201.064158 
L 398.617407 196.266336 
L 398.671408 201.497507 
L 398.873911 217.667566 
L 399.346419 223.414591 
L 399.575922 223.737517 
L 400.04843 223.987186 
L 400.358935 224.017225 
L 400.709941 224.094192 
L 400.885444 224.078892 
L 401.222949 224.096192 
L 401.654956 224.105759 
L 401.857459 224.144242 
L 405.975026 224.203765 
L 406.150529 224.199277 
L 406.474534 224.144179 
L 407.136045 224.154303 
L 407.338548 224.12218 
L 409.012575 224.224414 
L 409.242079 224.224455 
L 424.75383 224.1374 
L 425.064335 224.110509 
L 425.36134 224.180834 
L 425.793347 224.135498 
L 426.211853 224.095263 
L 426.387356 224.1235 
L 427.021867 224.172669 
L 427.386373 224.178731 
L 428.695894 224.24207 
L 428.925397 224.243827 
L 429.978414 224.228575 
L 430.288919 224.220558 
L 431.422938 224.189153 
L 431.814444 224.206134 
L 432.610957 224.191828 
L 432.81346 224.160397 
L 433.299468 224.196082 
L 433.488471 224.18036 
L 434.109481 224.203727 
L 434.379486 224.201481 
L 434.716991 224.194207 
L 435.121998 224.220831 
L 435.338001 224.221844 
L 435.945511 224.188997 
L 436.242516 224.226964 
L 436.661023 224.223372 
L 436.917527 224.194303 
L 437.336034 224.205329 
L 437.606038 224.216139 
L 438.024545 224.200276 
L 438.240548 224.179788 
L 438.686055 224.187755 
L 439.374567 224.206224 
L 439.631071 224.22744 
L 439.887575 224.216573 
L 441.129595 224.175515 
L 441.804606 224.172638 
L 442.04761 224.144196 
L 442.452616 224.18449 
L 442.601119 224.154624 
L 443.195128 224.144436 
L 443.600135 224.168115 
L 444.261646 224.18132 
L 444.491149 224.170585 
L 449.715734 224.095797 
L 449.850736 224.109467 
L 450.350244 224.146385 
L 450.498747 224.139462 
L 450.917253 224.068351 
L 451.187258 224.143312 
L 451.484263 224.16619 
L 452.307776 224.219669 
L 452.685782 224.165643 
L 453.104289 224.127677 
L 453.576796 224.16373 
L 453.887301 224.136113 
L 454.143806 224.177695 
L 454.818817 224.186565 
L 455.345325 224.17088 
L 456.033836 224.156894 
L 456.195839 224.163671 
L 456.479343 224.15068 
L 456.87085 224.096824 
L 457.680863 223.969551 
L 458.031869 223.361474 
L 458.166871 222.229554 
L 458.409875 216.887124 
L 458.504376 208.885464 
L 458.612378 192.813343 
L 458.666379 198.177461 
L 458.868882 212.994858 
L 459.071385 219.796145 
L 459.098386 219.862565 
L 459.138886 219.726632 
L 459.219888 218.254255 
L 459.435891 208.086748 
L 459.557393 193.186591 
L 459.624894 199.846398 
L 459.827398 217.089065 
L 460.245904 223.050789 
L 460.529409 223.517017 
L 460.826414 223.710369 
L 462.689444 223.974612 
L 462.878447 223.953907 
L 464.700976 224.004998 
L 464.88998 224.005504 
L 467.333519 223.883013 
L 467.657524 223.876365 
L 467.941029 223.962928 
L 468.211033 223.924425 
L 468.683541 223.940723 
L 468.940045 224.008191 
L 469.183049 224.012395 
L 469.385552 224.003509 
L 470.020063 224.055111 
L 470.209066 224.006347 
L 471.545587 224.029187 
L 471.748091 223.999725 
L 472.382601 224.046574 
L 472.895609 224.013006 
L 473.071112 224.027466 
L 474.245631 224.027018 
L 474.866641 224.012164 
L 475.852157 224.043571 
L 476.108661 224.000271 
L 476.405666 224.048894 
L 476.621669 224.033262 
L 483.196276 223.924985 
L 484.208792 223.945981 
L 484.937804 223.993869 
L 497.034 223.734338 
L 497.196002 223.751514 
L 497.479507 223.825413 
L 497.709011 223.882118 
L 498.033016 223.836365 
L 498.27602 223.901275 
L 498.559525 223.872152 
L 499.464039 223.92675 
L 499.653042 223.926124 
L 499.950047 223.866309 
L 500.341553 223.800201 
L 501.097566 223.889728 
L 501.408071 223.881693 
L 501.637574 223.890659 
L 502.258584 223.888013 
L 503.311601 223.827841 
L 504.796625 223.589653 
L 505.120631 223.194898 
L 505.282633 222.403506 
L 505.68764 217.828933 
L 505.822642 209.049764 
L 505.957644 178.993385 
L 506.025145 167.882657 
L 506.065646 174.393376 
L 506.32215 215.17773 
L 506.565154 221.082409 
L 506.821658 222.557976 
L 507.199664 223.225307 
L 507.658672 223.424941 
L 508.023178 223.491721 
L 508.15818 223.509429 
L 509.103195 223.669425 
L 509.346199 223.681533 
L 509.508202 223.641667 
L 509.629704 223.670817 
L 509.791706 223.706974 
L 510.412716 223.657725 
L 510.601719 223.675873 
L 510.804223 223.737837 
L 512.019242 223.691161 
L 512.437749 223.713909 
L 512.680753 223.722166 
L 514.827288 223.543971 
L 514.97579 223.521189 
L 516.298812 223.725211 
L 517.162826 223.707314 
L 517.324828 223.701414 
L 517.689334 223.700238 
L 518.202342 223.692063 
L 518.472347 223.736572 
L 519.066356 223.699303 
L 519.444363 223.707321 
L 519.808868 223.789962 
L 520.807885 223.729686 
L 521.226391 223.687219 
L 521.793401 223.69038 
L 522.090405 223.684818 
L 522.468412 223.69295 
L 522.900419 223.70165 
L 524.034437 223.665995 
L 524.23694 223.678839 
L 524.790449 223.61888 
L 525.910967 223.703128 
L 526.221472 223.626057 
L 526.396975 223.619869 
L 527.004485 223.675452 
L 527.598495 223.614482 
L 527.773997 223.623942 
L 527.990001 223.677611 
L 528.192504 223.657707 
L 528.692012 223.633672 
L 528.935016 223.588258 
L 529.110519 223.612217 
L 529.272522 223.628379 
L 529.556026 223.634987 
L 530.339039 223.615351 
L 530.568543 223.629351 
L 530.865547 223.589129 
L 546.053293 223.363201 
L 546.404299 223.39422 
L 546.633803 223.436494 
L 547.862323 223.364865 
L 548.064826 223.374581 
L 548.29433 223.320629 
L 548.753337 223.377834 
L 549.630851 223.331781 
L 549.792854 223.327271 
L 551.183376 223.346494 
L 551.43988 223.323625 
L 551.790886 223.281216 
L 552.02039 223.371102 
L 552.155392 223.336501 
L 552.425396 223.262864 
L 557.906485 222.924467 
L 560.728031 222.505392 
L 562.321057 222.408024 
L 562.658562 222.419536 
L 563.009568 222.453335 
L 563.698079 222.608693 
L 564.494592 222.761978 
L 564.737596 222.785434 
L 564.953599 222.842027 
L 565.696111 222.951761 
L 567.316137 223.091949 
L 570.461688 223.27199 
L 570.596691 223.304905 
L 571.123199 223.267362 
L 571.339203 223.283623 
L 571.81171 223.324675 
L 572.162716 223.347335 
L 572.39222 223.349336 
L 572.702725 223.281044 
L 573.05373 223.278032 
L 573.755742 223.285152 
L 574.039246 223.278474 
L 574.795258 223.322165 
L 574.997762 223.33742 
L 575.294767 223.301843 
L 575.537771 223.384961 
L 575.821275 223.348673 
L 576.941793 223.385984 
L 578.035311 223.322033 
L 578.183813 223.348312 
L 578.791323 223.361766 
L 579.22333 223.271296 
L 579.520335 223.309472 
L 579.911841 223.322943 
L 580.195346 223.348599 
L 580.640853 223.379803 
L 581.032359 223.356148 
L 581.288864 223.325186 
L 583.462399 223.126702 
L 583.624401 223.136746 
L 583.975407 223.242844 
L 584.204911 223.221131 
L 584.488415 223.237461 
L 584.663918 223.223743 
L 585.163426 223.319331 
L 585.433431 223.27352 
L 586.216443 223.097707 
L 586.60795 222.508605 
L 586.769952 221.195205 
L 586.891454 218.004135 
L 587.012956 206.787473 
L 587.080457 200.999441 
L 587.134458 205.123933 
L 587.336961 216.992305 
L 587.363962 216.920624 
L 587.458463 215.211534 
L 587.552965 209.568233 
L 587.714968 179.742151 
L 587.795969 193.196205 
L 587.984972 214.664059 
L 588.106474 216.484645 
L 588.133474 216.278509 
L 588.214476 213.414805 
L 588.362978 199.706121 
L 588.430479 206.254268 
L 588.632982 219.752907 
L 588.862486 222.094713 
L 589.145991 222.71557 
L 590.050505 223.0578 
L 590.32051 223.077881 
L 590.671515 223.166561 
L 591.886535 223.192454 
L 592.116039 223.205392 
L 593.817066 223.244719 
L 594.195072 223.229183 
L 594.370575 223.248658 
L 595.639596 223.232956 
L 595.815099 223.210626 
L 596.044602 223.073297 
L 596.085103 223.12831 
L 596.247106 223.169664 
L 597.300123 223.195357 
L 597.637628 223.212786 
L 598.029135 223.194288 
L 598.596144 223.230861 
L 599.433157 223.255259 
L 599.635661 223.238594 
L 599.892165 223.217613 
L 600.256671 223.261379 
L 600.513175 223.231428 
L 601.188186 223.202934 
L 601.566192 223.180663 
L 602.025199 223.191578 
L 602.227703 223.221029 
L 602.929714 223.186018 
L 603.456222 223.157605 
L 603.631725 223.147363 
L 603.92873 223.180013 
L 604.266236 223.120736 
L 604.603741 223.088744 
L 605.008748 223.173497 
L 605.589257 223.129069 
L 605.926762 223.138735 
L 606.642274 223.172972 
L 606.952779 223.161764 
L 607.384786 223.213369 
L 607.546789 223.169381 
L 607.789793 223.155517 
L 608.019296 223.169904 
L 608.289301 223.17413 
L 610.867842 223.098596 
L 611.029845 223.081174 
L 611.515853 223.073097 
L 611.664355 223.11062 
L 612.55537 223.103378 
L 612.717372 223.139838 
L 613.257381 223.117871 
L 613.621887 223.084394 
L 615.984425 223.030093 
L 616.119427 223.045289 
L 618.549467 223.006428 
L 618.77897 223.063501 
L 619.008474 223.056433 
L 619.332479 223.024563 
L 619.534983 223.042062 
L 619.831987 222.982397 
L 620.250494 222.986112 
L 620.642001 222.998999 
L 620.939005 222.992339 
L 621.425013 223.014768 
L 621.749018 223.017576 
L 622.356528 222.97965 
L 623.976555 222.924809 
L 624.34106 222.959484 
L 625.893586 222.943413 
L 626.028588 222.929746 
L 626.541596 222.896681 
L 635.748745 222.703831 
L 635.978249 222.694131 
L 636.396756 222.694003 
L 636.69376 222.661807 
L 637.112267 222.668733 
L 637.28777 222.633237 
L 637.706277 222.64431 
L 638.610791 222.65184 
L 639.1643 222.615174 
L 639.353303 222.606711 
L 639.542306 222.59743 
L 639.704309 222.599945 
L 639.987814 222.61948 
L 640.244318 222.624887 
L 640.419821 222.581018 
L 641.135332 222.590964 
L 641.310835 222.613145 
L 641.783343 222.567351 
L 642.21535 222.571097 
L 646.980927 222.407646 
L 647.14293 222.390877 
L 647.304932 222.354583 
L 647.534436 222.344765 
L 648.41195 222.328311 
L 648.830457 222.298921 
L 649.370466 222.295337 
L 649.64047 222.271877 
L 650.28848 222.252447 
L 651.192995 222.214009 
L 651.341497 222.256708 
L 651.638502 222.218006 
L 651.922007 222.212423 
L 652.394515 222.218487 
L 652.867022 222.172974 
L 653.461032 222.197614 
L 653.636535 222.178742 
L 654.149543 222.129157 
L 654.784053 222.106188 
L 654.932556 222.038878 
L 655.621067 222.023446 
L 655.83707 221.969671 
L 656.161075 221.955303 
L 656.836086 221.850544 
L 656.957588 221.891664 
L 657.187092 221.919491 
L 657.538098 221.724683 
L 657.781102 221.869189 
L 658.064606 221.764626 
L 658.253609 221.818823 
L 658.415612 221.855047 
L 658.645116 221.834397 
L 658.88812 221.794164 
L 659.131124 221.807988 
L 659.455129 221.738732 
L 659.630632 221.714715 
L 659.900636 221.695774 
L 660.103139 221.663573 
L 660.494646 221.591136 
L 660.670148 221.462203 
L 660.710649 221.513544 
L 660.926653 221.61549 
L 661.318159 221.510005 
L 661.615164 221.596367 
L 661.99317 221.523159 
L 662.573679 221.417593 
L 663.302691 221.055893 
L 663.505194 220.798433 
L 663.707698 220.140479 
L 663.8562 218.633304 
L 663.991202 214.683055 
L 664.126204 201.086585 
L 664.166705 198.373107 
L 664.220706 201.598269 
L 664.423209 214.40889 
L 664.436709 214.401123 
L 664.504211 213.564385 
L 664.625712 208.559749 
L 664.747214 188.369047 
L 664.814716 178.710534 
L 664.855216 183.557488 
L 665.09822 213.328518 
L 665.192722 214.615381 
L 665.233222 214.344142 
L 665.314224 211.334144 
L 665.449226 199.306054 
L 665.516727 204.38163 
L 665.73273 218.457253 
L 665.975734 220.784838 
L 666.232238 221.251808 
L 666.448242 221.323525 
L 666.812748 221.237111 
L 667.433758 221.248285 
L 667.55526 221.092734 
L 667.622761 220.993218 
L 667.676762 221.058029 
L 667.946766 221.308142 
L 668.108769 221.194955 
L 668.432774 221.00205 
L 668.446274 221.01757 
L 668.702778 221.284103 
L 668.81078 221.211549 
L 668.959283 221.184722 
L 669.080785 221.102845 
L 669.242787 221.04599 
L 669.256287 221.061646 
L 669.485791 221.217721 
L 669.782796 221.137635 
L 670.0528 221.134889 
L 670.808813 220.972678 
L 671.011316 220.885765 
L 671.28132 220.856813 
L 671.429823 220.840436 
L 671.726827 220.35728 
L 671.807829 220.505016 
L 672.037332 220.638516 
L 672.320837 220.359414 
L 672.48284 220.165865 
L 672.49634 220.177451 
L 672.779844 220.355974 
L 672.928347 220.256687 
L 673.589858 219.405234 
L 673.71136 218.733359 
L 673.873362 216.459114 
L 673.994864 210.783713 
L 674.116366 198.951141 
L 674.183867 203.026954 
L 674.38637 214.935447 
L 674.440371 215.175117 
L 674.480872 214.949339 
L 674.588874 212.648485 
L 674.723876 203.472643 
L 674.845378 173.909884 
L 674.912879 156.403144 
L 674.96688 167.104685 
L 675.182883 209.758026 
L 675.304385 212.467436 
L 675.344886 212.169543 
L 675.439388 209.111449 
L 675.560889 195.745417 
L 675.709392 156.134693 
L 675.763393 169.17815 
L 675.979396 211.756263 
L 676.168399 216.039605 
L 676.2089 215.871169 
L 676.303402 214.038584 
L 676.411403 206.365275 
L 676.492405 198.953152 
L 676.546405 202.431017 
L 676.775909 218.110357 
L 676.991913 220.116171 
L 677.234917 220.587766 
L 677.477921 220.698536 
L 677.734425 220.741092 
L 677.869427 220.771552 
L 677.882927 220.75291 
L 678.004429 220.750355 
L 678.017929 220.76286 
L 678.152931 220.741077 
L 678.436436 220.666372 
L 678.733441 220.674516 
L 679.624455 220.587991 
L 679.786458 220.60836 
L 680.596471 220.386353 
L 680.731473 220.383201 
L 680.920476 220.356897 
L 681.068979 220.330943 
L 681.338983 220.212982 
L 681.892492 220.178876 
L 682.067995 220.165604 
L 682.486502 219.61769 
L 682.513502 219.660721 
L 682.729506 220.002553 
L 682.756506 219.983958 
L 683.053511 219.882043 
L 683.269514 219.571497 
L 683.364016 219.701653 
L 683.580019 219.848417 
L 683.877024 219.829038 
L 684.133528 219.674722 
L 684.147028 219.688703 
L 684.336032 219.747467 
L 684.565535 219.763161 
L 684.795039 219.760004 
L 684.997542 219.750538 
L 686.11806 219.520841 
L 686.266563 219.406911 
L 686.293563 219.435837 
L 686.550067 219.457424 
L 686.847072 219.33167 
L 686.968574 219.255791 
L 687.130577 219.258041 
L 687.31958 219.23588 
L 687.495083 219.160678 
L 687.697586 219.167493 
L 687.94059 219.129213 
L 688.291596 219.13577 
L 688.993607 218.880507 
L 689.439114 218.804038 
L 689.682118 218.645857 
L 690.127625 218.478999 
L 690.586633 218.116474 
L 691.099641 217.935803 
L 691.410146 217.68028 
L 691.977155 217.396914 
L 692.152658 217.314654 
L 692.28766 217.203969 
L 692.517164 217.042859 
L 692.530664 217.054093 
L 692.665666 217.053772 
L 692.854669 216.924653 
L 692.86817 216.936437 
L 693.003172 216.892254 
L 693.988688 216.173738 
L 694.393694 216.046105 
L 694.582697 215.898465 
L 694.609698 215.924206 
L 694.7447 215.787881 
L 695.37921 215.293432 
L 695.500712 215.191319 
L 695.757216 214.987153 
L 696.243224 214.552326 
L 696.445728 214.376406 
L 696.62123 214.234376 
L 696.715732 214.167169 
L 697.161239 213.356889 
L 698.403259 211.215134 
L 698.632763 210.634272 
L 698.700264 210.658884 
L 698.916268 210.391193 
L 700.347291 207.384591 
L 700.374291 207.406656 
L 700.509293 207.316496 
L 700.779298 206.712105 
L 701.805314 204.801208 
L 701.832315 204.882191 
L 702.12932 206.257569 
L 702.277822 206.328213 
L 702.466825 206.300234 
L 702.655828 206.346179 
L 702.979833 206.170439 
L 703.654844 205.540277 
L 703.668344 205.563419 
L 703.722345 205.564621 
L 703.749346 205.504382 
L 704.478358 204.406645 
L 705.045367 203.224512 
L 705.315371 202.723111 
L 706.219886 200.519207 
L 706.678893 198.826545 
L 706.813895 198.265236 
L 707.988414 190.44317 
L 708.298919 184.883597 
L 708.514923 176.02527 
L 708.676926 158.150593 
L 708.811928 108.131188 
L 708.865929 76.875271 
L 708.919929 98.860573 
L 709.135933 196.735029 
L 709.284435 198.825687 
L 709.297936 198.788541 
L 709.621941 195.92845 
L 710.499455 187.233657 
L 711.066464 181.822697 
L 712.767492 159.626855 
L 714.441519 132.368883 
L 714.603521 131.436407 
L 714.630522 131.559496 
L 714.657522 131.512216 
L 714.779024 131.891955 
L 715.251532 139.117048 
L 715.602538 147.102992 
L 715.656538 146.308678 
L 715.75104 143.530545 
L 715.791541 145.723083 
L 715.859042 149.25819 
L 715.899542 146.797774 
L 716.048045 128.144731 
L 716.183047 85.376743 
L 716.223548 105.073691 
L 716.264048 221.407755 
L 716.291463 433 
M 716.686681 433 
L 716.97956 333.158701 
L 717.236064 305.874277 
L 717.992076 278.317924 
L 718.343082 273.089886 
L 718.694088 268.623435 
L 718.937092 266.050013 
L 719.396099 261.009813 
L 720.867623 252.11625 
L 721.353631 250.313694 
L 721.691136 249.347174 
L 721.92064 248.659264 
L 722.082642 248.366786 
L 722.56865 247.714039 
L 722.973657 247.947936 
L 723.081659 248.186547 
L 723.257162 248.811216 
L 723.662168 250.616656 
L 723.702669 250.293338 
L 723.75667 248.511961 
L 723.837671 233.279859 
L 723.986173 142.206891 
L 724.080675 179.374115 
L 724.296678 217.341981 
L 724.553182 227.883535 
L 724.877188 232.720082 
L 725.417196 234.634831 
L 725.444197 234.624704 
L 725.714201 234.945824 
L 725.943705 235.124923 
L 726.456713 235.126888 
L 726.686217 234.905469 
L 726.821219 234.926732 
L 726.956221 234.890871 
L 726.969722 234.904299 
L 727.104724 234.842942 
L 727.334227 234.711639 
L 727.46923 234.67462 
L 727.658233 234.65312 
L 727.793235 234.636406 
L 728.10374 234.481009 
L 728.967754 233.988988 
L 729.170257 233.831706 
L 729.35926 233.835222 
L 729.615764 233.676482 
L 729.818268 233.569486 
L 730.317776 233.357108 
L 730.425778 233.317502 
L 730.736283 232.966004 
L 730.763283 232.993167 
L 730.952286 233.001521 
L 731.087288 232.9873 
L 731.289792 232.804676 
L 731.667798 232.691315 
L 732.180806 232.453636 
L 732.369809 232.337589 
L 732.977319 232.107282 
L 733.098821 232.088871 
L 733.179822 232.121945 
L 733.220323 232.068018 
L 733.517328 232.020881 
L 733.868333 231.818911 
L 733.949335 231.784635 
L 733.962835 231.762337 
L 734.084337 231.661391 
L 734.124837 231.710331 
L 734.327341 231.815904 
L 734.583845 231.577318 
L 735.123854 231.406075 
L 735.258856 231.365318 
L 735.798865 231.261507 
L 735.987868 231.235054 
L 737.594394 230.782395 
L 738.053401 230.622346 
L 738.188403 230.541524 
L 738.201903 230.555574 
L 738.377406 230.527866 
L 738.566409 230.380122 
L 738.57991 230.38885 
L 738.768913 230.369059 
L 739.727428 230.37782 
L 739.87593 230.357929 
L 740.064934 230.2247 
L 740.213436 230.19001 
L 740.955948 230.097998 
L 741.563458 230.012751 
L 741.72546 229.901402 
L 741.887463 229.842035 
L 742.224969 229.813247 
L 742.413972 229.844198 
L 742.589474 229.840729 
L 742.724477 229.781943 
L 742.751477 229.802165 
L 743.237485 229.764517 
L 743.696492 229.540424 
L 743.858495 229.552246 
L 744.142 229.506363 
L 745.073515 229.273546 
L 745.208517 229.258244 
L 745.39752 229.308984 
L 745.627024 229.241437 
L 745.816027 229.29215 
L 746.518038 229.201514 
L 746.66654 229.206547 
L 747.179549 228.999938 
L 747.314551 228.975683 
L 747.773558 228.961855 
L 748.124564 228.83868 
L 748.448569 228.855746 
L 748.597072 228.873538 
L 748.907577 228.828203 
L 749.042579 228.753686 
L 749.056079 228.764225 
L 749.461086 228.774332 
L 751.459118 228.587688 
L 751.56712 228.594704 
L 751.58062 228.606553 
L 751.715622 228.629788 
L 752.012627 228.553392 
L 752.404133 228.534397 
L 752.84964 228.466388 
L 753.173646 228.407378 
L 753.848657 228.324254 
L 754.118661 228.335493 
L 754.267163 228.371367 
L 754.564168 228.354755 
L 755.144678 228.297584 
L 755.32018 228.283304 
L 755.576685 228.244484 
L 755.806188 228.319589 
L 756.589201 228.220183 
L 756.940207 228.301768 
L 757.210211 228.276741 
L 757.561217 228.225655 
L 757.76372 228.281212 
L 757.898722 228.236262 
L 757.912222 228.246059 
L 758.114726 228.252521 
L 758.344229 228.261402 
L 758.519732 228.233543 
L 758.816737 227.933867 
L 758.870738 228.010671 
L 759.059741 228.098918 
L 759.424247 228.023154 
L 759.572749 227.515089 
L 759.667251 227.773584 
L 759.883254 228.076008 
L 760.058757 228.150623 
L 760.180259 228.080942 
L 760.301761 227.930013 
L 760.369262 227.82486 
L 760.423263 227.900704 
L 760.625766 228.093155 
L 761.192776 228.290481 
L 761.327778 228.311561 
L 761.354778 228.268515 
L 761.732784 228.299683 
L 761.948788 228.245777 
L 762.124291 228.316505 
L 762.745301 228.376076 
L 762.947804 228.436458 
L 763.231309 228.427937 
L 763.35281 228.357094 
L 763.393311 228.403449 
L 763.757817 228.571686 
L 763.973821 228.379494 
L 764.054822 228.350302 
L 764.081822 228.401101 
L 764.324826 228.611274 
L 764.52733 228.678145 
L 764.621831 228.715797 
L 764.648831 228.678768 
L 764.756833 228.304012 
L 764.810834 228.157807 
L 764.864835 228.259128 
L 765.026838 228.606903 
L 765.067338 228.557692 
L 765.16184 228.21174 
L 765.296842 226.274703 
L 765.418344 221.017385 
L 765.526346 203.065209 
L 765.647848 165.331848 
L 765.701849 178.291084 
L 765.917852 216.573923 
L 766.025854 218.93003 
L 766.066354 218.581858 
L 766.160856 214.585433 
L 766.255357 200.338228 
L 766.363359 139.952198 
L 766.43086 99.912237 
L 766.484861 121.628123 
L 766.700865 204.000145 
L 766.903368 214.195839 
L 766.916868 214.220426 
L 766.930368 214.159762 
L 766.997869 212.24537 
L 767.092371 200.356112 
L 767.227373 161.451466 
L 767.281374 173.961102 
L 767.497378 213.654767 
L 767.740382 221.081517 
L 768.023886 223.353444 
L 768.388392 224.454909 
L 768.739398 224.924593 
L 769.535911 225.618606 
L 769.657413 225.646362 
L 769.913917 225.760629 
L 770.575427 225.940249 
L 770.72393 225.993748 
L 771.722946 226.211431 
L 771.911949 226.230427 
L 772.61396 226.060368 
L 772.694962 225.93394 
L 772.748963 225.995748 
L 772.937966 226.163711 
L 773.302472 226.142049 
L 773.437474 225.664265 
L 773.491475 225.60143 
L 773.531975 225.708057 
L 773.734479 226.110307 
L 774.098984 226.177882 
L 774.260987 225.93517 
L 774.368989 226.096538 
L 774.584992 226.240327 
L 774.800996 226.297231 
L 775.962015 226.355885 
L 776.124017 226.336803 
L 778.608057 226.338432 
L 778.891562 226.396198 
L 779.215567 226.427281 
L 779.647574 226.334285 
L 780.039081 226.376322 
L 780.403586 226.362528 
L 781.456604 226.364547 
L 781.672607 226.33663 
L 782.158615 226.352574 
L 782.428619 226.369928 
L 782.860626 226.291768 
L 783.07663 226.333631 
L 783.225132 226.343621 
L 783.360134 226.321641 
L 783.603138 226.309084 
L 784.30515 226.269262 
L 785.007161 226.319633 
L 785.209664 226.298195 
L 785.452668 226.351823 
L 785.965677 226.269574 
L 786.087178 226.309388 
L 786.81619 226.297504 
L 787.126695 226.310744 
L 787.450701 226.258976 
L 791.514266 226.197984 
L 791.703269 226.183284 
L 792.121776 226.213193 
L 792.459282 226.167263 
L 793.161293 226.169061 
L 793.444798 226.197781 
L 794.389813 226.19721 
L 794.578816 226.222757 
L 794.902821 226.220298 
L 795.105324 226.158816 
L 795.901837 226.144987 
L 796.144841 226.159316 
L 796.428346 226.15337 
L 796.819852 226.168997 
L 797.562364 226.188527 
L 797.818868 226.170434 
L 798.007871 226.192703 
L 798.601881 226.125247 
L 799.020388 226.102315 
L 799.357893 226.096705 
L 799.587397 226.10644 
L 799.816901 226.102779 
L 800.100405 226.128755 
L 801.00492 226.047555 
L 801.193923 226.063472 
L 801.882434 226.075251 
L 802.341442 226.040131 
L 803.016452 226.039814 
L 804.08297 226.070659 
L 804.946984 226.037573 
L 805.095486 226.010176 
L 805.270989 225.999193 
L 806.55351 225.993423 
L 806.783013 225.952671 
L 808.362539 225.98441 
L 808.686544 225.972256 
L 809.132051 226.028423 
L 814.397137 225.881894 
L 814.57264 225.370878 
L 814.653641 225.169442 
L 814.694142 225.256648 
L 814.923645 225.837674 
L 815.328652 225.982095 
L 815.733658 225.961885 
L 815.976662 226.055761 
L 816.692174 226.054241 
L 816.908177 226.099137 
L 817.299684 226.098317 
L 817.610189 226.09274 
L 817.839692 226.10815 
L 818.082696 226.123859 
L 818.244699 226.116612 
L 818.420202 226.169161 
L 818.784708 226.19547 
L 819.54072 226.189467 
L 819.824225 226.075143 
L 820.026728 226.076267 
L 820.283232 225.681226 
L 820.472235 224.646068 
L 820.566737 222.657706 
L 820.79624 210.719573 
L 820.890742 191.00832 
L 820.998744 104.425561 
L 821.052744 60.549093 
L 821.106745 89.380957 
L 821.309249 198.515431 
L 821.552253 215.747011 
L 821.781756 221.2847 
L 822.051761 223.121958 
L 822.497268 224.165061 
L 823.104778 224.662395 
L 824.765305 225.118516 
L 824.981308 225.179095 
L 825.278313 225.214617 
L 825.480816 225.197377 
L 827.370847 225.268744 
L 827.57335 224.75116 
L 827.654351 224.528056 
L 827.708352 224.62494 
L 827.978357 225.156754 
L 828.747869 225.338568 
L 829.071874 225.38621 
L 829.328378 225.383641 
L 829.706385 225.407788 
L 830.124891 225.381749 
L 830.786402 225.380524 
L 830.934904 225.398628 
L 831.245409 225.443757 
L 831.434412 225.419751 
L 832.095923 225.465309 
L 832.257926 225.432893 
L 832.622432 225.409628 
L 847.702176 225.287228 
L 847.877679 225.32499 
L 848.107182 225.399612 
L 848.782193 225.439618 
L 848.998197 225.403353 
L 849.254701 225.463495 
L 851.158232 225.315261 
L 851.374235 225.346069 
L 851.725241 225.447844 
L 852.440752 225.378469 
L 852.602755 225.361753 
L 853.304766 225.319837 
L 853.50727 225.32298 
L 853.696273 225.389593 
L 854.573787 225.324197 
L 854.870792 225.398134 
L 855.073295 225.338403 
L 855.302799 225.396139 
L 855.505302 225.412726 
L 855.99131 225.334565 
L 856.234314 225.310384 
L 856.490818 225.327807 
L 856.706822 225.294213 
L 861.256395 225.250509 
L 861.647902 225.311895 
L 861.809904 225.34508 
L 861.998907 225.363461 
L 862.484915 225.311504 
L 862.633417 225.338028 
L 862.78192 225.298311 
L 863.146426 225.33935 
L 863.618933 225.337898 
L 863.794436 225.350151 
L 864.887954 225.365244 
L 865 225.375143 
L 865 225.375143 
" clip-path="url(#p88f9c69484)" style="fill: none; stroke: #000000; stroke-width: 0.5; stroke-linecap: square"/>
   </g>
   <g id="patch_3">
    <path d="M 53.67147 390.04 
L 53.67147 27.6 
" style="fill: none; stroke: #000000; stroke-width: 0.8; stroke-linejoin: miter; stroke-linecap: square"/>
   </g>
   <g id="patch_4">
    <path d="M 853.2 390.04 
L 853.2 27.6 
" style="fill: none; stroke: #000000; stroke-width: 0.8; stroke-linejoin: miter; stroke-linecap: square"/>
   </g>
   <g id="patch_5">
    <path d="M 53.67147 390.04 
L 853.2 390.04 
" style="fill: none; stroke: #000000; stroke-width: 0.8; stroke-linejoin: miter; stroke-linecap: square"/>
   </g>
   <g id="patch_6">
    <path d="M 53.67147 27.6 
L 853.2 27.6 
" style="fill: none; stroke: #000000; stroke-width: 0.8; stroke-linejoin: miter; stroke-linecap: square"/>
   </g>
   <g id="text_17">
    <!-- PRESAT Spectrum: 2_am_2_ald (Auto-Scaled Y) -->
    <g transform="translate(288.535422 21.6) scale(0.14 -0.14)">
     <defs>
      <path id="DejaVuSans-50" d="M 1259 4147 
L 1259 2394 
L 2053 2394 
Q 2494 2394 2734 2622 
Q 2975 2850 2975 3272 
Q 2975 3691 2734 3919 
Q 2494 4147 2053 4147 
L 1259 4147 
z
M 628 4666 
L 2053 4666 
Q 2838 4666 3239 4311 
Q 3641 3956 3641 3272 
Q 3641 2581 3239 2228 
Q 2838 1875 2053 1875 
L 1259 1875 
L 1259 0 
L 628 0 
L 628 4666 
z
" transform="scale(0.015625)"/>
      <path id="DejaVuSans-52" d="M 2841 2188 
Q 3044 2119 3236 1894 
Q 3428 1669 3622 1275 
L 4263 0 
L 3584 0 
L 2988 1197 
Q 2756 1666 2539 1819 
Q 2322 1972 1947 1972 
L 1259 1972 
L 1259 0 
L 628 0 
L 628 4666 
L 2053 4666 
Q 2853 4666 3247 4331 
Q 3641 3997 3641 3322 
Q 3641 2881 3436 2590 
Q 3231 2300 2841 2188 
z
M 1259 4147 
L 1259 2491 
L 2053 2491 
Q 2509 2491 2742 2702 
Q 2975 2913 2975 3322 
Q 2975 3731 2742 3939 
Q 2509 4147 2053 4147 
L 1259 4147 
z
" transform="scale(0.015625)"/>
      <path id="DejaVuSans-45" d="M 628 4666 
L 3578 4666 
L 3578 4134 
L 1259 4134 
L 1259 2753 
L 3481 2753 
L 3481 2222 
L 1259 2222 
L 1259 531 
L 3634 531 
L 3634 0 
L 628 0 
L 628 4666 
z
" transform="scale(0.015625)"/>
      <path id="DejaVuSans-53" d="M 3425 4513 
L 3425 3897 
Q 3066 4069 2747 4153 
Q 2428 4238 2131 4238 
Q 1616 4238 1336 4038 
Q 1056 3838 1056 3469 
Q 1056 3159 1242 3001 
Q 1428 2844 1947 2747 
L 2328 2669 
Q 3034 2534 3370 2195 
Q 3706 1856 3706 1288 
Q 3706 609 3251 259 
Q 2797 -91 1919 -91 
Q 1588 -91 1214 -16 
Q 841 59 441 206 
L 441 856 
Q 825 641 1194 531 
Q 1563 422 1919 422 
Q 2459 422 2753 634 
Q 3047 847 3047 1241 
Q 3047 1584 2836 1778 
Q 2625 1972 2144 2069 
L 1759 2144 
Q 1053 2284 737 2584 
Q 422 2884 422 3419 
Q 422 4038 858 4394 
Q 1294 4750 2059 4750 
Q 2388 4750 2728 4690 
Q 3069 4631 3425 4513 
z
" transform="scale(0.015625)"/>
      <path id="DejaVuSans-41" d="M 2188 4044 
L 1331 1722 
L 3047 1722 
L 2188 4044 
z
M 1831 4666 
L 2547 4666 
L 4325 0 
L 3669 0 
L 3244 1197 
L 1141 1197 
L 716 0 
L 50 0 
L 1831 4666 
z
" transform="scale(0.015625)"/>
      <path id="DejaVuSans-54" d="M -19 4666 
L 3928 4666 
L 3928 4134 
L 2272 4134 
L 2272 0 
L 1638 0 
L 1638 4134 
L -19 4134 
L -19 4666 
z
" transform="scale(0.015625)"/>
      <path id="DejaVuSans-20" transform="scale(0.015625)"/>
      <path id="DejaVuSans-70" d="M 1159 525 
L 1159 -1331 
L 581 -1331 
L 581 3500 
L 1159 3500 
L 1159 2969 
Q 1341 3281 1617 3432 
Q 1894 3584 2278 3584 
Q 2916 3584 3314 3078 
Q 3713 2572 3713 1747 
Q 3713 922 3314 415 
Q 2916 -91 2278 -91 
Q 1894 -91 1617 61 
Q 1341 213 1159 525 
z
M 3116 1747 
Q 3116 2381 2855 2742 
Q 2594 3103 2138 3103 
Q 1681 3103 1420 2742 
Q 1159 2381 1159 1747 
Q 1159 1113 1420 752 
Q 1681 391 2138 391 
Q 2594 391 2855 752 
Q 3116 1113 3116 1747 
z
" transform="scale(0.015625)"/>
      <path id="DejaVuSans-65" d="M 3597 1894 
L 3597 1613 
L 953 1613 
Q 991 1019 1311 708 
Q 1631 397 2203 397 
Q 2534 397 2845 478 
Q 3156 559 3463 722 
L 3463 178 
Q 3153 47 2828 -22 
Q 2503 -91 2169 -91 
Q 1331 -91 842 396 
Q 353 884 353 1716 
Q 353 2575 817 3079 
Q 1281 3584 2069 3584 
Q 2775 3584 3186 3129 
Q 3597 2675 3597 1894 
z
M 3022 2063 
Q 3016 2534 2758 2815 
Q 2500 3097 2075 3097 
Q 1594 3097 1305 2825 
Q 1016 2553 972 2059 
L 3022 2063 
z
" transform="scale(0.015625)"/>
      <path id="DejaVuSans-63" d="M 3122 3366 
L 3122 2828 
Q 2878 2963 2633 3030 
Q 2388 3097 2138 3097 
Q 1578 3097 1268 2742 
Q 959 2388 959 1747 
Q 959 1106 1268 751 
Q 1578 397 2138 397 
Q 2388 397 2633 464 
Q 2878 531 3122 666 
L 3122 134 
Q 2881 22 2623 -34 
Q 2366 -91 2075 -91 
Q 1284 -91 818 406 
Q 353 903 353 1747 
Q 353 2603 823 3093 
Q 1294 3584 2113 3584 
Q 2378 3584 2631 3529 
Q 2884 3475 3122 3366 
z
" transform="scale(0.015625)"/>
      <path id="DejaVuSans-74" d="M 1172 4494 
L 1172 3500 
L 2356 3500 
L 2356 3053 
L 1172 3053 
L 1172 1153 
Q 1172 725 1289 603 
Q 1406 481 1766 481 
L 2356 481 
L 2356 0 
L 1766 0 
Q 1100 0 847 248 
Q 594 497 594 1153 
L 594 3053 
L 172 3053 
L 172 3500 
L 594 3500 
L 594 4494 
L 1172 4494 
z
" transform="scale(0.015625)"/>
      <path id="DejaVuSans-72" d="M 2631 2963 
Q 2534 3019 2420 3045 
Q 2306 3072 2169 3072 
Q 1681 3072 1420 2755 
Q 1159 2438 1159 1844 
L 1159 0 
L 581 0 
L 581 3500 
L 1159 3500 
L 1159 2956 
Q 1341 3275 1631 3429 
Q 1922 3584 2338 3584 
Q 2397 3584 2469 3576 
Q 2541 3569 2628 3553 
L 2631 2963 
z
" transform="scale(0.015625)"/>
      <path id="DejaVuSans-75" d="M 544 1381 
L 544 3500 
L 1119 3500 
L 1119 1403 
Q 1119 906 1312 657 
Q 1506 409 1894 409 
Q 2359 409 2629 706 
Q 2900 1003 2900 1516 
L 2900 3500 
L 3475 3500 
L 3475 0 
L 2900 0 
L 2900 538 
Q 2691 219 2414 64 
Q 2138 -91 1772 -91 
Q 1169 -91 856 284 
Q 544 659 544 1381 
z
M 1991 3584 
L 1991 3584 
z
" transform="scale(0.015625)"/>
      <path id="DejaVuSans-6d" d="M 3328 2828 
Q 3544 3216 3844 3400 
Q 4144 3584 4550 3584 
Q 5097 3584 5394 3201 
Q 5691 2819 5691 2113 
L 5691 0 
L 5113 0 
L 5113 2094 
Q 5113 2597 4934 2840 
Q 4756 3084 4391 3084 
Q 3944 3084 3684 2787 
Q 3425 2491 3425 1978 
L 3425 0 
L 2847 0 
L 2847 2094 
Q 2847 2600 2669 2842 
Q 2491 3084 2119 3084 
Q 1678 3084 1418 2786 
Q 1159 2488 1159 1978 
L 1159 0 
L 581 0 
L 581 3500 
L 1159 3500 
L 1159 2956 
Q 1356 3278 1631 3431 
Q 1906 3584 2284 3584 
Q 2666 3584 2933 3390 
Q 3200 3197 3328 2828 
z
" transform="scale(0.015625)"/>
      <path id="DejaVuSans-3a" d="M 750 794 
L 1409 794 
L 1409 0 
L 750 0 
L 750 794 
z
M 750 3309 
L 1409 3309 
L 1409 2516 
L 750 2516 
L 750 3309 
z
" transform="scale(0.015625)"/>
      <path id="DejaVuSans-5f" d="M 3263 -1063 
L 3263 -1509 
L -63 -1509 
L -63 -1063 
L 3263 -1063 
z
" transform="scale(0.015625)"/>
      <path id="DejaVuSans-61" d="M 2194 1759 
Q 1497 1759 1228 1600 
Q 959 1441 959 1056 
Q 959 750 1161 570 
Q 1363 391 1709 391 
Q 2188 391 2477 730 
Q 2766 1069 2766 1631 
L 2766 1759 
L 2194 1759 
z
M 3341 1997 
L 3341 0 
L 2766 0 
L 2766 531 
Q 2569 213 2275 61 
Q 1981 -91 1556 -91 
Q 1019 -91 701 211 
Q 384 513 384 1019 
Q 384 1609 779 1909 
Q 1175 2209 1959 2209 
L 2766 2209 
L 2766 2266 
Q 2766 2663 2505 2880 
Q 2244 3097 1772 3097 
Q 1472 3097 1187 3025 
Q 903 2953 641 2809 
L 641 3341 
Q 956 3463 1253 3523 
Q 1550 3584 1831 3584 
Q 2591 3584 2966 3190 
Q 3341 2797 3341 1997 
z
" transform="scale(0.015625)"/>
      <path id="DejaVuSans-6c" d="M 603 4863 
L 1178 4863 
L 1178 0 
L 603 0 
L 603 4863 
z
" transform="scale(0.015625)"/>
      <path id="DejaVuSans-64" d="M 2906 2969 
L 2906 4863 
L 3481 4863 
L 3481 0 
L 2906 0 
L 2906 525 
Q 2725 213 2448 61 
Q 2172 -91 1784 -91 
Q 1150 -91 751 415 
Q 353 922 353 1747 
Q 353 2572 751 3078 
Q 1150 3584 1784 3584 
Q 2172 3584 2448 3432 
Q 2725 3281 2906 2969 
z
M 947 1747 
Q 947 1113 1208 752 
Q 1469 391 1925 391 
Q 2381 391 2643 752 
Q 2906 1113 2906 1747 
Q 2906 2381 2643 2742 
Q 2381 3103 1925 3103 
Q 1469 3103 1208 2742 
Q 947 2381 947 1747 
z
" transform="scale(0.015625)"/>
      <path id="DejaVuSans-28" d="M 1984 4856 
Q 1566 4138 1362 3434 
Q 1159 2731 1159 2009 
Q 1159 1288 1364 580 
Q 1569 -128 1984 -844 
L 1484 -844 
Q 1016 -109 783 600 
Q 550 1309 550 2009 
Q 550 2706 781 3412 
Q 1013 4119 1484 4856 
L 1984 4856 
z
" transform="scale(0.015625)"/>
      <path id="DejaVuSans-6f" d="M 1959 3097 
Q 1497 3097 1228 2736 
Q 959 2375 959 1747 
Q 959 1119 1226 758 
Q 1494 397 1959 397 
Q 2419 397 2687 759 
Q 2956 1122 2956 1747 
Q 2956 2369 2687 2733 
Q 2419 3097 1959 3097 
z
M 1959 3584 
Q 2709 3584 3137 3096 
Q 3566 2609 3566 1747 
Q 3566 888 3137 398 
Q 2709 -91 1959 -91 
Q 1206 -91 779 398 
Q 353 888 353 1747 
Q 353 2609 779 3096 
Q 1206 3584 1959 3584 
z
" transform="scale(0.015625)"/>
      <path id="DejaVuSans-2d" d="M 313 2009 
L 1997 2009 
L 1997 1497 
L 313 1497 
L 313 2009 
z
" transform="scale(0.015625)"/>
      <path id="DejaVuSans-59" d="M -13 4666 
L 666 4666 
L 1959 2747 
L 3244 4666 
L 3922 4666 
L 2272 2222 
L 2272 0 
L 1638 0 
L 1638 2222 
L -13 4666 
z
" transform="scale(0.015625)"/>
      <path id="DejaVuSans-29" d="M 513 4856 
L 1013 4856 
Q 1481 4119 1714 3412 
Q 1947 2706 1947 2009 
Q 1947 1309 1714 600 
Q 1481 -109 1013 -844 
L 513 -844 
Q 928 -128 1133 580 
Q 1338 1288 1338 2009 
Q 1338 2731 1133 3434 
Q 928 4138 513 4856 
z
" transform="scale(0.015625)"/>
     </defs>
     <use xlink:href="#DejaVuSans-50"/>
     <use xlink:href="#DejaVuSans-52" transform="translate(60.302734 0)"/>
     <use xlink:href="#DejaVuSans-45" transform="translate(129.785156 0)"/>
     <use xlink:href="#DejaVuSans-53" transform="translate(192.96875 0)"/>
     <use xlink:href="#DejaVuSans-41" transform="translate(258.320312 0)"/>
     <use xlink:href="#DejaVuSans-54" transform="translate(318.978516 0)"/>
     <use xlink:href="#DejaVuSans-20" transform="translate(380.0625 0)"/>
     <use xlink:href="#DejaVuSans-53" transform="translate(411.849609 0)"/>
     <use xlink:href="#DejaVuSans-70" transform="translate(475.326172 0)"/>
     <use xlink:href="#DejaVuSans-65" transform="translate(538.802734 0)"/>
     <use xlink:href="#DejaVuSans-63" transform="translate(600.326172 0)"/>
     <use xlink:href="#DejaVuSans-74" transform="translate(655.306641 0)"/>
     <use xlink:href="#DejaVuSans-72" transform="translate(694.515625 0)"/>
     <use xlink:href="#DejaVuSans-75" transform="translate(735.628906 0)"/>
     <use xlink:href="#DejaVuSans-6d" transform="translate(799.007812 0)"/>
     <use xlink:href="#DejaVuSans-3a" transform="translate(896.419922 0)"/>
     <use xlink:href="#DejaVuSans-20" transform="translate(930.111328 0)"/>
     <use xlink:href="#DejaVuSans-32" transform="translate(961.898438 0)"/>
     <use xlink:href="#DejaVuSans-5f" transform="translate(1025.521484 0)"/>
     <use xlink:href="#DejaVuSans-61" transform="translate(1075.521484 0)"/>
     <use xlink:href="#DejaVuSans-6d" transform="translate(1136.800781 0)"/>
     <use xlink:href="#DejaVuSans-5f" transform="translate(1234.212891 0)"/>
     <use xlink:href="#DejaVuSans-32" transform="translate(1284.212891 0)"/>
     <use xlink:href="#DejaVuSans-5f" transform="translate(1347.835938 0)"/>
     <use xlink:href="#DejaVuSans-61" transform="translate(1397.835938 0)"/>
     <use xlink:href="#DejaVuSans-6c" transform="translate(1459.115234 0)"/>
     <use xlink:href="#DejaVuSans-64" transform="translate(1486.898438 0)"/>
     <use xlink:href="#DejaVuSans-20" transform="translate(1550.375 0)"/>
     <use xlink:href="#DejaVuSans-28" transform="translate(1582.162109 0)"/>
     <use xlink:href="#DejaVuSans-41" transform="translate(1621.175781 0)"/>
     <use xlink:href="#DejaVuSans-75" transform="translate(1689.583984 0)"/>
     <use xlink:href="#DejaVuSans-74" transform="translate(1752.962891 0)"/>
     <use xlink:href="#DejaVuSans-6f" transform="translate(1792.171875 0)"/>
     <use xlink:href="#DejaVuSans-2d" transform="translate(1855.228516 0)"/>
     <use xlink:href="#DejaVuSans-53" transform="translate(1891.3125 0)"/>
     <use xlink:href="#DejaVuSans-63" transform="translate(1954.789062 0)"/>
     <use xlink:href="#DejaVuSans-61" transform="translate(2009.769531 0)"/>
     <use xlink:href="#DejaVuSans-6c" transform="translate(2071.048828 0)"/>
     <use xlink:href="#DejaVuSans-65" transform="translate(2098.832031 0)"/>
     <use xlink:href="#DejaVuSans-64" transform="translate(2160.355469 0)"/>
     <use xlink:href="#DejaVuSans-20" transform="translate(2223.832031 0)"/>
     <use xlink:href="#DejaVuSans-59" transform="translate(2255.619141 0)"/>
     <use xlink:href="#DejaVuSans-29" transform="translate(2316.703125 0)"/>
    </g>
   </g>
  </g>
 </g>
 <defs>
  <clipPath id="p88f9c69484">
   <rect x="53.67147" y="27.6" width="799.52853" height="362.44"/>
  </clipPath>
 </defs>
</svg>
