<?xml version="1.0" encoding="utf-8" standalone="no"?>
<!DOCTYPE svg PUBLIC "-//W3C//DTD SVG 1.1//EN"
  "http://www.w3.org/Graphics/SVG/1.1/DTD/svg11.dtd">
<svg xmlns:xlink="http://www.w3.org/1999/xlink" width="864pt" height="432pt" viewBox="0 0 864 432" xmlns="http://www.w3.org/2000/svg" version="1.1">
 <metadata>
  <rdf:RDF xmlns:dc="http://purl.org/dc/elements/1.1/" xmlns:cc="http://creativecommons.org/ns#" xmlns:rdf="http://www.w3.org/1999/02/22-rdf-syntax-ns#">
   <cc:Work>
    <dc:type rdf:resource="http://purl.org/dc/dcmitype/StillImage"/>
    <dc:date>2026-02-23T17:13:18.962780</dc:date>
    <dc:format>image/svg+xml</dc:format>
    <dc:creator>
     <cc:Agent>
      <dc:title>Matplotlib v3.10.8, https://matplotlib.org/</dc:title>
     </cc:Agent>
    </dc:creator>
   </cc:Work>
  </rdf:RDF>
 </metadata>
 <defs>
  <style type="text/css">*{stroke-linejoin: round; stroke-linecap: butt}</style>
 </defs>
 <g id="figure_1">
  <g id="patch_1">
   <path d="M 0 432 
L 864 432 
L 864 0 
L 0 0 
z
" style="fill: #ffffff"/>
  </g>
  <g id="axes_1">
   <g id="patch_2">
    <path d="M 17.145 390.04 
L 853.2 390.04 
L 853.2 24.72 
L 17.145 24.72 
z
" style="fill: #ffffff"/>
   </g>
   <g id="matplotlib.axis_1">
    <g id="xtick_1">
     <g id="line2d_1">
      <defs>
       <path id="m29686d72d8" d="M 0 0 
L 0 3.5 
" style="stroke: #000000; stroke-width: 0.8"/>
      </defs>
      <g>
       <use xlink:href="#m29686d72d8" x="824.370517" y="390.04" style="stroke: #000000; stroke-width: 0.8"/>
      </g>
     </g>
     <g id="text_1">
      <!-- 0 -->
      <g transform="translate(821.189267 404.638438) scale(0.1 -0.1)">
       <defs>
        <path id="DejaVuSans-30" d="M 2034 4250 
Q 1547 4250 1301 3770 
Q 1056 3291 1056 2328 
Q 1056 1369 1301 889 
Q 1547 409 2034 409 
Q 2525 409 2770 889 
Q 3016 1369 3016 2328 
Q 3016 3291 2770 3770 
Q 2525 4250 2034 4250 
z
M 2034 4750 
Q 2819 4750 3233 4129 
Q 3647 3509 3647 2328 
Q 3647 1150 3233 529 
Q 2819 -91 2034 -91 
Q 1250 -91 836 529 
Q 422 1150 422 2328 
Q 422 3509 836 4129 
Q 1250 4750 2034 4750 
z
" transform="scale(0.015625)"/>
       </defs>
       <use xlink:href="#DejaVuSans-30"/>
      </g>
     </g>
    </g>
    <g id="xtick_2">
     <g id="line2d_2">
      <g>
       <use xlink:href="#m29686d72d8" x="709.052586" y="390.04" style="stroke: #000000; stroke-width: 0.8"/>
      </g>
     </g>
     <g id="text_2">
      <!-- 2 -->
      <g transform="translate(705.871336 404.638438) scale(0.1 -0.1)">
       <defs>
        <path id="DejaVuSans-32" d="M 1228 531 
L 3431 531 
L 3431 0 
L 469 0 
L 469 531 
Q 828 903 1448 1529 
Q 2069 2156 2228 2338 
Q 2531 2678 2651 2914 
Q 2772 3150 2772 3378 
Q 2772 3750 2511 3984 
Q 2250 4219 1831 4219 
Q 1534 4219 1204 4116 
Q 875 4013 500 3803 
L 500 4441 
Q 881 4594 1212 4672 
Q 1544 4750 1819 4750 
Q 2544 4750 2975 4387 
Q 3406 4025 3406 3419 
Q 3406 3131 3298 2873 
Q 3191 2616 2906 2266 
Q 2828 2175 2409 1742 
Q 1991 1309 1228 531 
z
" transform="scale(0.015625)"/>
       </defs>
       <use xlink:href="#DejaVuSans-32"/>
      </g>
     </g>
    </g>
    <g id="xtick_3">
     <g id="line2d_3">
      <g>
       <use xlink:href="#m29686d72d8" x="593.734655" y="390.04" style="stroke: #000000; stroke-width: 0.8"/>
      </g>
     </g>
     <g id="text_3">
      <!-- 4 -->
      <g transform="translate(590.553405 404.638438) scale(0.1 -0.1)">
       <defs>
        <path id="DejaVuSans-34" d="M 2419 4116 
L 825 1625 
L 2419 1625 
L 2419 4116 
z
M 2253 4666 
L 3047 4666 
L 3047 1625 
L 3713 1625 
L 3713 1100 
L 3047 1100 
L 3047 0 
L 2419 0 
L 2419 1100 
L 313 1100 
L 313 1709 
L 2253 4666 
z
" transform="scale(0.015625)"/>
       </defs>
       <use xlink:href="#DejaVuSans-34"/>
      </g>
     </g>
    </g>
    <g id="xtick_4">
     <g id="line2d_4">
      <g>
       <use xlink:href="#m29686d72d8" x="478.416724" y="390.04" style="stroke: #000000; stroke-width: 0.8"/>
      </g>
     </g>
     <g id="text_4">
      <!-- 6 -->
      <g transform="translate(475.235474 404.638438) scale(0.1 -0.1)">
       <defs>
        <path id="DejaVuSans-36" d="M 2113 2584 
Q 1688 2584 1439 2293 
Q 1191 2003 1191 1497 
Q 1191 994 1439 701 
Q 1688 409 2113 409 
Q 2538 409 2786 701 
Q 3034 994 3034 1497 
Q 3034 2003 2786 2293 
Q 2538 2584 2113 2584 
z
M 3366 4563 
L 3366 3988 
Q 3128 4100 2886 4159 
Q 2644 4219 2406 4219 
Q 1781 4219 1451 3797 
Q 1122 3375 1075 2522 
Q 1259 2794 1537 2939 
Q 1816 3084 2150 3084 
Q 2853 3084 3261 2657 
Q 3669 2231 3669 1497 
Q 3669 778 3244 343 
Q 2819 -91 2113 -91 
Q 1303 -91 875 529 
Q 447 1150 447 2328 
Q 447 3434 972 4092 
Q 1497 4750 2381 4750 
Q 2619 4750 2861 4703 
Q 3103 4656 3366 4563 
z
" transform="scale(0.015625)"/>
       </defs>
       <use xlink:href="#DejaVuSans-36"/>
      </g>
     </g>
    </g>
    <g id="xtick_5">
     <g id="line2d_5">
      <g>
       <use xlink:href="#m29686d72d8" x="363.098793" y="390.04" style="stroke: #000000; stroke-width: 0.8"/>
      </g>
     </g>
     <g id="text_5">
      <!-- 8 -->
      <g transform="translate(359.917543 404.638438) scale(0.1 -0.1)">
       <defs>
        <path id="DejaVuSans-38" d="M 2034 2216 
Q 1584 2216 1326 1975 
Q 1069 1734 1069 1313 
Q 1069 891 1326 650 
Q 1584 409 2034 409 
Q 2484 409 2743 651 
Q 3003 894 3003 1313 
Q 3003 1734 2745 1975 
Q 2488 2216 2034 2216 
z
M 1403 2484 
Q 997 2584 770 2862 
Q 544 3141 544 3541 
Q 544 4100 942 4425 
Q 1341 4750 2034 4750 
Q 2731 4750 3128 4425 
Q 3525 4100 3525 3541 
Q 3525 3141 3298 2862 
Q 3072 2584 2669 2484 
Q 3125 2378 3379 2068 
Q 3634 1759 3634 1313 
Q 3634 634 3220 271 
Q 2806 -91 2034 -91 
Q 1263 -91 848 271 
Q 434 634 434 1313 
Q 434 1759 690 2068 
Q 947 2378 1403 2484 
z
M 1172 3481 
Q 1172 3119 1398 2916 
Q 1625 2713 2034 2713 
Q 2441 2713 2670 2916 
Q 2900 3119 2900 3481 
Q 2900 3844 2670 4047 
Q 2441 4250 2034 4250 
Q 1625 4250 1398 4047 
Q 1172 3844 1172 3481 
z
" transform="scale(0.015625)"/>
       </defs>
       <use xlink:href="#DejaVuSans-38"/>
      </g>
     </g>
    </g>
    <g id="xtick_6">
     <g id="line2d_6">
      <g>
       <use xlink:href="#m29686d72d8" x="247.780862" y="390.04" style="stroke: #000000; stroke-width: 0.8"/>
      </g>
     </g>
     <g id="text_6">
      <!-- 10 -->
      <g transform="translate(241.418362 404.638438) scale(0.1 -0.1)">
       <defs>
        <path id="DejaVuSans-31" d="M 794 531 
L 1825 531 
L 1825 4091 
L 703 3866 
L 703 4441 
L 1819 4666 
L 2450 4666 
L 2450 531 
L 3481 531 
L 3481 0 
L 794 0 
L 794 531 
z
" transform="scale(0.015625)"/>
       </defs>
       <use xlink:href="#DejaVuSans-31"/>
       <use xlink:href="#DejaVuSans-30" transform="translate(63.623047 0)"/>
      </g>
     </g>
    </g>
    <g id="xtick_7">
     <g id="line2d_7">
      <g>
       <use xlink:href="#m29686d72d8" x="132.462931" y="390.04" style="stroke: #000000; stroke-width: 0.8"/>
      </g>
     </g>
     <g id="text_7">
      <!-- 12 -->
      <g transform="translate(126.100431 404.638438) scale(0.1 -0.1)">
       <use xlink:href="#DejaVuSans-31"/>
       <use xlink:href="#DejaVuSans-32" transform="translate(63.623047 0)"/>
      </g>
     </g>
    </g>
    <g id="xtick_8">
     <g id="line2d_8">
      <g>
       <use xlink:href="#m29686d72d8" x="17.145" y="390.04" style="stroke: #000000; stroke-width: 0.8"/>
      </g>
     </g>
     <g id="text_8">
      <!-- 14 -->
      <g transform="translate(10.7825 404.638438) scale(0.1 -0.1)">
       <use xlink:href="#DejaVuSans-31"/>
       <use xlink:href="#DejaVuSans-34" transform="translate(63.623047 0)"/>
      </g>
     </g>
    </g>
    <g id="text_9">
     <!-- Chemical Shift (ppm) -->
     <g transform="translate(375.717031 418.316562) scale(0.1 -0.1)">
      <defs>
       <path id="DejaVuSans-Bold-43" d="M 4288 256 
Q 3956 84 3597 -3 
Q 3238 -91 2847 -91 
Q 1681 -91 1000 561 
Q 319 1213 319 2328 
Q 319 3447 1000 4098 
Q 1681 4750 2847 4750 
Q 3238 4750 3597 4662 
Q 3956 4575 4288 4403 
L 4288 3438 
Q 3953 3666 3628 3772 
Q 3303 3878 2944 3878 
Q 2300 3878 1931 3465 
Q 1563 3053 1563 2328 
Q 1563 1606 1931 1193 
Q 2300 781 2944 781 
Q 3303 781 3628 887 
Q 3953 994 4288 1222 
L 4288 256 
z
" transform="scale(0.015625)"/>
       <path id="DejaVuSans-Bold-68" d="M 4056 2131 
L 4056 0 
L 2931 0 
L 2931 347 
L 2931 1625 
Q 2931 2084 2911 2256 
Q 2891 2428 2841 2509 
Q 2775 2619 2662 2680 
Q 2550 2741 2406 2741 
Q 2056 2741 1856 2470 
Q 1656 2200 1656 1722 
L 1656 0 
L 538 0 
L 538 4863 
L 1656 4863 
L 1656 2988 
Q 1909 3294 2193 3439 
Q 2478 3584 2822 3584 
Q 3428 3584 3742 3212 
Q 4056 2841 4056 2131 
z
" transform="scale(0.015625)"/>
       <path id="DejaVuSans-Bold-65" d="M 4031 1759 
L 4031 1441 
L 1416 1441 
Q 1456 1047 1700 850 
Q 1944 653 2381 653 
Q 2734 653 3104 758 
Q 3475 863 3866 1075 
L 3866 213 
Q 3469 63 3072 -14 
Q 2675 -91 2278 -91 
Q 1328 -91 801 392 
Q 275 875 275 1747 
Q 275 2603 792 3093 
Q 1309 3584 2216 3584 
Q 3041 3584 3536 3087 
Q 4031 2591 4031 1759 
z
M 2881 2131 
Q 2881 2450 2695 2645 
Q 2509 2841 2209 2841 
Q 1884 2841 1681 2658 
Q 1478 2475 1428 2131 
L 2881 2131 
z
" transform="scale(0.015625)"/>
       <path id="DejaVuSans-Bold-6d" d="M 3781 2919 
Q 3994 3244 4286 3414 
Q 4578 3584 4928 3584 
Q 5531 3584 5847 3212 
Q 6163 2841 6163 2131 
L 6163 0 
L 5038 0 
L 5038 1825 
Q 5041 1866 5042 1909 
Q 5044 1953 5044 2034 
Q 5044 2406 4934 2573 
Q 4825 2741 4581 2741 
Q 4263 2741 4089 2478 
Q 3916 2216 3909 1719 
L 3909 0 
L 2784 0 
L 2784 1825 
Q 2784 2406 2684 2573 
Q 2584 2741 2328 2741 
Q 2006 2741 1831 2477 
Q 1656 2213 1656 1722 
L 1656 0 
L 531 0 
L 531 3500 
L 1656 3500 
L 1656 2988 
Q 1863 3284 2130 3434 
Q 2397 3584 2719 3584 
Q 3081 3584 3359 3409 
Q 3638 3234 3781 2919 
z
" transform="scale(0.015625)"/>
       <path id="DejaVuSans-Bold-69" d="M 538 3500 
L 1656 3500 
L 1656 0 
L 538 0 
L 538 3500 
z
M 538 4863 
L 1656 4863 
L 1656 3950 
L 538 3950 
L 538 4863 
z
" transform="scale(0.015625)"/>
       <path id="DejaVuSans-Bold-63" d="M 3366 3391 
L 3366 2478 
Q 3138 2634 2908 2709 
Q 2678 2784 2431 2784 
Q 1963 2784 1702 2511 
Q 1441 2238 1441 1747 
Q 1441 1256 1702 982 
Q 1963 709 2431 709 
Q 2694 709 2930 787 
Q 3166 866 3366 1019 
L 3366 103 
Q 3103 6 2833 -42 
Q 2563 -91 2291 -91 
Q 1344 -91 809 395 
Q 275 881 275 1747 
Q 275 2613 809 3098 
Q 1344 3584 2291 3584 
Q 2566 3584 2833 3536 
Q 3100 3488 3366 3391 
z
" transform="scale(0.015625)"/>
       <path id="DejaVuSans-Bold-61" d="M 2106 1575 
Q 1756 1575 1579 1456 
Q 1403 1338 1403 1106 
Q 1403 894 1545 773 
Q 1688 653 1941 653 
Q 2256 653 2472 879 
Q 2688 1106 2688 1447 
L 2688 1575 
L 2106 1575 
z
M 3816 1997 
L 3816 0 
L 2688 0 
L 2688 519 
Q 2463 200 2181 54 
Q 1900 -91 1497 -91 
Q 953 -91 614 226 
Q 275 544 275 1050 
Q 275 1666 698 1953 
Q 1122 2241 2028 2241 
L 2688 2241 
L 2688 2328 
Q 2688 2594 2478 2717 
Q 2269 2841 1825 2841 
Q 1466 2841 1156 2769 
Q 847 2697 581 2553 
L 581 3406 
Q 941 3494 1303 3539 
Q 1666 3584 2028 3584 
Q 2975 3584 3395 3211 
Q 3816 2838 3816 1997 
z
" transform="scale(0.015625)"/>
       <path id="DejaVuSans-Bold-6c" d="M 538 4863 
L 1656 4863 
L 1656 0 
L 538 0 
L 538 4863 
z
" transform="scale(0.015625)"/>
       <path id="DejaVuSans-Bold-20" transform="scale(0.015625)"/>
       <path id="DejaVuSans-Bold-53" d="M 3834 4519 
L 3834 3531 
Q 3450 3703 3084 3790 
Q 2719 3878 2394 3878 
Q 1963 3878 1756 3759 
Q 1550 3641 1550 3391 
Q 1550 3203 1689 3098 
Q 1828 2994 2194 2919 
L 2706 2816 
Q 3484 2659 3812 2340 
Q 4141 2022 4141 1434 
Q 4141 663 3683 286 
Q 3225 -91 2284 -91 
Q 1841 -91 1394 -6 
Q 947 78 500 244 
L 500 1259 
Q 947 1022 1364 901 
Q 1781 781 2169 781 
Q 2563 781 2772 912 
Q 2981 1044 2981 1288 
Q 2981 1506 2839 1625 
Q 2697 1744 2272 1838 
L 1806 1941 
Q 1106 2091 782 2419 
Q 459 2747 459 3303 
Q 459 4000 909 4375 
Q 1359 4750 2203 4750 
Q 2588 4750 2994 4692 
Q 3400 4634 3834 4519 
z
" transform="scale(0.015625)"/>
       <path id="DejaVuSans-Bold-66" d="M 2841 4863 
L 2841 4128 
L 2222 4128 
Q 1984 4128 1890 4042 
Q 1797 3956 1797 3744 
L 1797 3500 
L 2753 3500 
L 2753 2700 
L 1797 2700 
L 1797 0 
L 678 0 
L 678 2700 
L 122 2700 
L 122 3500 
L 678 3500 
L 678 3744 
Q 678 4316 997 4589 
Q 1316 4863 1984 4863 
L 2841 4863 
z
" transform="scale(0.015625)"/>
       <path id="DejaVuSans-Bold-74" d="M 1759 4494 
L 1759 3500 
L 2913 3500 
L 2913 2700 
L 1759 2700 
L 1759 1216 
Q 1759 972 1856 886 
Q 1953 800 2241 800 
L 2816 800 
L 2816 0 
L 1856 0 
Q 1194 0 917 276 
Q 641 553 641 1216 
L 641 2700 
L 84 2700 
L 84 3500 
L 641 3500 
L 641 4494 
L 1759 4494 
z
" transform="scale(0.015625)"/>
       <path id="DejaVuSans-Bold-28" d="M 2413 -844 
L 1484 -844 
Q 1006 -72 778 623 
Q 550 1319 550 2003 
Q 550 2688 779 3389 
Q 1009 4091 1484 4856 
L 2413 4856 
Q 2013 4116 1813 3408 
Q 1613 2700 1613 2009 
Q 1613 1319 1811 609 
Q 2009 -100 2413 -844 
z
" transform="scale(0.015625)"/>
       <path id="DejaVuSans-Bold-70" d="M 1656 506 
L 1656 -1331 
L 538 -1331 
L 538 3500 
L 1656 3500 
L 1656 2988 
Q 1888 3294 2169 3439 
Q 2450 3584 2816 3584 
Q 3463 3584 3878 3070 
Q 4294 2556 4294 1747 
Q 4294 938 3878 423 
Q 3463 -91 2816 -91 
Q 2450 -91 2169 54 
Q 1888 200 1656 506 
z
M 2400 2772 
Q 2041 2772 1848 2508 
Q 1656 2244 1656 1747 
Q 1656 1250 1848 986 
Q 2041 722 2400 722 
Q 2759 722 2948 984 
Q 3138 1247 3138 1747 
Q 3138 2247 2948 2509 
Q 2759 2772 2400 2772 
z
" transform="scale(0.015625)"/>
       <path id="DejaVuSans-Bold-29" d="M 513 -844 
Q 913 -100 1113 609 
Q 1313 1319 1313 2009 
Q 1313 2700 1113 3408 
Q 913 4116 513 4856 
L 1441 4856 
Q 1916 4091 2145 3389 
Q 2375 2688 2375 2003 
Q 2375 1319 2147 623 
Q 1919 -72 1441 -844 
L 513 -844 
z
" transform="scale(0.015625)"/>
      </defs>
      <use xlink:href="#DejaVuSans-Bold-43"/>
      <use xlink:href="#DejaVuSans-Bold-68" transform="translate(73.388672 0)"/>
      <use xlink:href="#DejaVuSans-Bold-65" transform="translate(144.580078 0)"/>
      <use xlink:href="#DejaVuSans-Bold-6d" transform="translate(212.402344 0)"/>
      <use xlink:href="#DejaVuSans-Bold-69" transform="translate(316.601562 0)"/>
      <use xlink:href="#DejaVuSans-Bold-63" transform="translate(350.878906 0)"/>
      <use xlink:href="#DejaVuSans-Bold-61" transform="translate(410.15625 0)"/>
      <use xlink:href="#DejaVuSans-Bold-6c" transform="translate(477.636719 0)"/>
      <use xlink:href="#DejaVuSans-Bold-20" transform="translate(511.914062 0)"/>
      <use xlink:href="#DejaVuSans-Bold-53" transform="translate(546.728516 0)"/>
      <use xlink:href="#DejaVuSans-Bold-68" transform="translate(618.75 0)"/>
      <use xlink:href="#DejaVuSans-Bold-69" transform="translate(689.941406 0)"/>
      <use xlink:href="#DejaVuSans-Bold-66" transform="translate(724.21875 0)"/>
      <use xlink:href="#DejaVuSans-Bold-74" transform="translate(767.724609 0)"/>
      <use xlink:href="#DejaVuSans-Bold-20" transform="translate(815.527344 0)"/>
      <use xlink:href="#DejaVuSans-Bold-28" transform="translate(850.341797 0)"/>
      <use xlink:href="#DejaVuSans-Bold-70" transform="translate(896.044922 0)"/>
      <use xlink:href="#DejaVuSans-Bold-70" transform="translate(967.626953 0)"/>
      <use xlink:href="#DejaVuSans-Bold-6d" transform="translate(1039.208984 0)"/>
      <use xlink:href="#DejaVuSans-Bold-29" transform="translate(1143.408203 0)"/>
     </g>
    </g>
   </g>
   <g id="line2d_9">
    <path d="M 16.201101 364.387616 
L 16.794014 364.365604 
L 16.977535 364.384582 
L 19.631526 364.379019 
L 19.899749 364.370067 
L 20.055036 364.359501 
L 20.492662 364.370352 
L 21.113809 364.336282 
L 21.353797 364.395552 
L 21.805541 364.310354 
L 23.527812 364.34451 
L 23.725449 364.329376 
L 24.685404 364.334188 
L 24.826574 364.345856 
L 25.292434 364.345938 
L 26.80295 364.34777 
L 27.113524 364.341514 
L 27.424097 364.315227 
L 30.981575 364.355038 
L 31.263915 364.34642 
L 32.393273 364.349797 
L 32.576793 364.303938 
L 32.859133 364.361534 
L 33.085005 364.314599 
L 33.310876 364.330595 
L 35.188434 364.282041 
L 35.371955 364.275772 
L 35.611943 364.293119 
L 35.964868 364.30785 
L 36.190739 364.32155 
L 36.600132 364.271095 
L 37.12246 364.262502 
L 37.26363 364.289773 
L 38.491806 364.303037 
L 38.80238 364.283655 
L 42.501028 364.291725 
L 42.698665 364.300183 
L 43.700971 364.257089 
L 43.969193 364.269972 
L 44.053895 364.186064 
L 44.110363 364.228492 
L 44.293884 364.252649 
L 44.660925 364.220089 
L 45.33854 364.229417 
L 45.522061 364.218003 
L 45.747932 364.242187 
L 45.94557 364.255962 
L 46.326728 364.274452 
L 46.594951 364.215097 
L 46.707887 364.279574 
L 46.750237 364.239593 
L 47.15963 364.242161 
L 47.385501 364.272656 
L 47.681958 364.23629 
L 49.714802 364.266809 
L 49.898323 364.272451 
L 50.180663 364.278302 
L 50.321832 364.266749 
L 51.013564 364.259039 
L 51.225319 364.257059 
L 53.822843 364.237318 
L 54.006363 364.2458 
L 54.698095 364.220738 
L 54.895733 364.18997 
L 55.418061 364.267599 
L 55.545114 364.250147 
L 55.84157 364.197416 
L 56.674472 364.189141 
L 57.154449 364.211912 
L 57.309736 364.162258 
L 57.945 364.197942 
L 58.213222 364.190414 
L 58.382626 364.189587 
L 58.566147 364.224451 
L 59.173177 364.193778 
L 59.399048 364.216784 
L 59.780206 364.162117 
L 59.935493 364.177938 
L 60.076663 364.251332 
L 60.175482 364.219441 
L 60.344886 364.219447 
L 60.528406 364.191614 
L 60.881331 364.166562 
L 61.078968 364.180238 
L 61.234255 364.220383 
L 61.714232 364.1811 
L 61.968338 364.207868 
L 62.208326 364.202057 
L 62.462432 364.183829 
L 62.674187 364.185008 
L 62.928292 364.183775 
L 63.041228 364.231455 
L 63.761194 364.175609 
L 64.212937 364.178746 
L 64.579978 364.189917 
L 64.749382 364.160067 
L 65.102306 364.183181 
L 65.257593 364.189084 
L 65.681103 364.197648 
L 66.259899 364.181855 
L 66.457536 364.167242 
L 66.697525 364.16449 
L 66.824578 364.151742 
L 67.219853 364.179867 
L 68.532732 364.200328 
L 68.857422 364.149195 
L 70.73498 364.126235 
L 70.819682 364.201667 
L 70.960852 364.177671 
L 71.497297 364.159452 
L 71.610232 364.223346 
L 71.624349 364.19599 
L 71.765519 364.137016 
L 72.217262 364.136094 
L 72.400783 364.144779 
L 72.598421 364.165561 
L 72.810175 364.150286 
L 73.064281 364.176736 
L 73.530141 364.143899 
L 74.108937 364.130743 
L 74.151288 364.108528 
L 74.207756 364.174737 
L 74.348926 364.157577 
L 74.504213 364.127328 
L 74.730084 364.140328 
L 74.786552 364.172042 
L 74.84302 364.123784 
L 74.98419 364.148576 
L 75.16771 364.162708 
L 75.435933 364.125493 
L 75.577103 364.138897 
L 75.887676 364.113021 
L 77.482895 364.120086 
L 77.638181 364.117569 
L 77.87817 364.167348 
L 78.075808 364.143983 
L 78.301679 364.12719 
L 78.471083 364.101323 
L 78.866358 364.11627 
L 79.035762 364.108766 
L 79.332218 364.106663 
L 79.487505 364.157849 
L 83.539077 364.11339 
L 83.694364 364.130408 
L 84.075522 364.14954 
L 84.41433 364.112711 
L 84.569617 364.114378 
L 85.614273 364.102749 
L 85.840144 364.104041 
L 85.995431 364.089009 
L 86.178952 364.131359 
L 86.404823 364.111072 
L 86.616578 364.110041 
L 94.112692 364.041876 
L 94.211511 364.088728 
L 94.465617 364.119582 
L 94.691488 364.087603 
L 94.846775 364.080553 
L 94.973828 364.056474 
L 94.987945 364.072279 
L 95.143232 364.091318 
L 95.354986 364.118447 
L 181.157967 363.901215 
L 181.341488 363.899302 
L 183.007291 363.843082 
L 183.331982 363.890164 
L 183.953129 363.831555 
L 184.193117 363.857701 
L 184.503691 363.864644 
L 184.856615 363.843315 
L 184.997785 363.857766 
L 185.378943 363.837682 
L 185.520113 363.825781 
L 186.113026 363.830911 
L 186.381249 363.84417 
L 186.578886 363.841652 
L 186.734173 363.831179 
L 187.242384 363.823584 
L 187.623542 363.800392 
L 187.792946 363.847282 
L 188.032935 363.820971 
L 188.244689 363.799556 
L 237.258831 363.630238 
L 237.470585 363.434039 
L 237.512936 363.513118 
L 237.82351 363.683852 
L 238.247019 363.722331 
L 238.388189 363.682272 
L 238.402306 363.703081 
L 238.529358 363.696075 
L 238.726996 363.707593 
L 238.938751 363.673281 
L 239.079921 363.657471 
L 239.376377 363.72129 
L 239.701067 363.737418 
L 239.842237 363.718492 
L 240.011641 363.705668 
L 241.50804 363.718091 
L 241.776263 363.702083 
L 242.044486 363.682192 
L 242.185655 363.718608 
L 242.355059 363.740734 
L 242.53858 363.705183 
L 242.792685 363.687183 
L 243.00444 363.719892 
L 243.14561 363.69123 
L 245.954888 363.630729 
L 246.943076 363.122453 
L 247.084246 362.67545 
L 247.211299 361.46383 
L 247.352469 357.941864 
L 247.465404 348.316832 
L 247.606574 322.486954 
L 247.663042 330.529447 
L 247.888914 357.718874 
L 248.114785 361.707386 
L 248.354774 362.780526 
L 248.580645 362.982834 
L 248.665347 362.954937 
L 248.693581 363.013642 
L 248.947687 363.30794 
L 251.940486 363.550695 
L 252.222825 363.615442 
L 252.448697 363.590819 
L 252.646335 363.608457 
L 252.815738 363.593821 
L 253.18278 363.538795 
L 253.380417 363.580224 
L 253.606289 363.572896 
L 254.142734 363.583177 
L 255.060338 363.459544 
L 255.215624 363.504479 
L 255.639134 363.597802 
L 255.921473 363.583956 
L 256.161462 363.580342 
L 258.010786 363.443869 
L 258.123721 363.304805 
L 258.166072 363.345507 
L 258.50488 363.630871 
L 258.843687 363.621673 
L 260.820064 363.597942 
L 260.975351 363.586456 
L 261.314158 363.625516 
L 261.370626 363.598273 
L 261.427094 363.654073 
L 261.794135 363.616272 
L 262.048241 363.609505 
L 263.050546 363.559962 
L 263.205833 363.601628 
L 263.431704 363.603733 
L 263.502289 363.561307 
L 263.558757 363.600689 
L 263.982266 363.63113 
L 266.523322 363.639702 
L 266.650375 363.596959 
L 266.819779 363.596111 
L 267.003299 363.621531 
L 267.200937 363.57152 
L 267.455043 363.569051 
L 267.680914 363.5711 
L 267.864435 363.583236 
L 268.047956 363.560281 
L 268.273827 363.610146 
L 268.471465 363.566657 
L 268.640869 363.574744 
L 268.880857 363.540585 
L 269.967864 363.479127 
L 270.123151 363.512882 
L 270.447842 363.616552 
L 270.701947 363.591356 
L 271.068988 363.618019 
L 271.29486 363.588905 
L 271.930124 363.620713 
L 272.127762 363.583199 
L 274.174723 363.582245 
L 274.315893 363.574568 
L 274.499414 363.58972 
L 275.049976 363.58204 
L 275.177029 363.570156 
L 283.76015 363.515875 
L 283.887203 363.545803 
L 285.468304 363.553249 
L 285.623591 363.529068 
L 285.835346 363.582615 
L 286.216504 363.549534 
L 286.343557 363.582699 
L 286.357674 363.569541 
L 286.498843 363.567004 
L 286.710598 363.554512 
L 286.93647 363.57569 
L 287.374096 363.530837 
L 287.614085 363.550622 
L 287.755254 363.540876 
L 288.023477 363.531249 
L 289.505759 363.590556 
L 289.788099 363.536393 
L 290.493948 363.570997 
L 290.621 363.569887 
L 290.889223 363.545601 
L 291.100978 363.595818 
L 291.256264 363.591402 
L 291.482136 363.568107 
L 291.792709 363.533275 
L 293.232641 363.516269 
L 293.430279 363.498888 
L 293.769086 363.526624 
L 293.910256 363.578819 
L 294.023192 363.57982 
L 294.531403 363.609639 
L 294.68669 363.57301 
L 295.773697 363.566841 
L 295.999568 363.526514 
L 296.126621 363.558972 
L 297.735956 363.555301 
L 297.947711 363.530784 
L 298.300635 363.50577 
L 298.498273 363.551431 
L 299.754684 363.543263 
L 299.86762 363.498246 
L 300.121725 363.531971 
L 300.898159 363.548928 
L 301.138148 363.513779 
L 301.321668 363.491039 
L 301.618125 363.586378 
L 302.196921 363.518783 
L 302.323974 363.522285 
L 302.521611 363.536577 
L 302.803951 363.523511 
L 303.08629 363.48693 
L 303.269811 363.520425 
L 303.552151 363.53545 
L 303.792139 363.540226 
L 303.961543 363.541941 
L 304.201532 363.529545 
L 304.610924 363.516166 
L 304.72386 363.503709 
L 312.149389 363.531642 
L 312.79877 363.492657 
L 313.377566 363.523177 
L 313.54697 363.526179 
L 313.73049 363.485468 
L 313.928128 363.452217 
L 314.309286 363.532329 
L 314.47869 363.481224 
L 315.862154 363.49662 
L 365.765664 363.290813 
L 365.892717 363.316892 
L 366.457396 363.281975 
L 366.880906 363.196224 
L 367.022075 363.228912 
L 367.530287 363.125416 
L 367.685573 363.014943 
L 367.784392 362.90778 
L 367.826743 362.963969 
L 368.250252 363.310528 
L 368.363188 363.248869 
L 368.631411 363.152007 
L 369.167856 363.346668 
L 369.774886 363.370362 
L 369.859588 363.425745 
L 369.901938 363.369349 
L 370.12781 363.40197 
L 370.339565 363.373638 
L 370.480735 363.350732 
L 370.763074 363.34042 
L 370.988946 363.340761 
L 371.144232 363.404262 
L 371.158349 363.386087 
L 371.313636 363.352056 
L 373.62882 363.364535 
L 373.755873 363.360996 
L 373.76999 363.379845 
L 373.882926 363.331943 
L 375.534612 363.250575 
L 376.028706 362.932763 
L 376.240461 362.294541 
L 376.395748 360.657234 
L 376.635736 354.043467 
L 376.734555 344.451863 
L 376.847491 322.680315 
L 376.903959 328.427081 
L 377.115713 347.902864 
L 377.327468 357.18607 
L 377.369819 357.267146 
L 377.398053 357.168377 
L 377.468638 355.855418 
L 377.581574 348.485266 
L 377.849796 320.452746 
L 377.906264 328.452763 
L 378.118019 353.181596 
L 378.597996 361.91272 
L 378.837984 362.449315 
L 379.346196 362.846175 
L 379.586184 362.866845 
L 379.812056 362.920284 
L 379.967342 362.972621 
L 380.080278 363.032125 
L 380.108512 363.002141 
L 380.362618 362.954505 
L 380.757893 363.002351 
L 381.66138 363.080312 
L 382.028421 363.137183 
L 382.197825 363.103607 
L 383.609522 363.194521 
L 383.736575 363.230983 
L 386.164695 362.992923 
L 386.319982 363.025403 
L 386.602321 363.10775 
L 386.912895 363.056812 
L 387.505808 363.059194 
L 387.689328 363.15072 
L 388.38106 363.192325 
L 388.733985 363.197801 
L 388.889271 363.21445 
L 389.072792 363.189364 
L 389.27043 363.168324 
L 390.032746 363.229762 
L 390.300969 363.216361 
L 390.639776 363.224094 
L 392.093825 363.215188 
L 392.263229 363.200133 
L 393.900798 363.19067 
L 394.140787 363.147745 
L 394.338424 363.173547 
L 394.606647 363.19835 
L 395.128975 363.150746 
L 395.312496 363.175786 
L 395.538367 363.219924 
L 396.498322 363.200863 
L 396.851246 363.199817 
L 397.34534 363.200675 
L 397.571212 363.211304 
L 397.712382 363.200948 
L 397.895902 363.239291 
L 398.502932 363.224314 
L 398.982909 363.173349 
L 399.519354 363.207472 
L 399.674641 363.216581 
L 406.366088 362.987055 
L 406.479024 362.964782 
L 406.493141 362.980824 
L 406.63431 363.009973 
L 406.789597 363.050464 
L 406.959001 363.07991 
L 407.354276 363.112981 
L 407.608382 363.105702 
L 407.834253 363.118915 
L 408.13071 363.167995 
L 410.431777 363.212839 
L 411.532901 363.165515 
L 411.815241 363.177563 
L 412.069346 363.13175 
L 412.295218 363.132951 
L 412.436388 363.180391 
L 412.634025 363.173102 
L 412.84578 363.192764 
L 413.057535 363.178437 
L 413.325757 363.148204 
L 416.685597 363.151965 
L 416.869118 363.1597 
L 417.109107 363.192761 
L 418.266699 363.165734 
L 418.506687 363.122004 
L 418.605506 363.182953 
L 418.789027 363.212055 
L 418.958431 363.214021 
L 419.071366 363.156955 
L 419.24077 363.12936 
L 420.779521 363.190054 
L 421.330083 363.183634 
L 423.306459 363.062596 
L 423.574682 363.084107 
L 424.929912 363.106025 
L 425.099315 363.121551 
L 425.325187 363.135147 
L 426.779235 363.113051 
L 427.118043 363.153159 
L 427.541552 363.091207 
L 427.88036 363.094314 
L 428.840314 363.131354 
L 428.95325 363.121013 
L 429.108536 363.123727 
L 429.404993 363.148663 
L 429.856736 363.143473 
L 431.833113 363.038258 
L 432.073101 363.111236 
L 432.31309 362.990107 
L 432.877769 363.104465 
L 432.990705 363.079297 
L 433.047173 363.058292 
L 433.089524 363.11981 
L 433.258927 363.093555 
L 433.922425 363.14969 
L 434.035361 363.189396 
L 434.063595 363.155204 
L 434.247116 363.143774 
L 435.009432 363.02065 
L 435.192953 363.10889 
L 435.729398 363.105805 
L 436.251726 363.122395 
L 436.463481 363.14634 
L 436.816405 363.130145 
L 436.957575 363.104326 
L 437.818711 363.148039 
L 438.002231 363.115652 
L 438.439858 363.085604 
L 438.637495 363.057472 
L 439.583333 362.860947 
L 439.851555 362.389817 
L 440.006842 361.679661 
L 440.133895 359.845577 
L 440.373883 351.988067 
L 440.472702 339.751148 
L 440.585638 315.172092 
L 440.642106 323.375424 
L 440.853861 346.035634 
L 441.065615 356.436826 
L 441.093849 356.538402 
L 441.1362 356.33052 
L 441.220902 354.078818 
L 441.446774 338.529674 
L 441.573826 315.742899 
L 441.644411 325.927726 
L 441.842049 351.972703 
L 442.364377 361.679935 
L 442.674951 362.22956 
L 443.154928 362.513722 
L 443.281981 362.615762 
L 443.42315 362.586573 
L 443.719607 362.688732 
L 443.945478 362.769735 
L 444.213701 362.725249 
L 444.270169 362.704621 
L 444.31252 362.763771 
L 444.481923 362.792579 
L 444.764263 362.841929 
L 445.808919 362.831821 
L 446.063025 362.860395 
L 446.514768 362.878494 
L 446.726523 362.852609 
L 448.646431 362.866869 
L 448.872303 362.877453 
L 449.069941 362.850805 
L 449.16876 362.843588 
L 449.182877 362.862119 
L 449.267578 362.896879 
L 449.309929 362.865712 
L 449.945193 362.624351 
L 450.044012 362.676696 
L 450.298118 362.813929 
L 450.665159 362.732252 
L 450.876914 362.77537 
L 451.187487 362.840456 
L 451.356891 362.861951 
L 451.63923 362.884726 
L 451.808634 362.855666 
L 452.514483 362.950053 
L 452.683887 362.87794 
L 453.036811 362.926742 
L 453.319151 362.906342 
L 453.643841 362.887218 
L 453.785011 362.90311 
L 454.137935 362.871429 
L 454.279105 362.848726 
L 454.293222 362.861724 
L 454.702614 362.922226 
L 454.886135 362.882789 
L 455.126124 362.999275 
L 455.267293 362.945783 
L 455.719036 362.909684 
L 456.17078 362.90782 
L 456.453119 362.901654 
L 457.38484 362.83225 
L 457.554243 362.87795 
L 457.99187 362.910003 
L 458.245975 362.921817 
L 458.556549 362.953779 
L 458.895356 362.878461 
L 459.092994 362.939773 
L 459.445918 362.916678 
L 459.657673 362.871843 
L 459.968246 362.831056 
L 460.74468 362.865744 
L 460.914084 362.816656 
L 461.02702 362.878156 
L 461.267008 362.911755 
L 461.478763 362.938838 
L 461.63405 362.912978 
L 462.128144 362.923348 
L 462.297547 362.901671 
L 462.622238 362.896163 
L 462.89046 362.913961 
L 463.088098 362.902907 
L 463.384555 362.909944 
L 464.259807 362.919004 
L 464.38686 362.904977 
L 464.584498 362.903261 
L 464.85272 362.852299 
L 465.078592 362.892227 
L 465.290346 362.926487 
L 465.473867 362.863344 
L 465.487984 362.882729 
L 465.643271 362.885253 
L 466.490289 362.710728 
L 466.81498 362.76706 
L 467.054968 362.722719 
L 467.069085 362.751041 
L 467.238489 362.763696 
L 467.379659 362.791928 
L 468.170209 362.808562 
L 468.311379 362.835303 
L 469.285451 362.766594 
L 469.356035 362.73155 
L 469.398386 362.788731 
L 469.581907 362.822829 
L 469.934831 362.812263 
L 470.118352 362.782194 
L 470.866552 362.773854 
L 471.431231 362.744767 
L 471.981793 362.752025 
L 472.292366 362.662825 
L 472.433536 362.64761 
L 472.786461 362.7284 
L 472.998215 362.735293 
L 473.153502 362.746424 
L 473.393491 362.825546 
L 474.169924 362.735938 
L 474.381679 362.812774 
L 474.932241 362.731952 
L 475.200464 362.698196 
L 475.35575 362.705456 
L 475.96278 362.743612 
L 476.287471 362.731029 
L 476.414524 362.769875 
L 476.541576 362.729328 
L 476.781565 362.687437 
L 476.908618 362.673286 
L 477.487414 362.77332 
L 477.741519 362.727142 
L 478.06621 362.74325 
L 478.221496 362.699076 
L 478.560304 362.721995 
L 479.012047 362.69599 
L 479.195568 362.686148 
L 479.760247 362.660489 
L 479.915534 362.62054 
L 480.522564 362.682699 
L 480.81902 362.426399 
L 480.847254 362.474682 
L 480.974307 362.454932 
L 481.087243 362.434771 
L 481.10136 362.446562 
L 481.468401 362.685495 
L 481.736624 362.596768 
L 481.906027 362.625455 
L 482.244835 362.665303 
L 482.513057 362.675083 
L 483.190672 362.756208 
L 483.57183 362.724181 
L 485.025879 362.703937 
L 485.336452 362.684845 
L 485.519973 362.684005 
L 485.844664 362.638698 
L 485.985833 362.618822 
L 487.016373 362.632864 
L 487.185776 362.626612 
L 487.736338 362.651866 
L 488.032795 362.61888 
L 488.258667 362.588099 
L 489.006866 362.039293 
L 489.303323 361.262454 
L 489.458609 359.265817 
L 489.515077 358.901602 
L 489.585662 359.025497 
L 489.64213 358.605064 
L 489.769183 355.347583 
L 489.910353 345.934639 
L 490.037406 318.025984 
L 490.164458 277.045654 
L 490.206809 287.002481 
L 490.475032 349.373895 
L 490.71502 358.189583 
L 490.983243 360.600057 
L 491.307933 361.520419 
L 491.632624 361.891987 
L 492.098484 362.06445 
L 493.510182 362.33392 
L 494.046627 362.455218 
L 494.21603 362.387459 
L 494.484253 362.409483 
L 494.611306 362.358538 
L 494.724242 362.307477 
L 494.766593 362.359597 
L 494.935996 362.375503 
L 495.1054 362.42274 
L 495.557143 362.414048 
L 495.655962 362.470507 
L 496.672384 362.377142 
L 496.78532 362.359558 
L 496.799437 362.372655 
L 497.039426 362.458574 
L 497.378233 362.462782 
L 497.434701 362.478391 
L 497.477052 362.427621 
L 497.745274 362.343918 
L 498.112316 362.45103 
L 498.493474 362.515973 
L 498.719346 362.451408 
L 499.142855 362.422963 
L 499.594598 362.155862 
L 499.792236 362.220529 
L 500.258096 362.436264 
L 500.992179 362.444517 
L 501.260402 362.438144 
L 501.796847 362.43854 
L 501.952133 362.396561 
L 502.234473 362.394114 
L 502.968556 362.418284 
L 503.123842 362.500171 
L 503.152076 362.47367 
L 503.392065 362.452539 
L 504.450838 362.498432 
L 504.606125 362.532053 
L 504.916698 362.339985 
L 505.227272 362.354262 
L 505.523728 362.420832 
L 505.707249 362.439235 
L 505.919004 362.432143 
L 506.257811 362.419799 
L 506.441332 362.38107 
L 506.780139 362.382825 
L 507.937731 362.33779 
L 508.107135 362.346378 
L 508.50241 362.347867 
L 508.940037 362.319437 
L 509.222376 362.368122 
L 509.448248 362.329988 
L 509.942342 362.279032 
L 510.125863 362.266116 
L 510.267032 362.312958 
L 510.521138 362.391011 
L 511.015232 362.381311 
L 511.382273 362.267217 
L 511.749315 362.357757 
L 511.932836 362.320821 
L 512.328111 362.311696 
L 512.525749 362.292951 
L 512.709269 362.290357 
L 512.864556 362.288238 
L 512.977492 362.356293 
L 514.078616 362.272506 
L 514.262137 362.238177 
L 514.869167 362.293416 
L 515.095038 362.229188 
L 515.476197 362.252222 
L 515.603249 362.28948 
L 515.913823 362.287924 
L 516.605555 362.325048 
L 516.732607 362.310725 
L 516.902011 362.293282 
L 517.297286 362.295852 
L 517.509041 362.35511 
L 517.890199 362.246263 
L 518.398411 362.288178 
L 518.567814 362.333442 
L 518.708984 362.270752 
L 518.934856 362.176927 
L 519.132493 362.187067 
L 519.443067 362.216252 
L 519.937161 362.176942 
L 520.558308 362.223819 
L 520.78418 362.234319 
L 520.981817 362.182983 
L 521.842953 362.165134 
L 521.955889 362.215958 
L 522.139409 362.234001 
L 522.718205 362.17037 
L 522.958194 362.31638 
L 523.240533 362.258683 
L 523.39582 362.231947 
L 524.256956 362.229504 
L 524.595763 362.18743 
L 524.779284 362.105398 
L 525.273378 362.074264 
L 525.513367 362.035865 
L 525.68277 362.089209 
L 526.656842 362.012414 
L 526.783894 362.036699 
L 526.981532 362.074377 
L 527.235638 362.06909 
L 527.50386 362.108891 
L 527.743849 362.083454 
L 528.139124 362.043348 
L 528.619101 362.128378 
L 528.873207 362.146065 
L 528.986143 362.111725 
L 531.993059 361.908705 
L 532.105994 361.956692 
L 532.247164 361.952213 
L 532.3601 361.900205 
L 532.388334 361.939354 
L 532.557738 361.971388 
L 532.769492 361.887646 
L 532.938896 361.865318 
L 533.235353 361.976633 
L 533.800032 361.874918 
L 533.969435 361.923869 
L 534.195307 361.846818 
L 534.378828 361.834694 
L 534.463529 361.939866 
L 534.618816 361.962662 
L 536.905766 361.844492 
L 537.103404 361.924156 
L 537.597498 361.828804 
L 537.936306 361.752699 
L 538.049241 361.809743 
L 538.359815 361.903532 
L 538.642154 361.726612 
L 539.305652 361.738079 
L 539.531524 361.68427 
L 539.672694 361.739635 
L 540.265607 361.780538 
L 540.505595 361.669099 
L 540.674999 361.675258 
L 540.85852 361.623467 
L 541.04204 361.638458 
L 541.352614 361.572193 
L 541.46555 361.534589 
L 541.592602 361.574498 
L 541.747889 361.524123 
L 541.79024 361.506852 
L 541.846708 361.567245 
L 542.030229 361.570447 
L 543.159587 361.491934 
L 543.484277 361.436197 
L 543.61133 361.430794 
L 544.232477 361.331766 
L 544.288945 361.384312 
L 544.345413 361.305121 
L 544.571284 361.176987 
L 544.768922 361.187799 
L 545.008911 361.083922 
L 545.277133 361.068874 
L 545.446537 361.011892 
L 545.658292 360.925045 
L 547.789955 360.487434 
L 547.959359 360.463861 
L 548.156996 360.383195 
L 548.665207 360.369734 
L 548.820494 360.429384 
L 548.848728 360.391187 
L 549.004015 360.41998 
L 549.286354 360.433995 
L 549.498109 360.440507 
L 550.048671 360.540784 
L 550.105139 360.543749 
L 550.133373 360.591586 
L 550.359245 360.717645 
L 551.163912 360.928029 
L 551.36155 361.002479 
L 551.68624 361.033483 
L 551.940346 361.112479 
L 552.194451 361.129272 
L 552.29327 361.205451 
L 552.490908 361.246347 
L 552.956768 361.344455 
L 553.097938 361.375253 
L 553.719085 361.435041 
L 554.142594 361.475622 
L 554.340232 361.487407 
L 554.693156 361.624874 
L 555.215484 361.635914 
L 555.384888 361.619564 
L 555.653111 361.622124 
L 556.415427 361.729182 
L 556.570714 361.690732 
L 556.768352 361.66358 
L 557.107159 361.792459 
L 558.448272 361.757004 
L 558.730611 361.883747 
L 559.027068 361.839592 
L 559.224706 361.894 
L 559.521162 361.864071 
L 559.648215 361.808801 
L 559.888203 361.766273 
L 560.099958 361.754351 
L 560.283479 361.766689 
L 560.396415 361.850835 
L 560.438766 361.810613 
L 560.848158 361.749479 
L 561.031679 361.786017 
L 561.638709 361.763741 
L 561.751644 361.846543 
L 561.779878 361.808052 
L 561.906931 361.773677 
L 561.921048 361.78283 
L 562.344557 361.815776 
L 562.598663 361.798082 
L 562.824535 361.938402 
L 563.5445 361.878465 
L 563.699787 361.915372 
L 563.82684 361.951629 
L 564.179764 362.001889 
L 564.349168 361.933088 
L 564.518572 361.891648 
L 564.702092 361.886341 
L 565.464409 361.828959 
L 565.591462 361.840071 
L 565.718515 361.817129 
L 566.071439 361.891316 
L 566.25496 361.889721 
L 566.650235 361.733501 
L 566.904341 361.824046 
L 567.243148 361.610765 
L 567.271382 361.649733 
L 567.567839 361.915771 
L 567.779593 361.843325 
L 567.892529 361.711821 
L 567.948997 361.772038 
L 568.40074 361.956144 
L 568.598378 361.88113 
L 568.824249 361.826393 
L 569.47363 361.906502 
L 569.6148 361.931254 
L 570.094777 361.847952 
L 570.617105 361.674715 
L 571.012381 361.717228 
L 571.322954 361.559032 
L 571.548826 361.70593 
L 571.887633 361.662377 
L 572.198207 361.710888 
L 572.395844 361.678643 
L 572.565248 361.664145 
L 572.692301 361.749443 
L 572.918172 361.824826 
L 573.101693 361.778697 
L 573.39815 361.791143 
L 573.539319 361.77752 
L 574.089881 361.428525 
L 574.386338 360.801973 
L 574.527508 359.686227 
L 574.668678 356.589987 
L 574.781613 348.473838 
L 574.922783 327.691072 
L 574.979251 333.998647 
L 575.176889 352.063755 
L 575.191006 352.14892 
L 575.233357 351.846238 
L 575.346292 348.002207 
L 575.445111 335.788236 
L 575.586281 295.18235 
L 575.656866 310.59474 
L 575.86862 348.588339 
L 575.995673 351.372557 
L 576.023907 351.057313 
L 576.108609 346.677859 
L 576.263896 325.713202 
L 576.320364 332.832725 
L 576.546235 356.370702 
L 576.772107 359.850668 
L 577.012096 360.811488 
L 577.22385 361.035719 
L 577.774412 361.330256 
L 577.83088 361.311872 
L 577.887348 361.363107 
L 578.353208 361.485789 
L 578.706133 361.58856 
L 578.889653 361.562574 
L 579.171993 361.634222 
L 579.397865 361.705029 
L 579.595502 361.659093 
L 579.79314 361.684379 
L 580.033128 361.602975 
L 580.357819 361.718125 
L 580.470755 361.662262 
L 580.611924 361.674948 
L 580.668392 361.725999 
L 580.738977 361.652774 
L 580.922498 361.650342 
L 581.120136 361.665433 
L 581.515411 361.697579 
L 581.698932 361.788469 
L 582.36243 361.686963 
L 582.517716 361.717614 
L 583.096512 361.765042 
L 583.392969 361.737454 
L 583.61884 361.55004 
L 583.661191 361.60168 
L 583.90118 361.712882 
L 584.070584 361.64183 
L 584.268221 361.408742 
L 584.296455 361.448567 
L 584.494093 361.596337 
L 585.679919 361.67248 
L 585.948141 361.671707 
L 586.18813 361.637597 
L 587.105734 361.686139 
L 587.289254 361.69466 
L 588.023337 361.728484 
L 588.192741 361.684341 
L 588.686835 361.720218 
L 588.842122 361.79512 
L 588.856239 361.774038 
L 589.053876 361.645992 
L 589.265631 361.675583 
L 589.519736 361.668409 
L 590.155 361.608559 
L 590.282053 361.640512 
L 590.564393 361.64622 
L 590.804381 361.655635 
L 590.945551 361.633052 
L 591.213774 361.6578 
L 591.496113 361.620951 
L 591.736102 361.632541 
L 591.849037 361.635433 
L 591.863154 361.617522 
L 592.018441 361.573236 
L 593.458373 361.5251 
L 593.768946 361.555722 
L 593.867765 361.60144 
L 593.952467 361.65679 
L 594.008935 361.611828 
L 594.220689 361.511266 
L 595.702972 361.58386 
L 595.985312 361.630291 
L 596.140598 361.657645 
L 596.310002 361.607444 
L 596.493523 361.588119 
L 596.874681 361.638566 
L 597.086436 361.602001 
L 598.258145 361.56497 
L 598.455782 361.552506 
L 598.963993 361.508229 
L 599.161631 361.4755 
L 599.373386 361.526813 
L 600.728615 361.49722 
L 600.912136 361.582044 
L 601.250944 361.540871 
L 601.476815 361.499932 
L 601.702687 361.52383 
L 601.857974 361.539664 
L 602.055611 361.488036 
L 602.225015 361.531708 
L 603.36849 361.484038 
L 603.566128 361.437275 
L 603.820233 361.478912 
L 604.074339 361.422562 
L 604.187275 361.490207 
L 604.427263 361.446318 
L 604.469614 361.411269 
L 604.540199 361.476988 
L 604.72372 361.461943 
L 604.90724 361.441996 
L 605.471919 361.385752 
L 605.994248 361.351462 
L 606.135417 361.394952 
L 606.206002 361.442923 
L 606.26247 361.371103 
L 606.460108 361.35864 
L 607.038904 361.299045 
L 607.222425 361.342926 
L 607.462413 361.331335 
L 607.75887 361.320348 
L 607.998858 361.381042 
L 608.281198 361.44048 
L 608.676473 361.400743 
L 608.845877 361.40874 
L 609.241152 361.290587 
L 609.396439 361.333041 
L 609.410556 361.318381 
L 609.594077 361.320237 
L 609.834065 361.34818 
L 610.059937 361.336747 
L 610.201106 361.307713 
L 610.215223 361.322904 
L 610.384627 361.310423 
L 610.525797 361.353257 
L 610.737552 361.351153 
L 617.668987 361.124905 
L 617.824274 361.119209 
L 618.050145 361.122521 
L 619.33479 361.094287 
L 619.574779 361.063598 
L 620.478265 361.091269 
L 624.318083 361.061731 
L 624.459252 361.08684 
L 624.614539 361.025518 
L 624.783943 360.99386 
L 625.009814 360.967674 
L 625.419207 360.947521 
L 625.58861 360.93235 
L 626.350927 360.886151 
L 627.310882 360.822005 
L 627.508519 360.756652 
L 627.734391 360.825964 
L 627.917912 360.802312 
L 628.129666 360.828958 
L 628.29907 360.81735 
L 628.510825 360.82055 
L 628.694345 360.804169 
L 628.920217 360.806344 
L 629.089621 360.763846 
L 630.826009 360.640435 
L 630.924827 360.678828 
L 631.136582 360.737797 
L 631.376571 360.733694 
L 631.898899 360.73653 
L 632.237706 360.639281 
L 632.421227 360.68045 
L 632.774151 360.629343 
L 633.000023 360.646275 
L 633.15531 360.660613 
L 633.33883 360.653673 
L 637.559806 360.430589 
L 637.715093 360.424963 
L 637.884497 360.338928 
L 637.898614 360.349438 
L 638.110368 360.36577 
L 638.251538 360.356501 
L 641.258454 360.214647 
L 641.399624 360.207379 
L 641.526677 360.183847 
L 641.540794 360.196248 
L 641.752548 360.225228 
L 642.034888 360.160688 
L 642.204291 360.214045 
L 642.656035 360.108483 
L 642.91014 360.143917 
L 643.164246 360.123141 
L 643.248948 360.126465 
L 643.277182 360.081967 
L 643.390117 360.104757 
L 643.545404 360.086961 
L 643.686574 360.071711 
L 644.223019 360.129701 
L 644.745347 360.042107 
L 645.6206 359.934966 
L 645.790003 359.902285 
L 646.100577 359.927787 
L 646.22763 359.879011 
L 646.397033 359.911448 
L 646.425267 359.941557 
L 646.481735 359.863146 
L 646.651139 359.825416 
L 646.961712 359.765927 
L 647.258169 359.795732 
L 647.455807 359.777398 
L 647.822848 359.599428 
L 648.387527 359.558636 
L 648.542814 359.321037 
L 648.585165 359.364889 
L 648.796919 359.648607 
L 648.853387 359.607127 
L 649.051025 359.530585 
L 649.333364 359.492529 
L 649.347481 359.530103 
L 649.488651 359.57023 
L 649.756874 359.553919 
L 649.982745 359.476852 
L 650.363904 359.511911 
L 650.730945 359.365075 
L 651.761484 359.067597 
L 651.87442 358.984725 
L 651.902654 359.03722 
L 652.128526 359.225216 
L 652.62262 359.118581 
L 652.820257 359.187695 
L 653.159065 359.092404 
L 653.286118 359.083986 
L 653.399053 359.036414 
L 653.921382 358.901931 
L 654.189604 358.766755 
L 654.30254 358.67788 
L 654.838985 357.969622 
L 655.036623 357.074911 
L 655.191909 354.974158 
L 655.333079 349.610307 
L 655.460132 333.390828 
L 655.530717 323.674625 
L 655.587185 328.606859 
L 655.798939 348.198109 
L 655.827173 348.089329 
L 655.911875 345.933382 
L 656.024811 337.457519 
L 656.151864 303.393232 
L 656.208332 293.6047 
L 656.250683 301.017135 
L 656.504788 346.545899 
L 656.603607 348.513897 
L 656.645958 348.099091 
L 656.73066 343.495908 
L 656.87183 325.101379 
L 656.942415 332.863445 
L 657.154169 353.998011 
L 657.394158 357.773335 
L 657.620029 358.572038 
L 657.888252 358.799848 
L 658.198825 358.692742 
L 658.438814 358.696505 
L 658.608218 358.821314 
L 658.650569 358.770371 
L 659.031727 358.516934 
L 659.144663 358.267507 
L 659.201131 358.366623 
L 659.455236 358.737539 
L 659.568172 358.687271 
L 659.921096 358.294344 
L 659.94933 358.249483 
L 660.005798 358.304749 
L 660.259904 358.704088 
L 660.358723 358.657884 
L 660.514009 358.531852 
L 660.542243 358.560374 
L 660.641062 358.494686 
L 660.824583 358.337787 
L 660.8387 358.348211 
L 661.106922 358.612779 
L 661.516315 358.460019 
L 661.784537 358.442989 
L 662.024526 358.326517 
L 662.19393 358.328088 
L 662.335099 358.342171 
L 662.532737 358.134486 
L 662.772726 358.036428 
L 663.083299 358.11015 
L 663.436224 357.294968 
L 663.506808 357.481931 
L 663.690329 357.671363 
L 663.760914 357.725062 
L 663.817382 357.666372 
L 664.05737 357.298232 
L 664.226774 357.002238 
L 664.240891 357.019957 
L 664.48088 357.306136 
L 664.509114 357.285652 
L 664.6644 357.177517 
L 665.27143 356.197189 
L 665.440834 355.529515 
L 665.610238 353.292447 
L 665.751408 347.80142 
L 665.87846 331.471064 
L 665.934928 324.558612 
L 665.991396 328.527052 
L 666.217268 349.003372 
L 666.259619 349.371496 
L 666.316087 349.024618 
L 666.414906 346.195694 
L 666.541958 335.846572 
L 666.654894 307.496553 
L 666.76783 259.490062 
L 666.824298 275.855904 
L 667.050169 341.085555 
L 667.177222 345.229049 
L 667.205456 345.035397 
L 667.290158 342.028354 
L 667.403094 329.677026 
L 667.530147 282.227994 
L 667.600732 259.079521 
L 667.643082 271.590281 
L 667.883071 344.141454 
L 668.080709 350.691958 
L 668.12306 350.43437 
L 668.221878 347.631802 
L 668.334814 335.897029 
L 668.419516 324.561687 
L 668.475984 329.880378 
L 668.715973 353.858754 
L 668.941844 356.926242 
L 669.19595 357.64745 
L 669.421821 357.813893 
L 669.732395 357.905694 
L 669.859448 357.928514 
L 669.873565 357.900004 
L 670.000617 357.896098 
L 670.12767 357.900419 
L 671.002923 357.74968 
L 671.214677 357.681754 
L 671.34173 357.68349 
L 672.118164 357.484056 
L 672.315802 357.480207 
L 672.456971 357.456935 
L 672.668726 357.300853 
L 673.035767 357.292649 
L 673.233405 357.216784 
L 673.515745 357.067739 
L 673.755733 356.939233 
L 673.882786 356.861648 
L 673.896903 356.872322 
L 674.165125 357.061625 
L 674.263944 356.968878 
L 674.687454 356.163916 
L 674.814506 356.611914 
L 674.927442 356.759499 
L 674.955676 356.734311 
L 675.421536 356.277599 
L 675.492121 356.083029 
L 675.562706 356.208117 
L 675.957981 356.58673 
L 676.296789 356.293573 
L 676.381491 356.217514 
L 676.409725 356.251133 
L 676.593245 356.330524 
L 676.819117 356.360093 
L 676.988521 356.336742 
L 677.12969 356.408296 
L 678.400218 356.159424 
L 678.499037 355.980139 
L 678.583739 355.812347 
L 678.640207 355.841571 
L 678.823728 355.950879 
L 679.967203 355.518032 
L 680.150723 355.461233 
L 680.545999 355.415405 
L 680.729519 355.424705 
L 680.842455 355.35563 
L 681.294198 355.103169 
L 681.364783 355.087533 
L 681.3789 355.066364 
L 681.505953 355.037293 
L 681.731825 355.069608 
L 681.830643 355.073134 
L 681.858877 355.016674 
L 683.66585 353.590292 
L 683.694084 353.59181 
L 683.736435 353.519613 
L 684.018775 353.201039 
L 684.597571 352.818965 
L 684.668156 352.682808 
L 684.738741 352.70866 
L 684.936378 352.472617 
L 685.119899 352.182185 
L 685.176367 352.226233 
L 685.275186 352.294998 
L 685.331654 352.242922 
L 685.529291 352.04546 
L 685.656344 352.03256 
L 686.009268 351.582322 
L 686.319842 351.227571 
L 686.404544 351.156976 
L 686.658649 350.951211 
L 687.096276 350.774191 
L 687.322147 350.467645 
L 687.336264 350.476113 
L 687.378615 350.510725 
L 687.435083 350.439918 
L 687.872709 349.895134 
L 688.112698 349.57729 
L 688.606792 349.00514 
L 688.832664 348.721548 
L 689.482045 347.935175 
L 689.552629 347.855469 
L 689.73615 347.277348 
L 690.145542 346.39678 
L 690.244361 346.302259 
L 690.653754 345.39783 
L 691.274901 343.559271 
L 691.55724 342.419655 
L 691.641942 342.463235 
L 691.83958 342.147627 
L 693.110107 337.856696 
L 693.364213 337.455866 
L 693.392447 337.48961 
L 693.505383 337.42217 
L 693.717137 336.828163 
L 694.12653 335.626873 
L 694.253582 335.352112 
L 694.634741 334.304089 
L 694.888846 333.505105 
L 694.931197 333.780481 
L 695.171186 335.576054 
L 695.368824 335.8459 
L 695.382941 335.84035 
L 695.52411 335.802747 
L 695.538227 335.817312 
L 696.032321 335.695101 
L 696.173491 335.542347 
L 696.385246 335.275075 
L 697.316966 333.676534 
L 697.62754 333.020709 
L 697.923996 332.232974 
L 699.858022 325.076194 
L 701.199135 314.292133 
L 701.59441 305.957522 
L 701.848516 294.344837 
L 702.017919 274.618277 
L 702.144972 233.84658 
L 702.272025 137.868278 
L 702.328493 171.490349 
L 702.554364 321.169517 
L 702.709651 324.366756 
L 702.723768 324.309948 
L 703.048459 320.128461 
L 704.714262 295.919915 
L 705.98479 272.778303 
L 707.001212 248.167538 
L 707.876464 226.357978 
L 708.229389 221.358706 
L 708.243506 221.460076 
L 708.27174 221.308492 
L 708.314091 221.527293 
L 708.342325 221.477291 
L 708.59643 223.716668 
L 708.610547 223.729117 
L 708.779951 227.157108 
L 709.316396 245.267362 
L 709.386981 243.551912 
L 709.471683 239.804028 
L 709.499917 242.178032 
L 709.584619 248.563302 
L 709.626969 244.800594 
L 709.782256 216.27454 
L 709.923426 150.86956 
L 709.965777 180.992055 
L 710.015271 433 
M 712.446288 433 
L 712.732704 428.310461 
L 713.678542 415.148942 
L 713.749127 414.634015 
L 714.356157 409.105588 
L 714.483209 408.254407 
L 715.076122 404.295244 
L 715.471398 402.76078 
L 715.683152 401.629143 
L 715.923141 400.577124 
L 716.078428 400.211154 
L 716.276065 399.620696 
L 716.290182 399.650954 
L 716.360767 399.555629 
L 716.600756 399.131594 
L 716.996031 399.383327 
L 717.334838 400.895898 
L 717.730114 403.546529 
L 717.744231 403.570558 
L 717.758348 403.472832 
L 717.828933 401.526154 
L 717.899518 388.381224 
L 717.984219 325.471145 
L 718.083038 237.779767 
L 718.125389 259.834421 
L 718.365378 347.602061 
L 718.619483 366.869731 
L 719.014759 376.201371 
L 719.579438 379.129592 
L 719.593555 379.11328 
L 719.66414 379.210956 
L 719.861777 379.604843 
L 719.946479 379.63329 
L 719.960596 379.674501 
L 720.200585 379.893841 
L 720.285286 379.923164 
L 720.299403 379.963358 
L 720.412339 379.917657 
L 720.765264 379.699776 
L 720.906433 379.543478 
L 721.033486 379.571184 
L 721.231124 379.525556 
L 721.569931 379.270418 
L 721.753452 379.166351 
L 721.894622 379.19648 
L 721.908739 379.167742 
L 722.713406 378.573906 
L 722.769874 378.6628 
L 722.798108 378.720818 
L 722.868693 378.641259 
L 723.080448 378.357722 
L 723.743946 377.869937 
L 723.828647 377.778164 
L 724.068636 377.634085 
L 724.09687 377.641349 
L 724.139221 377.563605 
L 724.689783 377.15024 
L 724.774485 377.192532 
L 724.802719 377.130744 
L 725.056824 376.687516 
L 725.141526 376.57746 
L 725.197994 376.600386 
L 725.395632 376.64755 
L 725.805024 376.233344 
L 726.016779 376.137909 
L 726.143832 376.133094 
L 726.66616 375.759111 
L 726.892031 375.599431 
L 726.976733 375.593512 
L 726.99085 375.573806 
L 727.611997 375.236063 
L 727.640231 375.301003 
L 727.654348 375.321255 
L 727.710816 375.263848 
L 727.851986 375.15398 
L 727.993155 375.151173 
L 728.557835 374.653962 
L 728.642536 374.582318 
L 728.67077 374.639064 
L 728.896642 374.818614 
L 728.910759 374.781884 
L 729.150748 374.445333 
L 729.362502 374.449704 
L 729.461321 374.343689 
L 729.644842 374.143823 
L 730.026 373.950274 
L 730.153053 373.902307 
L 730.703615 373.877608 
L 730.858902 373.775896 
L 731.028305 373.637553 
L 731.127124 373.516222 
L 731.183592 373.550264 
L 731.324762 373.57496 
L 731.338879 373.553706 
L 731.578867 373.431718 
L 731.720037 373.48231 
L 731.734154 373.464017 
L 732.609407 373.057097 
L 732.764693 373.027081 
L 733.639946 372.664058 
L 734.091689 372.721324 
L 734.246976 372.716004 
L 734.374029 372.767483 
L 734.402263 372.725122 
L 735.079877 372.349281 
L 735.093994 372.379572 
L 735.263398 372.435683 
L 735.729258 372.258659 
L 735.926896 372.118933 
L 736.181002 372.069651 
L 736.322171 372.030369 
L 736.336288 372.050747 
L 736.533926 372.019604 
L 736.802149 371.799981 
L 737.098605 371.785943 
L 737.352711 371.803289 
L 737.522114 371.81667 
L 737.677401 371.708082 
L 737.705635 371.739008 
L 738.157378 371.732562 
L 738.397367 371.533359 
L 739.117333 371.302971 
L 739.682012 371.130671 
L 739.823181 370.999821 
L 739.865532 371.038658 
L 740.034936 370.97446 
L 740.218457 370.884316 
L 740.232574 370.90249 
L 740.52903 370.960017 
L 740.712551 370.881489 
L 740.740785 370.942405 
L 740.867838 370.955142 
L 741.305464 370.896997 
L 741.503102 370.667996 
L 741.771324 370.859872 
L 741.785441 370.841636 
L 742.02543 370.75143 
L 742.152483 370.689483 
L 742.279535 370.588081 
L 742.477173 370.475071 
L 742.674811 370.430244 
L 742.81598 370.463994 
L 742.900682 370.478044 
L 742.928916 370.455446 
L 743.027735 370.349971 
L 743.211256 370.262272 
L 743.465361 370.25451 
L 743.648882 370.276903 
L 743.860637 370.350418 
L 744.058274 370.298904 
L 744.157093 370.212342 
L 744.284146 370.135571 
L 744.31238 370.158135 
L 744.510018 370.179673 
L 744.989995 370.126923 
L 745.131165 370.11693 
L 745.286451 370.122681 
L 745.653493 369.98475 
L 746.232289 369.921274 
L 746.373458 369.962788 
L 746.528745 369.954338 
L 746.726383 369.914791 
L 746.839319 369.843126 
L 746.938137 369.910562 
L 747.022839 369.977887 
L 747.06519 369.952643 
L 747.686337 369.780485 
L 748.222782 369.707141 
L 748.589824 369.597596 
L 748.773344 369.626921 
L 748.787461 369.600886 
L 748.900397 369.559115 
L 748.928631 369.58853 
L 749.083918 369.562526 
L 749.295672 369.488858 
L 749.479193 369.477392 
L 749.676831 369.57604 
L 749.690948 369.556728 
L 749.818001 369.566668 
L 749.95917 369.585593 
L 749.973287 369.565528 
L 750.227393 369.464641 
L 750.679136 369.451611 
L 750.806189 369.457771 
L 750.820306 369.439511 
L 751.060294 369.32854 
L 751.441453 369.458467 
L 751.737909 369.304989 
L 752.217887 369.373603 
L 752.457875 369.440901 
L 752.726098 369.362003 
L 753.13549 369.294102 
L 753.446063 369.352137 
L 753.60135 369.379717 
L 753.770754 369.369141 
L 753.982509 369.361682 
L 754.194263 369.340118 
L 754.49072 368.867722 
L 754.547188 368.967139 
L 754.730708 369.129869 
L 755.09775 369.107162 
L 755.238919 368.462223 
L 755.295387 368.241389 
L 755.351855 368.44399 
L 755.577727 369.04203 
L 755.831832 369.208402 
L 756.128289 368.715121 
L 756.156523 368.756572 
L 756.424745 369.138286 
L 756.791787 369.309584 
L 756.904723 369.353805 
L 757.24353 369.360544 
L 757.328232 369.379955 
L 757.342349 369.400526 
L 757.539987 369.442873 
L 758.019964 369.499018 
L 758.189367 369.533581 
L 758.330537 369.475341 
L 758.358771 369.528865 
L 758.485824 369.580226 
L 758.499941 369.571613 
L 758.754046 369.583755 
L 758.965801 369.698377 
L 759.135205 369.615822 
L 759.248141 369.529065 
L 759.290492 369.599954 
L 759.558714 369.757946 
L 759.784586 369.840701 
L 759.798703 369.808505 
L 759.968106 369.506766 
L 759.99634 369.553955 
L 760.222212 369.900377 
L 760.349265 369.892112 
L 760.462201 369.998994 
L 760.561019 370.091746 
L 760.60337 370.021 
L 760.702189 369.539347 
L 760.772774 369.224296 
L 760.829242 369.379246 
L 760.984529 369.915005 
L 761.02688 369.874406 
L 761.139815 369.306775 
L 761.280985 366.344469 
L 761.408038 358.304465 
L 761.520974 330.850246 
L 761.648027 273.144708 
L 761.704495 292.963236 
L 761.916249 350.506064 
L 762.043302 355.112278 
L 762.071536 354.867288 
L 762.156238 351.141011 
L 762.269174 331.842204 
L 762.382109 253.164279 
L 762.466811 173.098656 
L 762.523279 206.308707 
L 762.749151 332.280041 
L 762.960905 347.872292 
L 762.975022 347.909892 
L 762.989139 347.817119 
L 763.059724 344.889444 
L 763.158543 326.70723 
L 763.299713 267.21045 
L 763.356181 286.341406 
L 763.582052 347.044832 
L 763.822041 358.110808 
L 764.10438 361.680715 
L 764.414954 363.137148 
L 764.71141 364.033108 
L 765.953704 365.482023 
L 766.20781 365.638669 
L 766.419565 365.790192 
L 766.800723 365.83299 
L 766.913659 365.871931 
L 767.252466 366.069193 
L 767.986549 366.232009 
L 768.17007 366.270903 
L 768.678281 366.303644 
L 768.904152 366.106403 
L 769.017088 365.823341 
L 769.073556 365.917863 
L 769.257077 366.170336 
L 769.624118 366.188532 
L 769.722937 365.913171 
L 769.835873 365.312213 
L 769.892341 365.477898 
L 770.104095 366.093058 
L 770.45702 366.230867 
L 770.654657 365.825222 
L 770.739359 366.017841 
L 771.007582 366.286807 
L 771.134635 366.364564 
L 771.304038 366.369352 
L 771.431091 366.381795 
L 771.868717 366.426787 
L 772.009887 366.41112 
L 772.024004 366.428025 
L 772.235759 366.518533 
L 772.433396 366.46862 
L 772.588683 366.433887 
L 772.955724 366.476277 
L 773.111011 366.473999 
L 773.506287 366.542601 
L 773.647456 366.558725 
L 773.972147 366.538874 
L 774.183901 366.456214 
L 775.143856 366.484647 
L 775.299143 366.443838 
L 775.863822 366.562145 
L 776.117927 366.501552 
L 776.357916 366.46327 
L 776.499086 366.475138 
L 776.71084 366.505398 
L 777.981368 366.407672 
L 778.094304 366.445848 
L 778.433111 366.421276 
L 778.616632 366.393821 
L 778.828387 366.423752 
L 779.040141 366.467633 
L 779.209545 366.481286 
L 779.407183 366.382656 
L 779.576586 366.372858 
L 779.703639 366.450397 
L 779.858926 366.447313 
L 780.014213 366.441354 
L 780.169499 366.416251 
L 780.367137 366.3785 
L 780.564775 366.414456 
L 781.072986 366.349681 
L 781.242389 366.379249 
L 781.42591 366.409634 
L 781.581197 366.417211 
L 782.244695 366.417801 
L 782.484683 366.445493 
L 782.668204 366.357848 
L 782.823491 366.360492 
L 782.936427 366.317362 
L 782.964661 366.354869 
L 783.091713 366.361809 
L 787.8209 366.277229 
L 788.10324 366.33703 
L 789.274949 366.244729 
L 789.500821 366.226517 
L 789.726692 366.188189 
L 790.686647 366.204754 
L 790.85605 366.221062 
L 791.900706 366.265028 
L 792.027759 366.213593 
L 792.507736 366.21543 
L 792.67714 366.184825 
L 793.28417 366.146095 
L 793.467691 366.165974 
L 793.735913 366.191622 
L 793.975902 366.094707 
L 794.145306 366.15356 
L 794.455879 366.235167 
L 794.808804 366.185955 
L 795.444067 366.208069 
L 795.627588 366.2289 
L 796.121682 366.120148 
L 796.276969 366.087601 
L 796.474607 366.105062 
L 796.672244 366.094877 
L 796.898116 366.072258 
L 797.025169 366.04386 
L 797.265157 366.013291 
L 797.603965 366.116908 
L 798.083942 366.055741 
L 798.126293 366.077145 
L 798.182761 366.004426 
L 798.323931 366.002611 
L 798.592153 365.989944 
L 798.945078 366.018547 
L 799.086247 366.056351 
L 799.100364 366.042308 
L 799.326236 366.030888 
L 801.712005 366.090466 
L 801.810824 366.033058 
L 804.140125 365.963933 
L 804.380113 365.953648 
L 804.718921 365.857857 
L 804.958909 365.923959 
L 805.100079 365.909689 
L 805.325951 365.860117 
L 805.947098 365.954382 
L 806.271788 365.899725 
L 806.709414 365.949818 
L 806.892935 365.977471 
L 807.824656 365.984525 
L 807.951708 365.972462 
L 810.760987 365.912695 
L 811.184496 365.882362 
L 811.311549 365.906352 
L 811.551537 365.988124 
L 811.720941 365.992105 
L 811.989164 365.943635 
L 812.666778 365.628565 
L 812.765597 365.244576 
L 812.89265 364.654196 
L 812.935001 364.78756 
L 813.17499 365.676122 
L 813.471446 365.847229 
L 813.485563 365.833087 
L 813.612616 365.890898 
L 814.205529 365.945396 
L 814.417283 365.983853 
L 816.097204 366.106816 
L 816.308958 366.105313 
L 816.436011 366.092091 
L 816.450128 366.106948 
L 816.591298 366.093 
L 816.746585 366.14258 
L 817.706539 366.327132 
L 817.89006 366.230123 
L 818.059463 366.145324 
L 818.228867 366.062354 
L 818.35592 366.036504 
L 818.370037 366.049042 
L 818.567674 366.003563 
L 818.779429 365.436866 
L 818.977067 363.853801 
L 819.075886 360.813004 
L 819.315874 342.556046 
L 819.400576 319.949119 
L 819.513512 209.248587 
L 819.584097 112.900695 
L 819.640565 156.993194 
L 819.852319 323.892281 
L 820.092308 349.171964 
L 820.318179 358.206665 
L 820.586402 361.279112 
L 820.925209 362.780305 
L 821.136964 363.161937 
L 821.278134 363.40901 
L 821.461655 363.568145 
L 821.475772 363.558281 
L 821.57459 363.665708 
L 822.068685 364.093978 
L 822.18162 364.153138 
L 822.60513 364.399099 
L 822.732182 364.460722 
L 822.873352 364.498017 
L 822.887469 364.48112 
L 822.986288 364.53617 
L 823.635669 364.657168 
L 823.875657 364.707705 
L 824.765027 364.738795 
L 825.047366 364.771092 
L 825.287355 364.886653 
L 825.569695 364.824272 
L 825.710864 364.798014 
L 826.007321 364.790944 
L 826.204959 364.77262 
L 826.402596 364.014519 
L 826.487298 363.673326 
L 826.543766 363.821491 
L 826.826105 364.634792 
L 827.574305 364.961136 
L 827.771943 364.867395 
L 827.884879 364.922669 
L 828.237803 364.98177 
L 828.520143 364.992868 
L 828.746014 365.044203 
L 829.098939 364.995103 
L 829.18364 365.039183 
L 829.225991 364.989834 
L 829.409512 365.013295 
L 829.74832 364.991368 
L 829.875372 365.019498 
L 830.044776 365.050823 
L 830.35535 365.049601 
L 830.53887 365.028634 
L 830.778859 365.111836 
L 830.976496 365.029924 
L 831.470591 365.016161 
L 831.936451 365.025358 
L 832.091738 365.054698 
L 832.430545 364.986086 
L 832.670534 365.074196 
L 832.910522 365.03705 
L 833.051692 365.034472 
L 833.178745 365.028624 
L 833.489318 365.002237 
L 833.701073 365.021491 
L 833.941061 365.039142 
L 834.209284 365.018077 
L 834.562208 365.086452 
L 834.759846 365.01247 
L 835.013952 365.091027 
L 835.169238 365.138476 
L 835.846853 365.095497 
L 836.284479 365.086594 
L 838.133803 365.041079 
L 838.331441 365.039766 
L 838.543196 365.010132 
L 838.811418 365.027999 
L 839.983127 365.000427 
L 840.039595 364.939005 
L 840.096063 364.999879 
L 840.448987 365.130702 
L 841.352474 365.032512 
L 841.493644 365.069435 
L 841.507761 365.056409 
L 841.818334 364.988572 
L 842.114791 365.001164 
L 842.284194 365.045145 
L 842.411247 365.030625 
L 843.582956 364.941714 
L 843.75236 364.939375 
L 843.949998 364.953527 
L 844.105284 364.933893 
L 844.655846 364.980247 
L 846.688691 364.896006 
L 846.956913 364.89157 
L 847.916868 365.032652 
L 848.114506 365.145703 
L 848.128622 365.129126 
L 848.410962 365.079045 
L 848.481547 365.145454 
L 848.552132 365.101075 
L 848.778003 365.003007 
L 849.003875 365.08679 
L 849.145045 365.081458 
L 849.370916 365.00833 
L 849.582671 365.052968 
L 849.808543 364.98728 
L 850.782614 364.89321 
L 851.149655 364.881946 
L 851.996674 365.05717 
L 852.166078 364.971047 
L 852.631938 364.922369 
L 852.730757 364.872645 
L 852.773108 364.916255 
L 853.027213 364.952418 
L 853.267202 364.898008 
L 853.591892 364.971412 
L 853.845998 365.038596 
L 854.297741 364.873134 
L 854.481262 364.931541 
L 854.777718 365.004482 
L 854.933005 365.018758 
L 855.187111 364.906935 
L 855.582386 365.017282 
L 855.75179 364.969413 
L 855.921193 364.989732 
L 856.104714 364.923414 
L 856.302352 364.842105 
L 856.457638 364.834335 
L 857.064668 364.893934 
L 857.459944 364.869972 
L 857.61523 364.888692 
L 857.939921 364.957511 
L 858.095208 364.885168 
L 858.109325 364.895731 
L 858.391664 364.902711 
L 858.589302 364.853329 
L 858.843407 364.937728 
L 859.11163 364.888118 
L 859.153981 364.87672 
L 859.210449 364.937181 
L 859.888064 364.993512 
L 860.212754 364.97581 
L 860.382158 365.0225 
L 862.160897 364.929154 
L 862.499704 364.933147 
L 862.697342 364.916429 
L 863.050266 364.887836 
L 863.163202 364.893138 
L 863.389074 364.806508 
L 863.50201 364.874127 
L 863.629062 364.912467 
L 863.643179 364.895887 
L 863.798466 364.883525 
L 864.024338 364.933252 
L 864.546666 364.915017 
L 864.701952 364.909073 
L 865 364.926442 
L 865 364.926442 
" clip-path="url(#p90fc115ee3)" style="fill: none; stroke: #000000; stroke-width: 0.5; stroke-linecap: square"/>
   </g>
   <g id="patch_3">
    <path d="M 17.145 390.04 
L 17.145 24.72 
" style="fill: none; stroke: #000000; stroke-width: 0.8; stroke-linejoin: miter; stroke-linecap: square"/>
   </g>
   <g id="patch_4">
    <path d="M 853.2 390.04 
L 853.2 24.72 
" style="fill: none; stroke: #000000; stroke-width: 0.8; stroke-linejoin: miter; stroke-linecap: square"/>
   </g>
   <g id="patch_5">
    <path d="M 17.145 390.04 
L 853.2 390.04 
" style="fill: none; stroke: #000000; stroke-width: 0.8; stroke-linejoin: miter; stroke-linecap: square"/>
   </g>
   <g id="patch_6">
    <path d="M 17.145 24.72 
L 853.2 24.72 
" style="fill: none; stroke: #000000; stroke-width: 0.8; stroke-linejoin: miter; stroke-linecap: square"/>
   </g>
   <g id="text_10">
    <!-- 10.00 -->
    <g style="fill: #0000ff" transform="translate(249.538137 314.486954) rotate(-90) scale(0.07 -0.07)">
     <defs>
      <path id="DejaVuSans-Bold-31" d="M 750 831 
L 1813 831 
L 1813 3847 
L 722 3622 
L 722 4441 
L 1806 4666 
L 2950 4666 
L 2950 831 
L 4013 831 
L 4013 0 
L 750 0 
L 750 831 
z
" transform="scale(0.015625)"/>
      <path id="DejaVuSans-Bold-30" d="M 2944 2338 
Q 2944 3213 2780 3570 
Q 2616 3928 2228 3928 
Q 1841 3928 1675 3570 
Q 1509 3213 1509 2338 
Q 1509 1453 1675 1090 
Q 1841 728 2228 728 
Q 2613 728 2778 1090 
Q 2944 1453 2944 2338 
z
M 4147 2328 
Q 4147 1169 3647 539 
Q 3147 -91 2228 -91 
Q 1306 -91 806 539 
Q 306 1169 306 2328 
Q 306 3491 806 4120 
Q 1306 4750 2228 4750 
Q 3147 4750 3647 4120 
Q 4147 3491 4147 2328 
z
" transform="scale(0.015625)"/>
      <path id="DejaVuSans-Bold-2e" d="M 653 1209 
L 1778 1209 
L 1778 0 
L 653 0 
L 653 1209 
z
" transform="scale(0.015625)"/>
     </defs>
     <use xlink:href="#DejaVuSans-Bold-31"/>
     <use xlink:href="#DejaVuSans-Bold-30" transform="translate(69.580078 0)"/>
     <use xlink:href="#DejaVuSans-Bold-2e" transform="translate(139.160156 0)"/>
     <use xlink:href="#DejaVuSans-Bold-30" transform="translate(177.148438 0)"/>
     <use xlink:href="#DejaVuSans-Bold-30" transform="translate(246.728516 0)"/>
    </g>
   </g>
   <g id="text_11">
    <!-- 7.76 -->
    <g style="fill: #0000ff" transform="translate(378.779053 314.680315) rotate(-90) scale(0.07 -0.07)">
     <defs>
      <path id="DejaVuSans-Bold-37" d="M 428 4666 
L 3944 4666 
L 3944 3988 
L 2125 0 
L 953 0 
L 2675 3781 
L 428 3781 
L 428 4666 
z
" transform="scale(0.015625)"/>
      <path id="DejaVuSans-Bold-36" d="M 2316 2303 
Q 2000 2303 1842 2098 
Q 1684 1894 1684 1484 
Q 1684 1075 1842 870 
Q 2000 666 2316 666 
Q 2634 666 2792 870 
Q 2950 1075 2950 1484 
Q 2950 1894 2792 2098 
Q 2634 2303 2316 2303 
z
M 3803 4544 
L 3803 3681 
Q 3506 3822 3243 3889 
Q 2981 3956 2731 3956 
Q 2194 3956 1894 3657 
Q 1594 3359 1544 2772 
Q 1750 2925 1990 3001 
Q 2231 3078 2516 3078 
Q 3231 3078 3670 2659 
Q 4109 2241 4109 1563 
Q 4109 813 3618 361 
Q 3128 -91 2303 -91 
Q 1394 -91 895 523 
Q 397 1138 397 2266 
Q 397 3422 980 4083 
Q 1563 4744 2578 4744 
Q 2900 4744 3203 4694 
Q 3506 4644 3803 4544 
z
" transform="scale(0.015625)"/>
     </defs>
     <use xlink:href="#DejaVuSans-Bold-37"/>
     <use xlink:href="#DejaVuSans-Bold-2e" transform="translate(69.580078 0)"/>
     <use xlink:href="#DejaVuSans-Bold-37" transform="translate(107.568359 0)"/>
     <use xlink:href="#DejaVuSans-Bold-36" transform="translate(177.148438 0)"/>
    </g>
   </g>
   <g id="text_12">
    <!-- 7.74 -->
    <g style="fill: #0000ff" transform="translate(379.781359 312.452746) rotate(-90) scale(0.07 -0.07)">
     <defs>
      <path id="DejaVuSans-Bold-34" d="M 2356 3675 
L 1038 1722 
L 2356 1722 
L 2356 3675 
z
M 2156 4666 
L 3494 4666 
L 3494 1722 
L 4159 1722 
L 4159 850 
L 3494 850 
L 3494 0 
L 2356 0 
L 2356 850 
L 288 850 
L 288 1881 
L 2156 4666 
z
" transform="scale(0.015625)"/>
     </defs>
     <use xlink:href="#DejaVuSans-Bold-37"/>
     <use xlink:href="#DejaVuSans-Bold-2e" transform="translate(69.580078 0)"/>
     <use xlink:href="#DejaVuSans-Bold-37" transform="translate(107.568359 0)"/>
     <use xlink:href="#DejaVuSans-Bold-34" transform="translate(177.148438 0)"/>
    </g>
   </g>
   <g id="text_13">
    <!-- 6.66 -->
    <g style="fill: #0000ff" transform="translate(442.517201 307.172092) rotate(-90) scale(0.07 -0.07)">
     <use xlink:href="#DejaVuSans-Bold-36"/>
     <use xlink:href="#DejaVuSans-Bold-2e" transform="translate(69.580078 0)"/>
     <use xlink:href="#DejaVuSans-Bold-36" transform="translate(107.568359 0)"/>
     <use xlink:href="#DejaVuSans-Bold-36" transform="translate(177.148438 0)"/>
    </g>
   </g>
   <g id="text_14">
    <!-- 6.64 -->
    <g style="fill: #0000ff" transform="translate(443.505389 307.742899) rotate(-90) scale(0.07 -0.07)">
     <use xlink:href="#DejaVuSans-Bold-36"/>
     <use xlink:href="#DejaVuSans-Bold-2e" transform="translate(69.580078 0)"/>
     <use xlink:href="#DejaVuSans-Bold-36" transform="translate(107.568359 0)"/>
     <use xlink:href="#DejaVuSans-Bold-34" transform="translate(177.148438 0)"/>
    </g>
   </g>
   <g id="text_15">
    <!-- 0.08 -->
    <g style="fill: #0000ff" transform="translate(821.515659 104.900695) rotate(-90) scale(0.07 -0.07)">
     <defs>
      <path id="DejaVuSans-Bold-38" d="M 2228 2088 
Q 1891 2088 1709 1903 
Q 1528 1719 1528 1375 
Q 1528 1031 1709 848 
Q 1891 666 2228 666 
Q 2563 666 2741 848 
Q 2919 1031 2919 1375 
Q 2919 1722 2741 1905 
Q 2563 2088 2228 2088 
z
M 1350 2484 
Q 925 2613 709 2878 
Q 494 3144 494 3541 
Q 494 4131 934 4440 
Q 1375 4750 2228 4750 
Q 3075 4750 3515 4442 
Q 3956 4134 3956 3541 
Q 3956 3144 3739 2878 
Q 3522 2613 3097 2484 
Q 3572 2353 3814 2058 
Q 4056 1763 4056 1313 
Q 4056 619 3595 264 
Q 3134 -91 2228 -91 
Q 1319 -91 855 264 
Q 391 619 391 1313 
Q 391 1763 633 2058 
Q 875 2353 1350 2484 
z
M 1631 3419 
Q 1631 3141 1786 2991 
Q 1941 2841 2228 2841 
Q 2509 2841 2662 2991 
Q 2816 3141 2816 3419 
Q 2816 3697 2662 3845 
Q 2509 3994 2228 3994 
Q 1941 3994 1786 3844 
Q 1631 3694 1631 3419 
z
" transform="scale(0.015625)"/>
     </defs>
     <use xlink:href="#DejaVuSans-Bold-30"/>
     <use xlink:href="#DejaVuSans-Bold-2e" transform="translate(69.580078 0)"/>
     <use xlink:href="#DejaVuSans-Bold-30" transform="translate(107.568359 0)"/>
     <use xlink:href="#DejaVuSans-Bold-38" transform="translate(177.148438 0)"/>
    </g>
   </g>
   <g id="text_16">
    <!-- 4-Amino-benzoic_acid_2-diethylamino-ethyl_ester + 2,4,6-Trihydroxybenzaldehyde -->
    <g transform="translate(228.105312 18.72) scale(0.1 -0.1)">
     <defs>
      <path id="DejaVuSans-2d" d="M 313 2009 
L 1997 2009 
L 1997 1497 
L 313 1497 
L 313 2009 
z
" transform="scale(0.015625)"/>
      <path id="DejaVuSans-41" d="M 2188 4044 
L 1331 1722 
L 3047 1722 
L 2188 4044 
z
M 1831 4666 
L 2547 4666 
L 4325 0 
L 3669 0 
L 3244 1197 
L 1141 1197 
L 716 0 
L 50 0 
L 1831 4666 
z
" transform="scale(0.015625)"/>
      <path id="DejaVuSans-6d" d="M 3328 2828 
Q 3544 3216 3844 3400 
Q 4144 3584 4550 3584 
Q 5097 3584 5394 3201 
Q 5691 2819 5691 2113 
L 5691 0 
L 5113 0 
L 5113 2094 
Q 5113 2597 4934 2840 
Q 4756 3084 4391 3084 
Q 3944 3084 3684 2787 
Q 3425 2491 3425 1978 
L 3425 0 
L 2847 0 
L 2847 2094 
Q 2847 2600 2669 2842 
Q 2491 3084 2119 3084 
Q 1678 3084 1418 2786 
Q 1159 2488 1159 1978 
L 1159 0 
L 581 0 
L 581 3500 
L 1159 3500 
L 1159 2956 
Q 1356 3278 1631 3431 
Q 1906 3584 2284 3584 
Q 2666 3584 2933 3390 
Q 3200 3197 3328 2828 
z
" transform="scale(0.015625)"/>
      <path id="DejaVuSans-69" d="M 603 3500 
L 1178 3500 
L 1178 0 
L 603 0 
L 603 3500 
z
M 603 4863 
L 1178 4863 
L 1178 4134 
L 603 4134 
L 603 4863 
z
" transform="scale(0.015625)"/>
      <path id="DejaVuSans-6e" d="M 3513 2113 
L 3513 0 
L 2938 0 
L 2938 2094 
Q 2938 2591 2744 2837 
Q 2550 3084 2163 3084 
Q 1697 3084 1428 2787 
Q 1159 2491 1159 1978 
L 1159 0 
L 581 0 
L 581 3500 
L 1159 3500 
L 1159 2956 
Q 1366 3272 1645 3428 
Q 1925 3584 2291 3584 
Q 2894 3584 3203 3211 
Q 3513 2838 3513 2113 
z
" transform="scale(0.015625)"/>
      <path id="DejaVuSans-6f" d="M 1959 3097 
Q 1497 3097 1228 2736 
Q 959 2375 959 1747 
Q 959 1119 1226 758 
Q 1494 397 1959 397 
Q 2419 397 2687 759 
Q 2956 1122 2956 1747 
Q 2956 2369 2687 2733 
Q 2419 3097 1959 3097 
z
M 1959 3584 
Q 2709 3584 3137 3096 
Q 3566 2609 3566 1747 
Q 3566 888 3137 398 
Q 2709 -91 1959 -91 
Q 1206 -91 779 398 
Q 353 888 353 1747 
Q 353 2609 779 3096 
Q 1206 3584 1959 3584 
z
" transform="scale(0.015625)"/>
      <path id="DejaVuSans-62" d="M 3116 1747 
Q 3116 2381 2855 2742 
Q 2594 3103 2138 3103 
Q 1681 3103 1420 2742 
Q 1159 2381 1159 1747 
Q 1159 1113 1420 752 
Q 1681 391 2138 391 
Q 2594 391 2855 752 
Q 3116 1113 3116 1747 
z
M 1159 2969 
Q 1341 3281 1617 3432 
Q 1894 3584 2278 3584 
Q 2916 3584 3314 3078 
Q 3713 2572 3713 1747 
Q 3713 922 3314 415 
Q 2916 -91 2278 -91 
Q 1894 -91 1617 61 
Q 1341 213 1159 525 
L 1159 0 
L 581 0 
L 581 4863 
L 1159 4863 
L 1159 2969 
z
" transform="scale(0.015625)"/>
      <path id="DejaVuSans-65" d="M 3597 1894 
L 3597 1613 
L 953 1613 
Q 991 1019 1311 708 
Q 1631 397 2203 397 
Q 2534 397 2845 478 
Q 3156 559 3463 722 
L 3463 178 
Q 3153 47 2828 -22 
Q 2503 -91 2169 -91 
Q 1331 -91 842 396 
Q 353 884 353 1716 
Q 353 2575 817 3079 
Q 1281 3584 2069 3584 
Q 2775 3584 3186 3129 
Q 3597 2675 3597 1894 
z
M 3022 2063 
Q 3016 2534 2758 2815 
Q 2500 3097 2075 3097 
Q 1594 3097 1305 2825 
Q 1016 2553 972 2059 
L 3022 2063 
z
" transform="scale(0.015625)"/>
      <path id="DejaVuSans-7a" d="M 353 3500 
L 3084 3500 
L 3084 2975 
L 922 459 
L 3084 459 
L 3084 0 
L 275 0 
L 275 525 
L 2438 3041 
L 353 3041 
L 353 3500 
z
" transform="scale(0.015625)"/>
      <path id="DejaVuSans-63" d="M 3122 3366 
L 3122 2828 
Q 2878 2963 2633 3030 
Q 2388 3097 2138 3097 
Q 1578 3097 1268 2742 
Q 959 2388 959 1747 
Q 959 1106 1268 751 
Q 1578 397 2138 397 
Q 2388 397 2633 464 
Q 2878 531 3122 666 
L 3122 134 
Q 2881 22 2623 -34 
Q 2366 -91 2075 -91 
Q 1284 -91 818 406 
Q 353 903 353 1747 
Q 353 2603 823 3093 
Q 1294 3584 2113 3584 
Q 2378 3584 2631 3529 
Q 2884 3475 3122 3366 
z
" transform="scale(0.015625)"/>
      <path id="DejaVuSans-5f" d="M 3263 -1063 
L 3263 -1509 
L -63 -1509 
L -63 -1063 
L 3263 -1063 
z
" transform="scale(0.015625)"/>
      <path id="DejaVuSans-61" d="M 2194 1759 
Q 1497 1759 1228 1600 
Q 959 1441 959 1056 
Q 959 750 1161 570 
Q 1363 391 1709 391 
Q 2188 391 2477 730 
Q 2766 1069 2766 1631 
L 2766 1759 
L 2194 1759 
z
M 3341 1997 
L 3341 0 
L 2766 0 
L 2766 531 
Q 2569 213 2275 61 
Q 1981 -91 1556 -91 
Q 1019 -91 701 211 
Q 384 513 384 1019 
Q 384 1609 779 1909 
Q 1175 2209 1959 2209 
L 2766 2209 
L 2766 2266 
Q 2766 2663 2505 2880 
Q 2244 3097 1772 3097 
Q 1472 3097 1187 3025 
Q 903 2953 641 2809 
L 641 3341 
Q 956 3463 1253 3523 
Q 1550 3584 1831 3584 
Q 2591 3584 2966 3190 
Q 3341 2797 3341 1997 
z
" transform="scale(0.015625)"/>
      <path id="DejaVuSans-64" d="M 2906 2969 
L 2906 4863 
L 3481 4863 
L 3481 0 
L 2906 0 
L 2906 525 
Q 2725 213 2448 61 
Q 2172 -91 1784 -91 
Q 1150 -91 751 415 
Q 353 922 353 1747 
Q 353 2572 751 3078 
Q 1150 3584 1784 3584 
Q 2172 3584 2448 3432 
Q 2725 3281 2906 2969 
z
M 947 1747 
Q 947 1113 1208 752 
Q 1469 391 1925 391 
Q 2381 391 2643 752 
Q 2906 1113 2906 1747 
Q 2906 2381 2643 2742 
Q 2381 3103 1925 3103 
Q 1469 3103 1208 2742 
Q 947 2381 947 1747 
z
" transform="scale(0.015625)"/>
      <path id="DejaVuSans-74" d="M 1172 4494 
L 1172 3500 
L 2356 3500 
L 2356 3053 
L 1172 3053 
L 1172 1153 
Q 1172 725 1289 603 
Q 1406 481 1766 481 
L 2356 481 
L 2356 0 
L 1766 0 
Q 1100 0 847 248 
Q 594 497 594 1153 
L 594 3053 
L 172 3053 
L 172 3500 
L 594 3500 
L 594 4494 
L 1172 4494 
z
" transform="scale(0.015625)"/>
      <path id="DejaVuSans-68" d="M 3513 2113 
L 3513 0 
L 2938 0 
L 2938 2094 
Q 2938 2591 2744 2837 
Q 2550 3084 2163 3084 
Q 1697 3084 1428 2787 
Q 1159 2491 1159 1978 
L 1159 0 
L 581 0 
L 581 4863 
L 1159 4863 
L 1159 2956 
Q 1366 3272 1645 3428 
Q 1925 3584 2291 3584 
Q 2894 3584 3203 3211 
Q 3513 2838 3513 2113 
z
" transform="scale(0.015625)"/>
      <path id="DejaVuSans-79" d="M 2059 -325 
Q 1816 -950 1584 -1140 
Q 1353 -1331 966 -1331 
L 506 -1331 
L 506 -850 
L 844 -850 
Q 1081 -850 1212 -737 
Q 1344 -625 1503 -206 
L 1606 56 
L 191 3500 
L 800 3500 
L 1894 763 
L 2988 3500 
L 3597 3500 
L 2059 -325 
z
" transform="scale(0.015625)"/>
      <path id="DejaVuSans-6c" d="M 603 4863 
L 1178 4863 
L 1178 0 
L 603 0 
L 603 4863 
z
" transform="scale(0.015625)"/>
      <path id="DejaVuSans-73" d="M 2834 3397 
L 2834 2853 
Q 2591 2978 2328 3040 
Q 2066 3103 1784 3103 
Q 1356 3103 1142 2972 
Q 928 2841 928 2578 
Q 928 2378 1081 2264 
Q 1234 2150 1697 2047 
L 1894 2003 
Q 2506 1872 2764 1633 
Q 3022 1394 3022 966 
Q 3022 478 2636 193 
Q 2250 -91 1575 -91 
Q 1294 -91 989 -36 
Q 684 19 347 128 
L 347 722 
Q 666 556 975 473 
Q 1284 391 1588 391 
Q 1994 391 2212 530 
Q 2431 669 2431 922 
Q 2431 1156 2273 1281 
Q 2116 1406 1581 1522 
L 1381 1569 
Q 847 1681 609 1914 
Q 372 2147 372 2553 
Q 372 3047 722 3315 
Q 1072 3584 1716 3584 
Q 2034 3584 2315 3537 
Q 2597 3491 2834 3397 
z
" transform="scale(0.015625)"/>
      <path id="DejaVuSans-72" d="M 2631 2963 
Q 2534 3019 2420 3045 
Q 2306 3072 2169 3072 
Q 1681 3072 1420 2755 
Q 1159 2438 1159 1844 
L 1159 0 
L 581 0 
L 581 3500 
L 1159 3500 
L 1159 2956 
Q 1341 3275 1631 3429 
Q 1922 3584 2338 3584 
Q 2397 3584 2469 3576 
Q 2541 3569 2628 3553 
L 2631 2963 
z
" transform="scale(0.015625)"/>
      <path id="DejaVuSans-20" transform="scale(0.015625)"/>
      <path id="DejaVuSans-2b" d="M 2944 4013 
L 2944 2272 
L 4684 2272 
L 4684 1741 
L 2944 1741 
L 2944 0 
L 2419 0 
L 2419 1741 
L 678 1741 
L 678 2272 
L 2419 2272 
L 2419 4013 
L 2944 4013 
z
" transform="scale(0.015625)"/>
      <path id="DejaVuSans-2c" d="M 750 794 
L 1409 794 
L 1409 256 
L 897 -744 
L 494 -744 
L 750 256 
L 750 794 
z
" transform="scale(0.015625)"/>
      <path id="DejaVuSans-54" d="M -19 4666 
L 3928 4666 
L 3928 4134 
L 2272 4134 
L 2272 0 
L 1638 0 
L 1638 4134 
L -19 4134 
L -19 4666 
z
" transform="scale(0.015625)"/>
      <path id="DejaVuSans-78" d="M 3513 3500 
L 2247 1797 
L 3578 0 
L 2900 0 
L 1881 1375 
L 863 0 
L 184 0 
L 1544 1831 
L 300 3500 
L 978 3500 
L 1906 2253 
L 2834 3500 
L 3513 3500 
z
" transform="scale(0.015625)"/>
     </defs>
     <use xlink:href="#DejaVuSans-34"/>
     <use xlink:href="#DejaVuSans-2d" transform="translate(63.623047 0)"/>
     <use xlink:href="#DejaVuSans-41" transform="translate(97.457031 0)"/>
     <use xlink:href="#DejaVuSans-6d" transform="translate(165.865234 0)"/>
     <use xlink:href="#DejaVuSans-69" transform="translate(263.277344 0)"/>
     <use xlink:href="#DejaVuSans-6e" transform="translate(291.060547 0)"/>
     <use xlink:href="#DejaVuSans-6f" transform="translate(354.439453 0)"/>
     <use xlink:href="#DejaVuSans-2d" transform="translate(417.496094 0)"/>
     <use xlink:href="#DejaVuSans-62" transform="translate(453.580078 0)"/>
     <use xlink:href="#DejaVuSans-65" transform="translate(517.056641 0)"/>
     <use xlink:href="#DejaVuSans-6e" transform="translate(578.580078 0)"/>
     <use xlink:href="#DejaVuSans-7a" transform="translate(641.958984 0)"/>
     <use xlink:href="#DejaVuSans-6f" transform="translate(694.449219 0)"/>
     <use xlink:href="#DejaVuSans-69" transform="translate(755.630859 0)"/>
     <use xlink:href="#DejaVuSans-63" transform="translate(783.414062 0)"/>
     <use xlink:href="#DejaVuSans-5f" transform="translate(838.394531 0)"/>
     <use xlink:href="#DejaVuSans-61" transform="translate(888.394531 0)"/>
     <use xlink:href="#DejaVuSans-63" transform="translate(949.673828 0)"/>
     <use xlink:href="#DejaVuSans-69" transform="translate(1004.654297 0)"/>
     <use xlink:href="#DejaVuSans-64" transform="translate(1032.4375 0)"/>
     <use xlink:href="#DejaVuSans-5f" transform="translate(1095.914062 0)"/>
     <use xlink:href="#DejaVuSans-32" transform="translate(1145.914062 0)"/>
     <use xlink:href="#DejaVuSans-2d" transform="translate(1209.537109 0)"/>
     <use xlink:href="#DejaVuSans-64" transform="translate(1245.621094 0)"/>
     <use xlink:href="#DejaVuSans-69" transform="translate(1309.097656 0)"/>
     <use xlink:href="#DejaVuSans-65" transform="translate(1336.880859 0)"/>
     <use xlink:href="#DejaVuSans-74" transform="translate(1398.404297 0)"/>
     <use xlink:href="#DejaVuSans-68" transform="translate(1437.613281 0)"/>
     <use xlink:href="#DejaVuSans-79" transform="translate(1500.992188 0)"/>
     <use xlink:href="#DejaVuSans-6c" transform="translate(1560.171875 0)"/>
     <use xlink:href="#DejaVuSans-61" transform="translate(1587.955078 0)"/>
     <use xlink:href="#DejaVuSans-6d" transform="translate(1649.234375 0)"/>
     <use xlink:href="#DejaVuSans-69" transform="translate(1746.646484 0)"/>
     <use xlink:href="#DejaVuSans-6e" transform="translate(1774.429688 0)"/>
     <use xlink:href="#DejaVuSans-6f" transform="translate(1837.808594 0)"/>
     <use xlink:href="#DejaVuSans-2d" transform="translate(1900.865234 0)"/>
     <use xlink:href="#DejaVuSans-65" transform="translate(1936.949219 0)"/>
     <use xlink:href="#DejaVuSans-74" transform="translate(1998.472656 0)"/>
     <use xlink:href="#DejaVuSans-68" transform="translate(2037.681641 0)"/>
     <use xlink:href="#DejaVuSans-79" transform="translate(2101.060547 0)"/>
     <use xlink:href="#DejaVuSans-6c" transform="translate(2160.240234 0)"/>
     <use xlink:href="#DejaVuSans-5f" transform="translate(2188.023438 0)"/>
     <use xlink:href="#DejaVuSans-65" transform="translate(2238.023438 0)"/>
     <use xlink:href="#DejaVuSans-73" transform="translate(2299.546875 0)"/>
     <use xlink:href="#DejaVuSans-74" transform="translate(2351.646484 0)"/>
     <use xlink:href="#DejaVuSans-65" transform="translate(2390.855469 0)"/>
     <use xlink:href="#DejaVuSans-72" transform="translate(2452.378906 0)"/>
     <use xlink:href="#DejaVuSans-20" transform="translate(2493.492188 0)"/>
     <use xlink:href="#DejaVuSans-2b" transform="translate(2525.279297 0)"/>
     <use xlink:href="#DejaVuSans-20" transform="translate(2609.068359 0)"/>
     <use xlink:href="#DejaVuSans-32" transform="translate(2640.855469 0)"/>
     <use xlink:href="#DejaVuSans-2c" transform="translate(2704.478516 0)"/>
     <use xlink:href="#DejaVuSans-34" transform="translate(2736.265625 0)"/>
     <use xlink:href="#DejaVuSans-2c" transform="translate(2799.888672 0)"/>
     <use xlink:href="#DejaVuSans-36" transform="translate(2831.675781 0)"/>
     <use xlink:href="#DejaVuSans-2d" transform="translate(2895.298828 0)"/>
     <use xlink:href="#DejaVuSans-54" transform="translate(2922.257812 0)"/>
     <use xlink:href="#DejaVuSans-72" transform="translate(2968.591797 0)"/>
     <use xlink:href="#DejaVuSans-69" transform="translate(3009.705078 0)"/>
     <use xlink:href="#DejaVuSans-68" transform="translate(3037.488281 0)"/>
     <use xlink:href="#DejaVuSans-79" transform="translate(3100.867188 0)"/>
     <use xlink:href="#DejaVuSans-64" transform="translate(3160.046875 0)"/>
     <use xlink:href="#DejaVuSans-72" transform="translate(3223.523438 0)"/>
     <use xlink:href="#DejaVuSans-6f" transform="translate(3262.386719 0)"/>
     <use xlink:href="#DejaVuSans-78" transform="translate(3320.443359 0)"/>
     <use xlink:href="#DejaVuSans-79" transform="translate(3379.623047 0)"/>
     <use xlink:href="#DejaVuSans-62" transform="translate(3438.802734 0)"/>
     <use xlink:href="#DejaVuSans-65" transform="translate(3502.279297 0)"/>
     <use xlink:href="#DejaVuSans-6e" transform="translate(3563.802734 0)"/>
     <use xlink:href="#DejaVuSans-7a" transform="translate(3627.181641 0)"/>
     <use xlink:href="#DejaVuSans-61" transform="translate(3679.671875 0)"/>
     <use xlink:href="#DejaVuSans-6c" transform="translate(3740.951172 0)"/>
     <use xlink:href="#DejaVuSans-64" transform="translate(3768.734375 0)"/>
     <use xlink:href="#DejaVuSans-65" transform="translate(3832.210938 0)"/>
     <use xlink:href="#DejaVuSans-68" transform="translate(3893.734375 0)"/>
     <use xlink:href="#DejaVuSans-79" transform="translate(3957.113281 0)"/>
     <use xlink:href="#DejaVuSans-64" transform="translate(4016.292969 0)"/>
     <use xlink:href="#DejaVuSans-65" transform="translate(4079.769531 0)"/>
    </g>
   </g>
  </g>
 </g>
 <defs>
  <clipPath id="p90fc115ee3">
   <rect x="17.145" y="24.72" width="836.055" height="365.32"/>
  </clipPath>
 </defs>
</svg>
