<?xml version="1.0" encoding="utf-8" standalone="no"?>
<!DOCTYPE svg PUBLIC "-//W3C//DTD SVG 1.1//EN"
  "http://www.w3.org/Graphics/SVG/1.1/DTD/svg11.dtd">
<svg xmlns:xlink="http://www.w3.org/1999/xlink" width="864pt" height="432pt" viewBox="0 0 864 432" xmlns="http://www.w3.org/2000/svg" version="1.1">
 <metadata>
  <rdf:RDF xmlns:dc="http://purl.org/dc/elements/1.1/" xmlns:cc="http://creativecommons.org/ns#" xmlns:rdf="http://www.w3.org/1999/02/22-rdf-syntax-ns#">
   <cc:Work>
    <dc:type rdf:resource="http://purl.org/dc/dcmitype/StillImage"/>
    <dc:date>2026-02-23T17:13:18.454525</dc:date>
    <dc:format>image/svg+xml</dc:format>
    <dc:creator>
     <cc:Agent>
      <dc:title>Matplotlib v3.10.8, https://matplotlib.org/</dc:title>
     </cc:Agent>
    </dc:creator>
   </cc:Work>
  </rdf:RDF>
 </metadata>
 <defs>
  <style type="text/css">*{stroke-linejoin: round; stroke-linecap: butt}</style>
 </defs>
 <g id="figure_1">
  <g id="patch_1">
   <path d="M 0 432 
L 864 432 
L 864 0 
L 0 0 
z
" style="fill: #ffffff"/>
  </g>
  <g id="axes_1">
   <g id="patch_2">
    <path d="M 17.145 390.04 
L 853.2 390.04 
L 853.2 24.72 
L 17.145 24.72 
z
" style="fill: #ffffff"/>
   </g>
   <g id="matplotlib.axis_1">
    <g id="xtick_1">
     <g id="line2d_1">
      <defs>
       <path id="m5c26f40f1f" d="M 0 0 
L 0 3.5 
" style="stroke: #000000; stroke-width: 0.8"/>
      </defs>
      <g>
       <use xlink:href="#m5c26f40f1f" x="824.370517" y="390.04" style="stroke: #000000; stroke-width: 0.8"/>
      </g>
     </g>
     <g id="text_1">
      <!-- 0 -->
      <g transform="translate(821.189267 404.638438) scale(0.1 -0.1)">
       <defs>
        <path id="DejaVuSans-30" d="M 2034 4250 
Q 1547 4250 1301 3770 
Q 1056 3291 1056 2328 
Q 1056 1369 1301 889 
Q 1547 409 2034 409 
Q 2525 409 2770 889 
Q 3016 1369 3016 2328 
Q 3016 3291 2770 3770 
Q 2525 4250 2034 4250 
z
M 2034 4750 
Q 2819 4750 3233 4129 
Q 3647 3509 3647 2328 
Q 3647 1150 3233 529 
Q 2819 -91 2034 -91 
Q 1250 -91 836 529 
Q 422 1150 422 2328 
Q 422 3509 836 4129 
Q 1250 4750 2034 4750 
z
" transform="scale(0.015625)"/>
       </defs>
       <use xlink:href="#DejaVuSans-30"/>
      </g>
     </g>
    </g>
    <g id="xtick_2">
     <g id="line2d_2">
      <g>
       <use xlink:href="#m5c26f40f1f" x="709.052586" y="390.04" style="stroke: #000000; stroke-width: 0.8"/>
      </g>
     </g>
     <g id="text_2">
      <!-- 2 -->
      <g transform="translate(705.871336 404.638438) scale(0.1 -0.1)">
       <defs>
        <path id="DejaVuSans-32" d="M 1228 531 
L 3431 531 
L 3431 0 
L 469 0 
L 469 531 
Q 828 903 1448 1529 
Q 2069 2156 2228 2338 
Q 2531 2678 2651 2914 
Q 2772 3150 2772 3378 
Q 2772 3750 2511 3984 
Q 2250 4219 1831 4219 
Q 1534 4219 1204 4116 
Q 875 4013 500 3803 
L 500 4441 
Q 881 4594 1212 4672 
Q 1544 4750 1819 4750 
Q 2544 4750 2975 4387 
Q 3406 4025 3406 3419 
Q 3406 3131 3298 2873 
Q 3191 2616 2906 2266 
Q 2828 2175 2409 1742 
Q 1991 1309 1228 531 
z
" transform="scale(0.015625)"/>
       </defs>
       <use xlink:href="#DejaVuSans-32"/>
      </g>
     </g>
    </g>
    <g id="xtick_3">
     <g id="line2d_3">
      <g>
       <use xlink:href="#m5c26f40f1f" x="593.734655" y="390.04" style="stroke: #000000; stroke-width: 0.8"/>
      </g>
     </g>
     <g id="text_3">
      <!-- 4 -->
      <g transform="translate(590.553405 404.638438) scale(0.1 -0.1)">
       <defs>
        <path id="DejaVuSans-34" d="M 2419 4116 
L 825 1625 
L 2419 1625 
L 2419 4116 
z
M 2253 4666 
L 3047 4666 
L 3047 1625 
L 3713 1625 
L 3713 1100 
L 3047 1100 
L 3047 0 
L 2419 0 
L 2419 1100 
L 313 1100 
L 313 1709 
L 2253 4666 
z
" transform="scale(0.015625)"/>
       </defs>
       <use xlink:href="#DejaVuSans-34"/>
      </g>
     </g>
    </g>
    <g id="xtick_4">
     <g id="line2d_4">
      <g>
       <use xlink:href="#m5c26f40f1f" x="478.416724" y="390.04" style="stroke: #000000; stroke-width: 0.8"/>
      </g>
     </g>
     <g id="text_4">
      <!-- 6 -->
      <g transform="translate(475.235474 404.638438) scale(0.1 -0.1)">
       <defs>
        <path id="DejaVuSans-36" d="M 2113 2584 
Q 1688 2584 1439 2293 
Q 1191 2003 1191 1497 
Q 1191 994 1439 701 
Q 1688 409 2113 409 
Q 2538 409 2786 701 
Q 3034 994 3034 1497 
Q 3034 2003 2786 2293 
Q 2538 2584 2113 2584 
z
M 3366 4563 
L 3366 3988 
Q 3128 4100 2886 4159 
Q 2644 4219 2406 4219 
Q 1781 4219 1451 3797 
Q 1122 3375 1075 2522 
Q 1259 2794 1537 2939 
Q 1816 3084 2150 3084 
Q 2853 3084 3261 2657 
Q 3669 2231 3669 1497 
Q 3669 778 3244 343 
Q 2819 -91 2113 -91 
Q 1303 -91 875 529 
Q 447 1150 447 2328 
Q 447 3434 972 4092 
Q 1497 4750 2381 4750 
Q 2619 4750 2861 4703 
Q 3103 4656 3366 4563 
z
" transform="scale(0.015625)"/>
       </defs>
       <use xlink:href="#DejaVuSans-36"/>
      </g>
     </g>
    </g>
    <g id="xtick_5">
     <g id="line2d_5">
      <g>
       <use xlink:href="#m5c26f40f1f" x="363.098793" y="390.04" style="stroke: #000000; stroke-width: 0.8"/>
      </g>
     </g>
     <g id="text_5">
      <!-- 8 -->
      <g transform="translate(359.917543 404.638438) scale(0.1 -0.1)">
       <defs>
        <path id="DejaVuSans-38" d="M 2034 2216 
Q 1584 2216 1326 1975 
Q 1069 1734 1069 1313 
Q 1069 891 1326 650 
Q 1584 409 2034 409 
Q 2484 409 2743 651 
Q 3003 894 3003 1313 
Q 3003 1734 2745 1975 
Q 2488 2216 2034 2216 
z
M 1403 2484 
Q 997 2584 770 2862 
Q 544 3141 544 3541 
Q 544 4100 942 4425 
Q 1341 4750 2034 4750 
Q 2731 4750 3128 4425 
Q 3525 4100 3525 3541 
Q 3525 3141 3298 2862 
Q 3072 2584 2669 2484 
Q 3125 2378 3379 2068 
Q 3634 1759 3634 1313 
Q 3634 634 3220 271 
Q 2806 -91 2034 -91 
Q 1263 -91 848 271 
Q 434 634 434 1313 
Q 434 1759 690 2068 
Q 947 2378 1403 2484 
z
M 1172 3481 
Q 1172 3119 1398 2916 
Q 1625 2713 2034 2713 
Q 2441 2713 2670 2916 
Q 2900 3119 2900 3481 
Q 2900 3844 2670 4047 
Q 2441 4250 2034 4250 
Q 1625 4250 1398 4047 
Q 1172 3844 1172 3481 
z
" transform="scale(0.015625)"/>
       </defs>
       <use xlink:href="#DejaVuSans-38"/>
      </g>
     </g>
    </g>
    <g id="xtick_6">
     <g id="line2d_6">
      <g>
       <use xlink:href="#m5c26f40f1f" x="247.780862" y="390.04" style="stroke: #000000; stroke-width: 0.8"/>
      </g>
     </g>
     <g id="text_6">
      <!-- 10 -->
      <g transform="translate(241.418362 404.638438) scale(0.1 -0.1)">
       <defs>
        <path id="DejaVuSans-31" d="M 794 531 
L 1825 531 
L 1825 4091 
L 703 3866 
L 703 4441 
L 1819 4666 
L 2450 4666 
L 2450 531 
L 3481 531 
L 3481 0 
L 794 0 
L 794 531 
z
" transform="scale(0.015625)"/>
       </defs>
       <use xlink:href="#DejaVuSans-31"/>
       <use xlink:href="#DejaVuSans-30" transform="translate(63.623047 0)"/>
      </g>
     </g>
    </g>
    <g id="xtick_7">
     <g id="line2d_7">
      <g>
       <use xlink:href="#m5c26f40f1f" x="132.462931" y="390.04" style="stroke: #000000; stroke-width: 0.8"/>
      </g>
     </g>
     <g id="text_7">
      <!-- 12 -->
      <g transform="translate(126.100431 404.638438) scale(0.1 -0.1)">
       <use xlink:href="#DejaVuSans-31"/>
       <use xlink:href="#DejaVuSans-32" transform="translate(63.623047 0)"/>
      </g>
     </g>
    </g>
    <g id="xtick_8">
     <g id="line2d_8">
      <g>
       <use xlink:href="#m5c26f40f1f" x="17.145" y="390.04" style="stroke: #000000; stroke-width: 0.8"/>
      </g>
     </g>
     <g id="text_8">
      <!-- 14 -->
      <g transform="translate(10.7825 404.638438) scale(0.1 -0.1)">
       <use xlink:href="#DejaVuSans-31"/>
       <use xlink:href="#DejaVuSans-34" transform="translate(63.623047 0)"/>
      </g>
     </g>
    </g>
    <g id="text_9">
     <!-- Chemical Shift (ppm) -->
     <g transform="translate(375.717031 418.316562) scale(0.1 -0.1)">
      <defs>
       <path id="DejaVuSans-Bold-43" d="M 4288 256 
Q 3956 84 3597 -3 
Q 3238 -91 2847 -91 
Q 1681 -91 1000 561 
Q 319 1213 319 2328 
Q 319 3447 1000 4098 
Q 1681 4750 2847 4750 
Q 3238 4750 3597 4662 
Q 3956 4575 4288 4403 
L 4288 3438 
Q 3953 3666 3628 3772 
Q 3303 3878 2944 3878 
Q 2300 3878 1931 3465 
Q 1563 3053 1563 2328 
Q 1563 1606 1931 1193 
Q 2300 781 2944 781 
Q 3303 781 3628 887 
Q 3953 994 4288 1222 
L 4288 256 
z
" transform="scale(0.015625)"/>
       <path id="DejaVuSans-Bold-68" d="M 4056 2131 
L 4056 0 
L 2931 0 
L 2931 347 
L 2931 1625 
Q 2931 2084 2911 2256 
Q 2891 2428 2841 2509 
Q 2775 2619 2662 2680 
Q 2550 2741 2406 2741 
Q 2056 2741 1856 2470 
Q 1656 2200 1656 1722 
L 1656 0 
L 538 0 
L 538 4863 
L 1656 4863 
L 1656 2988 
Q 1909 3294 2193 3439 
Q 2478 3584 2822 3584 
Q 3428 3584 3742 3212 
Q 4056 2841 4056 2131 
z
" transform="scale(0.015625)"/>
       <path id="DejaVuSans-Bold-65" d="M 4031 1759 
L 4031 1441 
L 1416 1441 
Q 1456 1047 1700 850 
Q 1944 653 2381 653 
Q 2734 653 3104 758 
Q 3475 863 3866 1075 
L 3866 213 
Q 3469 63 3072 -14 
Q 2675 -91 2278 -91 
Q 1328 -91 801 392 
Q 275 875 275 1747 
Q 275 2603 792 3093 
Q 1309 3584 2216 3584 
Q 3041 3584 3536 3087 
Q 4031 2591 4031 1759 
z
M 2881 2131 
Q 2881 2450 2695 2645 
Q 2509 2841 2209 2841 
Q 1884 2841 1681 2658 
Q 1478 2475 1428 2131 
L 2881 2131 
z
" transform="scale(0.015625)"/>
       <path id="DejaVuSans-Bold-6d" d="M 3781 2919 
Q 3994 3244 4286 3414 
Q 4578 3584 4928 3584 
Q 5531 3584 5847 3212 
Q 6163 2841 6163 2131 
L 6163 0 
L 5038 0 
L 5038 1825 
Q 5041 1866 5042 1909 
Q 5044 1953 5044 2034 
Q 5044 2406 4934 2573 
Q 4825 2741 4581 2741 
Q 4263 2741 4089 2478 
Q 3916 2216 3909 1719 
L 3909 0 
L 2784 0 
L 2784 1825 
Q 2784 2406 2684 2573 
Q 2584 2741 2328 2741 
Q 2006 2741 1831 2477 
Q 1656 2213 1656 1722 
L 1656 0 
L 531 0 
L 531 3500 
L 1656 3500 
L 1656 2988 
Q 1863 3284 2130 3434 
Q 2397 3584 2719 3584 
Q 3081 3584 3359 3409 
Q 3638 3234 3781 2919 
z
" transform="scale(0.015625)"/>
       <path id="DejaVuSans-Bold-69" d="M 538 3500 
L 1656 3500 
L 1656 0 
L 538 0 
L 538 3500 
z
M 538 4863 
L 1656 4863 
L 1656 3950 
L 538 3950 
L 538 4863 
z
" transform="scale(0.015625)"/>
       <path id="DejaVuSans-Bold-63" d="M 3366 3391 
L 3366 2478 
Q 3138 2634 2908 2709 
Q 2678 2784 2431 2784 
Q 1963 2784 1702 2511 
Q 1441 2238 1441 1747 
Q 1441 1256 1702 982 
Q 1963 709 2431 709 
Q 2694 709 2930 787 
Q 3166 866 3366 1019 
L 3366 103 
Q 3103 6 2833 -42 
Q 2563 -91 2291 -91 
Q 1344 -91 809 395 
Q 275 881 275 1747 
Q 275 2613 809 3098 
Q 1344 3584 2291 3584 
Q 2566 3584 2833 3536 
Q 3100 3488 3366 3391 
z
" transform="scale(0.015625)"/>
       <path id="DejaVuSans-Bold-61" d="M 2106 1575 
Q 1756 1575 1579 1456 
Q 1403 1338 1403 1106 
Q 1403 894 1545 773 
Q 1688 653 1941 653 
Q 2256 653 2472 879 
Q 2688 1106 2688 1447 
L 2688 1575 
L 2106 1575 
z
M 3816 1997 
L 3816 0 
L 2688 0 
L 2688 519 
Q 2463 200 2181 54 
Q 1900 -91 1497 -91 
Q 953 -91 614 226 
Q 275 544 275 1050 
Q 275 1666 698 1953 
Q 1122 2241 2028 2241 
L 2688 2241 
L 2688 2328 
Q 2688 2594 2478 2717 
Q 2269 2841 1825 2841 
Q 1466 2841 1156 2769 
Q 847 2697 581 2553 
L 581 3406 
Q 941 3494 1303 3539 
Q 1666 3584 2028 3584 
Q 2975 3584 3395 3211 
Q 3816 2838 3816 1997 
z
" transform="scale(0.015625)"/>
       <path id="DejaVuSans-Bold-6c" d="M 538 4863 
L 1656 4863 
L 1656 0 
L 538 0 
L 538 4863 
z
" transform="scale(0.015625)"/>
       <path id="DejaVuSans-Bold-20" transform="scale(0.015625)"/>
       <path id="DejaVuSans-Bold-53" d="M 3834 4519 
L 3834 3531 
Q 3450 3703 3084 3790 
Q 2719 3878 2394 3878 
Q 1963 3878 1756 3759 
Q 1550 3641 1550 3391 
Q 1550 3203 1689 3098 
Q 1828 2994 2194 2919 
L 2706 2816 
Q 3484 2659 3812 2340 
Q 4141 2022 4141 1434 
Q 4141 663 3683 286 
Q 3225 -91 2284 -91 
Q 1841 -91 1394 -6 
Q 947 78 500 244 
L 500 1259 
Q 947 1022 1364 901 
Q 1781 781 2169 781 
Q 2563 781 2772 912 
Q 2981 1044 2981 1288 
Q 2981 1506 2839 1625 
Q 2697 1744 2272 1838 
L 1806 1941 
Q 1106 2091 782 2419 
Q 459 2747 459 3303 
Q 459 4000 909 4375 
Q 1359 4750 2203 4750 
Q 2588 4750 2994 4692 
Q 3400 4634 3834 4519 
z
" transform="scale(0.015625)"/>
       <path id="DejaVuSans-Bold-66" d="M 2841 4863 
L 2841 4128 
L 2222 4128 
Q 1984 4128 1890 4042 
Q 1797 3956 1797 3744 
L 1797 3500 
L 2753 3500 
L 2753 2700 
L 1797 2700 
L 1797 0 
L 678 0 
L 678 2700 
L 122 2700 
L 122 3500 
L 678 3500 
L 678 3744 
Q 678 4316 997 4589 
Q 1316 4863 1984 4863 
L 2841 4863 
z
" transform="scale(0.015625)"/>
       <path id="DejaVuSans-Bold-74" d="M 1759 4494 
L 1759 3500 
L 2913 3500 
L 2913 2700 
L 1759 2700 
L 1759 1216 
Q 1759 972 1856 886 
Q 1953 800 2241 800 
L 2816 800 
L 2816 0 
L 1856 0 
Q 1194 0 917 276 
Q 641 553 641 1216 
L 641 2700 
L 84 2700 
L 84 3500 
L 641 3500 
L 641 4494 
L 1759 4494 
z
" transform="scale(0.015625)"/>
       <path id="DejaVuSans-Bold-28" d="M 2413 -844 
L 1484 -844 
Q 1006 -72 778 623 
Q 550 1319 550 2003 
Q 550 2688 779 3389 
Q 1009 4091 1484 4856 
L 2413 4856 
Q 2013 4116 1813 3408 
Q 1613 2700 1613 2009 
Q 1613 1319 1811 609 
Q 2009 -100 2413 -844 
z
" transform="scale(0.015625)"/>
       <path id="DejaVuSans-Bold-70" d="M 1656 506 
L 1656 -1331 
L 538 -1331 
L 538 3500 
L 1656 3500 
L 1656 2988 
Q 1888 3294 2169 3439 
Q 2450 3584 2816 3584 
Q 3463 3584 3878 3070 
Q 4294 2556 4294 1747 
Q 4294 938 3878 423 
Q 3463 -91 2816 -91 
Q 2450 -91 2169 54 
Q 1888 200 1656 506 
z
M 2400 2772 
Q 2041 2772 1848 2508 
Q 1656 2244 1656 1747 
Q 1656 1250 1848 986 
Q 2041 722 2400 722 
Q 2759 722 2948 984 
Q 3138 1247 3138 1747 
Q 3138 2247 2948 2509 
Q 2759 2772 2400 2772 
z
" transform="scale(0.015625)"/>
       <path id="DejaVuSans-Bold-29" d="M 513 -844 
Q 913 -100 1113 609 
Q 1313 1319 1313 2009 
Q 1313 2700 1113 3408 
Q 913 4116 513 4856 
L 1441 4856 
Q 1916 4091 2145 3389 
Q 2375 2688 2375 2003 
Q 2375 1319 2147 623 
Q 1919 -72 1441 -844 
L 513 -844 
z
" transform="scale(0.015625)"/>
      </defs>
      <use xlink:href="#DejaVuSans-Bold-43"/>
      <use xlink:href="#DejaVuSans-Bold-68" transform="translate(73.388672 0)"/>
      <use xlink:href="#DejaVuSans-Bold-65" transform="translate(144.580078 0)"/>
      <use xlink:href="#DejaVuSans-Bold-6d" transform="translate(212.402344 0)"/>
      <use xlink:href="#DejaVuSans-Bold-69" transform="translate(316.601562 0)"/>
      <use xlink:href="#DejaVuSans-Bold-63" transform="translate(350.878906 0)"/>
      <use xlink:href="#DejaVuSans-Bold-61" transform="translate(410.15625 0)"/>
      <use xlink:href="#DejaVuSans-Bold-6c" transform="translate(477.636719 0)"/>
      <use xlink:href="#DejaVuSans-Bold-20" transform="translate(511.914062 0)"/>
      <use xlink:href="#DejaVuSans-Bold-53" transform="translate(546.728516 0)"/>
      <use xlink:href="#DejaVuSans-Bold-68" transform="translate(618.75 0)"/>
      <use xlink:href="#DejaVuSans-Bold-69" transform="translate(689.941406 0)"/>
      <use xlink:href="#DejaVuSans-Bold-66" transform="translate(724.21875 0)"/>
      <use xlink:href="#DejaVuSans-Bold-74" transform="translate(767.724609 0)"/>
      <use xlink:href="#DejaVuSans-Bold-20" transform="translate(815.527344 0)"/>
      <use xlink:href="#DejaVuSans-Bold-28" transform="translate(850.341797 0)"/>
      <use xlink:href="#DejaVuSans-Bold-70" transform="translate(896.044922 0)"/>
      <use xlink:href="#DejaVuSans-Bold-70" transform="translate(967.626953 0)"/>
      <use xlink:href="#DejaVuSans-Bold-6d" transform="translate(1039.208984 0)"/>
      <use xlink:href="#DejaVuSans-Bold-29" transform="translate(1143.408203 0)"/>
     </g>
    </g>
   </g>
   <g id="line2d_9">
    <path d="M 16.201101 364.201779 
L 19.024496 364.275415 
L 19.208017 364.257072 
L 19.462123 364.250175 
L 19.65976 364.263082 
L 20.252673 364.237793 
L 20.422077 364.221514 
L 20.831469 364.241018 
L 21.76319 364.201912 
L 22.737261 364.217241 
L 26.647663 364.182827 
L 26.986471 364.186095 
L 27.113524 364.175248 
L 27.297044 364.191145 
L 27.607618 364.166561 
L 27.861723 364.173781 
L 28.15818 364.201944 
L 28.609923 364.158255 
L 32.830899 364.169439 
L 33.042654 364.183733 
L 33.169706 364.162303 
L 33.80497 364.181252 
L 34.200246 364.194214 
L 34.623755 364.172301 
L 34.83551 364.165081 
L 35.287253 364.179057 
L 35.499008 364.174108 
L 35.668411 364.187867 
L 35.866049 364.167741 
L 36.218973 364.16359 
L 36.37426 364.141109 
L 37.150694 364.173628 
L 37.348331 364.149826 
L 38.110648 364.139838 
L 38.237701 364.172032 
L 38.576508 364.178459 
L 39.225889 364.138043 
L 39.889387 364.150518 
L 40.143493 364.130322 
L 40.383481 364.145425 
L 40.567002 364.168475 
L 41.272851 364.174197 
L 41.428137 364.160448 
L 41.766945 364.151139 
L 44.096246 364.116851 
L 44.223299 364.141292 
L 44.759744 364.179834 
L 45.169136 364.155636 
L 45.33854 364.160599 
L 45.959687 364.143651 
L 46.199675 364.132817 
L 46.439664 364.151125 
L 46.651419 364.146748 
L 48.740731 364.116539 
L 48.938369 364.114128 
L 49.347761 364.132639 
L 49.827738 364.105738 
L 49.983025 364.107476 
L 50.19478 364.127212 
L 50.434768 364.123039 
L 50.688874 364.126069 
L 51.521775 364.140532 
L 51.804115 364.098795 
L 52.312326 364.118996 
L 52.637017 364.109822 
L 52.792303 364.132056 
L 52.975824 364.091779 
L 53.258163 364.074411 
L 53.427567 364.050748 
L 53.794609 364.111474 
L 54.189884 364.120117 
L 54.331054 364.107383 
L 55.220423 364.116914 
L 55.432178 364.102772 
L 55.827453 364.097122 
L 56.406249 364.106322 
L 56.547419 364.150141 
L 57.860298 364.094331 
L 58.12852 364.111333 
L 58.354392 364.172014 
L 88.451785 364.056238 
L 88.564721 364.029328 
L 89.002347 364.015943 
L 89.256453 364.050357 
L 90.117588 364.054513 
L 90.385811 364.024776 
L 90.597565 364.032779 
L 91.261063 364.060268 
L 91.938678 364.02189 
L 92.926866 364.015883 
L 93.166855 364.034259 
L 93.350376 363.989938 
L 93.548013 363.97651 
L 94.536202 363.991888 
L 94.649138 364.03435 
L 95.002062 363.997651 
L 95.298518 364.03328 
L 95.849081 364.002402 
L 96.202005 364.025472 
L 96.371409 364.016328 
L 96.766684 364.024699 
L 96.978439 363.991642 
L 97.176076 363.988088 
L 97.317246 364.00366 
L 97.881925 364.025112 
L 98.09368 363.990579 
L 98.827763 364.0137 
L 99.110102 364.012825 
L 99.364208 364.013921 
L 99.688898 364.019994 
L 99.928887 364.025106 
L 102.596995 363.97912 
L 102.80875 364.004011 
L 103.006387 363.994427 
L 103.27461 364.000956 
L 103.387546 363.966335 
L 103.571066 364.006287 
L 103.895757 364.003105 
L 104.121629 363.977738 
L 104.432202 363.990156 
L 104.658074 363.993642 
L 104.841594 363.980698 
L 105.222753 363.989686 
L 107.495586 364.027595 
L 108.032031 363.984017 
L 108.257903 363.97724 
L 108.441423 363.998362 
L 108.624944 363.963897 
L 109.514313 363.99075 
L 109.655483 363.974436 
L 109.867238 363.987471 
L 112.916505 363.989703 
L 113.17061 363.957647 
L 113.325897 363.985164 
L 113.59412 363.97388 
L 113.91881 363.966519 
L 116.685737 364.015431 
L 116.841024 363.955463 
L 117.09513 363.994838 
L 117.603341 363.953063 
L 118.02685 363.976845 
L 118.280956 363.970921 
L 119.466782 363.96052 
L 119.692653 363.967015 
L 119.932642 363.96744 
L 120.229098 363.993864 
L 123.292482 363.970277 
L 123.419535 363.912388 
L 123.687757 363.984151 
L 123.800693 363.933854 
L 123.998331 363.954972 
L 124.56301 363.966403 
L 124.70418 363.942196 
L 126.948779 363.94039 
L 127.118183 363.949025 
L 127.400522 363.933025 
L 127.569926 363.92648 
L 128.20519 363.963024 
L 128.558114 363.914778 
L 130.703895 363.915754 
L 130.81683 363.909676 
L 130.830947 363.920273 
L 131.056819 363.957631 
L 131.536796 363.950696 
L 132.129709 363.927116 
L 132.327347 363.950632 
L 132.948494 363.930823 
L 133.456705 363.933157 
L 133.753161 363.94919 
L 135.786006 363.941776 
L 136.110697 363.908986 
L 136.491855 363.909109 
L 137.000066 363.946909 
L 137.197704 363.892099 
L 137.367107 363.898899 
L 137.522394 363.926863 
L 137.931786 363.922315 
L 138.355296 363.919865 
L 138.581167 363.900015 
L 138.976443 363.903284 
L 139.188197 363.925059 
L 141.983359 363.892407 
L 142.322166 363.911834 
L 142.745675 363.917206 
L 142.872728 363.901037 
L 142.886845 363.917012 
L 143.042132 363.932886 
L 143.239769 363.920485 
L 143.380939 363.885242 
L 143.56446 363.889994 
L 143.776215 363.928969 
L 144.623233 363.877785 
L 144.806754 363.874893 
L 145.202029 363.863386 
L 145.399667 363.876106 
L 145.85141 363.920884 
L 146.063165 363.876844 
L 146.585493 363.88189 
L 146.797247 363.88938 
L 147.107821 363.846728 
L 147.277225 363.880788 
L 147.6725 363.844539 
L 147.856021 363.851113 
L 148.067775 363.870044 
L 148.350115 363.820251 
L 148.590103 363.823988 
L 150.439427 363.817549 
L 150.580597 363.784889 
L 151.484084 363.825123 
L 152.175815 363.757828 
L 152.585208 363.750448 
L 152.796962 363.787397 
L 152.980483 363.780239 
L 153.912203 363.773685 
L 156.806184 363.836399 
L 157.130874 363.836914 
L 157.38498 363.828156 
L 157.596734 363.840548 
L 157.737904 363.838966 
L 158.048477 363.887637 
L 158.429636 363.853712 
L 158.627273 363.850729 
L 159.149602 363.856013 
L 159.290771 363.867251 
L 159.516643 363.854594 
L 159.841333 363.862495 
L 160.27896 363.839949 
L 162.975302 363.843075 
L 163.285876 363.881426 
L 164.274064 363.85378 
L 164.824626 363.855727 
L 165.050498 363.876223 
L 165.31872 363.890281 
L 165.445773 363.874633 
L 166.010452 363.865384 
L 166.589248 363.880903 
L 167.676255 363.875958 
L 168.02918 363.854332 
L 168.847964 363.831738 
L 169.56793 363.856015 
L 169.737334 363.840583 
L 171.981933 363.829361 
L 172.250155 363.877362 
L 172.419559 363.8724 
L 172.60308 363.895497 
L 173.323046 363.865722 
L 173.464215 363.826826 
L 175.257071 363.876894 
L 175.539411 363.843317 
L 175.765283 363.859642 
L 175.934686 363.852103 
L 176.118207 363.85034 
L 176.781705 363.858506 
L 177.007576 363.852073 
L 177.17698 363.832462 
L 178.24987 363.868117 
L 178.503976 363.867432 
L 178.955719 363.861762 
L 179.181591 363.850117 
L 179.294527 363.879772 
L 179.520398 363.878804 
L 179.703919 363.832122 
L 180.635639 363.87768 
L 180.847394 363.88466 
L 181.002681 363.877246 
L 181.412073 363.840081 
L 181.637945 363.818415 
L 181.920284 363.85812 
L 182.146156 363.840524 
L 182.442612 363.858142 
L 182.710835 363.857424 
L 196.17843 363.783843 
L 196.291366 363.837992 
L 196.573705 363.783894 
L 196.728992 363.820076 
L 196.912513 363.821881 
L 197.11015 363.808046 
L 197.350139 363.85133 
L 197.505426 363.812438 
L 197.773648 363.809215 
L 198.917123 363.798754 
L 199.21358 363.825001 
L 199.397101 363.83029 
L 199.877078 363.795914 
L 200.117066 363.82301 
L 200.540576 363.783287 
L 200.794681 363.798467 
L 201.189957 363.81831 
L 201.768753 363.814936 
L 202.121677 363.842628 
L 202.319315 363.797039 
L 202.700473 363.834114 
L 202.940462 363.853806 
L 203.236918 363.800373 
L 203.476907 363.826212 
L 203.660427 363.809171 
L 203.801597 363.789116 
L 204.592148 363.852688 
L 204.846253 363.807222 
L 205.100359 363.79539 
L 205.241529 363.788846 
L 205.439166 363.808012 
L 205.707389 363.831355 
L 206.286185 363.792437 
L 261.695316 363.669691 
L 261.86472 363.713078 
L 262.18941 363.733761 
L 267.553861 363.672968 
L 267.850318 363.626606 
L 268.062073 363.706347 
L 270.377257 363.741026 
L 270.476075 363.757358 
L 270.490192 363.772676 
L 270.645479 363.787856 
L 270.843117 363.80321 
L 271.083105 363.794907 
L 271.224275 363.759024 
L 271.464264 363.764037 
L 271.76072 363.773209 
L 276.391088 363.698708 
L 276.673428 363.698476 
L 276.800481 363.643207 
L 276.969885 363.230311 
L 277.08282 362.541339 
L 277.238107 359.935643 
L 277.351043 353.671569 
L 277.520447 328.464003 
L 277.591031 336.659998 
L 277.802786 358.170793 
L 278.028658 361.796519 
L 278.268646 362.712813 
L 278.395699 362.898392 
L 278.550986 362.974881 
L 278.776857 363.118687 
L 279.002729 363.322061 
L 281.360264 363.55939 
L 281.61437 363.565206 
L 281.953177 363.583821 
L 282.263751 363.545439 
L 282.969599 363.579142 
L 284.64952 363.62354 
L 285.073029 363.643336 
L 285.920047 363.627384 
L 287.345862 363.577587 
L 287.72702 363.390162 
L 287.741137 363.411433 
L 287.981126 363.629185 
L 288.263465 363.617008 
L 288.461103 363.646609 
L 289.110484 363.635387 
L 289.279888 363.637602 
L 289.463408 363.642692 
L 289.802216 363.661928 
L 289.97162 363.615918 
L 290.098672 363.634311 
L 291.016276 363.634907 
L 291.199796 363.627775 
L 292.809132 363.609576 
L 294.333765 363.666536 
L 294.54552 363.659141 
L 295.166667 363.638799 
L 295.364304 363.661152 
L 295.90075 363.656248 
L 296.112504 363.631571 
L 296.451312 363.653192 
L 296.705417 363.659678 
L 296.874821 363.668818 
L 297.114809 363.644504 
L 297.425383 363.601368 
L 298.97825 363.669411 
L 299.11942 363.682514 
L 299.613514 363.634183 
L 300.446416 363.636859 
L 300.573469 363.64497 
L 306.530833 363.670263 
L 306.72847 363.652892 
L 308.662496 363.641285 
L 308.789549 363.602916 
L 309.01542 363.615557 
L 310.314182 363.631964 
L 310.65299 363.616038 
L 310.878861 363.62046 
L 311.11885 363.600901 
L 311.372955 363.644794 
L 311.570593 363.612306 
L 312.403495 363.637414 
L 313.010525 363.644512 
L 313.222279 363.599923 
L 313.448151 363.618262 
L 313.688139 363.58441 
L 314.026947 363.621311 
L 314.281052 363.617304 
L 314.746913 363.624062 
L 314.958667 363.62401 
L 319.871375 363.674447 
L 320.337235 363.617481 
L 320.520756 363.617098 
L 320.774862 363.627244 
L 321.565412 363.640524 
L 322.003038 363.619196 
L 322.878291 363.600332 
L 323.894713 363.643274 
L 324.162936 363.624635 
L 325.278177 363.61861 
L 325.433464 363.610015 
L 326.506354 363.638832 
L 326.689875 363.601333 
L 326.958097 363.576454 
L 327.353372 363.599359 
L 327.734531 363.587763 
L 327.932168 363.58816 
L 328.256859 363.625418 
L 330.007364 363.671119 
L 330.219119 363.66148 
L 330.487341 363.625122 
L 331.19319 363.599518 
L 335.103592 363.58353 
L 335.456517 363.577667 
L 336.007079 363.62163 
L 336.331769 363.588139 
L 336.501173 363.580083 
L 337.108203 363.60646 
L 337.305841 363.590782 
L 337.658765 363.58012 
L 338.308146 363.577041 
L 338.463433 363.587305 
L 339.40927 363.608856 
L 339.55044 363.596432 
L 340.976254 363.535834 
L 341.08919 363.506842 
L 341.117424 363.547688 
L 341.343296 363.576124 
L 341.724454 363.591865 
L 341.907975 363.60651 
L 342.063262 363.621609 
L 343.672597 363.615396 
L 343.79965 363.56821 
L 343.969053 363.582203 
L 344.392563 363.587838 
L 344.717253 363.597859 
L 345.719558 363.575497 
L 346.143068 363.551209 
L 346.41129 363.592025 
L 346.735981 363.594172 
L 346.891267 363.602199 
L 347.201841 363.588408 
L 348.09121 363.591736 
L 348.387667 363.603435 
L 348.684123 363.609841 
L 348.83941 363.596396 
L 354.090925 363.537415 
L 354.246212 363.552896 
L 355.996717 363.598151 
L 356.250823 363.575086 
L 356.561396 363.590032 
L 357.154309 363.618129 
L 357.366064 363.541542 
L 357.591935 363.601796 
L 358.311901 363.604406 
L 358.636592 363.565565 
L 367.629105 363.530909 
L 367.84086 363.500542 
L 368.363188 363.597037 
L 368.899633 363.434879 
L 369.19609 363.61289 
L 369.421961 363.600924 
L 369.746652 363.634147 
L 369.944289 363.635963 
L 371.285402 363.661732 
L 371.454806 363.675723 
L 371.666561 363.632694 
L 372.160655 363.653004 
L 372.485345 363.702545 
L 372.6971 363.650298 
L 372.795919 363.703097 
L 373.007673 363.698534 
L 373.388832 363.703375 
L 374.37702 363.738612 
L 374.687593 363.754389 
L 375.054635 363.744485 
L 375.238155 363.77386 
L 376.254578 363.595913 
L 376.367514 363.313324 
L 376.508683 362.463177 
L 376.649853 360.073491 
L 376.889842 350.208379 
L 377.031011 331.007653 
L 377.087479 336.44512 
L 377.299234 351.469179 
L 377.510989 358.409028 
L 377.539223 358.415079 
L 377.567457 358.307442 
L 377.652158 356.832039 
L 377.793328 348.811292 
L 377.948615 336.998371 
L 378.0192 328.583934 
L 378.075668 333.895262 
L 378.301539 354.815292 
L 378.710932 361.694682 
L 379.021505 362.444045 
L 379.572067 362.905632 
L 380.052044 363.009056 
L 380.433203 363.134166 
L 381.675497 363.252148 
L 381.915485 363.237255 
L 382.254293 363.312445 
L 382.423696 363.307319 
L 385.134156 363.335861 
L 385.289442 363.368067 
L 385.698835 363.389885 
L 385.938823 363.383541 
L 386.319982 363.229599 
L 386.489385 363.239104 
L 386.941129 363.336476 
L 387.167 363.288652 
L 387.322287 363.235578 
L 387.491691 363.250914 
L 387.675211 363.338203 
L 387.957551 363.414656 
L 389.496301 363.456028 
L 389.722173 363.419229 
L 390.20215 363.440029 
L 390.413905 363.417839 
L 390.865648 363.387294 
L 391.458561 363.361067 
L 391.797369 363.381306 
L 392.842025 363.489142 
L 393.124364 363.49116 
L 393.293768 363.505755 
L 393.477289 363.486493 
L 393.886681 363.473003 
L 394.225488 363.486537 
L 394.366658 363.479713 
L 394.550179 363.450776 
L 394.705466 363.47664 
L 394.860752 363.460125 
L 395.411314 363.468395 
L 395.693654 363.471894 
L 396.484205 363.527317 
L 396.724193 363.521921 
L 397.161819 363.543027 
L 398.926441 363.401502 
L 399.237015 362.394228 
L 399.364068 360.955126 
L 399.477004 356.39016 
L 399.618173 342.43584 
L 399.674641 347.485682 
L 399.872279 359.995241 
L 400.069917 361.636268 
L 400.168735 361.676943 
L 400.211086 361.633173 
L 400.281671 361.389129 
L 400.394607 360.207231 
L 400.507543 355.665317 
L 400.648713 341.116984 
L 400.719297 348.170028 
L 400.916935 359.942137 
L 401.142807 361.954226 
L 401.45338 362.741146 
L 402.159229 363.109057 
L 402.427452 363.191969 
L 402.653323 363.188785 
L 402.879195 363.20773 
L 403.232119 363.208062 
L 403.387406 363.220801 
L 403.570927 363.254079 
L 403.853266 363.26633 
L 404.319126 363.30262 
L 404.530881 363.29499 
L 404.686168 363.273268 
L 404.841454 363.270073 
L 405.067326 363.300153 
L 405.646122 363.36945 
L 406.577843 363.34245 
L 406.831948 363.296672 
L 407.693084 363.346741 
L 407.862487 363.385234 
L 408.638921 363.371847 
L 408.893027 363.279712 
L 409.118898 363.400467 
L 409.34477 363.363481 
L 409.768279 363.277164 
L 409.965917 363.270044 
L 410.149437 363.310453 
L 410.347075 363.345759 
L 410.572947 363.390868 
L 410.798818 363.356299 
L 412.224633 363.379745 
L 412.591674 363.390881 
L 412.859897 363.387707 
L 413.071652 363.406828 
L 413.353991 363.406152 
L 413.537512 363.376969 
L 415.528005 363.321219 
L 415.725643 363.323119 
L 416.233854 363.39708 
L 417.193809 363.395769 
L 417.391446 363.352293 
L 417.687903 363.352538 
L 417.899657 363.416455 
L 417.998476 363.358367 
L 418.181997 363.355831 
L 418.450219 363.42095 
L 419.071366 363.378647 
L 422.007697 363.427389 
L 422.191218 363.43058 
L 422.501792 363.394735 
L 423.010003 363.447168 
L 423.998191 363.439326 
L 424.23818 363.396791 
L 431.056679 363.340833 
L 431.409604 363.294906 
L 431.70606 363.39081 
L 432.200154 363.326231 
L 432.355441 363.325504 
L 432.482494 363.347731 
L 432.736599 363.426645 
L 433.075407 363.390113 
L 434.614157 363.432763 
L 435.037666 363.436251 
L 435.235304 363.470935 
L 435.503527 363.434776 
L 435.898802 363.461544 
L 436.181142 363.431855 
L 436.534066 363.48184 
L 439.484514 363.520993 
L 439.653918 363.187024 
L 439.766853 362.701935 
L 439.893906 361.046065 
L 440.133895 353.940598 
L 440.246831 340.529493 
L 440.331532 324.219519 
L 440.388 329.719972 
L 440.599755 348.742261 
L 440.81151 357.872794 
L 440.839744 357.991002 
L 440.882095 357.807831 
L 440.980913 355.592545 
L 441.206785 342.214589 
L 441.333838 323.977726 
L 441.390306 331.183812 
L 441.587943 353.553974 
L 442.138505 361.830281 
L 442.547898 362.442172 
L 443.281981 362.80543 
L 443.409033 362.855591 
L 444.199584 362.99145 
L 444.580742 362.973472 
L 444.947784 363.050738 
L 446.020674 363.110088 
L 446.430066 363.09594 
L 446.613587 363.164937 
L 446.811225 363.095182 
L 446.980628 363.124599 
L 447.135915 363.104482 
L 447.291202 363.151297 
L 447.799413 363.1472 
L 448.039401 363.105613 
L 448.646431 363.178012 
L 448.801718 363.223427 
L 450.029895 363.146249 
L 450.227533 363.18448 
L 450.538106 363.003687 
L 450.792212 363.009852 
L 450.891031 363.11202 
L 451.060434 363.173093 
L 451.568646 363.195701 
L 451.738049 363.22036 
L 452.006272 363.252043 
L 452.726238 363.216907 
L 453.008577 363.258387 
L 453.290917 363.264998 
L 453.516788 363.249225 
L 453.686192 363.266706 
L 454.081467 363.274894 
L 454.420275 363.278925 
L 454.561444 363.317524 
L 455.535516 363.165038 
L 455.676686 362.882877 
L 455.846089 362.099149 
L 455.959025 360.312178 
L 456.086078 353.524674 
L 456.156663 349.672969 
L 456.213131 351.640687 
L 456.297833 354.057351 
L 456.340183 352.980929 
L 456.424885 348.7628 
L 456.481353 351.131636 
L 456.707225 360.419131 
L 456.820161 360.964064 
L 456.862512 360.88524 
L 456.947213 360.310905 
L 457.060149 357.123887 
L 457.187202 349.525765 
L 457.257787 352.045806 
L 457.328372 353.860757 
L 457.370723 352.899749 
L 457.455425 348.839478 
L 457.511892 351.035316 
L 457.737764 360.574848 
L 457.977753 362.170113 
L 458.274209 362.612396 
L 458.754186 362.825899 
L 459.685907 363.001605 
L 459.869427 363.046256 
L 460.010597 363.011738 
L 460.165884 362.982392 
L 460.617627 363.017976 
L 460.74468 363.042461 
L 460.899967 363.036577 
L 461.083487 363.009004 
L 461.337593 363.061903 
L 461.563465 363.056874 
L 461.775219 363.049235 
L 461.944623 363.057373 
L 462.114027 363.03324 
L 462.325781 363.060292 
L 462.721057 363.0893 
L 463.003396 363.113683 
L 463.1728 363.109301 
L 463.469256 363.141065 
L 463.624543 363.151954 
L 464.429211 363.03478 
L 464.753901 363.067759 
L 464.880954 363.039104 
L 465.163294 362.975152 
L 466.490289 363.019651 
L 466.871448 363.079417 
L 467.28084 363.136936 
L 469.624258 363.123434 
L 469.737194 363.13996 
L 470.17482 363.215807 
L 470.513628 363.215176 
L 470.739499 363.205307 
L 470.866552 363.194635 
L 471.021839 363.187303 
L 471.642986 363.192052 
L 473.379374 363.275358 
L 473.619362 362.81987 
L 473.774649 361.731841 
L 473.915819 358.636115 
L 474.042872 349.083893 
L 474.155807 339.570535 
L 474.198158 341.117244 
L 474.28286 345.084857 
L 474.325211 343.862095 
L 474.409913 339.3957 
L 474.466381 341.853192 
L 474.74872 359.666364 
L 474.988709 361.767551 
L 475.228698 362.298957 
L 475.412218 362.521353 
L 475.708675 362.696822 
L 476.005131 362.736647 
L 476.216886 362.746052 
L 476.527459 362.80205 
L 476.739214 362.892591 
L 477.120372 362.901141 
L 477.31801 362.897227 
L 477.713285 362.91947 
L 477.939157 362.935577 
L 478.334432 362.999003 
L 478.546187 362.953417 
L 478.729708 362.950797 
L 479.012047 362.975061 
L 479.435556 363.030803 
L 479.562609 362.991517 
L 479.576726 363.009161 
L 479.703779 363.006715 
L 480.084937 363.029184 
L 480.254341 363.048204 
L 481.341348 363.021836 
L 481.468401 362.96737 
L 481.623688 362.991624 
L 481.934261 363.03167 
L 482.724812 362.960343 
L 482.880099 362.98884 
L 483.049502 362.992551 
L 483.233023 362.97305 
L 483.713 362.839449 
L 483.952989 362.966151 
L 484.658838 363.023862 
L 484.884709 363.055972 
L 485.421154 363.061088 
L 486.028184 363.093483 
L 486.169354 363.079405 
L 486.381109 363.021396 
L 486.522278 363.027615 
L 486.790501 363.032987 
L 487.425765 363.106987 
L 487.538701 363.058156 
L 487.693987 363.058758 
L 488.456304 363.100603 
L 488.611591 363.087033 
L 489.458609 363.029838 
L 489.698598 363.083914 
L 489.92447 363.09923 
L 490.150341 363.144508 
L 490.475032 363.084756 
L 490.630319 363.080787 
L 492.324356 363.141686 
L 492.53611 363.053512 
L 492.790216 363.007267 
L 492.973737 363.012656 
L 494.3572 363.082144 
L 494.540721 363.114055 
L 494.794826 363.037368 
L 495.401856 363.01418 
L 495.797132 363.048582 
L 495.952419 363.038297 
L 496.192407 363.018557 
L 496.531215 362.995501 
L 496.870022 363.014072 
L 497.307648 363.050513 
L 497.448818 363.083907 
L 497.660573 363.010233 
L 497.801742 362.987495 
L 498.055848 362.994009 
L 498.634644 363.041094 
L 498.804048 363.033431 
L 499.058153 363.041209 
L 499.241674 363.048731 
L 499.721651 363.012175 
L 499.891055 362.997404 
L 500.483968 363.082282 
L 500.667489 363.12184 
L 500.907477 362.993968 
L 501.147466 362.987125 
L 501.373337 363.002981 
L 501.712145 363.157325 
L 503.236778 363.090845 
L 503.420299 363.062243 
L 503.744989 363.069754 
L 503.956744 363.082689 
L 504.479072 363.02362 
L 504.662593 363.050235 
L 504.846113 363.04304 
L 506.201343 363.052946 
L 506.68132 363.01476 
L 506.893075 362.992515 
L 507.10483 363.024681 
L 507.274233 362.987085 
L 507.556573 362.96366 
L 507.923614 362.950308 
L 508.135369 363.041173 
L 508.347124 362.976596 
L 509.476482 363.020826 
L 511.226987 363.043589 
L 511.523443 362.999227 
L 511.735198 362.95965 
L 513.598639 362.955244 
L 513.838627 362.89474 
L 514.149201 362.929487 
L 514.304488 362.936399 
L 514.459774 362.949142 
L 514.615061 362.952159 
L 515.292676 362.993635 
L 515.476197 363.011189 
L 516.054993 362.985784 
L 516.25263 363.006021 
L 516.3938 362.987764 
L 516.887894 362.998063 
L 517.170234 362.99583 
L 517.904316 362.970557 
L 518.172539 362.990094 
L 518.426645 363.040479 
L 518.694867 363.055523 
L 518.836037 363.062206 
L 519.061908 363.008422 
L 519.217195 362.970364 
L 519.457184 362.913965 
L 519.795991 363.049717 
L 519.923044 363.031272 
L 520.163033 362.99677 
L 520.388904 363.051308 
L 520.671244 362.991059 
L 521.024168 362.983918 
L 521.306508 362.938946 
L 521.447677 362.889693 
L 521.546496 362.870447 
L 521.57473 362.905555 
L 521.786485 362.998151 
L 521.99824 362.976359 
L 524.60988 362.975857 
L 524.736933 362.9755 
L 525.118091 362.906694 
L 525.287495 362.904854 
L 525.414548 362.902616 
L 525.880408 362.872294 
L 526.063929 362.883599 
L 527.687381 362.857873 
L 527.814434 362.888033 
L 528.195592 362.94912 
L 528.421464 362.949026 
L 528.548516 362.933047 
L 528.873207 362.925015 
L 529.226131 362.976936 
L 529.677875 363.002597 
L 530.016682 362.978718 
L 530.21432 362.939382 
L 530.454308 362.928135 
L 530.906051 363.007863 
L 531.216625 363.014654 
L 532.204813 363.024731 
L 532.374217 362.992679 
L 532.755375 362.958012 
L 532.910662 362.948213 
L 533.094183 362.91653 
L 534.421179 362.944349 
L 536.369321 362.840697 
L 536.694012 362.900156 
L 536.863415 362.863066 
L 537.018702 362.852807 
L 539.616226 362.852375 
L 540.307958 362.795165 
L 540.505595 362.847666 
L 541.112625 362.770824 
L 541.239678 362.791391 
L 541.423199 362.848493 
L 542.736077 362.787933 
L 542.891364 362.827289 
L 543.7525 362.797469 
L 543.950137 362.783608 
L 545.714759 362.74678 
L 545.884163 362.708712 
L 546.194737 362.655306 
L 546.957053 362.476651 
L 547.126457 362.410223 
L 547.324095 362.406992 
L 547.564083 362.311328 
L 547.804072 362.25021 
L 548.128762 362.035025 
L 548.269932 361.973278 
L 548.891079 361.02472 
L 549.21577 359.918762 
L 549.554577 358.152828 
L 550.175724 354.72108 
L 550.189841 354.725223 
L 550.316894 354.972893 
L 550.570999 356.506223 
L 551.07921 359.342245 
L 551.643889 361.026767 
L 551.982697 361.400016 
L 552.208568 361.706501 
L 552.377972 361.78397 
L 552.660312 362.044734 
L 552.829715 362.107333 
L 554.184945 362.378749 
L 556.965989 362.647771 
L 557.14951 362.600432 
L 557.544785 362.627729 
L 557.700072 362.610453 
L 558.547091 362.610299 
L 558.688261 362.642987 
L 559.25294 362.720704 
L 559.619981 362.597457 
L 560.467 362.673289 
L 560.594052 362.657952 
L 560.79169 362.697466 
L 561.102263 362.697755 
L 561.25755 362.701348 
L 561.441071 362.687529 
L 563.008055 362.677021 
L 563.5445 362.684933 
L 563.713904 362.627683 
L 563.883308 362.58574 
L 564.095062 362.65847 
L 564.222115 362.695583 
L 564.419753 362.706083 
L 564.617391 362.68334 
L 564.786794 362.67993 
L 566.410246 362.701145 
L 566.57965 362.681003 
L 566.876107 362.61331 
L 567.031393 362.631867 
L 567.285499 362.638251 
L 567.412552 362.686255 
L 567.624306 362.72096 
L 567.906646 362.697531 
L 568.160752 362.703938 
L 568.40074 362.718135 
L 569.261876 362.634075 
L 570.066543 362.610405 
L 570.22183 362.60025 
L 570.447702 362.555705 
L 570.857094 362.327064 
L 570.885328 362.383979 
L 571.082966 362.626461 
L 571.831165 362.692851 
L 572.198207 362.671697 
L 572.339376 362.656047 
L 574.047531 362.620649 
L 574.301636 362.595293 
L 575.289824 362.692737 
L 575.459228 362.713191 
L 575.783919 362.693999 
L 575.953322 362.717418 
L 576.15096 362.725388 
L 576.348598 362.651208 
L 576.546235 362.628011 
L 576.743873 362.636491 
L 576.89916 362.699638 
L 577.139148 362.699255 
L 577.534424 362.557287 
L 577.774412 362.473963 
L 577.929699 362.016795 
L 578.084986 360.831957 
L 578.212039 358.134438 
L 578.339091 348.704785 
L 578.452027 333.816122 
L 578.494378 338.329214 
L 578.706133 355.819127 
L 578.748484 356.076065 
L 578.790835 355.816247 
L 578.889653 352.91258 
L 579.002589 340.644107 
L 579.143759 303.108876 
L 579.214344 321.131807 
L 579.411982 352.090956 
L 579.539034 354.871001 
L 579.581385 354.601921 
L 579.666087 351.499436 
L 579.779023 338.637386 
L 579.835491 330.974567 
L 579.891959 336.454405 
L 580.103713 356.812295 
L 580.329585 360.171524 
L 580.569574 361.108807 
L 580.823679 361.489151 
L 581.021317 361.583681 
L 581.557762 361.936069 
L 581.7554 361.977032 
L 581.967154 362.012551 
L 582.305962 362.040197 
L 582.630652 362.139814 
L 582.800056 362.160099 
L 583.29415 362.193535 
L 583.463554 362.147901 
L 583.632957 362.147505 
L 584.014116 362.186102 
L 584.959953 362.240761 
L 585.25641 362.305488 
L 586.964564 362.193119 
L 587.091617 362.087285 
L 587.11985 362.133855 
L 587.317488 362.250345 
L 587.72688 361.993134 
L 587.769231 361.93006 
L 587.825699 362.023784 
L 588.023337 362.316938 
L 588.630367 362.241071 
L 588.94094 362.334656 
L 589.307982 362.279045 
L 609.565843 362.037504 
L 609.918767 362.05064 
L 610.017586 361.987671 
L 610.638733 362.098816 
L 610.808136 362.111707 
L 612.1916 362.051109 
L 612.361004 362.070058 
L 612.488057 362.095393 
L 613.179788 362.001576 
L 613.320958 362.048978 
L 613.716234 362.09446 
L 613.998573 362.032341 
L 614.33738 362.088714 
L 614.535018 362.119623 
L 614.930293 362.07095 
L 616.7655 362.019176 
L 616.991372 361.897456 
L 617.358413 361.995478 
L 617.626636 361.791095 
L 617.753689 361.612169 
L 617.79604 361.667737 
L 618.064262 362.011603 
L 618.233666 361.947803 
L 618.473655 361.697862 
L 618.558356 361.545998 
L 618.614824 361.635097 
L 618.925398 362.01023 
L 619.504194 361.957455 
L 619.744182 362.072981 
L 621.240582 362.051279 
L 623.753404 361.873383 
L 624.120445 361.362346 
L 624.275732 360.302029 
L 624.402784 358.013795 
L 624.529837 351.114221 
L 624.671007 336.503752 
L 624.741592 341.263031 
L 624.967464 355.823894 
L 625.009814 355.97626 
L 625.052165 355.712494 
L 625.150984 353.298192 
L 625.26392 344.979857 
L 625.390973 316.153668 
L 625.489792 282.563505 
L 625.54626 293.469247 
L 625.786248 347.92324 
L 625.899184 350.930725 
L 625.941535 350.607387 
L 626.026237 347.493776 
L 626.139173 333.903515 
L 626.308576 280.529646 
L 626.393278 303.756269 
L 626.605033 348.531689 
L 626.80267 354.002711 
L 626.845021 353.738629 
L 626.929723 351.361306 
L 627.056776 339.863419 
L 627.127361 333.498402 
L 627.183829 336.885627 
L 627.437934 356.648655 
L 627.663806 359.315798 
L 627.960262 360.295639 
L 628.482591 360.721742 
L 628.835515 360.905031 
L 628.948451 360.955622 
L 629.626066 361.095621 
L 629.964873 361.15794 
L 630.134277 361.168495 
L 630.58602 361.228729 
L 632.378876 361.20358 
L 632.534163 361.189152 
L 632.816502 361.168208 
L 633.197661 361.274791 
L 633.564702 360.827789 
L 633.607053 360.900002 
L 633.847042 361.235598 
L 634.002328 361.20573 
L 634.36937 360.841748 
L 634.397604 360.880415 
L 634.665826 361.18475 
L 634.849347 361.196587 
L 644.208902 360.936659 
L 644.350072 360.923801 
L 644.505359 360.938132 
L 645.281792 360.941052 
L 645.422962 360.981924 
L 645.550015 360.925618 
L 646.608788 360.826063 
L 646.919361 360.835257 
L 647.060531 360.850622 
L 647.229935 360.826819 
L 647.427573 360.797913 
L 647.808731 360.892088 
L 649.079259 360.799055 
L 649.347481 360.723583 
L 649.714523 360.752818 
L 649.785108 360.749458 
L 649.813342 360.720299 
L 649.968628 360.708169 
L 650.349787 360.711124 
L 650.462722 360.667671 
L 650.674477 360.672073 
L 650.815647 360.707287 
L 651.182688 360.647308 
L 651.450911 360.632682 
L 652.043824 360.60637 
L 652.227344 360.569671 
L 652.48145 360.511322 
L 653.046129 360.462273 
L 653.751978 360.523786 
L 653.97785 360.433262 
L 654.457827 360.487655 
L 654.613113 360.543091 
L 654.782517 360.501635 
L 654.966038 360.433561 
L 655.163676 360.448683 
L 655.347196 360.405245 
L 656.561256 360.197439 
L 656.885947 360.001828 
L 656.900064 360.031202 
L 657.027116 360.094198 
L 657.041233 360.084807 
L 657.436509 359.977214 
L 657.66238 360.056742 
L 657.831784 360.045889 
L 659.172897 360.050515 
L 659.271716 359.939563 
L 659.328183 359.978847 
L 659.455236 359.928797 
L 659.582289 359.914048 
L 659.596406 359.932841 
L 659.794044 360.059165 
L 660.69753 360.012842 
L 660.937519 359.926367 
L 661.713952 359.81329 
L 661.855122 359.732859 
L 661.869239 359.751127 
L 661.939824 359.761016 
L 661.968058 359.715571 
L 662.419801 359.570193 
L 662.673907 359.517 
L 662.928012 359.36316 
L 662.942129 359.384563 
L 663.12565 359.425899 
L 663.295054 359.303144 
L 663.746797 358.075514 
L 663.902084 356.087843 
L 664.029137 351.219881 
L 664.156189 336.367412 
L 664.212657 329.478911 
L 664.269125 334.716439 
L 664.466763 351.736081 
L 664.509114 351.953021 
L 664.551465 351.661154 
L 664.650283 348.662261 
L 664.763219 337.70817 
L 664.918506 301.116321 
L 664.974974 314.94685 
L 665.172612 349.124877 
L 665.313781 352.11655 
L 665.342015 351.951548 
L 665.426717 349.364216 
L 665.55377 336.117368 
L 665.610238 330.186044 
L 665.652589 333.672486 
L 665.892577 355.392541 
L 666.132566 358.130572 
L 666.400789 358.830769 
L 666.852532 358.928992 
L 667.09252 358.969147 
L 667.431328 359.114297 
L 667.558381 359.029619 
L 667.798369 358.674953 
L 667.911305 358.820716 
L 668.080709 358.935049 
L 668.433633 358.743981 
L 668.617154 358.577998 
L 668.631271 358.596313 
L 668.857142 358.909413 
L 668.941844 358.940997 
L 668.984195 358.895265 
L 669.633576 358.835028 
L 669.774746 358.787043 
L 670.155904 358.665004 
L 670.353542 358.736059 
L 670.692349 358.694602 
L 670.833519 358.654185 
L 671.045274 358.589005 
L 671.384081 358.54694 
L 671.976994 358.222812 
L 672.132281 358.399794 
L 672.174632 358.352342 
L 672.372269 358.188834 
L 672.485205 358.135315 
L 672.668726 357.843515 
L 672.725194 357.926697 
L 672.936948 358.021929 
L 673.035767 357.94808 
L 673.134586 357.86605 
L 673.176937 357.903539 
L 673.332224 357.669422 
L 673.558095 357.420292 
L 673.699265 357.243595 
L 673.981605 356.178671 
L 674.136891 353.982771 
L 674.278061 348.626758 
L 674.447465 330.547334 
L 674.51805 338.344954 
L 674.701571 351.307655 
L 674.758038 351.676161 
L 674.814506 351.398852 
L 674.927442 348.392103 
L 675.054495 338.503781 
L 675.181548 308.765149 
L 675.26625 277.13802 
L 675.322717 292.795185 
L 675.534472 344.580727 
L 675.661525 348.049652 
L 675.703876 347.757728 
L 675.802695 344.29598 
L 675.929747 329.132372 
L 676.085034 276.570854 
L 676.155619 297.890958 
L 676.353257 346.109558 
L 676.550894 352.289609 
L 676.565011 352.323839 
L 676.607362 352.149545 
L 676.692064 350.366793 
L 676.819117 341.148579 
L 676.917936 329.934077 
L 676.960287 334.191124 
L 677.186158 354.178492 
L 677.41203 356.873064 
L 677.666135 357.479863 
L 677.948475 357.633404 
L 678.089645 357.620471 
L 678.230815 357.622091 
L 678.611973 357.567514 
L 678.739026 357.546944 
L 678.95078 357.524693 
L 679.388407 357.420565 
L 679.571927 357.421034 
L 679.98132 357.152977 
L 679.995437 357.169149 
L 680.122489 357.16943 
L 680.136606 357.153119 
L 680.291893 357.164084 
L 680.545999 357.149683 
L 680.743636 357.221989 
L 680.757753 357.201567 
L 680.884806 357.13231 
L 680.898923 357.148663 
L 681.025976 357.21721 
L 681.05421 357.195808 
L 681.153029 357.12593 
L 681.336549 356.941316 
L 681.505953 356.970907 
L 681.633006 356.921977 
L 682.112983 356.641784 
L 682.183568 356.562199 
L 682.240036 356.623412 
L 682.395323 356.6909 
L 682.494141 356.601852 
L 682.748247 356.310727 
L 682.861183 356.24614 
L 683.030586 355.826911 
L 683.101171 356.017135 
L 683.228224 356.226415 
L 683.256458 356.194404 
L 683.383511 356.12529 
L 683.750552 355.696381 
L 683.849371 355.429078 
L 683.905839 355.53993 
L 684.188178 355.851891 
L 684.357582 355.822802 
L 685.232835 355.353997 
L 685.374004 355.322268 
L 685.529291 355.200624 
L 685.853982 355.086405 
L 685.868099 355.110881 
L 685.896333 355.120908 
L 685.9528 355.046389 
L 686.136321 354.856467 
L 686.164555 354.872428 
L 686.291608 354.817272 
L 686.658649 354.331519 
L 686.799819 354.303292 
L 687.039808 353.908938 
L 687.096276 353.955022 
L 687.237445 354.080578 
L 687.265679 354.038337 
L 687.759773 353.683548 
L 687.985645 353.555467 
L 688.352686 353.130665 
L 688.493856 352.989048 
L 688.747962 352.68241 
L 688.875015 352.519913 
L 689.213822 351.963113 
L 689.976139 350.297565 
L 690.244361 349.645607 
L 690.441999 349.357333 
L 690.456116 349.369709 
L 690.583169 349.253187 
L 690.95021 348.617171 
L 691.049029 348.4059 
L 692.856002 343.415017 
L 693.37833 341.841206 
L 693.448915 341.746575 
L 693.858307 340.296275 
L 694.437103 338.356443 
L 694.45122 338.345169 
L 694.465337 338.401105 
L 694.804145 340.553611 
L 694.973548 340.789255 
L 695.015899 340.759381 
L 695.368824 340.915329 
L 695.382941 340.884312 
L 695.566461 340.742426 
L 695.707631 340.8552 
L 695.735865 340.821811 
L 695.820567 340.695071 
L 696.201725 340.104022 
L 696.512299 339.905715 
L 696.695819 339.676797 
L 696.780521 339.725938 
L 696.822872 339.668855 
L 697.246381 339.509466 
L 698.771015 337.014929 
L 698.996886 336.463755 
L 699.674501 334.413625 
L 700.098011 332.4775 
L 700.337999 331.49926 
L 701.368538 322.72973 
L 701.679112 315.867908 
L 701.919101 303.149003 
L 702.074387 281.908382 
L 702.229674 215.576984 
L 702.300259 172.729549 
L 702.34261 200.971477 
L 702.540247 327.429595 
L 702.709651 333.033759 
L 702.822587 332.128472 
L 703.316681 326.089111 
L 703.599021 322.746292 
L 704.968367 306.871412 
L 706.337714 283.675345 
L 708.45526 237.243581 
L 708.469377 237.258189 
L 708.610547 236.629158 
L 708.624664 236.692675 
L 708.751717 237.012752 
L 708.667015 236.584384 
L 708.765834 236.980427 
L 708.779951 236.915235 
L 708.794068 237.094635 
L 709.048173 239.451483 
L 709.06229 239.453045 
L 709.20346 240.80384 
L 709.217577 240.654282 
L 709.415215 235.681756 
L 709.471683 232.803799 
L 709.514034 234.013555 
L 709.655203 246.653535 
L 709.697554 245.361957 
L 709.725788 243.60426 
L 709.824607 217.076741 
L 709.95166 171.92877 
L 709.979894 192.136581 
L 710.025396 433 
M 711.667925 433 
L 712.083323 422.369461 
L 713.382085 407.908033 
L 713.480904 407.165772 
L 713.847945 403.900573 
L 713.932647 403.363562 
L 714.243221 401.334329 
L 714.370273 400.6319 
L 714.66673 398.888045 
L 714.934953 397.645346 
L 715.203175 396.569015 
L 715.259643 396.284526 
L 715.443164 395.616052 
L 715.711386 394.48025 
L 716.261948 393.490346 
L 716.276065 393.497763 
L 716.290182 393.50781 
L 716.304299 393.455136 
L 716.431352 393.264354 
L 716.445469 393.296576 
L 716.572522 393.369182 
L 716.586639 393.35882 
L 716.62899 393.435516 
L 716.657224 393.425241 
L 716.798393 393.611339 
L 716.81251 393.576894 
L 716.826627 393.544992 
L 716.897212 393.646104 
L 717.405423 396.217761 
L 717.70188 398.066723 
L 717.744231 398.182228 
L 717.758348 398.24395 
L 717.786582 398.105009 
L 717.828933 396.731087 
L 717.913634 384.592137 
L 717.998336 336.447197 
L 718.083038 258.512927 
L 718.139506 276.517629 
L 718.379495 348.649713 
L 718.619483 364.888205 
L 719.014759 372.579436 
L 719.410034 375.053001 
L 719.424151 375.044767 
L 719.452385 375.131174 
L 720.031181 375.987683 
L 720.045298 375.973801 
L 720.101766 376.038364 
L 720.412339 376.605197 
L 720.426456 376.590519 
L 720.609977 376.345171 
L 720.638211 376.385355 
L 720.722913 376.376562 
L 720.751147 376.428177 
L 720.92055 376.529198 
L 720.962901 376.427579 
L 721.34406 376.277964 
L 721.485229 376.294017 
L 721.753452 375.92167 
L 721.781686 375.947202 
L 721.95109 375.918439 
L 722.078142 375.872304 
L 722.092259 375.883383 
L 722.219312 375.960811 
L 722.233429 375.952347 
L 722.487535 375.753869 
L 722.854576 375.747727 
L 723.16515 375.269102 
L 723.179267 375.278351 
L 723.419255 375.14545 
L 723.48984 375.09882 
L 723.546308 375.164063 
L 723.687478 375.253028 
L 723.701595 375.232927 
L 723.998051 375.005543 
L 724.082753 375.103878 
L 724.153338 375.017891 
L 724.294508 374.976025 
L 724.308625 374.990605 
L 724.435677 374.844272 
L 724.619198 374.656691 
L 724.84507 374.783986 
L 724.901538 374.674241 
L 725.127409 374.413256 
L 725.141526 374.439843 
L 725.212111 374.476583 
L 725.254462 374.429555 
L 725.692088 374.114413 
L 725.762673 374.043736 
L 725.91796 373.999044 
L 726.05913 374.035193 
L 726.270884 373.850885 
L 726.341469 373.814739 
L 726.355586 373.793254 
L 726.52499 373.780023 
L 726.694394 373.64733 
L 726.99085 373.225984 
L 727.004967 373.240666 
L 727.146137 373.267339 
L 727.160254 373.254966 
L 727.301424 373.30064 
L 727.329658 373.242158 
L 727.611997 373.137483 
L 727.710816 373.081045 
L 727.795518 372.997384 
L 727.837869 373.022439 
L 727.979038 373.137954 
L 727.993155 373.115803 
L 728.233144 372.849579 
L 728.501367 372.876505 
L 728.882525 372.69495 
L 729.023695 372.583629 
L 729.051929 372.621113 
L 729.320151 372.57153 
L 729.927181 372.387357 
L 730.294223 372.577105 
L 730.703615 371.97443 
L 730.788317 372.022885 
L 730.95772 372.067067 
L 731.225943 372.083148 
L 731.310645 371.998766 
L 731.550633 371.824516 
L 731.875324 371.691416 
L 732.072962 371.618237 
L 732.157663 371.619482 
L 732.17178 371.599303 
L 732.45412 371.343772 
L 732.679992 371.289615 
L 732.77881 371.38293 
L 732.905863 371.467956 
L 732.948214 371.422117 
L 733.145852 371.108679 
L 733.188203 371.169853 
L 733.399957 371.170059 
L 733.484659 371.10217 
L 733.52701 371.142454 
L 733.766999 371.211087 
L 733.894051 371.10039 
L 734.13404 371.002611 
L 734.289327 370.905761 
L 734.402263 370.848921 
L 734.430497 370.888476 
L 734.585783 370.938973 
L 734.995176 370.792044 
L 735.178696 370.722705 
L 735.503387 370.800193 
L 735.828077 370.483548 
L 736.265703 370.451784 
L 736.491575 370.570656 
L 736.660979 370.449674 
L 736.802149 370.464603 
L 737.352711 370.431267 
L 737.550348 370.402701 
L 738.086793 370.285838 
L 738.171495 370.209912 
L 738.227963 370.24804 
L 738.38325 370.278002 
L 738.552654 370.207721 
L 739.230268 369.996842 
L 739.399672 369.974326 
L 739.823181 369.841197 
L 740.077287 369.849423 
L 740.218457 369.862637 
L 740.416094 369.908944 
L 740.754902 369.841704 
L 740.881955 369.848459 
L 741.164294 369.801006 
L 741.545453 369.74246 
L 741.785441 369.768355 
L 742.138366 369.660282 
L 743.451244 369.554734 
L 743.634765 369.448093 
L 743.804169 369.48809 
L 743.945339 369.508345 
L 744.044157 369.42937 
L 744.213561 369.427416 
L 744.326497 369.378981 
L 744.608836 369.430747 
L 744.947644 369.537444 
L 745.131165 369.520453 
L 745.258217 369.506731 
L 745.441738 369.402725 
L 745.611142 369.412663 
L 745.822896 369.427633 
L 746.034651 369.426487 
L 746.161704 369.435164 
L 746.542862 369.369262 
L 746.768734 369.457691 
L 746.895787 369.409505 
L 747.036956 369.329904 
L 747.06519 369.349583 
L 747.686337 369.330636 
L 747.855741 369.314571 
L 748.081613 369.308837 
L 748.434537 368.861122 
L 748.491005 368.948454 
L 748.702759 369.289721 
L 748.985099 369.191236 
L 749.267439 368.367189 
L 749.309789 368.498074 
L 749.507427 369.038796 
L 749.902702 369.09071 
L 750.086223 368.744661 
L 750.156808 368.878553 
L 750.410914 369.312572 
L 750.919125 369.42343 
L 751.088528 369.385176 
L 751.413219 369.612248 
L 751.624974 369.540664 
L 752.175536 369.721005 
L 752.429641 369.901466 
L 752.627279 369.883313 
L 752.839033 369.80396 
L 753.13549 370.050152 
L 753.319011 370.219218 
L 753.968392 370.625778 
L 754.236614 370.999788 
L 754.970697 371.767821 
L 755.125984 371.502099 
L 755.224802 370.565404 
L 755.351855 367.20892 
L 755.464791 356.502913 
L 755.577727 322.807618 
L 755.662429 296.034409 
L 755.70478 305.997555 
L 755.944768 356.195641 
L 756.057704 359.152817 
L 756.100055 358.66807 
L 756.184757 354.187862 
L 756.297693 330.886187 
L 756.410628 255.082797 
L 756.481213 214.3351 
L 756.523564 235.997064 
L 756.749436 337.474537 
L 756.961191 351.088078 
L 756.975307 351.085517 
L 757.031775 349.636524 
L 757.130594 338.580437 
L 757.299998 286.897999 
L 757.370583 308.462989 
L 757.582337 349.850898 
L 757.822326 358.814813 
L 758.147017 362.279585 
L 758.528175 363.779015 
L 758.683462 363.815564 
L 758.768163 363.648539 
L 758.810514 363.809821 
L 759.078737 364.849821 
L 759.375193 365.353805 
L 759.403427 365.332678 
L 759.544597 365.213489 
L 759.586948 365.177201 
L 759.629299 365.241466 
L 759.897522 365.751715 
L 760.208095 366.111494 
L 760.222212 366.102644 
L 760.377499 366.083839 
L 760.546902 366.197706 
L 760.815125 366.501979 
L 761.365687 366.812067 
L 761.563325 366.852175 
L 762.043302 367.319744 
L 762.283291 367.270312 
L 762.664449 367.58748 
L 763.102075 367.395472 
L 763.130309 367.488139 
L 763.356181 367.983685 
L 763.680871 368.251782 
L 763.709105 368.22124 
L 763.793807 368.085874 
L 763.878509 367.765641 
L 763.92086 367.888762 
L 764.231433 368.917007 
L 764.457305 369.001972 
L 764.556124 368.654533 
L 764.669059 367.205543 
L 764.810229 362.683582 
L 764.923165 348.721087 
L 765.036101 302.613931 
L 765.078452 288.442756 
L 765.13492 302.501346 
L 765.346674 352.87329 
L 765.473727 357.107409 
L 765.516078 356.794845 
L 765.60078 353.486665 
L 765.699599 338.636348 
L 765.812535 283.614695 
L 765.911353 205.445968 
L 765.953704 231.100588 
L 766.165459 334.589344 
L 766.377214 349.776478 
L 766.405448 349.966675 
L 766.447798 349.38198 
L 766.5325 342.988477 
L 766.645436 313.631194 
L 766.730138 281.651431 
L 766.772489 292.718727 
L 766.998361 347.306056 
L 767.238349 357.01131 
L 767.520689 360.22378 
L 767.915964 361.957374 
L 768.508877 363.153258 
L 768.7771 363.451948 
L 769.10179 363.7243 
L 769.257077 363.844834 
L 769.497065 364.045939 
L 771.826366 364.874992 
L 771.99577 364.936769 
L 772.235759 364.909192 
L 772.320461 364.762113 
L 772.419279 364.505805 
L 772.46163 364.584469 
L 772.729853 364.929652 
L 772.998075 364.891624 
L 773.139245 364.519622 
L 773.223947 364.130944 
L 773.280415 364.304685 
L 773.506287 364.865503 
L 773.732158 364.999131 
L 773.95803 364.883712 
L 774.056849 364.699954 
L 774.0992 364.793026 
L 774.296837 365.090152 
L 774.70623 365.236869 
L 775.327376 365.279779 
L 775.765003 365.28041 
L 775.990874 365.356137 
L 776.160278 365.316315 
L 776.329682 365.334698 
L 776.499086 365.355737 
L 776.781425 365.357498 
L 779.788341 365.422964 
L 780.240084 365.429719 
L 780.465956 365.452415 
L 780.734178 365.393872 
L 781.270623 365.500592 
L 781.468261 365.498707 
L 781.694133 365.496114 
L 781.877653 365.488382 
L 782.089408 365.503246 
L 782.428215 365.491292 
L 782.625853 365.519559 
L 783.148181 365.44431 
L 783.303468 365.453151 
L 783.599925 365.467163 
L 783.797562 365.493856 
L 783.952849 365.508807 
L 784.263422 365.454451 
L 786.056278 365.406373 
L 786.169214 365.450143 
L 786.550373 365.522459 
L 786.719776 365.540728 
L 787.566795 365.528724 
L 787.679731 365.490404 
L 787.849134 365.493585 
L 788.554983 365.566372 
L 788.738504 365.557482 
L 788.936141 365.581032 
L 789.091428 365.594477 
L 795.85346 365.476328 
L 796.051097 365.483702 
L 796.305203 365.436896 
L 796.559309 365.422403 
L 797.476912 365.393923 
L 797.843953 365.419816 
L 798.28158 365.41653 
L 798.4651 365.438234 
L 799.058013 365.434462 
L 799.156832 365.371603 
L 799.298002 365.43455 
L 799.49564 365.508197 
L 800.907337 365.433402 
L 802.799012 365.341287 
L 802.940182 365.327895 
L 803.137819 365.440166 
L 803.307223 365.411172 
L 803.886019 365.360127 
L 804.111891 365.391935 
L 804.380113 365.410668 
L 804.521283 365.444085 
L 804.690687 365.437358 
L 804.973026 365.464312 
L 805.495355 365.497719 
L 805.650641 365.487856 
L 805.947098 365.482451 
L 806.144735 365.45761 
L 806.328256 365.437302 
L 809.179885 365.547387 
L 809.39164 365.600484 
L 809.575161 365.507621 
L 809.786915 365.441032 
L 809.99867 365.493668 
L 810.196308 365.540598 
L 810.32336 365.605803 
L 810.337477 365.596555 
L 810.535115 365.586421 
L 811.339783 365.528164 
L 811.565654 365.556643 
L 811.862111 365.521564 
L 812.045631 365.540739 
L 812.299737 365.59662 
L 812.652661 365.390158 
L 812.75148 364.955515 
L 812.850299 364.457719 
L 812.89265 364.553401 
L 813.146756 365.483516 
L 813.160873 365.475482 
L 813.302042 365.484344 
L 813.556148 365.622133 
L 813.838487 365.617796 
L 813.96554 365.633211 
L 814.078476 365.589778 
L 814.205529 365.630113 
L 814.459634 365.749484 
L 816.139555 366.110519 
L 816.323075 366.179876 
L 816.690117 366.077613 
L 816.873637 366.114283 
L 817.071275 366.185372 
L 817.565369 366.463603 
L 818.087697 366.66593 
L 818.666493 367.198909 
L 818.737078 367.108019 
L 818.892365 366.28579 
L 818.991184 364.413169 
L 819.118236 357.104985 
L 819.344108 330.095801 
L 819.457044 255.920964 
L 819.555863 112.900692 
L 819.612331 168.661273 
L 819.809968 320.473029 
L 820.03584 345.946719 
L 820.261712 355.722173 
L 820.544051 359.359694 
L 820.939326 361.39524 
L 821.320485 362.365241 
L 821.447538 362.455678 
L 822.026334 363.186218 
L 823.056873 363.634816 
L 823.86154 363.887657 
L 824.157997 364.003252 
L 824.440337 364.062095 
L 824.60974 364.058598 
L 825.301472 364.208406 
L 825.414408 364.127891 
L 825.456759 364.189926 
L 825.795566 364.194854 
L 826.148491 364.134198 
L 826.247309 364.044098 
L 826.346128 363.650535 
L 826.444947 363.071116 
L 826.501415 363.23597 
L 826.769638 364.144101 
L 827.207264 364.396632 
L 827.983698 364.413875 
L 828.167218 364.440156 
L 828.421324 364.405637 
L 828.562494 364.38686 
L 828.816599 364.363403 
L 829.127173 364.376146 
L 829.762437 364.3737 
L 829.917723 364.408568 
L 830.185946 364.516307 
L 830.312999 364.520649 
L 830.468285 364.485769 
L 830.807093 364.453515 
L 830.934146 364.470183 
L 831.329421 364.493801 
L 831.498825 364.481803 
L 831.625877 364.450424 
L 831.908217 364.465246 
L 832.03527 364.549594 
L 832.077621 364.489468 
L 832.585832 364.566821 
L 832.854054 364.516991 
L 833.023458 364.477162 
L 833.517552 364.493901 
L 833.828126 364.520709 
L 834.265752 364.551239 
L 834.816314 364.564286 
L 835.169238 364.491496 
L 835.324525 364.490024 
L 835.804502 364.596688 
L 836.058608 364.590319 
L 837.738528 364.513706 
L 837.907932 364.509413 
L 838.218505 364.553621 
L 838.331441 364.572817 
L 838.486728 364.587516 
L 839.333746 364.533443 
L 839.531384 364.51102 
L 839.714905 364.438998 
L 841.126602 364.589483 
L 841.578346 364.533689 
L 841.874802 364.568685 
L 842.058323 364.547518 
L 842.411247 364.56868 
L 842.735938 364.52556 
L 843.554722 364.591762 
L 843.907647 364.6286 
L 844.204103 364.606182 
L 844.288805 364.556381 
L 844.331156 364.606995 
L 844.458209 364.604533 
L 844.698197 364.551053 
L 844.895835 364.548182 
L 845.178174 364.653175 
L 845.192291 364.630756 
L 845.347578 364.601688 
L 845.502865 364.616529 
L 847.25337 364.553989 
L 847.408657 364.629349 
L 848.961524 364.600823 
L 849.116811 364.575827 
L 849.413267 364.487145 
L 849.68149 364.599042 
L 849.907361 364.621102 
L 850.697912 364.519458 
L 850.937901 364.528504 
L 851.276708 364.638166 
L 851.615516 364.592001 
L 852.024908 364.581457 
L 852.081376 364.585756 
L 852.123727 364.544967 
L 852.801342 364.476908 
L 853.055447 364.546229 
L 853.253085 364.54335 
L 853.662477 364.577894 
L 854.043635 364.459921 
L 854.269507 364.477312 
L 854.495379 364.488405 
L 855.088292 364.639667 
L 855.300046 364.659941 
L 855.427099 364.586632 
L 855.582386 364.582118 
L 855.765907 364.565364 
L 856.231767 364.517598 
L 856.96585 364.627073 
L 857.107019 364.676447 
L 857.248189 364.650035 
L 857.530529 364.612395 
L 858.22226 364.542762 
L 858.462249 364.543349 
L 859.069279 364.549995 
L 859.549256 364.48357 
L 859.972765 364.510225 
L 860.368041 364.528244 
L 860.735082 364.598758 
L 860.918603 364.576753 
L 861.243293 364.52452 
L 861.624452 364.553866 
L 861.822089 364.552225 
L 862.640874 364.591464 
L 864.236092 364.580601 
L 864.377262 364.541289 
L 864.490198 364.532639 
L 864.504315 364.552555 
L 864.687836 364.588998 
L 865 364.489988 
L 865 364.489988 
" clip-path="url(#p5a30a4d2e7)" style="fill: none; stroke: #000000; stroke-width: 0.5; stroke-linecap: square"/>
   </g>
   <g id="patch_3">
    <path d="M 17.145 390.04 
L 17.145 24.72 
" style="fill: none; stroke: #000000; stroke-width: 0.8; stroke-linejoin: miter; stroke-linecap: square"/>
   </g>
   <g id="patch_4">
    <path d="M 853.2 390.04 
L 853.2 24.72 
" style="fill: none; stroke: #000000; stroke-width: 0.8; stroke-linejoin: miter; stroke-linecap: square"/>
   </g>
   <g id="patch_5">
    <path d="M 17.145 390.04 
L 853.2 390.04 
" style="fill: none; stroke: #000000; stroke-width: 0.8; stroke-linejoin: miter; stroke-linecap: square"/>
   </g>
   <g id="patch_6">
    <path d="M 17.145 24.72 
L 853.2 24.72 
" style="fill: none; stroke: #000000; stroke-width: 0.8; stroke-linejoin: miter; stroke-linecap: square"/>
   </g>
   <g id="text_10">
    <!-- 9.48 -->
    <g style="fill: #0000ff" transform="translate(279.452009 320.464003) rotate(-90) scale(0.07 -0.07)">
     <defs>
      <path id="DejaVuSans-Bold-39" d="M 641 103 
L 641 966 
Q 928 831 1190 764 
Q 1453 697 1709 697 
Q 2247 697 2547 995 
Q 2847 1294 2900 1881 
Q 2688 1725 2447 1647 
Q 2206 1569 1925 1569 
Q 1209 1569 770 1986 
Q 331 2403 331 3084 
Q 331 3838 820 4291 
Q 1309 4744 2131 4744 
Q 3044 4744 3544 4128 
Q 4044 3513 4044 2388 
Q 4044 1231 3459 570 
Q 2875 -91 1856 -91 
Q 1528 -91 1228 -42 
Q 928 6 641 103 
z
M 2125 2350 
Q 2441 2350 2600 2554 
Q 2759 2759 2759 3169 
Q 2759 3575 2600 3781 
Q 2441 3988 2125 3988 
Q 1809 3988 1650 3781 
Q 1491 3575 1491 3169 
Q 1491 2759 1650 2554 
Q 1809 2350 2125 2350 
z
" transform="scale(0.015625)"/>
      <path id="DejaVuSans-Bold-2e" d="M 653 1209 
L 1778 1209 
L 1778 0 
L 653 0 
L 653 1209 
z
" transform="scale(0.015625)"/>
      <path id="DejaVuSans-Bold-34" d="M 2356 3675 
L 1038 1722 
L 2356 1722 
L 2356 3675 
z
M 2156 4666 
L 3494 4666 
L 3494 1722 
L 4159 1722 
L 4159 850 
L 3494 850 
L 3494 0 
L 2356 0 
L 2356 850 
L 288 850 
L 288 1881 
L 2156 4666 
z
" transform="scale(0.015625)"/>
      <path id="DejaVuSans-Bold-38" d="M 2228 2088 
Q 1891 2088 1709 1903 
Q 1528 1719 1528 1375 
Q 1528 1031 1709 848 
Q 1891 666 2228 666 
Q 2563 666 2741 848 
Q 2919 1031 2919 1375 
Q 2919 1722 2741 1905 
Q 2563 2088 2228 2088 
z
M 1350 2484 
Q 925 2613 709 2878 
Q 494 3144 494 3541 
Q 494 4131 934 4440 
Q 1375 4750 2228 4750 
Q 3075 4750 3515 4442 
Q 3956 4134 3956 3541 
Q 3956 3144 3739 2878 
Q 3522 2613 3097 2484 
Q 3572 2353 3814 2058 
Q 4056 1763 4056 1313 
Q 4056 619 3595 264 
Q 3134 -91 2228 -91 
Q 1319 -91 855 264 
Q 391 619 391 1313 
Q 391 1763 633 2058 
Q 875 2353 1350 2484 
z
M 1631 3419 
Q 1631 3141 1786 2991 
Q 1941 2841 2228 2841 
Q 2509 2841 2662 2991 
Q 2816 3141 2816 3419 
Q 2816 3697 2662 3845 
Q 2509 3994 2228 3994 
Q 1941 3994 1786 3844 
Q 1631 3694 1631 3419 
z
" transform="scale(0.015625)"/>
     </defs>
     <use xlink:href="#DejaVuSans-Bold-39"/>
     <use xlink:href="#DejaVuSans-Bold-2e" transform="translate(69.580078 0)"/>
     <use xlink:href="#DejaVuSans-Bold-34" transform="translate(107.568359 0)"/>
     <use xlink:href="#DejaVuSans-Bold-38" transform="translate(177.148438 0)"/>
    </g>
   </g>
   <g id="text_11">
    <!-- 7.76 -->
    <g style="fill: #0000ff" transform="translate(378.962574 323.007653) rotate(-90) scale(0.07 -0.07)">
     <defs>
      <path id="DejaVuSans-Bold-37" d="M 428 4666 
L 3944 4666 
L 3944 3988 
L 2125 0 
L 953 0 
L 2675 3781 
L 428 3781 
L 428 4666 
z
" transform="scale(0.015625)"/>
      <path id="DejaVuSans-Bold-36" d="M 2316 2303 
Q 2000 2303 1842 2098 
Q 1684 1894 1684 1484 
Q 1684 1075 1842 870 
Q 2000 666 2316 666 
Q 2634 666 2792 870 
Q 2950 1075 2950 1484 
Q 2950 1894 2792 2098 
Q 2634 2303 2316 2303 
z
M 3803 4544 
L 3803 3681 
Q 3506 3822 3243 3889 
Q 2981 3956 2731 3956 
Q 2194 3956 1894 3657 
Q 1594 3359 1544 2772 
Q 1750 2925 1990 3001 
Q 2231 3078 2516 3078 
Q 3231 3078 3670 2659 
Q 4109 2241 4109 1563 
Q 4109 813 3618 361 
Q 3128 -91 2303 -91 
Q 1394 -91 895 523 
Q 397 1138 397 2266 
Q 397 3422 980 4083 
Q 1563 4744 2578 4744 
Q 2900 4744 3203 4694 
Q 3506 4644 3803 4544 
z
" transform="scale(0.015625)"/>
     </defs>
     <use xlink:href="#DejaVuSans-Bold-37"/>
     <use xlink:href="#DejaVuSans-Bold-2e" transform="translate(69.580078 0)"/>
     <use xlink:href="#DejaVuSans-Bold-37" transform="translate(107.568359 0)"/>
     <use xlink:href="#DejaVuSans-Bold-36" transform="translate(177.148438 0)"/>
    </g>
   </g>
   <g id="text_12">
    <!-- 7.74 -->
    <g style="fill: #0000ff" transform="translate(379.950762 320.583934) rotate(-90) scale(0.07 -0.07)">
     <use xlink:href="#DejaVuSans-Bold-37"/>
     <use xlink:href="#DejaVuSans-Bold-2e" transform="translate(69.580078 0)"/>
     <use xlink:href="#DejaVuSans-Bold-37" transform="translate(107.568359 0)"/>
     <use xlink:href="#DejaVuSans-Bold-34" transform="translate(177.148438 0)"/>
    </g>
   </g>
   <g id="text_13">
    <!-- 7.37 -->
    <g style="fill: #0000ff" transform="translate(401.549736 334.43584) rotate(-90) scale(0.07 -0.07)">
     <defs>
      <path id="DejaVuSans-Bold-33" d="M 2981 2516 
Q 3453 2394 3698 2092 
Q 3944 1791 3944 1325 
Q 3944 631 3412 270 
Q 2881 -91 1863 -91 
Q 1503 -91 1142 -33 
Q 781 25 428 141 
L 428 1069 
Q 766 900 1098 814 
Q 1431 728 1753 728 
Q 2231 728 2486 893 
Q 2741 1059 2741 1369 
Q 2741 1688 2480 1852 
Q 2219 2016 1709 2016 
L 1228 2016 
L 1228 2791 
L 1734 2791 
Q 2188 2791 2409 2933 
Q 2631 3075 2631 3366 
Q 2631 3634 2415 3781 
Q 2200 3928 1806 3928 
Q 1516 3928 1219 3862 
Q 922 3797 628 3669 
L 628 4550 
Q 984 4650 1334 4700 
Q 1684 4750 2022 4750 
Q 2931 4750 3382 4451 
Q 3834 4153 3834 3553 
Q 3834 3144 3618 2883 
Q 3403 2622 2981 2516 
z
" transform="scale(0.015625)"/>
     </defs>
     <use xlink:href="#DejaVuSans-Bold-37"/>
     <use xlink:href="#DejaVuSans-Bold-2e" transform="translate(69.580078 0)"/>
     <use xlink:href="#DejaVuSans-Bold-33" transform="translate(107.568359 0)"/>
     <use xlink:href="#DejaVuSans-Bold-37" transform="translate(177.148438 0)"/>
    </g>
   </g>
   <g id="text_14">
    <!-- 7.35 -->
    <g style="fill: #0000ff" transform="translate(402.580275 333.116984) rotate(-90) scale(0.07 -0.07)">
     <defs>
      <path id="DejaVuSans-Bold-35" d="M 678 4666 
L 3669 4666 
L 3669 3781 
L 1638 3781 
L 1638 3059 
Q 1775 3097 1914 3117 
Q 2053 3138 2203 3138 
Q 3056 3138 3531 2711 
Q 4006 2284 4006 1522 
Q 4006 766 3489 337 
Q 2972 -91 2053 -91 
Q 1656 -91 1267 -14 
Q 878 63 494 219 
L 494 1166 
Q 875 947 1217 837 
Q 1559 728 1863 728 
Q 2300 728 2551 942 
Q 2803 1156 2803 1522 
Q 2803 1891 2551 2103 
Q 2300 2316 1863 2316 
Q 1603 2316 1309 2248 
Q 1016 2181 678 2041 
L 678 4666 
z
" transform="scale(0.015625)"/>
     </defs>
     <use xlink:href="#DejaVuSans-Bold-37"/>
     <use xlink:href="#DejaVuSans-Bold-2e" transform="translate(69.580078 0)"/>
     <use xlink:href="#DejaVuSans-Bold-33" transform="translate(107.568359 0)"/>
     <use xlink:href="#DejaVuSans-Bold-35" transform="translate(177.148438 0)"/>
    </g>
   </g>
   <g id="text_15">
    <!-- 6.66 -->
    <g style="fill: #0000ff" transform="translate(442.263095 316.219519) rotate(-90) scale(0.07 -0.07)">
     <use xlink:href="#DejaVuSans-Bold-36"/>
     <use xlink:href="#DejaVuSans-Bold-2e" transform="translate(69.580078 0)"/>
     <use xlink:href="#DejaVuSans-Bold-36" transform="translate(107.568359 0)"/>
     <use xlink:href="#DejaVuSans-Bold-36" transform="translate(177.148438 0)"/>
    </g>
   </g>
   <g id="text_16">
    <!-- 6.64 -->
    <g style="fill: #0000ff" transform="translate(443.2654 315.977726) rotate(-90) scale(0.07 -0.07)">
     <use xlink:href="#DejaVuSans-Bold-36"/>
     <use xlink:href="#DejaVuSans-Bold-2e" transform="translate(69.580078 0)"/>
     <use xlink:href="#DejaVuSans-Bold-36" transform="translate(107.568359 0)"/>
     <use xlink:href="#DejaVuSans-Bold-34" transform="translate(177.148438 0)"/>
    </g>
   </g>
   <g id="text_17">
    <!-- 6.39 -->
    <g style="fill: #0000ff" transform="translate(458.088225 341.672969) rotate(-90) scale(0.07 -0.07)">
     <use xlink:href="#DejaVuSans-Bold-36"/>
     <use xlink:href="#DejaVuSans-Bold-2e" transform="translate(69.580078 0)"/>
     <use xlink:href="#DejaVuSans-Bold-33" transform="translate(107.568359 0)"/>
     <use xlink:href="#DejaVuSans-Bold-39" transform="translate(177.148438 0)"/>
    </g>
   </g>
   <g id="text_18">
    <!-- 6.38 -->
    <g style="fill: #0000ff" transform="translate(458.356448 340.7628) rotate(-90) scale(0.07 -0.07)">
     <use xlink:href="#DejaVuSans-Bold-36"/>
     <use xlink:href="#DejaVuSans-Bold-2e" transform="translate(69.580078 0)"/>
     <use xlink:href="#DejaVuSans-Bold-33" transform="translate(107.568359 0)"/>
     <use xlink:href="#DejaVuSans-Bold-38" transform="translate(177.148438 0)"/>
    </g>
   </g>
   <g id="text_19">
    <!-- 6.37 -->
    <g style="fill: #0000ff" transform="translate(459.118765 341.525765) rotate(-90) scale(0.07 -0.07)">
     <use xlink:href="#DejaVuSans-Bold-36"/>
     <use xlink:href="#DejaVuSans-Bold-2e" transform="translate(69.580078 0)"/>
     <use xlink:href="#DejaVuSans-Bold-33" transform="translate(107.568359 0)"/>
     <use xlink:href="#DejaVuSans-Bold-37" transform="translate(177.148438 0)"/>
    </g>
   </g>
   <g id="text_20">
    <!-- 6.36 -->
    <g style="fill: #0000ff" transform="translate(459.386987 340.839478) rotate(-90) scale(0.07 -0.07)">
     <use xlink:href="#DejaVuSans-Bold-36"/>
     <use xlink:href="#DejaVuSans-Bold-2e" transform="translate(69.580078 0)"/>
     <use xlink:href="#DejaVuSans-Bold-33" transform="translate(107.568359 0)"/>
     <use xlink:href="#DejaVuSans-Bold-36" transform="translate(177.148438 0)"/>
    </g>
   </g>
   <g id="text_21">
    <!-- 6.07 -->
    <g style="fill: #0000ff" transform="translate(476.341475 331.3957) rotate(-90) scale(0.07 -0.07)">
     <defs>
      <path id="DejaVuSans-Bold-30" d="M 2944 2338 
Q 2944 3213 2780 3570 
Q 2616 3928 2228 3928 
Q 1841 3928 1675 3570 
Q 1509 3213 1509 2338 
Q 1509 1453 1675 1090 
Q 1841 728 2228 728 
Q 2613 728 2778 1090 
Q 2944 1453 2944 2338 
z
M 4147 2328 
Q 4147 1169 3647 539 
Q 3147 -91 2228 -91 
Q 1306 -91 806 539 
Q 306 1169 306 2328 
Q 306 3491 806 4120 
Q 1306 4750 2228 4750 
Q 3147 4750 3647 4120 
Q 4147 3491 4147 2328 
z
" transform="scale(0.015625)"/>
     </defs>
     <use xlink:href="#DejaVuSans-Bold-36"/>
     <use xlink:href="#DejaVuSans-Bold-2e" transform="translate(69.580078 0)"/>
     <use xlink:href="#DejaVuSans-Bold-30" transform="translate(107.568359 0)"/>
     <use xlink:href="#DejaVuSans-Bold-37" transform="translate(177.148438 0)"/>
    </g>
   </g>
   <g id="text_22">
    <!-- 0.08 -->
    <g style="fill: #0000ff" transform="translate(821.487425 104.900692) rotate(-90) scale(0.07 -0.07)">
     <use xlink:href="#DejaVuSans-Bold-30"/>
     <use xlink:href="#DejaVuSans-Bold-2e" transform="translate(69.580078 0)"/>
     <use xlink:href="#DejaVuSans-Bold-30" transform="translate(107.568359 0)"/>
     <use xlink:href="#DejaVuSans-Bold-38" transform="translate(177.148438 0)"/>
    </g>
   </g>
   <g id="text_23">
    <!-- 4-Amino-benzoic_acid_2-diethylamino-ethyl_ester + 4-(Diethylamino)salicylaldehyde -->
    <g transform="translate(222.270938 18.72) scale(0.1 -0.1)">
     <defs>
      <path id="DejaVuSans-2d" d="M 313 2009 
L 1997 2009 
L 1997 1497 
L 313 1497 
L 313 2009 
z
" transform="scale(0.015625)"/>
      <path id="DejaVuSans-41" d="M 2188 4044 
L 1331 1722 
L 3047 1722 
L 2188 4044 
z
M 1831 4666 
L 2547 4666 
L 4325 0 
L 3669 0 
L 3244 1197 
L 1141 1197 
L 716 0 
L 50 0 
L 1831 4666 
z
" transform="scale(0.015625)"/>
      <path id="DejaVuSans-6d" d="M 3328 2828 
Q 3544 3216 3844 3400 
Q 4144 3584 4550 3584 
Q 5097 3584 5394 3201 
Q 5691 2819 5691 2113 
L 5691 0 
L 5113 0 
L 5113 2094 
Q 5113 2597 4934 2840 
Q 4756 3084 4391 3084 
Q 3944 3084 3684 2787 
Q 3425 2491 3425 1978 
L 3425 0 
L 2847 0 
L 2847 2094 
Q 2847 2600 2669 2842 
Q 2491 3084 2119 3084 
Q 1678 3084 1418 2786 
Q 1159 2488 1159 1978 
L 1159 0 
L 581 0 
L 581 3500 
L 1159 3500 
L 1159 2956 
Q 1356 3278 1631 3431 
Q 1906 3584 2284 3584 
Q 2666 3584 2933 3390 
Q 3200 3197 3328 2828 
z
" transform="scale(0.015625)"/>
      <path id="DejaVuSans-69" d="M 603 3500 
L 1178 3500 
L 1178 0 
L 603 0 
L 603 3500 
z
M 603 4863 
L 1178 4863 
L 1178 4134 
L 603 4134 
L 603 4863 
z
" transform="scale(0.015625)"/>
      <path id="DejaVuSans-6e" d="M 3513 2113 
L 3513 0 
L 2938 0 
L 2938 2094 
Q 2938 2591 2744 2837 
Q 2550 3084 2163 3084 
Q 1697 3084 1428 2787 
Q 1159 2491 1159 1978 
L 1159 0 
L 581 0 
L 581 3500 
L 1159 3500 
L 1159 2956 
Q 1366 3272 1645 3428 
Q 1925 3584 2291 3584 
Q 2894 3584 3203 3211 
Q 3513 2838 3513 2113 
z
" transform="scale(0.015625)"/>
      <path id="DejaVuSans-6f" d="M 1959 3097 
Q 1497 3097 1228 2736 
Q 959 2375 959 1747 
Q 959 1119 1226 758 
Q 1494 397 1959 397 
Q 2419 397 2687 759 
Q 2956 1122 2956 1747 
Q 2956 2369 2687 2733 
Q 2419 3097 1959 3097 
z
M 1959 3584 
Q 2709 3584 3137 3096 
Q 3566 2609 3566 1747 
Q 3566 888 3137 398 
Q 2709 -91 1959 -91 
Q 1206 -91 779 398 
Q 353 888 353 1747 
Q 353 2609 779 3096 
Q 1206 3584 1959 3584 
z
" transform="scale(0.015625)"/>
      <path id="DejaVuSans-62" d="M 3116 1747 
Q 3116 2381 2855 2742 
Q 2594 3103 2138 3103 
Q 1681 3103 1420 2742 
Q 1159 2381 1159 1747 
Q 1159 1113 1420 752 
Q 1681 391 2138 391 
Q 2594 391 2855 752 
Q 3116 1113 3116 1747 
z
M 1159 2969 
Q 1341 3281 1617 3432 
Q 1894 3584 2278 3584 
Q 2916 3584 3314 3078 
Q 3713 2572 3713 1747 
Q 3713 922 3314 415 
Q 2916 -91 2278 -91 
Q 1894 -91 1617 61 
Q 1341 213 1159 525 
L 1159 0 
L 581 0 
L 581 4863 
L 1159 4863 
L 1159 2969 
z
" transform="scale(0.015625)"/>
      <path id="DejaVuSans-65" d="M 3597 1894 
L 3597 1613 
L 953 1613 
Q 991 1019 1311 708 
Q 1631 397 2203 397 
Q 2534 397 2845 478 
Q 3156 559 3463 722 
L 3463 178 
Q 3153 47 2828 -22 
Q 2503 -91 2169 -91 
Q 1331 -91 842 396 
Q 353 884 353 1716 
Q 353 2575 817 3079 
Q 1281 3584 2069 3584 
Q 2775 3584 3186 3129 
Q 3597 2675 3597 1894 
z
M 3022 2063 
Q 3016 2534 2758 2815 
Q 2500 3097 2075 3097 
Q 1594 3097 1305 2825 
Q 1016 2553 972 2059 
L 3022 2063 
z
" transform="scale(0.015625)"/>
      <path id="DejaVuSans-7a" d="M 353 3500 
L 3084 3500 
L 3084 2975 
L 922 459 
L 3084 459 
L 3084 0 
L 275 0 
L 275 525 
L 2438 3041 
L 353 3041 
L 353 3500 
z
" transform="scale(0.015625)"/>
      <path id="DejaVuSans-63" d="M 3122 3366 
L 3122 2828 
Q 2878 2963 2633 3030 
Q 2388 3097 2138 3097 
Q 1578 3097 1268 2742 
Q 959 2388 959 1747 
Q 959 1106 1268 751 
Q 1578 397 2138 397 
Q 2388 397 2633 464 
Q 2878 531 3122 666 
L 3122 134 
Q 2881 22 2623 -34 
Q 2366 -91 2075 -91 
Q 1284 -91 818 406 
Q 353 903 353 1747 
Q 353 2603 823 3093 
Q 1294 3584 2113 3584 
Q 2378 3584 2631 3529 
Q 2884 3475 3122 3366 
z
" transform="scale(0.015625)"/>
      <path id="DejaVuSans-5f" d="M 3263 -1063 
L 3263 -1509 
L -63 -1509 
L -63 -1063 
L 3263 -1063 
z
" transform="scale(0.015625)"/>
      <path id="DejaVuSans-61" d="M 2194 1759 
Q 1497 1759 1228 1600 
Q 959 1441 959 1056 
Q 959 750 1161 570 
Q 1363 391 1709 391 
Q 2188 391 2477 730 
Q 2766 1069 2766 1631 
L 2766 1759 
L 2194 1759 
z
M 3341 1997 
L 3341 0 
L 2766 0 
L 2766 531 
Q 2569 213 2275 61 
Q 1981 -91 1556 -91 
Q 1019 -91 701 211 
Q 384 513 384 1019 
Q 384 1609 779 1909 
Q 1175 2209 1959 2209 
L 2766 2209 
L 2766 2266 
Q 2766 2663 2505 2880 
Q 2244 3097 1772 3097 
Q 1472 3097 1187 3025 
Q 903 2953 641 2809 
L 641 3341 
Q 956 3463 1253 3523 
Q 1550 3584 1831 3584 
Q 2591 3584 2966 3190 
Q 3341 2797 3341 1997 
z
" transform="scale(0.015625)"/>
      <path id="DejaVuSans-64" d="M 2906 2969 
L 2906 4863 
L 3481 4863 
L 3481 0 
L 2906 0 
L 2906 525 
Q 2725 213 2448 61 
Q 2172 -91 1784 -91 
Q 1150 -91 751 415 
Q 353 922 353 1747 
Q 353 2572 751 3078 
Q 1150 3584 1784 3584 
Q 2172 3584 2448 3432 
Q 2725 3281 2906 2969 
z
M 947 1747 
Q 947 1113 1208 752 
Q 1469 391 1925 391 
Q 2381 391 2643 752 
Q 2906 1113 2906 1747 
Q 2906 2381 2643 2742 
Q 2381 3103 1925 3103 
Q 1469 3103 1208 2742 
Q 947 2381 947 1747 
z
" transform="scale(0.015625)"/>
      <path id="DejaVuSans-74" d="M 1172 4494 
L 1172 3500 
L 2356 3500 
L 2356 3053 
L 1172 3053 
L 1172 1153 
Q 1172 725 1289 603 
Q 1406 481 1766 481 
L 2356 481 
L 2356 0 
L 1766 0 
Q 1100 0 847 248 
Q 594 497 594 1153 
L 594 3053 
L 172 3053 
L 172 3500 
L 594 3500 
L 594 4494 
L 1172 4494 
z
" transform="scale(0.015625)"/>
      <path id="DejaVuSans-68" d="M 3513 2113 
L 3513 0 
L 2938 0 
L 2938 2094 
Q 2938 2591 2744 2837 
Q 2550 3084 2163 3084 
Q 1697 3084 1428 2787 
Q 1159 2491 1159 1978 
L 1159 0 
L 581 0 
L 581 4863 
L 1159 4863 
L 1159 2956 
Q 1366 3272 1645 3428 
Q 1925 3584 2291 3584 
Q 2894 3584 3203 3211 
Q 3513 2838 3513 2113 
z
" transform="scale(0.015625)"/>
      <path id="DejaVuSans-79" d="M 2059 -325 
Q 1816 -950 1584 -1140 
Q 1353 -1331 966 -1331 
L 506 -1331 
L 506 -850 
L 844 -850 
Q 1081 -850 1212 -737 
Q 1344 -625 1503 -206 
L 1606 56 
L 191 3500 
L 800 3500 
L 1894 763 
L 2988 3500 
L 3597 3500 
L 2059 -325 
z
" transform="scale(0.015625)"/>
      <path id="DejaVuSans-6c" d="M 603 4863 
L 1178 4863 
L 1178 0 
L 603 0 
L 603 4863 
z
" transform="scale(0.015625)"/>
      <path id="DejaVuSans-73" d="M 2834 3397 
L 2834 2853 
Q 2591 2978 2328 3040 
Q 2066 3103 1784 3103 
Q 1356 3103 1142 2972 
Q 928 2841 928 2578 
Q 928 2378 1081 2264 
Q 1234 2150 1697 2047 
L 1894 2003 
Q 2506 1872 2764 1633 
Q 3022 1394 3022 966 
Q 3022 478 2636 193 
Q 2250 -91 1575 -91 
Q 1294 -91 989 -36 
Q 684 19 347 128 
L 347 722 
Q 666 556 975 473 
Q 1284 391 1588 391 
Q 1994 391 2212 530 
Q 2431 669 2431 922 
Q 2431 1156 2273 1281 
Q 2116 1406 1581 1522 
L 1381 1569 
Q 847 1681 609 1914 
Q 372 2147 372 2553 
Q 372 3047 722 3315 
Q 1072 3584 1716 3584 
Q 2034 3584 2315 3537 
Q 2597 3491 2834 3397 
z
" transform="scale(0.015625)"/>
      <path id="DejaVuSans-72" d="M 2631 2963 
Q 2534 3019 2420 3045 
Q 2306 3072 2169 3072 
Q 1681 3072 1420 2755 
Q 1159 2438 1159 1844 
L 1159 0 
L 581 0 
L 581 3500 
L 1159 3500 
L 1159 2956 
Q 1341 3275 1631 3429 
Q 1922 3584 2338 3584 
Q 2397 3584 2469 3576 
Q 2541 3569 2628 3553 
L 2631 2963 
z
" transform="scale(0.015625)"/>
      <path id="DejaVuSans-20" transform="scale(0.015625)"/>
      <path id="DejaVuSans-2b" d="M 2944 4013 
L 2944 2272 
L 4684 2272 
L 4684 1741 
L 2944 1741 
L 2944 0 
L 2419 0 
L 2419 1741 
L 678 1741 
L 678 2272 
L 2419 2272 
L 2419 4013 
L 2944 4013 
z
" transform="scale(0.015625)"/>
      <path id="DejaVuSans-28" d="M 1984 4856 
Q 1566 4138 1362 3434 
Q 1159 2731 1159 2009 
Q 1159 1288 1364 580 
Q 1569 -128 1984 -844 
L 1484 -844 
Q 1016 -109 783 600 
Q 550 1309 550 2009 
Q 550 2706 781 3412 
Q 1013 4119 1484 4856 
L 1984 4856 
z
" transform="scale(0.015625)"/>
      <path id="DejaVuSans-44" d="M 1259 4147 
L 1259 519 
L 2022 519 
Q 2988 519 3436 956 
Q 3884 1394 3884 2338 
Q 3884 3275 3436 3711 
Q 2988 4147 2022 4147 
L 1259 4147 
z
M 628 4666 
L 1925 4666 
Q 3281 4666 3915 4102 
Q 4550 3538 4550 2338 
Q 4550 1131 3912 565 
Q 3275 0 1925 0 
L 628 0 
L 628 4666 
z
" transform="scale(0.015625)"/>
      <path id="DejaVuSans-29" d="M 513 4856 
L 1013 4856 
Q 1481 4119 1714 3412 
Q 1947 2706 1947 2009 
Q 1947 1309 1714 600 
Q 1481 -109 1013 -844 
L 513 -844 
Q 928 -128 1133 580 
Q 1338 1288 1338 2009 
Q 1338 2731 1133 3434 
Q 928 4138 513 4856 
z
" transform="scale(0.015625)"/>
     </defs>
     <use xlink:href="#DejaVuSans-34"/>
     <use xlink:href="#DejaVuSans-2d" transform="translate(63.623047 0)"/>
     <use xlink:href="#DejaVuSans-41" transform="translate(97.457031 0)"/>
     <use xlink:href="#DejaVuSans-6d" transform="translate(165.865234 0)"/>
     <use xlink:href="#DejaVuSans-69" transform="translate(263.277344 0)"/>
     <use xlink:href="#DejaVuSans-6e" transform="translate(291.060547 0)"/>
     <use xlink:href="#DejaVuSans-6f" transform="translate(354.439453 0)"/>
     <use xlink:href="#DejaVuSans-2d" transform="translate(417.496094 0)"/>
     <use xlink:href="#DejaVuSans-62" transform="translate(453.580078 0)"/>
     <use xlink:href="#DejaVuSans-65" transform="translate(517.056641 0)"/>
     <use xlink:href="#DejaVuSans-6e" transform="translate(578.580078 0)"/>
     <use xlink:href="#DejaVuSans-7a" transform="translate(641.958984 0)"/>
     <use xlink:href="#DejaVuSans-6f" transform="translate(694.449219 0)"/>
     <use xlink:href="#DejaVuSans-69" transform="translate(755.630859 0)"/>
     <use xlink:href="#DejaVuSans-63" transform="translate(783.414062 0)"/>
     <use xlink:href="#DejaVuSans-5f" transform="translate(838.394531 0)"/>
     <use xlink:href="#DejaVuSans-61" transform="translate(888.394531 0)"/>
     <use xlink:href="#DejaVuSans-63" transform="translate(949.673828 0)"/>
     <use xlink:href="#DejaVuSans-69" transform="translate(1004.654297 0)"/>
     <use xlink:href="#DejaVuSans-64" transform="translate(1032.4375 0)"/>
     <use xlink:href="#DejaVuSans-5f" transform="translate(1095.914062 0)"/>
     <use xlink:href="#DejaVuSans-32" transform="translate(1145.914062 0)"/>
     <use xlink:href="#DejaVuSans-2d" transform="translate(1209.537109 0)"/>
     <use xlink:href="#DejaVuSans-64" transform="translate(1245.621094 0)"/>
     <use xlink:href="#DejaVuSans-69" transform="translate(1309.097656 0)"/>
     <use xlink:href="#DejaVuSans-65" transform="translate(1336.880859 0)"/>
     <use xlink:href="#DejaVuSans-74" transform="translate(1398.404297 0)"/>
     <use xlink:href="#DejaVuSans-68" transform="translate(1437.613281 0)"/>
     <use xlink:href="#DejaVuSans-79" transform="translate(1500.992188 0)"/>
     <use xlink:href="#DejaVuSans-6c" transform="translate(1560.171875 0)"/>
     <use xlink:href="#DejaVuSans-61" transform="translate(1587.955078 0)"/>
     <use xlink:href="#DejaVuSans-6d" transform="translate(1649.234375 0)"/>
     <use xlink:href="#DejaVuSans-69" transform="translate(1746.646484 0)"/>
     <use xlink:href="#DejaVuSans-6e" transform="translate(1774.429688 0)"/>
     <use xlink:href="#DejaVuSans-6f" transform="translate(1837.808594 0)"/>
     <use xlink:href="#DejaVuSans-2d" transform="translate(1900.865234 0)"/>
     <use xlink:href="#DejaVuSans-65" transform="translate(1936.949219 0)"/>
     <use xlink:href="#DejaVuSans-74" transform="translate(1998.472656 0)"/>
     <use xlink:href="#DejaVuSans-68" transform="translate(2037.681641 0)"/>
     <use xlink:href="#DejaVuSans-79" transform="translate(2101.060547 0)"/>
     <use xlink:href="#DejaVuSans-6c" transform="translate(2160.240234 0)"/>
     <use xlink:href="#DejaVuSans-5f" transform="translate(2188.023438 0)"/>
     <use xlink:href="#DejaVuSans-65" transform="translate(2238.023438 0)"/>
     <use xlink:href="#DejaVuSans-73" transform="translate(2299.546875 0)"/>
     <use xlink:href="#DejaVuSans-74" transform="translate(2351.646484 0)"/>
     <use xlink:href="#DejaVuSans-65" transform="translate(2390.855469 0)"/>
     <use xlink:href="#DejaVuSans-72" transform="translate(2452.378906 0)"/>
     <use xlink:href="#DejaVuSans-20" transform="translate(2493.492188 0)"/>
     <use xlink:href="#DejaVuSans-2b" transform="translate(2525.279297 0)"/>
     <use xlink:href="#DejaVuSans-20" transform="translate(2609.068359 0)"/>
     <use xlink:href="#DejaVuSans-34" transform="translate(2640.855469 0)"/>
     <use xlink:href="#DejaVuSans-2d" transform="translate(2704.478516 0)"/>
     <use xlink:href="#DejaVuSans-28" transform="translate(2740.5625 0)"/>
     <use xlink:href="#DejaVuSans-44" transform="translate(2779.576172 0)"/>
     <use xlink:href="#DejaVuSans-69" transform="translate(2856.578125 0)"/>
     <use xlink:href="#DejaVuSans-65" transform="translate(2884.361328 0)"/>
     <use xlink:href="#DejaVuSans-74" transform="translate(2945.884766 0)"/>
     <use xlink:href="#DejaVuSans-68" transform="translate(2985.09375 0)"/>
     <use xlink:href="#DejaVuSans-79" transform="translate(3048.472656 0)"/>
     <use xlink:href="#DejaVuSans-6c" transform="translate(3107.652344 0)"/>
     <use xlink:href="#DejaVuSans-61" transform="translate(3135.435547 0)"/>
     <use xlink:href="#DejaVuSans-6d" transform="translate(3196.714844 0)"/>
     <use xlink:href="#DejaVuSans-69" transform="translate(3294.126953 0)"/>
     <use xlink:href="#DejaVuSans-6e" transform="translate(3321.910156 0)"/>
     <use xlink:href="#DejaVuSans-6f" transform="translate(3385.289062 0)"/>
     <use xlink:href="#DejaVuSans-29" transform="translate(3446.470703 0)"/>
     <use xlink:href="#DejaVuSans-73" transform="translate(3485.484375 0)"/>
     <use xlink:href="#DejaVuSans-61" transform="translate(3537.583984 0)"/>
     <use xlink:href="#DejaVuSans-6c" transform="translate(3598.863281 0)"/>
     <use xlink:href="#DejaVuSans-69" transform="translate(3626.646484 0)"/>
     <use xlink:href="#DejaVuSans-63" transform="translate(3654.429688 0)"/>
     <use xlink:href="#DejaVuSans-79" transform="translate(3709.410156 0)"/>
     <use xlink:href="#DejaVuSans-6c" transform="translate(3768.589844 0)"/>
     <use xlink:href="#DejaVuSans-61" transform="translate(3796.373047 0)"/>
     <use xlink:href="#DejaVuSans-6c" transform="translate(3857.652344 0)"/>
     <use xlink:href="#DejaVuSans-64" transform="translate(3885.435547 0)"/>
     <use xlink:href="#DejaVuSans-65" transform="translate(3948.912109 0)"/>
     <use xlink:href="#DejaVuSans-68" transform="translate(4010.435547 0)"/>
     <use xlink:href="#DejaVuSans-79" transform="translate(4073.814453 0)"/>
     <use xlink:href="#DejaVuSans-64" transform="translate(4132.994141 0)"/>
     <use xlink:href="#DejaVuSans-65" transform="translate(4196.470703 0)"/>
    </g>
   </g>
  </g>
 </g>
 <defs>
  <clipPath id="p5a30a4d2e7">
   <rect x="17.145" y="24.72" width="836.055" height="365.32"/>
  </clipPath>
 </defs>
</svg>
